<svg width="734" height="410" viewBox="0 0 734 410" fill="none" xmlns="http://www.w3.org/2000/svg">
<path d="M188.462 69.2483C178.913 69.2483 18.2779 70.3435 8.19165 69.9821C8.0217 69.9813 7.85669 69.9248 7.72187 69.8214C7.58705 69.7179 7.48984 69.5731 7.44512 69.4091C7.40041 69.2452 7.41064 69.0711 7.47426 68.9135C7.53788 68.7559 7.65138 68.6235 7.7974 68.5365C14.1601 65.3935 21.3771 66.0177 27.9917 63.7946C31.8795 62.4804 34.2669 59.9397 36.9718 57.0157C39.2063 54.4633 42.0956 52.5699 45.3277 51.54C48.2826 50.6457 51.42 50.54 54.4283 51.2333C57.7137 52.0109 60.5173 53.8726 63.6275 55.0554C71.3482 57.9684 78.8389 55.1977 84.3475 49.4921C88.8923 44.783 93.3604 40.3367 99.537 37.807C104.717 35.6824 110.488 35.2443 115.636 37.5879C121.527 40.2491 125.568 45.6262 131.099 48.8459C137.67 52.6899 145.511 51.7809 152.75 52.9308C159.989 54.0807 165.563 60.1916 171.915 63.7069C173.983 65.054 176.38 65.8113 178.847 65.8972C180.261 65.7715 181.669 65.5742 183.063 65.3058C185.253 65.0321 187.334 65.0978 188.802 66.9157C189.163 67.3647 189.086 69.2483 188.462 69.2483Z" fill="#EBEBEB"/>
<path d="M733.588 80.4733C726.623 80.4733 609.345 81.2399 601.975 81.0099C601.449 81.0099 601.164 80.2105 601.69 79.9148C606.334 77.615 611.601 78.075 616.431 76.4542C619.278 75.4904 621.019 73.6397 623.002 71.5041C624.634 69.6468 626.743 68.2719 629.101 67.5288C631.26 66.875 633.553 66.8033 635.749 67.3207C638.125 67.8792 640.195 69.2482 642.462 70.1024C648.091 72.2269 653.567 70.2119 657.597 66.0394C660.882 62.6007 664.168 59.3591 668.68 57.5083C670.523 56.6778 672.517 56.2347 674.538 56.2065C676.559 56.1782 678.565 56.5654 680.431 57.344C684.734 59.2934 687.68 63.214 691.721 65.5795C696.518 68.3721 702.246 67.7697 707.535 68.5582C712.825 69.3467 716.888 73.8587 721.52 76.4213C723.034 77.3906 724.783 77.9318 726.58 77.9874C727.616 77.8958 728.647 77.7496 729.668 77.5493C731.256 77.3522 732.778 77.4069 733.851 78.7321C734.103 79.0934 734.048 80.4733 733.588 80.4733Z" fill="#EBEBEB"/>
<path d="M352.152 106.549C345.187 106.549 227.909 107.315 220.539 107.085C220.013 107.085 219.728 106.286 220.254 105.99C224.898 103.69 230.11 104.161 234.995 102.529C237.842 101.577 239.583 99.7149 241.565 97.5794C243.199 95.7242 245.308 94.3497 247.665 93.6041C249.824 92.9503 252.117 92.8785 254.313 93.396C256.689 93.9545 258.759 95.3234 261.026 96.1776C266.666 98.3022 272.142 96.2872 276.161 92.1147C279.446 88.6869 282.732 85.4344 287.255 83.5836C289.096 82.7526 291.089 82.31 293.109 82.2837C295.128 82.2573 297.132 82.6476 298.994 83.4303C303.298 85.3796 306.255 89.2892 310.296 91.6547C315.082 94.4473 320.81 93.7903 326.099 94.6335C331.389 95.4768 335.452 99.934 340.095 102.497C341.608 103.467 343.357 104.009 345.155 104.063C346.184 104.063 347.202 103.756 348.232 103.636C349.831 103.438 351.342 103.482 352.415 104.807C352.667 105.169 352.612 106.549 352.152 106.549Z" fill="#EBEBEB"/>
<path d="M485.419 154.351C478.454 154.351 361.176 155.118 353.806 154.888C353.28 154.888 352.995 154.089 353.521 153.793C358.164 151.493 363.432 151.953 368.262 150.321C371.098 149.368 372.85 147.507 374.832 145.382C376.46 143.518 378.571 142.138 380.932 141.396C383.091 140.742 385.384 140.67 387.58 141.188C389.956 141.757 392.026 143.115 394.293 143.969C399.922 146.105 405.398 144.079 409.428 139.907C412.713 136.479 415.999 133.237 420.511 131.386C422.353 130.553 424.347 130.109 426.369 130.081C428.391 130.052 430.396 130.441 432.261 131.222C436.565 133.171 439.511 137.092 443.552 139.447C448.349 142.239 454.076 141.582 459.366 142.425C464.655 143.269 468.718 147.726 473.351 150.288C474.86 151.267 476.612 151.809 478.41 151.854C479.506 151.854 480.469 151.548 481.499 151.427C483.087 151.23 484.609 151.274 485.682 152.599C485.934 152.971 485.879 154.351 485.419 154.351Z" fill="#EBEBEB"/>
<path d="M586.96 28.7063C586.829 29.1005 402.123 28.7063 404.456 28.7063C405.551 28.7063 402.835 27.1183 403.875 26.6146C409.888 23.6248 416.47 23.5372 423.018 22.9349C426.84 22.5954 430.761 22.0369 434.2 20.2299C437.639 18.423 439.851 15.2361 442.326 12.3121C446.135 7.80483 451.029 4.34255 456.548 2.25205C462.066 0.161558 468.026 -0.488188 473.866 0.364147C487.007 2.423 497.345 12.4106 510.509 14.2724C518.405 15.3675 525.841 12.3121 533.605 11.2389C539.968 10.3518 545.258 11.5893 550.952 14.4147C555.114 16.4736 558.969 18.2149 563.678 18.5434C567.292 18.7953 570.928 18.3791 574.553 18.3463C580.487 18.4553 586.178 20.7299 590.553 24.7419C591.133 25.2566 593.017 28.7063 586.96 28.7063Z" fill="#EBEBEB"/>
<path d="M594.834 42.713H533.583V363.774H594.834V42.713Z" fill="#DBDBDB"/>
<path d="M554.994 53.1389H543.089V65.3934H554.994V53.1389Z" fill="#EBEBEB"/>
<path d="M570.227 53.1389H558.323V65.3934H570.227V53.1389Z" fill="#EBEBEB"/>
<path d="M554.994 73.9572H543.089V86.2118H554.994V73.9572Z" fill="#EBEBEB"/>
<path d="M570.227 73.9572H558.323V86.2118H570.227V73.9572Z" fill="#EBEBEB"/>
<path d="M554.994 94.7648H543.089V107.019H554.994V94.7648Z" fill="#EBEBEB"/>
<path d="M570.227 94.7648H558.323V107.019H570.227V94.7648Z" fill="#EBEBEB"/>
<path d="M554.994 115.583H543.089V127.838H554.994V115.583Z" fill="#EBEBEB"/>
<path d="M570.227 115.583H558.323V127.838H570.227V115.583Z" fill="#EBEBEB"/>
<path d="M554.994 136.391H543.089V148.646H554.994V136.391Z" fill="#EBEBEB"/>
<path d="M570.227 136.391H558.323V148.646H570.227V136.391Z" fill="#EBEBEB"/>
<path d="M554.994 157.21H543.089V169.464H554.994V157.21Z" fill="#EBEBEB"/>
<path d="M570.227 157.21H558.323V169.464H570.227V157.21Z" fill="#EBEBEB"/>
<path d="M554.994 178.017H543.089V190.272H554.994V178.017Z" fill="#EBEBEB"/>
<path d="M570.227 178.017H558.323V190.272H570.227V178.017Z" fill="#EBEBEB"/>
<path d="M554.994 198.836H543.089V211.09H554.994V198.836Z" fill="#EBEBEB"/>
<path d="M570.227 198.836H558.323V211.09H570.227V198.836Z" fill="#EBEBEB"/>
<path d="M554.994 219.643H543.089V231.898H554.994V219.643Z" fill="#EBEBEB"/>
<path d="M570.227 219.643H558.323V231.898H570.227V219.643Z" fill="#EBEBEB"/>
<path d="M554.994 240.462H543.089V252.717H554.994V240.462Z" fill="#EBEBEB"/>
<path d="M570.227 240.462H558.323V252.717H570.227V240.462Z" fill="#EBEBEB"/>
<path d="M554.994 261.27H543.089V273.524H554.994V261.27Z" fill="#EBEBEB"/>
<path d="M570.227 261.27H558.323V273.524H570.227V261.27Z" fill="#EBEBEB"/>
<path d="M554.994 282.088H543.089V294.343H554.994V282.088Z" fill="#EBEBEB"/>
<path d="M570.227 282.088H558.323V294.343H570.227V282.088Z" fill="#EBEBEB"/>
<path d="M554.994 302.896H543.089V315.15H554.994V302.896Z" fill="#EBEBEB"/>
<path d="M570.227 302.896H558.323V315.15H570.227V302.896Z" fill="#EBEBEB"/>
<path d="M554.994 323.714H543.089V335.969H554.994V323.714Z" fill="#EBEBEB"/>
<path d="M573.425 335.969H585.329V323.714H573.425V335.969Z" fill="#EBEBEB"/>
<path d="M573.425 315.161H585.329V302.907H573.425V315.161Z" fill="#EBEBEB"/>
<path d="M573.425 294.343H585.329V282.088H573.425V294.343Z" fill="#EBEBEB"/>
<path d="M573.425 273.535H585.329V261.28H573.425V273.535Z" fill="#EBEBEB"/>
<path d="M573.425 252.717H585.329V240.462H573.425V252.717Z" fill="#EBEBEB"/>
<path d="M573.425 231.909H585.329V219.654H573.425V231.909Z" fill="#EBEBEB"/>
<path d="M573.425 211.09H585.329V198.836H573.425V211.09Z" fill="#EBEBEB"/>
<path d="M573.425 190.283H585.329V178.028H573.425V190.283Z" fill="#EBEBEB"/>
<path d="M573.425 169.464H585.329V157.21H573.425V169.464Z" fill="#EBEBEB"/>
<path d="M573.425 148.657H585.329V136.402H573.425V148.657Z" fill="#EBEBEB"/>
<path d="M573.425 127.838H585.329V115.583H573.425V127.838Z" fill="#EBEBEB"/>
<path d="M573.425 107.03H585.329V94.7758H573.425V107.03Z" fill="#EBEBEB"/>
<path d="M573.425 86.2118H585.329V73.9572H573.425V86.2118Z" fill="#EBEBEB"/>
<path d="M573.425 65.4042H585.329V53.1497H573.425V65.4042Z" fill="#EBEBEB"/>
<path d="M570.227 323.714H558.323V335.969H570.227V323.714Z" fill="#EBEBEB"/>
<path d="M643.13 42.713H594.834V363.774H643.13V42.713Z" fill="#A6A6A6"/>
<path d="M628.324 335.969H638.158V323.714H628.324V335.969Z" fill="#C7C7C7"/>
<path d="M615.741 335.969H625.575V323.714H615.741V335.969Z" fill="#C7C7C7"/>
<path d="M628.324 315.161H638.158V302.907H628.324V315.161Z" fill="#C7C7C7"/>
<path d="M615.741 315.161H625.575V302.907H615.741V315.161Z" fill="#C7C7C7"/>
<path d="M628.324 294.343H638.158V282.088H628.324V294.343Z" fill="#C7C7C7"/>
<path d="M615.741 294.343H625.575V282.088H615.741V294.343Z" fill="#C7C7C7"/>
<path d="M628.324 273.535H638.158V261.28H628.324V273.535Z" fill="#C7C7C7"/>
<path d="M615.741 273.535H625.575V261.28H615.741V273.535Z" fill="#C7C7C7"/>
<path d="M628.324 252.717H638.158V240.462H628.324V252.717Z" fill="#C7C7C7"/>
<path d="M615.741 252.717H625.575V240.462H615.741V252.717Z" fill="#C7C7C7"/>
<path d="M628.324 231.909H638.158V219.654H628.324V231.909Z" fill="#C7C7C7"/>
<path d="M615.741 231.909H625.575V219.654H615.741V231.909Z" fill="#C7C7C7"/>
<path d="M628.324 211.09H638.158V198.836H628.324V211.09Z" fill="#C7C7C7"/>
<path d="M615.741 211.09H625.575V198.836H615.741V211.09Z" fill="#C7C7C7"/>
<path d="M628.324 190.283H638.158V178.028H628.324V190.283Z" fill="#C7C7C7"/>
<path d="M615.741 190.283H625.575V178.028H615.741V190.283Z" fill="#C7C7C7"/>
<path d="M628.324 169.464H638.158V157.21H628.324V169.464Z" fill="#C7C7C7"/>
<path d="M615.741 169.464H625.575V157.21H615.741V169.464Z" fill="#C7C7C7"/>
<path d="M628.324 148.657H638.158V136.402H628.324V148.657Z" fill="#C7C7C7"/>
<path d="M615.741 148.657H625.575V136.402H615.741V148.657Z" fill="#C7C7C7"/>
<path d="M628.324 127.838H638.158V115.583H628.324V127.838Z" fill="#C7C7C7"/>
<path d="M615.741 127.838H625.575V115.583H615.741V127.838Z" fill="#C7C7C7"/>
<path d="M628.324 107.03H638.158V94.7758H628.324V107.03Z" fill="#C7C7C7"/>
<path d="M615.741 107.03H625.575V94.7758H615.741V107.03Z" fill="#C7C7C7"/>
<path d="M628.324 86.2118H638.158V73.9572H628.324V86.2118Z" fill="#C7C7C7"/>
<path d="M615.741 86.2118H625.575V73.9572H615.741V86.2118Z" fill="#C7C7C7"/>
<path d="M628.324 65.4042H638.158V53.1497H628.324V65.4042Z" fill="#C7C7C7"/>
<path d="M613.101 53.1389H603.267V65.3934H613.101V53.1389Z" fill="#C7C7C7"/>
<path d="M613.101 73.9572H603.267V86.2118H613.101V73.9572Z" fill="#C7C7C7"/>
<path d="M613.101 94.7648H603.267V107.019H613.101V94.7648Z" fill="#C7C7C7"/>
<path d="M613.101 115.583H603.267V127.838H613.101V115.583Z" fill="#C7C7C7"/>
<path d="M613.101 136.391H603.267V148.646H613.101V136.391Z" fill="#C7C7C7"/>
<path d="M613.101 157.21H603.267V169.464H613.101V157.21Z" fill="#C7C7C7"/>
<path d="M613.101 178.017H603.267V190.272H613.101V178.017Z" fill="#C7C7C7"/>
<path d="M613.101 198.836H603.267V211.09H613.101V198.836Z" fill="#C7C7C7"/>
<path d="M613.101 219.643H603.267V231.898H613.101V219.643Z" fill="#C7C7C7"/>
<path d="M613.101 240.462H603.267V252.717H613.101V240.462Z" fill="#C7C7C7"/>
<path d="M613.101 261.27H603.267V273.524H613.101V261.27Z" fill="#C7C7C7"/>
<path d="M613.101 282.088H603.267V294.343H613.101V282.088Z" fill="#C7C7C7"/>
<path d="M613.101 302.896H603.267V315.15H613.101V302.896Z" fill="#C7C7C7"/>
<path d="M613.101 323.714H603.267V335.969H613.101V323.714Z" fill="#C7C7C7"/>
<path d="M615.741 65.4042H625.575V53.1497H615.741V65.4042Z" fill="#C7C7C7"/>
<path d="M161.763 17.8096H88.0271V363.774H161.763V17.8096Z" fill="#EBEBEB"/>
<path d="M161.763 10.9213H86.2529V17.8097H161.763V10.9213Z" fill="#C7C7C7"/>
<path d="M102.165 27.9616H94.6965V363.774H102.165V27.9616Z" fill="white"/>
<path d="M115.395 27.9616H107.926V363.774H115.395V27.9616Z" fill="white"/>
<path d="M128.624 27.9616H121.155V363.774H128.624V27.9616Z" fill="white"/>
<path d="M141.864 27.9616H134.395V363.774H141.864V27.9616Z" fill="white"/>
<path d="M155.093 27.9616H147.625V363.774H155.093V27.9616Z" fill="white"/>
<path d="M102.165 36.6679H94.6965V50.2695H102.165V36.6679Z" fill="#EBEBEB"/>
<path d="M115.395 36.6679H107.926V50.2695H115.395V36.6679Z" fill="#EBEBEB"/>
<path d="M128.624 36.6679H121.155V50.2695H128.624V36.6679Z" fill="#EBEBEB"/>
<path d="M141.864 36.6679H134.395V50.2695H141.864V36.6679Z" fill="#EBEBEB"/>
<path d="M155.093 36.6679H147.625V50.2695H155.093V36.6679Z" fill="#EBEBEB"/>
<path d="M102.165 58.7676H94.6965V72.3692H102.165V58.7676Z" fill="#EBEBEB"/>
<path d="M115.395 58.7676H107.926V72.3692H115.395V58.7676Z" fill="#EBEBEB"/>
<path d="M128.624 58.7676H121.155V72.3692H128.624V58.7676Z" fill="#EBEBEB"/>
<path d="M141.864 58.7676H134.395V72.3692H141.864V58.7676Z" fill="#EBEBEB"/>
<path d="M155.093 58.7676H147.625V72.3692H155.093V58.7676Z" fill="#EBEBEB"/>
<path d="M102.165 80.8675H94.6965V94.4691H102.165V80.8675Z" fill="#EBEBEB"/>
<path d="M115.395 80.8675H107.926V94.4691H115.395V80.8675Z" fill="#EBEBEB"/>
<path d="M128.624 80.8675H121.155V94.4691H128.624V80.8675Z" fill="#EBEBEB"/>
<path d="M141.864 80.8675H134.395V94.4691H141.864V80.8675Z" fill="#EBEBEB"/>
<path d="M155.093 80.8675H147.625V94.4691H155.093V80.8675Z" fill="#EBEBEB"/>
<path d="M102.165 102.979H94.6965V116.58H102.165V102.979Z" fill="#EBEBEB"/>
<path d="M115.395 102.979H107.926V116.58H115.395V102.979Z" fill="#EBEBEB"/>
<path d="M128.624 102.979H121.155V116.58H128.624V102.979Z" fill="#EBEBEB"/>
<path d="M141.864 102.979H134.395V116.58H141.864V102.979Z" fill="#EBEBEB"/>
<path d="M155.093 102.979H147.625V116.58H155.093V102.979Z" fill="#EBEBEB"/>
<path d="M102.165 125.078H94.6965V138.68H102.165V125.078Z" fill="#EBEBEB"/>
<path d="M115.395 125.078H107.926V138.68H115.395V125.078Z" fill="#EBEBEB"/>
<path d="M128.624 125.078H121.155V138.68H128.624V125.078Z" fill="#EBEBEB"/>
<path d="M141.864 125.078H134.395V138.68H141.864V125.078Z" fill="#EBEBEB"/>
<path d="M155.093 125.078H147.625V138.68H155.093V125.078Z" fill="#EBEBEB"/>
<path d="M102.165 147.178H94.6965V160.78H102.165V147.178Z" fill="#EBEBEB"/>
<path d="M115.395 147.178H107.926V160.78H115.395V147.178Z" fill="#EBEBEB"/>
<path d="M128.624 147.178H121.155V160.78H128.624V147.178Z" fill="#EBEBEB"/>
<path d="M141.864 147.178H134.395V160.78H141.864V147.178Z" fill="#EBEBEB"/>
<path d="M155.093 147.178H147.625V160.78H155.093V147.178Z" fill="#EBEBEB"/>
<path d="M102.165 169.278H94.6965V182.88H102.165V169.278Z" fill="#EBEBEB"/>
<path d="M115.395 169.278H107.926V182.88H115.395V169.278Z" fill="#EBEBEB"/>
<path d="M128.624 169.278H121.155V182.88H128.624V169.278Z" fill="#EBEBEB"/>
<path d="M141.864 169.278H134.395V182.88H141.864V169.278Z" fill="#EBEBEB"/>
<path d="M155.093 169.278H147.625V182.88H155.093V169.278Z" fill="#EBEBEB"/>
<path d="M102.165 191.389H94.6965V204.99H102.165V191.389Z" fill="#EBEBEB"/>
<path d="M115.395 191.389H107.926V204.99H115.395V191.389Z" fill="#EBEBEB"/>
<path d="M128.624 191.389H121.155V204.99H128.624V191.389Z" fill="#EBEBEB"/>
<path d="M141.864 191.389H134.395V204.99H141.864V191.389Z" fill="#EBEBEB"/>
<path d="M155.093 191.389H147.625V204.99H155.093V191.389Z" fill="#EBEBEB"/>
<path d="M102.165 213.489H94.6965V227.09H102.165V213.489Z" fill="#EBEBEB"/>
<path d="M115.395 213.489H107.926V227.09H115.395V213.489Z" fill="#EBEBEB"/>
<path d="M128.624 213.489H121.155V227.09H128.624V213.489Z" fill="#EBEBEB"/>
<path d="M141.864 213.489H134.395V227.09H141.864V213.489Z" fill="#EBEBEB"/>
<path d="M155.093 213.489H147.625V227.09H155.093V213.489Z" fill="#EBEBEB"/>
<path d="M102.165 235.589H94.6965V249.19H102.165V235.589Z" fill="#EBEBEB"/>
<path d="M115.395 235.589H107.926V249.19H115.395V235.589Z" fill="#EBEBEB"/>
<path d="M128.624 235.589H121.155V249.19H128.624V235.589Z" fill="#EBEBEB"/>
<path d="M141.864 235.589H134.395V249.19H141.864V235.589Z" fill="#EBEBEB"/>
<path d="M155.093 235.589H147.625V249.19H155.093V235.589Z" fill="#EBEBEB"/>
<path d="M102.165 257.688H94.6965V271.29H102.165V257.688Z" fill="#EBEBEB"/>
<path d="M115.395 257.688H107.926V271.29H115.395V257.688Z" fill="#EBEBEB"/>
<path d="M128.624 257.688H121.155V271.29H128.624V257.688Z" fill="#EBEBEB"/>
<path d="M141.864 257.688H134.395V271.29H141.864V257.688Z" fill="#EBEBEB"/>
<path d="M155.093 257.688H147.625V271.29H155.093V257.688Z" fill="#EBEBEB"/>
<path d="M102.165 279.788H94.6965V293.39H102.165V279.788Z" fill="#EBEBEB"/>
<path d="M115.395 279.788H107.926V293.39H115.395V279.788Z" fill="#EBEBEB"/>
<path d="M128.624 279.788H121.155V293.39H128.624V279.788Z" fill="#EBEBEB"/>
<path d="M141.864 279.788H134.395V293.39H141.864V279.788Z" fill="#EBEBEB"/>
<path d="M155.093 279.788H147.625V293.39H155.093V279.788Z" fill="#EBEBEB"/>
<path d="M102.165 301.899H94.6965V315.501H102.165V301.899Z" fill="#EBEBEB"/>
<path d="M115.395 301.899H107.926V315.501H115.395V301.899Z" fill="#EBEBEB"/>
<path d="M128.624 301.899H121.155V315.501H128.624V301.899Z" fill="#EBEBEB"/>
<path d="M141.864 301.899H134.395V315.501H141.864V301.899Z" fill="#EBEBEB"/>
<path d="M155.093 301.899H147.625V315.501H155.093V301.899Z" fill="#EBEBEB"/>
<path d="M102.165 323.999H94.6965V363.774H102.165V323.999Z" fill="#EBEBEB"/>
<path d="M115.395 323.999H107.926V363.774H115.395V323.999Z" fill="#EBEBEB"/>
<path d="M128.624 323.999H121.155V363.774H128.624V323.999Z" fill="#EBEBEB"/>
<path d="M141.864 323.999H134.395V363.774H141.864V323.999Z" fill="#EBEBEB"/>
<path d="M155.093 323.999H147.625V363.774H155.093V323.999Z" fill="#EBEBEB"/>
<path d="M209.094 17.8096H161.763V363.774H209.094V17.8096Z" fill="#DBDBDB"/>
<path d="M211.153 10.9213H161.763V17.8097H211.153V10.9213Z" fill="#C7C7C7"/>
<path d="M175.89 27.9616H168.421V363.774H175.89V27.9616Z" fill="#C7C7C7"/>
<path d="M189.13 27.9616H181.661V363.774H189.13V27.9616Z" fill="#C7C7C7"/>
<path d="M202.359 27.9616H194.891V363.774H202.359V27.9616Z" fill="#C7C7C7"/>
<path d="M175.89 36.6679H168.421V50.2695H175.89V36.6679Z" fill="#DBDBDB"/>
<path d="M189.13 36.6679H181.661V50.2695H189.13V36.6679Z" fill="#DBDBDB"/>
<path d="M202.359 36.6679H194.891V50.2695H202.359V36.6679Z" fill="#DBDBDB"/>
<path d="M175.89 58.7676H168.421V72.3692H175.89V58.7676Z" fill="#DBDBDB"/>
<path d="M189.13 58.7676H181.661V72.3692H189.13V58.7676Z" fill="#DBDBDB"/>
<path d="M202.359 58.7676H194.891V72.3692H202.359V58.7676Z" fill="#DBDBDB"/>
<path d="M175.89 80.8675H168.421V94.4691H175.89V80.8675Z" fill="#DBDBDB"/>
<path d="M189.13 80.8675H181.661V94.4691H189.13V80.8675Z" fill="#DBDBDB"/>
<path d="M202.359 80.8675H194.891V94.4691H202.359V80.8675Z" fill="#DBDBDB"/>
<path d="M175.89 102.979H168.421V116.58H175.89V102.979Z" fill="#DBDBDB"/>
<path d="M189.13 102.979H181.661V116.58H189.13V102.979Z" fill="#DBDBDB"/>
<path d="M202.359 102.979H194.891V116.58H202.359V102.979Z" fill="#DBDBDB"/>
<path d="M175.89 125.078H168.421V138.68H175.89V125.078Z" fill="#DBDBDB"/>
<path d="M189.13 125.078H181.661V138.68H189.13V125.078Z" fill="#DBDBDB"/>
<path d="M202.359 125.078H194.891V138.68H202.359V125.078Z" fill="#DBDBDB"/>
<path d="M175.89 147.178H168.421V160.78H175.89V147.178Z" fill="#DBDBDB"/>
<path d="M189.13 147.178H181.661V160.78H189.13V147.178Z" fill="#DBDBDB"/>
<path d="M202.359 147.178H194.891V160.78H202.359V147.178Z" fill="#DBDBDB"/>
<path d="M175.89 169.278H168.421V182.88H175.89V169.278Z" fill="#DBDBDB"/>
<path d="M189.13 169.278H181.661V182.88H189.13V169.278Z" fill="#DBDBDB"/>
<path d="M202.359 169.278H194.891V182.88H202.359V169.278Z" fill="#DBDBDB"/>
<path d="M175.89 191.389H168.421V204.99H175.89V191.389Z" fill="#DBDBDB"/>
<path d="M189.13 191.389H181.661V204.99H189.13V191.389Z" fill="#DBDBDB"/>
<path d="M202.359 191.389H194.891V204.99H202.359V191.389Z" fill="#DBDBDB"/>
<path d="M175.89 213.489H168.421V227.09H175.89V213.489Z" fill="#DBDBDB"/>
<path d="M189.13 213.489H181.661V227.09H189.13V213.489Z" fill="#DBDBDB"/>
<path d="M202.359 213.489H194.891V227.09H202.359V213.489Z" fill="#DBDBDB"/>
<path d="M175.89 235.589H168.421V249.19H175.89V235.589Z" fill="#DBDBDB"/>
<path d="M189.13 235.589H181.661V249.19H189.13V235.589Z" fill="#DBDBDB"/>
<path d="M202.359 235.589H194.891V249.19H202.359V235.589Z" fill="#DBDBDB"/>
<path d="M175.89 257.688H168.421V271.29H175.89V257.688Z" fill="#DBDBDB"/>
<path d="M189.13 257.688H181.661V271.29H189.13V257.688Z" fill="#DBDBDB"/>
<path d="M202.359 257.688H194.891V271.29H202.359V257.688Z" fill="#DBDBDB"/>
<path d="M175.89 279.788H168.421V293.39H175.89V279.788Z" fill="#DBDBDB"/>
<path d="M189.13 279.788H181.661V293.39H189.13V279.788Z" fill="#DBDBDB"/>
<path d="M202.359 279.788H194.891V293.39H202.359V279.788Z" fill="#DBDBDB"/>
<path d="M175.89 301.899H168.421V315.501H175.89V301.899Z" fill="#DBDBDB"/>
<path d="M189.13 301.899H181.661V315.501H189.13V301.899Z" fill="#DBDBDB"/>
<path d="M202.359 301.899H194.891V315.501H202.359V301.899Z" fill="#DBDBDB"/>
<path d="M175.89 323.999H168.421V363.774H175.89V323.999Z" fill="#DBDBDB"/>
<path d="M189.13 323.999H181.661V363.774H189.13V323.999Z" fill="#DBDBDB"/>
<path d="M202.359 323.999H194.891V363.774H202.359V323.999Z" fill="#DBDBDB"/>
<path d="M73.0238 133.96H12.4299V363.774H73.0238V133.96Z" fill="#EBEBEB"/>
<path d="M73.0238 118.726H21.0486V133.971H73.0238V118.726Z" fill="#FFA500"/>
<path d="M66.3763 141.922H19.0664V313.716H66.3763V141.922Z" fill="#DBDBDB"/>
<path d="M66.3763 158.316H19.0664V162.379H66.3763V158.316Z" fill="white"/>
<path d="M66.3763 175.126H19.0664V179.189H66.3763V175.126Z" fill="white"/>
<path d="M66.3763 191.947H19.0664V196.01H66.3763V191.947Z" fill="white"/>
<path d="M66.3763 208.758H19.0664V212.821H66.3763V208.758Z" fill="white"/>
<path d="M66.3763 225.579H19.0664V229.642H66.3763V225.579Z" fill="white"/>
<path d="M66.3763 242.389H19.0664V246.452H66.3763V242.389Z" fill="white"/>
<path d="M66.3763 259.211H19.0664V263.274H66.3763V259.211Z" fill="white"/>
<path d="M66.3763 276.021H19.0664V280.084H66.3763V276.021Z" fill="white"/>
<path d="M66.3763 292.842H19.0664V296.905H66.3763V292.842Z" fill="white"/>
<path d="M66.3763 309.653H19.0664V313.716H66.3763V309.653Z" fill="white"/>
<path d="M110.981 133.96H73.0237V363.774H110.981V133.96Z" fill="#DBDBDB"/>
<path d="M105.286 118.726H73.0237V133.971H105.286V118.726Z" fill="#FFB651"/>
<path d="M107.444 141.922H78.2585V313.716H107.444V141.922Z" fill="#C7C7C7"/>
<path d="M107.444 158.316H78.2585V162.379H107.444V158.316Z" fill="white"/>
<path d="M107.444 175.126H78.2585V179.189H107.444V175.126Z" fill="white"/>
<path d="M107.444 191.947H78.2585V196.01H107.444V191.947Z" fill="white"/>
<path d="M107.444 208.758H78.2585V212.821H107.444V208.758Z" fill="white"/>
<path d="M107.444 225.579H78.2585V229.642H107.444V225.579Z" fill="white"/>
<path d="M107.444 242.389H78.2585V246.452H107.444V242.389Z" fill="white"/>
<path d="M107.444 259.211H78.2585V263.274H107.444V259.211Z" fill="white"/>
<path d="M107.444 276.021H78.2585V280.084H107.444V276.021Z" fill="white"/>
<path d="M107.444 292.842H78.2585V296.905H107.444V292.842Z" fill="white"/>
<path d="M107.444 309.653H78.2585V313.716H107.444V309.653Z" fill="white"/>
<path d="M679.018 137.837H646.656V176.068H679.018V137.837Z" fill="#DBDBDB"/>
<path d="M699.541 137.837H679.018V177.47H699.541V137.837Z" fill="#C7C7C7"/>
<path d="M700.91 154.724H680.54V177.47H700.91V154.724Z" fill="#DBDBDB"/>
<path d="M713.613 154.724H700.91V177.47H713.613V154.724Z" fill="#C7C7C7"/>
<path d="M686.574 173.582H634.238V363.774H686.574V173.582Z" fill="#EBEBEB"/>
<path d="M656.688 181.763H640.228V188.487H656.688V181.763Z" fill="white"/>
<path d="M677.736 181.763H661.277V188.487H677.736V181.763Z" fill="white"/>
<path d="M656.688 193.174H640.228V199.898H656.688V193.174Z" fill="white"/>
<path d="M677.736 193.174H661.277V199.898H677.736V193.174Z" fill="white"/>
<path d="M656.688 204.585H640.228V211.309H656.688V204.585Z" fill="white"/>
<path d="M677.736 204.585H661.277V211.309H677.736V204.585Z" fill="white"/>
<path d="M656.688 216.008H640.228V222.732H656.688V216.008Z" fill="white"/>
<path d="M677.736 216.008H661.277V222.732H677.736V216.008Z" fill="white"/>
<path d="M656.688 227.419H640.228V234.143H656.688V227.419Z" fill="white"/>
<path d="M677.736 227.419H661.277V234.143H677.736V227.419Z" fill="white"/>
<path d="M656.688 238.841H640.228V245.565H656.688V238.841Z" fill="white"/>
<path d="M677.736 238.841H661.277V245.565H677.736V238.841Z" fill="white"/>
<path d="M656.688 250.253H640.228V256.977H656.688V250.253Z" fill="white"/>
<path d="M677.736 250.253H661.277V256.977H677.736V250.253Z" fill="white"/>
<path d="M656.688 261.675H640.228V268.399H656.688V261.675Z" fill="white"/>
<path d="M677.736 261.675H661.277V268.399H677.736V261.675Z" fill="white"/>
<path d="M656.688 273.086H640.228V279.81H656.688V273.086Z" fill="white"/>
<path d="M677.736 273.086H661.277V279.81H677.736V273.086Z" fill="white"/>
<path d="M656.688 284.497H640.228V291.222H656.688V284.497Z" fill="white"/>
<path d="M677.736 284.497H661.277V291.222H677.736V284.497Z" fill="white"/>
<path d="M656.688 295.92H640.228V302.644H656.688V295.92Z" fill="white"/>
<path d="M677.736 295.92H661.277V302.644H677.736V295.92Z" fill="white"/>
<path d="M656.688 307.331H640.228V314.055H656.688V307.331Z" fill="white"/>
<path d="M677.736 307.331H661.277V314.055H677.736V307.331Z" fill="white"/>
<path d="M656.688 318.753H640.228V325.477H656.688V318.753Z" fill="white"/>
<path d="M677.736 318.753H661.277V325.477H677.736V318.753Z" fill="white"/>
<path d="M656.688 330.165H640.228V336.889H656.688V330.165Z" fill="white"/>
<path d="M677.736 330.165H661.277V336.889H677.736V330.165Z" fill="white"/>
<path d="M728.978 173.582H686.574V363.774H728.978V173.582Z" fill="#C7C7C7"/>
<path d="M711.215 336.889H724.729V330.165H711.215V336.889Z" fill="#EBEBEB"/>
<path d="M693.923 336.889H707.437V330.165H693.923V336.889Z" fill="#EBEBEB"/>
<path d="M711.215 325.466H724.729V318.742H711.215V325.466Z" fill="#EBEBEB"/>
<path d="M693.923 325.466H707.437V318.742H693.923V325.466Z" fill="#EBEBEB"/>
<path d="M711.215 314.055H724.729V307.331H711.215V314.055Z" fill="#EBEBEB"/>
<path d="M693.923 314.055H707.437V307.331H693.923V314.055Z" fill="#EBEBEB"/>
<path d="M711.215 302.644H724.729V295.92H711.215V302.644Z" fill="#EBEBEB"/>
<path d="M693.923 302.644H707.437V295.92H693.923V302.644Z" fill="#EBEBEB"/>
<path d="M711.215 291.232H724.729V284.508H711.215V291.232Z" fill="#EBEBEB"/>
<path d="M693.923 291.232H707.437V284.508H693.923V291.232Z" fill="#EBEBEB"/>
<path d="M711.215 279.81H724.729V273.086H711.215V279.81Z" fill="#EBEBEB"/>
<path d="M693.923 279.81H707.437V273.086H693.923V279.81Z" fill="#EBEBEB"/>
<path d="M711.215 268.388H724.729V261.664H711.215V268.388Z" fill="#EBEBEB"/>
<path d="M693.923 268.388H707.437V261.664H693.923V268.388Z" fill="#EBEBEB"/>
<path d="M711.215 256.977H724.729V250.253H711.215V256.977Z" fill="#EBEBEB"/>
<path d="M693.923 256.977H707.437V250.253H693.923V256.977Z" fill="#EBEBEB"/>
<path d="M711.215 245.554H724.729V238.83H711.215V245.554Z" fill="#EBEBEB"/>
<path d="M693.923 245.554H707.437V238.83H693.923V245.554Z" fill="#EBEBEB"/>
<path d="M711.215 234.154H724.729V227.43H711.215V234.154Z" fill="#EBEBEB"/>
<path d="M693.923 234.154H707.437V227.43H693.923V234.154Z" fill="#EBEBEB"/>
<path d="M711.215 222.732H724.729V216.008H711.215V222.732Z" fill="#EBEBEB"/>
<path d="M693.923 222.732H707.437V216.008H693.923V222.732Z" fill="#EBEBEB"/>
<path d="M711.215 211.32H724.729V204.596H711.215V211.32Z" fill="#EBEBEB"/>
<path d="M693.923 211.32H707.437V204.596H693.923V211.32Z" fill="#EBEBEB"/>
<path d="M711.215 199.898H724.729V193.174H711.215V199.898Z" fill="#EBEBEB"/>
<path d="M693.923 199.898H707.437V193.174H693.923V199.898Z" fill="#EBEBEB"/>
<path d="M711.215 188.476H724.729V181.752H711.215V188.476Z" fill="#EBEBEB"/>
<path d="M693.923 188.476H707.437V181.752H693.923V188.476Z" fill="#EBEBEB"/>
<path d="M258.748 212.481H196.906V363.774H258.748V212.481Z" fill="#C7C7C7"/>
<path d="M217.571 225.579H206.63V234.844H217.571V225.579Z" fill="#DBDBDB"/>
<path d="M217.571 245.379H206.63V254.644H217.571V245.379Z" fill="#DBDBDB"/>
<path d="M217.571 265.179H206.63V274.444H217.571V265.179Z" fill="#DBDBDB"/>
<path d="M217.571 284.968H206.63V294.233H217.571V284.968Z" fill="#DBDBDB"/>
<path d="M217.571 304.768H206.63V314.033H217.571V304.768Z" fill="#DBDBDB"/>
<path d="M217.571 324.569H206.63V333.833H217.571V324.569Z" fill="#DBDBDB"/>
<path d="M217.571 344.369H206.63V353.633H217.571V344.369Z" fill="#DBDBDB"/>
<path d="M233.308 225.579H222.368V234.844H233.308V225.579Z" fill="#DBDBDB"/>
<path d="M233.308 245.379H222.368V254.644H233.308V245.379Z" fill="#DBDBDB"/>
<path d="M233.308 265.179H222.368V274.444H233.308V265.179Z" fill="#DBDBDB"/>
<path d="M233.308 284.968H222.368V294.233H233.308V284.968Z" fill="#DBDBDB"/>
<path d="M233.308 304.768H222.368V314.033H233.308V304.768Z" fill="#DBDBDB"/>
<path d="M233.308 324.569H222.368V333.833H233.308V324.569Z" fill="#DBDBDB"/>
<path d="M233.308 344.369H222.368V353.633H233.308V344.369Z" fill="#DBDBDB"/>
<path d="M249.012 225.579H238.072V234.844H249.012V225.579Z" fill="#DBDBDB"/>
<path d="M249.012 245.379H238.072V254.644H249.012V245.379Z" fill="#DBDBDB"/>
<path d="M249.012 265.179H238.072V274.444H249.012V265.179Z" fill="#DBDBDB"/>
<path d="M249.012 284.968H238.072V294.233H249.012V284.968Z" fill="#DBDBDB"/>
<path d="M249.012 304.768H238.072V314.033H249.012V304.768Z" fill="#DBDBDB"/>
<path d="M249.012 324.569H238.072V333.833H249.012V324.569Z" fill="#DBDBDB"/>
<path d="M249.012 344.369H238.072V353.633H249.012V344.369Z" fill="#DBDBDB"/>
<path d="M258.737 196.722H217.571V212.481H258.737V196.722Z" fill="#DBDBDB"/>
<path d="M258.737 186.964H232.64V196.722H258.737V186.964Z" fill="#EBEBEB"/>
<path d="M302.126 212.481H258.737V363.774H302.126V212.481Z" fill="#A6A6A6"/>
<path d="M288.777 352.155H297.68V342.89H288.777V352.155Z" fill="#C7C7C7"/>
<path d="M288.777 332.366H297.68V323.101H288.777V332.366Z" fill="#C7C7C7"/>
<path d="M288.777 312.566H297.68V303.301H288.777V312.566Z" fill="#C7C7C7"/>
<path d="M288.777 292.766H297.68V283.501H288.777V292.766Z" fill="#C7C7C7"/>
<path d="M288.777 272.965H297.68V263.701H288.777V272.965Z" fill="#C7C7C7"/>
<path d="M288.777 253.166H297.68V243.901H288.777V253.166Z" fill="#C7C7C7"/>
<path d="M288.777 233.376H297.68V224.111H288.777V233.376Z" fill="#C7C7C7"/>
<path d="M275.963 352.155H284.867V342.89H275.963V352.155Z" fill="#C7C7C7"/>
<path d="M275.963 332.366H284.867V323.101H275.963V332.366Z" fill="#C7C7C7"/>
<path d="M275.963 312.566H284.867V303.301H275.963V312.566Z" fill="#C7C7C7"/>
<path d="M275.963 292.766H284.867V283.501H275.963V292.766Z" fill="#C7C7C7"/>
<path d="M275.963 272.965H284.867V263.701H275.963V272.965Z" fill="#C7C7C7"/>
<path d="M275.963 253.166H284.867V243.901H275.963V253.166Z" fill="#C7C7C7"/>
<path d="M275.963 233.376H284.867V224.111H275.963V233.376Z" fill="#C7C7C7"/>
<path d="M263.183 352.155H272.087V342.89H263.183V352.155Z" fill="#C7C7C7"/>
<path d="M263.183 332.366H272.087V323.101H263.183V332.366Z" fill="#C7C7C7"/>
<path d="M263.183 312.566H272.087V303.301H263.183V312.566Z" fill="#C7C7C7"/>
<path d="M263.183 292.766H272.087V283.501H263.183V292.766Z" fill="#C7C7C7"/>
<path d="M263.183 272.965H272.087V263.701H263.183V272.965Z" fill="#C7C7C7"/>
<path d="M263.183 253.166H272.087V243.901H263.183V253.166Z" fill="#C7C7C7"/>
<path d="M263.183 233.376H272.087V224.111H263.183V233.376Z" fill="#C7C7C7"/>
<path d="M295.556 196.722H258.737V212.481H295.556V196.722Z" fill="#C7C7C7"/>
<path d="M278.69 186.964H258.737V196.722H278.69V186.964Z" fill="#DBDBDB"/>
<path d="M11.4988 408.73C241.62 408.051 499.766 408.051 729.909 408.73C499.787 409.398 241.642 409.398 11.4988 408.73Z" fill="#EBEBEB"/>
<path d="M11.4988 363.774C241.62 363.106 499.766 363.095 729.909 363.774C499.787 364.453 241.642 364.442 11.4988 363.774Z" fill="#EBEBEB"/>
<path d="M477.742 145.295C476.893 144.869 476.014 144.503 475.114 144.2C474.196 143.852 473.234 143.63 472.256 143.542C471.957 143.52 471.656 143.553 471.369 143.641C471.275 143.676 471.184 143.716 471.095 143.762L470.92 143.893C470.81 143.97 470.723 144.057 470.613 144.145C470.227 144.488 469.862 144.854 469.518 145.24C468.883 145.963 468.302 146.718 467.733 147.496L468.445 147.244C467.486 146.969 466.509 146.765 465.521 146.631C465.016 146.56 464.508 146.524 463.998 146.521C463.727 146.518 463.456 146.537 463.188 146.576C463.039 146.598 462.892 146.635 462.75 146.686C462.598 146.741 462.451 146.811 462.312 146.894C461.876 147.199 461.488 147.568 461.162 147.989C460.845 148.383 460.571 148.788 460.297 149.204C459.78 150.038 459.326 150.909 458.939 151.811C459.574 151.055 460.176 150.299 460.823 149.62C461.14 149.259 461.458 148.909 461.797 148.591C462.104 148.281 462.45 148.012 462.827 147.792C463.18 147.677 463.553 147.64 463.922 147.682C464.382 147.713 464.839 147.775 465.291 147.868C466.211 148.033 467.142 148.263 468.04 148.503L468.489 148.624L468.751 148.252C469.277 147.507 469.847 146.762 470.416 146.061C470.688 145.709 470.981 145.372 471.292 145.054L471.522 144.835L471.621 144.747C471.781 144.683 471.952 144.649 472.124 144.649C473.029 144.647 473.931 144.735 474.818 144.911C475.837 144.933 476.812 145.13 477.742 145.295Z" fill="#EBEBEB"/>
<path d="M467.426 173.155C466.309 172.275 465.135 171.47 463.911 170.746C462.662 169.966 461.314 169.359 459.903 168.939C459.468 168.82 459.015 168.783 458.567 168.829C458.415 168.841 458.267 168.878 458.128 168.939L457.833 169.07C457.636 169.158 457.482 169.256 457.307 169.344C456.676 169.727 456.065 170.144 455.478 170.592C454.317 171.468 453.288 172.41 452.193 173.374L453.288 173.221C451.961 172.539 450.589 171.95 449.181 171.457C448.464 171.214 447.732 171.013 446.991 170.855C446.593 170.778 446.191 170.731 445.786 170.713C445.564 170.697 445.341 170.697 445.118 170.713C444.888 170.713 444.636 170.833 444.417 170.888C443.682 171.211 443.002 171.647 442.402 172.18C441.83 172.664 441.285 173.179 440.771 173.724C439.764 174.792 438.845 175.938 438.022 177.152C439.117 176.232 440.267 175.301 441.428 174.447C441.982 174.008 442.56 173.599 443.158 173.221C443.697 172.853 444.283 172.559 444.899 172.345C445.478 172.276 446.065 172.336 446.619 172.52C447.283 172.698 447.934 172.921 448.568 173.188C449.86 173.702 451.174 174.283 452.423 174.929L453.047 175.236L453.54 174.765C454.525 173.812 455.577 172.892 456.628 172.005C457.134 171.564 457.664 171.151 458.216 170.768C458.347 170.691 458.479 170.592 458.61 170.527L458.786 170.428C458.786 170.428 458.786 170.428 458.851 170.428C459.105 170.383 459.364 170.383 459.618 170.428C460.95 170.688 462.252 171.081 463.506 171.6C464.809 172.082 466.112 172.629 467.426 173.155Z" fill="#EBEBEB"/>
<path d="M252.199 60.98C251.437 60.4133 250.635 59.901 249.801 59.4468C248.949 58.9618 248.035 58.5935 247.085 58.3517C246.788 58.2993 246.484 58.2993 246.187 58.3517C246.09 58.3739 245.995 58.4032 245.902 58.4393L245.705 58.5379C245.588 58.597 245.475 58.6629 245.365 58.735C244.951 59.0003 244.553 59.2892 244.172 59.6001C243.416 60.2134 242.726 60.8595 242.036 61.5276L242.77 61.3962C241.869 60.9764 240.944 60.6107 239.999 60.301C239.517 60.1696 239.025 60.0382 238.51 59.9506C238.242 59.9023 237.971 59.8767 237.699 59.8739C237.55 59.8637 237.4 59.8637 237.25 59.8739C237.094 59.9061 236.94 59.95 236.79 60.0053C236.305 60.2383 235.858 60.5449 235.465 60.9143C235.099 61.2598 234.751 61.6254 234.425 62.0094C233.775 62.7445 233.182 63.528 232.651 64.353C233.396 63.7179 234.118 63.0717 234.841 62.4694C235.213 62.1737 235.597 61.878 235.936 61.6261C236.273 61.372 236.641 61.1622 237.031 61.0019C237.416 60.9442 237.808 60.9704 238.181 61.0786C238.627 61.1885 239.066 61.3238 239.495 61.4838C240.372 61.8014 241.259 62.1737 242.102 62.5789L242.529 62.7651L242.847 62.4475C243.482 61.7904 244.172 61.1443 244.851 60.531C245.178 60.2276 245.522 59.9424 245.88 59.6768C245.968 59.6768 246.055 59.5454 246.143 59.5016L246.252 59.4359C246.252 59.4359 246.252 59.4359 246.307 59.4359C246.474 59.4059 246.644 59.4059 246.811 59.4359C247.703 59.5875 248.58 59.8222 249.428 60.1367C250.425 60.3229 251.334 60.6624 252.199 60.98Z" fill="#EBEBEB"/>
<path d="M283.651 57.1581C282.845 55.9819 281.96 54.8622 281.001 53.807C280.042 52.6926 278.937 51.7128 277.716 50.8939C277.337 50.6521 276.918 50.4814 276.478 50.3901C276.329 50.3675 276.178 50.3675 276.029 50.3901C275.92 50.3836 275.81 50.3836 275.701 50.3901L275.12 50.5106C274.4 50.6794 273.69 50.8916 272.996 51.1458C271.638 51.6386 270.345 52.2409 269.031 52.8323L270.126 53.0075C269.058 51.9679 267.92 51.002 266.721 50.1164C266.107 49.6633 265.463 49.2534 264.793 48.8898C264.44 48.6949 264.074 48.5229 263.698 48.3751C263.483 48.3062 263.263 48.2513 263.041 48.2108C262.8 48.1938 262.559 48.1938 262.318 48.2108C261.523 48.3012 260.747 48.5155 260.018 48.846C259.317 49.1417 258.66 49.4812 258.003 49.8316C256.726 50.5574 255.506 51.3812 254.356 52.2957C255.714 51.7481 257.061 51.2005 258.408 50.7187C259.07 50.4637 259.747 50.248 260.434 50.0726C261.058 49.8736 261.707 49.7666 262.362 49.755C262.932 49.8529 263.472 50.0815 263.939 50.423C264.52 50.7914 265.076 51.1974 265.603 51.6386C266.699 52.5147 267.794 53.4784 268.768 54.4421L269.272 54.924L269.885 54.6174C271.112 54.0041 272.393 53.4346 273.653 52.898C274.266 52.6279 274.895 52.3938 275.536 52.1971C275.684 52.1481 275.833 52.1079 275.985 52.0766H276.183H276.259C276.515 52.1128 276.763 52.1905 276.993 52.3066C278.182 52.9342 279.308 53.6751 280.355 54.5188C281.461 55.3511 282.534 56.2601 283.651 57.1581Z" fill="#EBEBEB"/>
<path d="M508.757 166.321C507.951 165.145 507.065 164.025 506.107 162.97C505.15 161.853 504.045 160.873 502.821 160.057C502.446 159.809 502.025 159.638 501.584 159.553C501.435 159.536 501.284 159.536 501.135 159.553H500.817C500.598 159.553 500.423 159.63 500.226 159.663C499.51 159.839 498.804 160.055 498.112 160.309C496.743 160.802 495.451 161.404 494.137 161.996L495.232 162.171C494.166 161.128 493.028 160.162 491.826 159.28C491.21 158.827 490.567 158.414 489.899 158.042C489.547 157.846 489.181 157.678 488.803 157.538C488.593 157.466 488.377 157.411 488.157 157.374C487.917 157.358 487.675 157.358 487.435 157.374C486.636 157.462 485.856 157.677 485.124 158.009C484.436 158.296 483.767 158.625 483.12 158.995C481.839 159.717 480.616 160.537 479.462 161.448C480.831 160.911 482.167 160.353 483.525 159.871C484.193 159.63 484.872 159.4 485.54 159.225C486.166 159.037 486.814 158.93 487.467 158.907C488.038 159.015 488.579 159.243 489.055 159.575C489.631 159.95 490.183 160.36 490.709 160.802C491.804 161.667 492.899 162.642 493.874 163.605L494.378 164.087L494.991 163.781C496.218 163.167 497.499 162.598 498.758 162.061C499.372 161.789 500.001 161.552 500.642 161.349L501.091 161.24H501.288C501.288 161.24 501.288 161.24 501.365 161.24C501.621 161.271 501.87 161.349 502.098 161.47C503.292 162.116 504.418 162.879 505.46 163.748C506.567 164.514 507.651 165.423 508.757 166.321Z" fill="#EBEBEB"/>
<path d="M86.2202 230.365C72.9722 231.11 59.6928 231.11 46.4448 230.365C59.6928 229.62 72.9722 229.62 86.2202 230.365Z" fill="#EBEBEB"/>
<path d="M55.5234 243.452C41.8626 244.196 28.1713 244.196 14.5105 243.452C28.171 242.696 41.8629 242.696 55.5234 243.452Z" fill="#EBEBEB"/>
<path d="M47.9451 235.326C32.0108 236.071 15.9452 236.071 0 235.326C15.9452 234.57 32.0108 234.57 47.9451 235.326Z" fill="#EBEBEB"/>
<path d="M354.277 160.342C341.029 161.086 327.749 161.086 314.501 160.342C327.749 159.597 341.029 159.597 354.277 160.342Z" fill="#EBEBEB"/>
<path d="M296.158 213.653C282.493 214.398 268.799 214.398 255.134 213.653C268.799 212.908 282.493 212.908 296.158 213.653Z" fill="#EBEBEB"/>
<path d="M318.039 204.071C302.093 204.815 286.028 204.815 270.083 204.071C286.028 203.326 302.093 203.326 318.039 204.071Z" fill="#EBEBEB"/>
<path d="M527.46 124.782H519.995V138.378H527.46V124.782Z" fill="#EBEBEB"/>
<path d="M527.46 146.873H519.995V160.469H527.46V146.873Z" fill="#EBEBEB"/>
<path d="M527.46 168.964H519.995V182.56H527.46V168.964Z" fill="#EBEBEB"/>
<path d="M527.46 191.066H519.995V204.662H527.46V191.066Z" fill="#EBEBEB"/>
<path d="M527.46 213.157H519.995V226.753H527.46V213.157Z" fill="#EBEBEB"/>
<path d="M527.46 235.248H519.995V248.844H527.46V235.248Z" fill="#EBEBEB"/>
<path d="M527.46 257.339H519.995V270.935H527.46V257.339Z" fill="#EBEBEB"/>
<path d="M527.46 279.429H519.995V293.025H527.46V279.429Z" fill="#EBEBEB"/>
<path d="M527.46 301.531H519.995V315.128H527.46V301.531Z" fill="#EBEBEB"/>
<path d="M527.46 323.622H519.995V363.382H527.46V323.622Z" fill="#EBEBEB"/>
<path d="M498.331 133.66H437.761V363.382H498.331V133.66Z" fill="#EBEBEB"/>
<path d="M498.331 118.432H446.376V133.671H498.331V118.432Z" fill="#FFA500"/>
<path d="M491.686 141.618H444.395V313.343H491.686V141.618Z" fill="#DBDBDB"/>
<path d="M491.686 158.006H444.395V162.067H491.686V158.006Z" fill="white"/>
<path d="M491.686 174.809H444.395V178.87H491.686V174.809Z" fill="white"/>
<path d="M491.686 191.624H444.395V195.685H491.686V191.624Z" fill="white"/>
<path d="M491.686 208.427H444.395V212.489H491.686V208.427Z" fill="white"/>
<path d="M491.686 225.242H444.395V229.303H491.686V225.242Z" fill="white"/>
<path d="M491.686 242.046H444.395V246.107H491.686V242.046Z" fill="white"/>
<path d="M491.686 258.86H444.395V262.921H491.686V258.86Z" fill="white"/>
<path d="M491.686 275.664H444.395V279.725H491.686V275.664Z" fill="white"/>
<path d="M491.686 292.478H444.395V296.54H491.686V292.478Z" fill="white"/>
<path d="M491.686 309.282H444.395V313.343H491.686V309.282Z" fill="white"/>
<path d="M536.273 133.66H498.331V363.382H536.273V133.66Z" fill="#DBDBDB"/>
<path d="M530.58 118.432H498.331V133.671H530.58V118.432Z" fill="#FFB651"/>
<path d="M532.737 141.618H503.563V313.343H532.737V141.618Z" fill="#C7C7C7"/>
<path d="M532.737 158.006H503.563V162.067H532.737V158.006Z" fill="white"/>
<path d="M532.737 174.809H503.563V178.87H532.737V174.809Z" fill="white"/>
<path d="M532.737 191.624H503.563V195.685H532.737V191.624Z" fill="white"/>
<path d="M532.737 208.427H503.563V212.489H532.737V208.427Z" fill="white"/>
<path d="M532.737 225.242H503.563V229.303H532.737V225.242Z" fill="white"/>
<path d="M532.737 242.046H503.563V246.107H532.737V242.046Z" fill="white"/>
<path d="M532.737 258.86H503.563V262.921H532.737V258.86Z" fill="white"/>
<path d="M532.737 275.664H503.563V279.725H532.737V275.664Z" fill="white"/>
<path d="M532.737 292.478H503.563V296.54H532.737V292.478Z" fill="white"/>
<path d="M532.737 309.282H503.563V313.343H532.737V309.282Z" fill="white"/>
<path d="M37.7825 314.427C37.7825 314.427 51.1322 344.073 29.339 344.106C7.54576 344.139 21.673 313.442 21.673 313.442C21.673 313.442 16.6244 311.252 22.4506 294.671C28.2767 278.091 30.905 278.113 33.3362 278.113C36.4026 278.113 39.2719 285.275 37.1911 296.27C37.1692 296.27 44.8461 309.981 37.7825 314.427Z" fill="black"/>
<path d="M27.4336 363.774L29.4925 319.093L31.6389 363.774H27.4336Z" fill="#EBEBEB"/>
<path d="M28.6492 337.82L36.567 328.566L30.3576 339.046L28.6492 337.82Z" fill="#EBEBEB"/>
<path d="M200.082 317.614C200.082 317.614 193.861 315.161 188.933 323.747C183.896 332.508 190.237 338.345 195.263 334.884C195.263 334.884 199.217 343.164 207.113 341.182C215.008 339.199 216.279 332.891 216.279 332.891C216.279 332.891 223.277 333.373 223.474 328.149C223.671 322.926 218.524 318.293 218.524 318.293C218.524 318.293 218.217 305.272 209.763 305.381C201.308 305.491 200.082 317.614 200.082 317.614Z" fill="#FFA500"/>
<path d="M205.897 363.752L207.638 325.006L209.456 363.752H205.897Z" fill="#EBEBEB"/>
<path d="M207.123 339.572L201.67 328.708L208.011 337.874L207.123 339.572Z" fill="#EBEBEB"/>
<path d="M720.195 314.23C720.195 314.23 733.545 343.876 711.752 343.897C689.958 343.919 704.086 313.234 704.086 313.234C704.086 313.234 699.037 311.043 704.874 294.463C710.711 277.883 713.285 277.926 715.672 277.926C718.75 277.926 721.608 285.078 719.527 296.084C719.571 296.073 727.259 309.784 720.195 314.23Z" fill="black"/>
<path d="M709.846 363.577L711.894 318.885L714.041 363.566L709.846 363.577Z" fill="#EBEBEB"/>
<path d="M711.062 337.622L718.969 328.368L712.77 338.849L711.062 337.622Z" fill="#EBEBEB"/>
<path d="M636.527 314.23C636.527 314.23 649.876 343.876 628.083 343.897C606.29 343.919 620.417 313.234 620.417 313.234C620.417 313.234 615.369 311.043 621.206 294.463C627.043 277.883 629.627 277.926 632.048 277.926C635.125 277.926 637.994 285.078 635.902 296.084C635.902 296.073 643.59 309.784 636.527 314.23Z" fill="black"/>
<path d="M626.178 363.577L628.226 318.885L630.383 363.566L626.178 363.577Z" fill="#EBEBEB"/>
<path d="M627.393 337.622L635.3 328.368L629.102 338.849L627.393 337.622Z" fill="#EBEBEB"/>
<path d="M274.54 320.527C274.54 320.527 262.91 346.526 281.998 346.504C301.086 346.482 288.689 319.629 288.689 319.629C288.689 319.629 293.07 317.68 287.956 303.202C282.841 288.725 280.531 288.714 278.395 288.725C275.712 288.725 273.215 295 275.11 304.626C275.055 304.615 268.353 316.651 274.54 320.527Z" fill="black"/>
<path d="M283.706 363.73L281.823 324.59L280.027 363.73H283.706Z" fill="#EBEBEB"/>
<path d="M282.589 341.007L275.646 332.903L281.1 342.08L282.589 341.007Z" fill="#EBEBEB"/>
<path d="M454.734 341.007L447.791 332.903L453.245 342.08L454.734 341.007Z" fill="#EBEBEB"/>
<path d="M648.486 317.461C648.486 317.461 642.265 314.997 637.337 323.583C632.289 332.398 638.64 338.181 643.667 334.731C643.667 334.731 647.621 343.01 655.516 341.028C663.412 339.046 664.672 332.727 664.672 332.727C664.672 332.727 671.681 333.22 671.867 327.985C672.053 322.75 666.928 318.129 666.928 318.129C666.928 318.129 666.621 305.108 658.167 305.217C649.712 305.327 648.486 317.461 648.486 317.461Z" fill="#FFA500"/>
<path d="M654.301 363.599L656.031 324.853L657.849 363.588L654.301 363.599Z" fill="#EBEBEB"/>
<path d="M655.505 339.364L650.062 328.544L656.579 337.699L655.505 339.364Z" fill="#EBEBEB"/>
<path d="M389.669 36.4324H325V371.243H389.669V36.4324Z" fill="#DBDBDB"/>
<path d="M347.605 47.3046H335.036V60.0839H347.605V47.3046Z" fill="#EBEBEB"/>
<path d="M363.688 47.3046H351.12V60.0839H363.688V47.3046Z" fill="#EBEBEB"/>
<path d="M347.605 69.0146H335.036V81.794H347.605V69.0146Z" fill="#EBEBEB"/>
<path d="M363.688 69.0146H351.12V81.794H363.688V69.0146Z" fill="#EBEBEB"/>
<path d="M347.605 90.7133H335.036V103.493H347.605V90.7133Z" fill="#EBEBEB"/>
<path d="M363.688 90.7133H351.12V103.493H363.688V90.7133Z" fill="#EBEBEB"/>
<path d="M347.605 112.423H335.036V125.203H347.605V112.423Z" fill="#EBEBEB"/>
<path d="M363.688 112.423H351.12V125.203H363.688V112.423Z" fill="#EBEBEB"/>
<path d="M347.605 134.122H335.036V146.902H347.605V134.122Z" fill="#EBEBEB"/>
<path d="M363.688 134.122H351.12V146.902H363.688V134.122Z" fill="#EBEBEB"/>
<path d="M347.605 155.832H335.036V168.612H347.605V155.832Z" fill="#EBEBEB"/>
<path d="M363.688 155.832H351.12V168.612H363.688V155.832Z" fill="#EBEBEB"/>
<path d="M347.605 177.531H335.036V190.31H347.605V177.531Z" fill="#EBEBEB"/>
<path d="M363.688 177.531H351.12V190.31H363.688V177.531Z" fill="#EBEBEB"/>
<path d="M347.605 199.241H335.036V212.02H347.605V199.241Z" fill="#EBEBEB"/>
<path d="M363.688 199.241H351.12V212.02H363.688V199.241Z" fill="#EBEBEB"/>
<path d="M347.605 220.94H335.036V233.719H347.605V220.94Z" fill="#EBEBEB"/>
<path d="M363.688 220.94H351.12V233.719H363.688V220.94Z" fill="#EBEBEB"/>
<path d="M347.605 242.65H335.036V255.429H347.605V242.65Z" fill="#EBEBEB"/>
<path d="M363.688 242.65H351.12V255.429H363.688V242.65Z" fill="#EBEBEB"/>
<path d="M347.605 264.348H335.036V277.128H347.605V264.348Z" fill="#EBEBEB"/>
<path d="M363.688 264.348H351.12V277.128H363.688V264.348Z" fill="#EBEBEB"/>
<path d="M347.605 286.058H335.036V298.838H347.605V286.058Z" fill="#EBEBEB"/>
<path d="M363.688 286.058H351.12V298.838H363.688V286.058Z" fill="#EBEBEB"/>
<path d="M347.605 307.757H335.036V320.536H347.605V307.757Z" fill="#EBEBEB"/>
<path d="M363.688 307.757H351.12V320.536H363.688V307.757Z" fill="#EBEBEB"/>
<path d="M347.605 329.467H335.036V342.247H347.605V329.467Z" fill="#EBEBEB"/>
<path d="M367.064 342.247H379.632V329.467H367.064V342.247Z" fill="#EBEBEB"/>
<path d="M367.064 320.548H379.632V307.769H367.064V320.548Z" fill="#EBEBEB"/>
<path d="M367.064 298.838H379.632V286.058H367.064V298.838Z" fill="#EBEBEB"/>
<path d="M367.064 277.139H379.632V264.36H367.064V277.139Z" fill="#EBEBEB"/>
<path d="M367.064 255.429H379.632V242.65H367.064V255.429Z" fill="#EBEBEB"/>
<path d="M367.064 233.73H379.632V220.951H367.064V233.73Z" fill="#EBEBEB"/>
<path d="M367.064 212.02H379.632V199.241H367.064V212.02Z" fill="#EBEBEB"/>
<path d="M367.064 190.322H379.632V177.542H367.064V190.322Z" fill="#EBEBEB"/>
<path d="M367.064 168.611H379.632V155.832H367.064V168.611Z" fill="#EBEBEB"/>
<path d="M367.064 146.913H379.632V134.133H367.064V146.913Z" fill="#EBEBEB"/>
<path d="M367.064 125.203H379.632V112.424H367.064V125.203Z" fill="#EBEBEB"/>
<path d="M367.064 103.504H379.632V90.7247H367.064V103.504Z" fill="#EBEBEB"/>
<path d="M367.064 81.7941H379.632V69.0147H367.064V81.7941Z" fill="#EBEBEB"/>
<path d="M367.064 60.0953H379.632V47.316H367.064V60.0953Z" fill="#EBEBEB"/>
<path d="M363.688 329.467H351.12V342.247H363.688V329.467Z" fill="#EBEBEB"/>
<path d="M440.659 36.4324H389.668V371.243H440.659V36.4324Z" fill="#A6A6A6"/>
<path d="M425.027 342.247H435.41V329.467H425.027V342.247Z" fill="#C7C7C7"/>
<path d="M411.741 342.247H422.124V329.467H411.741V342.247Z" fill="#C7C7C7"/>
<path d="M425.027 320.548H435.41V307.769H425.027V320.548Z" fill="#C7C7C7"/>
<path d="M411.741 320.548H422.124V307.769H411.741V320.548Z" fill="#C7C7C7"/>
<path d="M425.027 298.838H435.41V286.058H425.027V298.838Z" fill="#C7C7C7"/>
<path d="M411.741 298.838H422.124V286.058H411.741V298.838Z" fill="#C7C7C7"/>
<path d="M425.027 277.139H435.41V264.36H425.027V277.139Z" fill="#C7C7C7"/>
<path d="M411.741 277.139H422.124V264.36H411.741V277.139Z" fill="#C7C7C7"/>
<path d="M425.027 255.429H435.41V242.65H425.027V255.429Z" fill="#C7C7C7"/>
<path d="M411.741 255.429H422.124V242.65H411.741V255.429Z" fill="#C7C7C7"/>
<path d="M425.027 233.73H435.41V220.951H425.027V233.73Z" fill="#C7C7C7"/>
<path d="M411.741 233.73H422.124V220.951H411.741V233.73Z" fill="#C7C7C7"/>
<path d="M425.027 212.02H435.41V199.241H425.027V212.02Z" fill="#C7C7C7"/>
<path d="M411.741 212.02H422.124V199.241H411.741V212.02Z" fill="#C7C7C7"/>
<path d="M425.027 190.322H435.41V177.542H425.027V190.322Z" fill="#C7C7C7"/>
<path d="M411.741 190.322H422.124V177.542H411.741V190.322Z" fill="#C7C7C7"/>
<path d="M425.027 168.611H435.41V155.832H425.027V168.611Z" fill="#C7C7C7"/>
<path d="M411.741 168.611H422.124V155.832H411.741V168.611Z" fill="#C7C7C7"/>
<path d="M425.027 146.913H435.41V134.133H425.027V146.913Z" fill="#C7C7C7"/>
<path d="M411.741 146.913H422.124V134.133H411.741V146.913Z" fill="#C7C7C7"/>
<path d="M425.027 125.203H435.41V112.424H425.027V125.203Z" fill="#C7C7C7"/>
<path d="M411.741 125.203H422.124V112.424H411.741V125.203Z" fill="#C7C7C7"/>
<path d="M425.027 103.504H435.41V90.7247H425.027V103.504Z" fill="#C7C7C7"/>
<path d="M411.741 103.504H422.124V90.7247H411.741V103.504Z" fill="#C7C7C7"/>
<path d="M425.027 81.7941H435.41V69.0147H425.027V81.7941Z" fill="#C7C7C7"/>
<path d="M411.741 81.7941H422.124V69.0147H411.741V81.7941Z" fill="#C7C7C7"/>
<path d="M425.027 60.0953H435.41V47.316H425.027V60.0953Z" fill="#C7C7C7"/>
<path d="M408.955 47.3046H398.572V60.0839H408.955V47.3046Z" fill="#C7C7C7"/>
<path d="M408.955 69.0146H398.572V81.794H408.955V69.0146Z" fill="#C7C7C7"/>
<path d="M408.955 90.7133H398.572V103.493H408.955V90.7133Z" fill="#C7C7C7"/>
<path d="M408.955 112.423H398.572V125.203H408.955V112.423Z" fill="#C7C7C7"/>
<path d="M408.955 134.122H398.572V146.902H408.955V134.122Z" fill="#C7C7C7"/>
<path d="M408.955 155.832H398.572V168.612H408.955V155.832Z" fill="#C7C7C7"/>
<path d="M408.955 177.531H398.572V190.31H408.955V177.531Z" fill="#C7C7C7"/>
<path d="M408.955 199.241H398.572V212.02H408.955V199.241Z" fill="#C7C7C7"/>
<path d="M408.955 220.94H398.572V233.719H408.955V220.94Z" fill="#C7C7C7"/>
<path d="M408.955 242.65H398.572V255.429H408.955V242.65Z" fill="#C7C7C7"/>
<path d="M408.955 264.348H398.572V277.128H408.955V264.348Z" fill="#C7C7C7"/>
<path d="M408.955 286.058H398.572V298.838H408.955V286.058Z" fill="#C7C7C7"/>
<path d="M408.955 307.757H398.572V320.536H408.955V307.757Z" fill="#C7C7C7"/>
<path d="M408.955 329.467H398.572V342.247H408.955V329.467Z" fill="#C7C7C7"/>
<path d="M411.741 60.0953H422.124V47.316H411.741V60.0953Z" fill="#C7C7C7"/>
</svg>
