<svg width="734" height="410" viewBox="0 0 734 410" fill="none" xmlns="http://www.w3.org/2000/svg">
<path d="M188.462 69.8157C178.913 69.8157 18.2779 70.9109 8.19165 70.5495C8.0217 70.5487 7.85669 70.4922 7.72187 70.3888C7.58705 70.2853 7.48984 70.1405 7.44512 69.9765C7.40041 69.8125 7.41064 69.6385 7.47426 69.4809C7.53788 69.3233 7.65138 69.1908 7.7974 69.1039C14.1601 65.9608 21.3771 66.5851 27.9917 64.3619C31.8795 63.0478 34.2669 60.5071 36.9718 57.583C39.2063 55.0306 42.0956 53.1372 45.3277 52.1074C48.2826 51.2131 51.42 51.1074 54.4283 51.8007C57.7137 52.5783 60.5173 54.44 63.6275 55.6227C71.3482 58.5358 78.8389 55.7651 84.3475 50.0595C88.8923 45.3504 93.3604 40.9041 99.537 38.3743C104.717 36.2498 110.488 35.8117 115.636 38.1553C121.527 40.8165 125.568 46.1936 131.099 49.4133C137.67 53.2573 145.511 52.3483 152.75 53.4982C159.989 54.6481 165.563 60.7589 171.915 64.2743C173.983 65.6214 176.38 66.3787 178.847 66.4646C180.261 66.3389 181.669 66.1415 183.063 65.8732C185.253 65.5994 187.334 65.6652 188.802 67.4831C189.163 67.9321 189.086 69.8157 188.462 69.8157Z" fill="#EBEBEB"/>
<path d="M733.588 81.0407C726.623 81.0407 609.345 81.8073 601.975 81.5773C601.449 81.5773 601.164 80.7779 601.69 80.4822C606.334 78.1824 611.601 78.6424 616.431 77.0215C619.278 76.0578 621.019 74.207 623.002 72.0715C624.634 70.2142 626.743 68.8393 629.101 68.0962C631.26 67.4424 633.553 67.3706 635.749 67.8881C638.125 68.4466 640.195 69.8155 642.462 70.6698C648.091 72.7943 653.567 70.7793 657.597 66.6068C660.882 63.1681 664.168 59.9265 668.68 58.0757C670.523 57.2452 672.517 56.8021 674.538 56.7738C676.559 56.7456 678.565 57.1328 680.431 57.9114C684.734 59.8608 687.68 63.7814 691.721 66.1468C696.518 68.9394 702.246 68.3371 707.535 69.1256C712.825 69.9141 716.888 74.4261 721.52 76.9887C723.034 77.958 724.783 78.4992 726.58 78.5547C727.616 78.4632 728.647 78.3169 729.668 78.1167C731.256 77.9196 732.778 77.9743 733.851 79.2994C734.103 79.6608 734.048 81.0407 733.588 81.0407Z" fill="#EBEBEB"/>
<path d="M352.152 107.116C345.187 107.116 227.909 107.883 220.539 107.653C220.013 107.653 219.728 106.853 220.254 106.557C224.898 104.258 230.11 104.729 234.995 103.097C237.842 102.144 239.583 100.282 241.565 98.1468C243.199 96.2916 245.308 94.9171 247.665 94.1715C249.824 93.5177 252.117 93.4459 254.313 93.9634C256.689 94.5219 258.759 95.8908 261.026 96.745C266.666 98.8696 272.142 96.8545 276.161 92.6821C279.446 89.2543 282.732 86.0017 287.255 84.151C289.096 83.3199 291.089 82.8774 293.109 82.851C295.128 82.8247 297.132 83.215 298.994 83.9976C303.298 85.947 306.255 89.8566 310.296 92.2221C315.082 95.0147 320.81 94.3576 326.099 95.2009C331.389 96.0442 335.452 100.501 340.095 103.064C341.608 104.035 343.357 104.576 345.155 104.63C346.184 104.63 347.202 104.323 348.232 104.203C349.831 104.006 351.342 104.05 352.415 105.375C352.667 105.736 352.612 107.116 352.152 107.116Z" fill="#EBEBEB"/>
<path d="M485.419 154.919C478.454 154.919 361.176 155.685 353.806 155.455C353.28 155.455 352.995 154.656 353.521 154.36C358.164 152.06 363.432 152.52 368.262 150.889C371.098 149.936 372.85 148.074 374.832 145.95C376.46 144.085 378.571 142.706 380.932 141.963C383.091 141.31 385.384 141.238 387.58 141.755C389.956 142.325 392.026 143.683 394.293 144.537C399.922 146.672 405.398 144.646 409.428 140.474C412.713 137.046 415.999 133.805 420.511 131.954C422.353 131.121 424.347 130.676 426.369 130.648C428.391 130.62 430.396 131.008 432.261 131.789C436.565 133.739 439.511 137.659 443.552 140.014C448.349 142.807 454.076 142.149 459.366 142.993C464.655 143.836 468.718 148.293 473.351 150.856C474.86 151.835 476.612 152.377 478.41 152.422C479.506 152.422 480.469 152.115 481.499 151.995C483.087 151.798 484.609 151.841 485.682 153.167C485.934 153.539 485.879 154.919 485.419 154.919Z" fill="#EBEBEB"/>
<path d="M586.96 29.2737C586.829 29.6679 402.123 29.2737 404.456 29.2737C405.551 29.2737 402.835 27.6857 403.875 27.182C409.888 24.1922 416.47 24.1046 423.018 23.5023C426.84 23.1628 430.761 22.6043 434.2 20.7973C437.639 18.9903 439.851 15.8035 442.326 12.8795C446.135 8.37221 451.029 4.90993 456.548 2.81944C462.066 0.728941 468.026 0.0791952 473.866 0.93153C487.007 2.99039 497.345 12.978 510.509 14.8398C518.405 15.9349 525.841 12.8795 533.605 11.8062C539.968 10.9192 545.258 12.1567 550.952 14.9821C555.114 17.041 558.969 18.7823 563.678 19.1108C567.292 19.3627 570.928 18.9465 574.553 18.9137C580.487 19.0227 586.178 21.2973 590.553 25.3093C591.133 25.824 593.017 29.2737 586.96 29.2737Z" fill="#EBEBEB"/>
<path d="M594.834 43.2804H533.583V364.342H594.834V43.2804Z" fill="#DBDBDB"/>
<path d="M554.994 53.7062H543.089V65.9608H554.994V53.7062Z" fill="#EBEBEB"/>
<path d="M570.227 53.7062H558.323V65.9608H570.227V53.7062Z" fill="#EBEBEB"/>
<path d="M554.994 74.5246H543.089V86.7792H554.994V74.5246Z" fill="#EBEBEB"/>
<path d="M570.227 74.5246H558.323V86.7792H570.227V74.5246Z" fill="#EBEBEB"/>
<path d="M554.994 95.3322H543.089V107.587H554.994V95.3322Z" fill="#EBEBEB"/>
<path d="M570.227 95.3322H558.323V107.587H570.227V95.3322Z" fill="#EBEBEB"/>
<path d="M554.994 116.151H543.089V128.405H554.994V116.151Z" fill="#EBEBEB"/>
<path d="M570.227 116.151H558.323V128.405H570.227V116.151Z" fill="#EBEBEB"/>
<path d="M554.994 136.958H543.089V149.213H554.994V136.958Z" fill="#EBEBEB"/>
<path d="M570.227 136.958H558.323V149.213H570.227V136.958Z" fill="#EBEBEB"/>
<path d="M554.994 157.777H543.089V170.032H554.994V157.777Z" fill="#EBEBEB"/>
<path d="M570.227 157.777H558.323V170.032H570.227V157.777Z" fill="#EBEBEB"/>
<path d="M554.994 178.585H543.089V190.839H554.994V178.585Z" fill="#EBEBEB"/>
<path d="M570.227 178.585H558.323V190.839H570.227V178.585Z" fill="#EBEBEB"/>
<path d="M554.994 199.403H543.089V211.658H554.994V199.403Z" fill="#EBEBEB"/>
<path d="M570.227 199.403H558.323V211.658H570.227V199.403Z" fill="#EBEBEB"/>
<path d="M554.994 220.211H543.089V232.465H554.994V220.211Z" fill="#EBEBEB"/>
<path d="M570.227 220.211H558.323V232.465H570.227V220.211Z" fill="#EBEBEB"/>
<path d="M554.994 241.029H543.089V253.284H554.994V241.029Z" fill="#EBEBEB"/>
<path d="M570.227 241.029H558.323V253.284H570.227V241.029Z" fill="#EBEBEB"/>
<path d="M554.994 261.837H543.089V274.091H554.994V261.837Z" fill="#EBEBEB"/>
<path d="M570.227 261.837H558.323V274.091H570.227V261.837Z" fill="#EBEBEB"/>
<path d="M554.994 282.655H543.089V294.91H554.994V282.655Z" fill="#EBEBEB"/>
<path d="M570.227 282.655H558.323V294.91H570.227V282.655Z" fill="#EBEBEB"/>
<path d="M554.994 303.463H543.089V315.718H554.994V303.463Z" fill="#EBEBEB"/>
<path d="M570.227 303.463H558.323V315.718H570.227V303.463Z" fill="#EBEBEB"/>
<path d="M554.994 324.282H543.089V336.536H554.994V324.282Z" fill="#EBEBEB"/>
<path d="M573.425 336.536H585.329V324.282H573.425V336.536Z" fill="#EBEBEB"/>
<path d="M573.425 315.729H585.329V303.474H573.425V315.729Z" fill="#EBEBEB"/>
<path d="M573.425 294.91H585.329V282.656H573.425V294.91Z" fill="#EBEBEB"/>
<path d="M573.425 274.102H585.329V261.848H573.425V274.102Z" fill="#EBEBEB"/>
<path d="M573.425 253.284H585.329V241.029H573.425V253.284Z" fill="#EBEBEB"/>
<path d="M573.425 232.476H585.329V220.222H573.425V232.476Z" fill="#EBEBEB"/>
<path d="M573.425 211.658H585.329V199.403H573.425V211.658Z" fill="#EBEBEB"/>
<path d="M573.425 190.85H585.329V178.596H573.425V190.85Z" fill="#EBEBEB"/>
<path d="M573.425 170.032H585.329V157.777H573.425V170.032Z" fill="#EBEBEB"/>
<path d="M573.425 149.224H585.329V136.97H573.425V149.224Z" fill="#EBEBEB"/>
<path d="M573.425 128.405H585.329V116.151H573.425V128.405Z" fill="#EBEBEB"/>
<path d="M573.425 107.598H585.329V95.3432H573.425V107.598Z" fill="#EBEBEB"/>
<path d="M573.425 86.7792H585.329V74.5246H573.425V86.7792Z" fill="#EBEBEB"/>
<path d="M573.425 65.9716H585.329V53.717H573.425V65.9716Z" fill="#EBEBEB"/>
<path d="M570.227 324.282H558.323V336.536H570.227V324.282Z" fill="#EBEBEB"/>
<path d="M643.13 43.2804H594.834V364.342H643.13V43.2804Z" fill="#A6A6A6"/>
<path d="M628.324 336.536H638.158V324.282H628.324V336.536Z" fill="#C7C7C7"/>
<path d="M615.741 336.536H625.575V324.282H615.741V336.536Z" fill="#C7C7C7"/>
<path d="M628.324 315.729H638.158V303.474H628.324V315.729Z" fill="#C7C7C7"/>
<path d="M615.741 315.729H625.575V303.474H615.741V315.729Z" fill="#C7C7C7"/>
<path d="M628.324 294.91H638.158V282.656H628.324V294.91Z" fill="#C7C7C7"/>
<path d="M615.741 294.91H625.575V282.656H615.741V294.91Z" fill="#C7C7C7"/>
<path d="M628.324 274.102H638.158V261.848H628.324V274.102Z" fill="#C7C7C7"/>
<path d="M615.741 274.102H625.575V261.848H615.741V274.102Z" fill="#C7C7C7"/>
<path d="M628.324 253.284H638.158V241.029H628.324V253.284Z" fill="#C7C7C7"/>
<path d="M615.741 253.284H625.575V241.029H615.741V253.284Z" fill="#C7C7C7"/>
<path d="M628.324 232.476H638.158V220.222H628.324V232.476Z" fill="#C7C7C7"/>
<path d="M615.741 232.476H625.575V220.222H615.741V232.476Z" fill="#C7C7C7"/>
<path d="M628.324 211.658H638.158V199.403H628.324V211.658Z" fill="#C7C7C7"/>
<path d="M615.741 211.658H625.575V199.403H615.741V211.658Z" fill="#C7C7C7"/>
<path d="M628.324 190.85H638.158V178.596H628.324V190.85Z" fill="#C7C7C7"/>
<path d="M615.741 190.85H625.575V178.596H615.741V190.85Z" fill="#C7C7C7"/>
<path d="M628.324 170.032H638.158V157.777H628.324V170.032Z" fill="#C7C7C7"/>
<path d="M615.741 170.032H625.575V157.777H615.741V170.032Z" fill="#C7C7C7"/>
<path d="M628.324 149.224H638.158V136.97H628.324V149.224Z" fill="#C7C7C7"/>
<path d="M615.741 149.224H625.575V136.97H615.741V149.224Z" fill="#C7C7C7"/>
<path d="M628.324 128.405H638.158V116.151H628.324V128.405Z" fill="#C7C7C7"/>
<path d="M615.741 128.405H625.575V116.151H615.741V128.405Z" fill="#C7C7C7"/>
<path d="M628.324 107.598H638.158V95.3432H628.324V107.598Z" fill="#C7C7C7"/>
<path d="M615.741 107.598H625.575V95.3432H615.741V107.598Z" fill="#C7C7C7"/>
<path d="M628.324 86.7792H638.158V74.5246H628.324V86.7792Z" fill="#C7C7C7"/>
<path d="M615.741 86.7792H625.575V74.5246H615.741V86.7792Z" fill="#C7C7C7"/>
<path d="M628.324 65.9716H638.158V53.717H628.324V65.9716Z" fill="#C7C7C7"/>
<path d="M613.101 53.7062H603.267V65.9608H613.101V53.7062Z" fill="#C7C7C7"/>
<path d="M613.101 74.5246H603.267V86.7792H613.101V74.5246Z" fill="#C7C7C7"/>
<path d="M613.101 95.3322H603.267V107.587H613.101V95.3322Z" fill="#C7C7C7"/>
<path d="M613.101 116.151H603.267V128.405H613.101V116.151Z" fill="#C7C7C7"/>
<path d="M613.101 136.958H603.267V149.213H613.101V136.958Z" fill="#C7C7C7"/>
<path d="M613.101 157.777H603.267V170.032H613.101V157.777Z" fill="#C7C7C7"/>
<path d="M613.101 178.585H603.267V190.839H613.101V178.585Z" fill="#C7C7C7"/>
<path d="M613.101 199.403H603.267V211.658H613.101V199.403Z" fill="#C7C7C7"/>
<path d="M613.101 220.211H603.267V232.465H613.101V220.211Z" fill="#C7C7C7"/>
<path d="M613.101 241.029H603.267V253.284H613.101V241.029Z" fill="#C7C7C7"/>
<path d="M613.101 261.837H603.267V274.091H613.101V261.837Z" fill="#C7C7C7"/>
<path d="M613.101 282.655H603.267V294.91H613.101V282.655Z" fill="#C7C7C7"/>
<path d="M613.101 303.463H603.267V315.718H613.101V303.463Z" fill="#C7C7C7"/>
<path d="M613.101 324.282H603.267V336.536H613.101V324.282Z" fill="#C7C7C7"/>
<path d="M615.741 65.9716H625.575V53.717H615.741V65.9716Z" fill="#C7C7C7"/>
<path d="M161.763 18.377H88.0271V364.342H161.763V18.377Z" fill="#EBEBEB"/>
<path d="M161.763 11.4887H86.2531V18.3771H161.763V11.4887Z" fill="#C7C7C7"/>
<path d="M102.165 28.529H94.6965V364.342H102.165V28.529Z" fill="white"/>
<path d="M115.395 28.529H107.926V364.342H115.395V28.529Z" fill="white"/>
<path d="M128.624 28.529H121.155V364.342H128.624V28.529Z" fill="white"/>
<path d="M141.864 28.529H134.395V364.342H141.864V28.529Z" fill="white"/>
<path d="M155.093 28.529H147.625V364.342H155.093V28.529Z" fill="white"/>
<path d="M102.165 37.2353H94.6965V50.8369H102.165V37.2353Z" fill="#EBEBEB"/>
<path d="M115.395 37.2353H107.926V50.8369H115.395V37.2353Z" fill="#EBEBEB"/>
<path d="M128.624 37.2353H121.155V50.8369H128.624V37.2353Z" fill="#EBEBEB"/>
<path d="M141.864 37.2353H134.395V50.8369H141.864V37.2353Z" fill="#EBEBEB"/>
<path d="M155.093 37.2353H147.625V50.8369H155.093V37.2353Z" fill="#EBEBEB"/>
<path d="M102.165 59.335H94.6965V72.9366H102.165V59.335Z" fill="#EBEBEB"/>
<path d="M115.395 59.335H107.926V72.9366H115.395V59.335Z" fill="#EBEBEB"/>
<path d="M128.624 59.335H121.155V72.9366H128.624V59.335Z" fill="#EBEBEB"/>
<path d="M141.864 59.335H134.395V72.9366H141.864V59.335Z" fill="#EBEBEB"/>
<path d="M155.093 59.335H147.625V72.9366H155.093V59.335Z" fill="#EBEBEB"/>
<path d="M102.165 81.4349H94.6965V95.0365H102.165V81.4349Z" fill="#EBEBEB"/>
<path d="M115.395 81.4349H107.926V95.0365H115.395V81.4349Z" fill="#EBEBEB"/>
<path d="M128.624 81.4349H121.155V95.0365H128.624V81.4349Z" fill="#EBEBEB"/>
<path d="M141.864 81.4349H134.395V95.0365H141.864V81.4349Z" fill="#EBEBEB"/>
<path d="M155.093 81.4349H147.625V95.0365H155.093V81.4349Z" fill="#EBEBEB"/>
<path d="M102.165 103.546H94.6965V117.148H102.165V103.546Z" fill="#EBEBEB"/>
<path d="M115.395 103.546H107.926V117.148H115.395V103.546Z" fill="#EBEBEB"/>
<path d="M128.624 103.546H121.155V117.148H128.624V103.546Z" fill="#EBEBEB"/>
<path d="M141.864 103.546H134.395V117.148H141.864V103.546Z" fill="#EBEBEB"/>
<path d="M155.093 103.546H147.625V117.148H155.093V103.546Z" fill="#EBEBEB"/>
<path d="M102.165 125.646H94.6965V139.247H102.165V125.646Z" fill="#EBEBEB"/>
<path d="M115.395 125.646H107.926V139.247H115.395V125.646Z" fill="#EBEBEB"/>
<path d="M128.624 125.646H121.155V139.247H128.624V125.646Z" fill="#EBEBEB"/>
<path d="M141.864 125.646H134.395V139.247H141.864V125.646Z" fill="#EBEBEB"/>
<path d="M155.093 125.646H147.625V139.247H155.093V125.646Z" fill="#EBEBEB"/>
<path d="M102.165 147.746H94.6965V161.347H102.165V147.746Z" fill="#EBEBEB"/>
<path d="M115.395 147.746H107.926V161.347H115.395V147.746Z" fill="#EBEBEB"/>
<path d="M128.624 147.746H121.155V161.347H128.624V147.746Z" fill="#EBEBEB"/>
<path d="M141.864 147.746H134.395V161.347H141.864V147.746Z" fill="#EBEBEB"/>
<path d="M155.093 147.746H147.625V161.347H155.093V147.746Z" fill="#EBEBEB"/>
<path d="M102.165 169.845H94.6965V183.447H102.165V169.845Z" fill="#EBEBEB"/>
<path d="M115.395 169.845H107.926V183.447H115.395V169.845Z" fill="#EBEBEB"/>
<path d="M128.624 169.845H121.155V183.447H128.624V169.845Z" fill="#EBEBEB"/>
<path d="M141.864 169.845H134.395V183.447H141.864V169.845Z" fill="#EBEBEB"/>
<path d="M155.093 169.845H147.625V183.447H155.093V169.845Z" fill="#EBEBEB"/>
<path d="M102.165 191.956H94.6965V205.558H102.165V191.956Z" fill="#EBEBEB"/>
<path d="M115.395 191.956H107.926V205.558H115.395V191.956Z" fill="#EBEBEB"/>
<path d="M128.624 191.956H121.155V205.558H128.624V191.956Z" fill="#EBEBEB"/>
<path d="M141.864 191.956H134.395V205.558H141.864V191.956Z" fill="#EBEBEB"/>
<path d="M155.093 191.956H147.625V205.558H155.093V191.956Z" fill="#EBEBEB"/>
<path d="M102.165 214.056H94.6965V227.658H102.165V214.056Z" fill="#EBEBEB"/>
<path d="M115.395 214.056H107.926V227.658H115.395V214.056Z" fill="#EBEBEB"/>
<path d="M128.624 214.056H121.155V227.658H128.624V214.056Z" fill="#EBEBEB"/>
<path d="M141.864 214.056H134.395V227.658H141.864V214.056Z" fill="#EBEBEB"/>
<path d="M155.093 214.056H147.625V227.658H155.093V214.056Z" fill="#EBEBEB"/>
<path d="M102.165 236.156H94.6965V249.758H102.165V236.156Z" fill="#EBEBEB"/>
<path d="M115.395 236.156H107.926V249.758H115.395V236.156Z" fill="#EBEBEB"/>
<path d="M128.624 236.156H121.155V249.758H128.624V236.156Z" fill="#EBEBEB"/>
<path d="M141.864 236.156H134.395V249.758H141.864V236.156Z" fill="#EBEBEB"/>
<path d="M155.093 236.156H147.625V249.758H155.093V236.156Z" fill="#EBEBEB"/>
<path d="M102.165 258.256H94.6965V271.857H102.165V258.256Z" fill="#EBEBEB"/>
<path d="M115.395 258.256H107.926V271.857H115.395V258.256Z" fill="#EBEBEB"/>
<path d="M128.624 258.256H121.155V271.857H128.624V258.256Z" fill="#EBEBEB"/>
<path d="M141.864 258.256H134.395V271.857H141.864V258.256Z" fill="#EBEBEB"/>
<path d="M155.093 258.256H147.625V271.857H155.093V258.256Z" fill="#EBEBEB"/>
<path d="M102.165 280.356H94.6965V293.957H102.165V280.356Z" fill="#EBEBEB"/>
<path d="M115.395 280.356H107.926V293.957H115.395V280.356Z" fill="#EBEBEB"/>
<path d="M128.624 280.356H121.155V293.957H128.624V280.356Z" fill="#EBEBEB"/>
<path d="M141.864 280.356H134.395V293.957H141.864V280.356Z" fill="#EBEBEB"/>
<path d="M155.093 280.356H147.625V293.957H155.093V280.356Z" fill="#EBEBEB"/>
<path d="M102.165 302.467H94.6965V316.068H102.165V302.467Z" fill="#EBEBEB"/>
<path d="M115.395 302.467H107.926V316.068H115.395V302.467Z" fill="#EBEBEB"/>
<path d="M128.624 302.467H121.155V316.068H128.624V302.467Z" fill="#EBEBEB"/>
<path d="M141.864 302.467H134.395V316.068H141.864V302.467Z" fill="#EBEBEB"/>
<path d="M155.093 302.467H147.625V316.068H155.093V302.467Z" fill="#EBEBEB"/>
<path d="M102.165 324.566H94.6965V364.342H102.165V324.566Z" fill="#EBEBEB"/>
<path d="M115.395 324.566H107.926V364.342H115.395V324.566Z" fill="#EBEBEB"/>
<path d="M128.624 324.566H121.155V364.342H128.624V324.566Z" fill="#EBEBEB"/>
<path d="M141.864 324.566H134.395V364.342H141.864V324.566Z" fill="#EBEBEB"/>
<path d="M155.093 324.566H147.625V364.342H155.093V324.566Z" fill="#EBEBEB"/>
<path d="M209.094 18.377H161.763V364.342H209.094V18.377Z" fill="#DBDBDB"/>
<path d="M211.153 11.4887H161.763V18.3771H211.153V11.4887Z" fill="#C7C7C7"/>
<path d="M175.89 28.529H168.421V364.342H175.89V28.529Z" fill="#C7C7C7"/>
<path d="M189.13 28.529H181.661V364.342H189.13V28.529Z" fill="#C7C7C7"/>
<path d="M202.359 28.529H194.891V364.342H202.359V28.529Z" fill="#C7C7C7"/>
<path d="M175.89 37.2353H168.421V50.8369H175.89V37.2353Z" fill="#DBDBDB"/>
<path d="M189.13 37.2353H181.661V50.8369H189.13V37.2353Z" fill="#DBDBDB"/>
<path d="M202.359 37.2353H194.891V50.8369H202.359V37.2353Z" fill="#DBDBDB"/>
<path d="M175.89 59.335H168.421V72.9366H175.89V59.335Z" fill="#DBDBDB"/>
<path d="M189.13 59.335H181.661V72.9366H189.13V59.335Z" fill="#DBDBDB"/>
<path d="M202.359 59.335H194.891V72.9366H202.359V59.335Z" fill="#DBDBDB"/>
<path d="M175.89 81.4349H168.421V95.0365H175.89V81.4349Z" fill="#DBDBDB"/>
<path d="M189.13 81.4349H181.661V95.0365H189.13V81.4349Z" fill="#DBDBDB"/>
<path d="M202.359 81.4349H194.891V95.0365H202.359V81.4349Z" fill="#DBDBDB"/>
<path d="M175.89 103.546H168.421V117.148H175.89V103.546Z" fill="#DBDBDB"/>
<path d="M189.13 103.546H181.661V117.148H189.13V103.546Z" fill="#DBDBDB"/>
<path d="M202.359 103.546H194.891V117.148H202.359V103.546Z" fill="#DBDBDB"/>
<path d="M175.89 125.646H168.421V139.247H175.89V125.646Z" fill="#DBDBDB"/>
<path d="M189.13 125.646H181.661V139.247H189.13V125.646Z" fill="#DBDBDB"/>
<path d="M202.359 125.646H194.891V139.247H202.359V125.646Z" fill="#DBDBDB"/>
<path d="M175.89 147.746H168.421V161.347H175.89V147.746Z" fill="#DBDBDB"/>
<path d="M189.13 147.746H181.661V161.347H189.13V147.746Z" fill="#DBDBDB"/>
<path d="M202.359 147.746H194.891V161.347H202.359V147.746Z" fill="#DBDBDB"/>
<path d="M175.89 169.845H168.421V183.447H175.89V169.845Z" fill="#DBDBDB"/>
<path d="M189.13 169.845H181.661V183.447H189.13V169.845Z" fill="#DBDBDB"/>
<path d="M202.359 169.845H194.891V183.447H202.359V169.845Z" fill="#DBDBDB"/>
<path d="M175.89 191.956H168.421V205.558H175.89V191.956Z" fill="#DBDBDB"/>
<path d="M189.13 191.956H181.661V205.558H189.13V191.956Z" fill="#DBDBDB"/>
<path d="M202.359 191.956H194.891V205.558H202.359V191.956Z" fill="#DBDBDB"/>
<path d="M175.89 214.056H168.421V227.658H175.89V214.056Z" fill="#DBDBDB"/>
<path d="M189.13 214.056H181.661V227.658H189.13V214.056Z" fill="#DBDBDB"/>
<path d="M202.359 214.056H194.891V227.658H202.359V214.056Z" fill="#DBDBDB"/>
<path d="M175.89 236.156H168.421V249.758H175.89V236.156Z" fill="#DBDBDB"/>
<path d="M189.13 236.156H181.661V249.758H189.13V236.156Z" fill="#DBDBDB"/>
<path d="M202.359 236.156H194.891V249.758H202.359V236.156Z" fill="#DBDBDB"/>
<path d="M175.89 258.256H168.421V271.857H175.89V258.256Z" fill="#DBDBDB"/>
<path d="M189.13 258.256H181.661V271.857H189.13V258.256Z" fill="#DBDBDB"/>
<path d="M202.359 258.256H194.891V271.857H202.359V258.256Z" fill="#DBDBDB"/>
<path d="M175.89 280.356H168.421V293.957H175.89V280.356Z" fill="#DBDBDB"/>
<path d="M189.13 280.356H181.661V293.957H189.13V280.356Z" fill="#DBDBDB"/>
<path d="M202.359 280.356H194.891V293.957H202.359V280.356Z" fill="#DBDBDB"/>
<path d="M175.89 302.467H168.421V316.068H175.89V302.467Z" fill="#DBDBDB"/>
<path d="M189.13 302.467H181.661V316.068H189.13V302.467Z" fill="#DBDBDB"/>
<path d="M202.359 302.467H194.891V316.068H202.359V302.467Z" fill="#DBDBDB"/>
<path d="M175.89 324.566H168.421V364.342H175.89V324.566Z" fill="#DBDBDB"/>
<path d="M189.13 324.566H181.661V364.342H189.13V324.566Z" fill="#DBDBDB"/>
<path d="M202.359 324.566H194.891V364.342H202.359V324.566Z" fill="#DBDBDB"/>
<path d="M73.0237 134.527H12.4298V364.342H73.0237V134.527Z" fill="#EBEBEB"/>
<path d="M73.0238 119.294H21.0486V134.538H73.0238V119.294Z" fill="black"/>
<path d="M66.3763 142.489H19.0664V314.283H66.3763V142.489Z" fill="#DBDBDB"/>
<path d="M66.3763 158.883H19.0664V162.946H66.3763V158.883Z" fill="white"/>
<path d="M66.3763 175.694H19.0664V179.757H66.3763V175.694Z" fill="white"/>
<path d="M66.3763 192.515H19.0664V196.578H66.3763V192.515Z" fill="white"/>
<path d="M66.3763 209.325H19.0664V213.388H66.3763V209.325Z" fill="white"/>
<path d="M66.3763 226.146H19.0664V230.209H66.3763V226.146Z" fill="white"/>
<path d="M66.3763 242.957H19.0664V247.02H66.3763V242.957Z" fill="white"/>
<path d="M66.3763 259.778H19.0664V263.841H66.3763V259.778Z" fill="white"/>
<path d="M66.3763 276.588H19.0664V280.651H66.3763V276.588Z" fill="white"/>
<path d="M66.3763 293.41H19.0664V297.473H66.3763V293.41Z" fill="white"/>
<path d="M66.3763 310.22H19.0664V314.283H66.3763V310.22Z" fill="white"/>
<path d="M110.981 134.527H73.0237V364.342H110.981V134.527Z" fill="#DBDBDB"/>
<path d="M105.286 119.294H73.0237V134.538H105.286V119.294Z" fill="#263238"/>
<path d="M107.444 142.489H78.2585V314.283H107.444V142.489Z" fill="#C7C7C7"/>
<path d="M107.444 158.883H78.2585V162.946H107.444V158.883Z" fill="white"/>
<path d="M107.444 175.694H78.2585V179.757H107.444V175.694Z" fill="white"/>
<path d="M107.444 192.515H78.2585V196.578H107.444V192.515Z" fill="white"/>
<path d="M107.444 209.325H78.2585V213.388H107.444V209.325Z" fill="white"/>
<path d="M107.444 226.146H78.2585V230.209H107.444V226.146Z" fill="white"/>
<path d="M107.444 242.957H78.2585V247.02H107.444V242.957Z" fill="white"/>
<path d="M107.444 259.778H78.2585V263.841H107.444V259.778Z" fill="white"/>
<path d="M107.444 276.588H78.2585V280.651H107.444V276.588Z" fill="white"/>
<path d="M107.444 293.41H78.2585V297.473H107.444V293.41Z" fill="white"/>
<path d="M107.444 310.22H78.2585V314.283H107.444V310.22Z" fill="white"/>
<path d="M679.018 138.404H646.656V176.635H679.018V138.404Z" fill="#DBDBDB"/>
<path d="M699.541 138.404H679.018V178.037H699.541V138.404Z" fill="#C7C7C7"/>
<path d="M700.91 155.291H680.54V178.037H700.91V155.291Z" fill="#DBDBDB"/>
<path d="M713.613 155.291H700.91V178.037H713.613V155.291Z" fill="#C7C7C7"/>
<path d="M686.574 174.149H634.238V364.342H686.574V174.149Z" fill="#EBEBEB"/>
<path d="M656.688 182.33H640.228V189.054H656.688V182.33Z" fill="white"/>
<path d="M677.736 182.33H661.277V189.054H677.736V182.33Z" fill="white"/>
<path d="M656.688 193.741H640.228V200.465H656.688V193.741Z" fill="white"/>
<path d="M677.736 193.741H661.277V200.465H677.736V193.741Z" fill="white"/>
<path d="M656.688 205.153H640.228V211.877H656.688V205.153Z" fill="white"/>
<path d="M677.736 205.153H661.277V211.877H677.736V205.153Z" fill="white"/>
<path d="M656.688 216.575H640.228V223.299H656.688V216.575Z" fill="white"/>
<path d="M677.736 216.575H661.277V223.299H677.736V216.575Z" fill="white"/>
<path d="M656.688 227.986H640.228V234.71H656.688V227.986Z" fill="white"/>
<path d="M677.736 227.986H661.277V234.71H677.736V227.986Z" fill="white"/>
<path d="M656.688 239.409H640.228V246.133H656.688V239.409Z" fill="white"/>
<path d="M677.736 239.409H661.277V246.133H677.736V239.409Z" fill="white"/>
<path d="M656.688 250.82H640.228V257.544H656.688V250.82Z" fill="white"/>
<path d="M677.736 250.82H661.277V257.544H677.736V250.82Z" fill="white"/>
<path d="M656.688 262.242H640.228V268.966H656.688V262.242Z" fill="white"/>
<path d="M677.736 262.242H661.277V268.966H677.736V262.242Z" fill="white"/>
<path d="M656.688 273.654H640.228V280.378H656.688V273.654Z" fill="white"/>
<path d="M677.736 273.654H661.277V280.378H677.736V273.654Z" fill="white"/>
<path d="M656.688 285.065H640.228V291.789H656.688V285.065Z" fill="white"/>
<path d="M677.736 285.065H661.277V291.789H677.736V285.065Z" fill="white"/>
<path d="M656.688 296.487H640.228V303.211H656.688V296.487Z" fill="white"/>
<path d="M677.736 296.487H661.277V303.211H677.736V296.487Z" fill="white"/>
<path d="M656.688 307.898H640.228V314.623H656.688V307.898Z" fill="white"/>
<path d="M677.736 307.898H661.277V314.623H677.736V307.898Z" fill="white"/>
<path d="M656.688 319.321H640.228V326.045H656.688V319.321Z" fill="white"/>
<path d="M677.736 319.321H661.277V326.045H677.736V319.321Z" fill="white"/>
<path d="M656.688 330.732H640.228V337.456H656.688V330.732Z" fill="white"/>
<path d="M677.736 330.732H661.277V337.456H677.736V330.732Z" fill="white"/>
<path d="M728.978 174.149H686.574V364.342H728.978V174.149Z" fill="#C7C7C7"/>
<path d="M711.215 337.456H724.729V330.732H711.215V337.456Z" fill="#EBEBEB"/>
<path d="M693.923 337.456H707.437V330.732H693.923V337.456Z" fill="#EBEBEB"/>
<path d="M711.215 326.034H724.729V319.31H711.215V326.034Z" fill="#EBEBEB"/>
<path d="M693.923 326.034H707.437V319.31H693.923V326.034Z" fill="#EBEBEB"/>
<path d="M711.215 314.622H724.729V307.898H711.215V314.622Z" fill="#EBEBEB"/>
<path d="M693.923 314.622H707.437V307.898H693.923V314.622Z" fill="#EBEBEB"/>
<path d="M711.215 303.211H724.729V296.487H711.215V303.211Z" fill="#EBEBEB"/>
<path d="M693.923 303.211H707.437V296.487H693.923V303.211Z" fill="#EBEBEB"/>
<path d="M711.215 291.8H724.729V285.076H711.215V291.8Z" fill="#EBEBEB"/>
<path d="M693.923 291.8H707.437V285.076H693.923V291.8Z" fill="#EBEBEB"/>
<path d="M711.215 280.377H724.729V273.653H711.215V280.377Z" fill="#EBEBEB"/>
<path d="M693.923 280.377H707.437V273.653H693.923V280.377Z" fill="#EBEBEB"/>
<path d="M711.215 268.955H724.729V262.231H711.215V268.955Z" fill="#EBEBEB"/>
<path d="M693.923 268.955H707.437V262.231H693.923V268.955Z" fill="#EBEBEB"/>
<path d="M711.215 257.544H724.729V250.82H711.215V257.544Z" fill="#EBEBEB"/>
<path d="M693.923 257.544H707.437V250.82H693.923V257.544Z" fill="#EBEBEB"/>
<path d="M711.215 246.122H724.729V239.397H711.215V246.122Z" fill="#EBEBEB"/>
<path d="M693.923 246.122H707.437V239.397H693.923V246.122Z" fill="#EBEBEB"/>
<path d="M711.215 234.721H724.729V227.997H711.215V234.721Z" fill="#EBEBEB"/>
<path d="M693.923 234.721H707.437V227.997H693.923V234.721Z" fill="#EBEBEB"/>
<path d="M711.215 223.299H724.729V216.575H711.215V223.299Z" fill="#EBEBEB"/>
<path d="M693.923 223.299H707.437V216.575H693.923V223.299Z" fill="#EBEBEB"/>
<path d="M711.215 211.888H724.729V205.164H711.215V211.888Z" fill="#EBEBEB"/>
<path d="M693.923 211.888H707.437V205.164H693.923V211.888Z" fill="#EBEBEB"/>
<path d="M711.215 200.466H724.729V193.741H711.215V200.466Z" fill="#EBEBEB"/>
<path d="M693.923 200.466H707.437V193.741H693.923V200.466Z" fill="#EBEBEB"/>
<path d="M711.215 189.043H724.729V182.319H711.215V189.043Z" fill="#EBEBEB"/>
<path d="M693.923 189.043H707.437V182.319H693.923V189.043Z" fill="#EBEBEB"/>
<path d="M258.748 213.049H196.906V364.342H258.748V213.049Z" fill="#C7C7C7"/>
<path d="M217.571 226.146H206.63V235.411H217.571V226.146Z" fill="#DBDBDB"/>
<path d="M217.571 245.946H206.63V255.211H217.571V245.946Z" fill="#DBDBDB"/>
<path d="M217.571 265.747H206.63V275.011H217.571V265.747Z" fill="#DBDBDB"/>
<path d="M217.571 285.536H206.63V294.801H217.571V285.536Z" fill="#DBDBDB"/>
<path d="M217.571 305.336H206.63V314.601H217.571V305.336Z" fill="#DBDBDB"/>
<path d="M217.571 325.136H206.63V334.401H217.571V325.136Z" fill="#DBDBDB"/>
<path d="M217.571 344.936H206.63V354.201H217.571V344.936Z" fill="#DBDBDB"/>
<path d="M233.308 226.146H222.368V235.411H233.308V226.146Z" fill="#DBDBDB"/>
<path d="M233.308 245.946H222.368V255.211H233.308V245.946Z" fill="#DBDBDB"/>
<path d="M233.308 265.747H222.368V275.011H233.308V265.747Z" fill="#DBDBDB"/>
<path d="M233.308 285.536H222.368V294.801H233.308V285.536Z" fill="#DBDBDB"/>
<path d="M233.308 305.336H222.368V314.601H233.308V305.336Z" fill="#DBDBDB"/>
<path d="M233.308 325.136H222.368V334.401H233.308V325.136Z" fill="#DBDBDB"/>
<path d="M233.308 344.936H222.368V354.201H233.308V344.936Z" fill="#DBDBDB"/>
<path d="M249.012 226.146H238.072V235.411H249.012V226.146Z" fill="#DBDBDB"/>
<path d="M249.012 245.946H238.072V255.211H249.012V245.946Z" fill="#DBDBDB"/>
<path d="M249.012 265.747H238.072V275.011H249.012V265.747Z" fill="#DBDBDB"/>
<path d="M249.012 285.536H238.072V294.801H249.012V285.536Z" fill="#DBDBDB"/>
<path d="M249.012 305.336H238.072V314.601H249.012V305.336Z" fill="#DBDBDB"/>
<path d="M249.012 325.136H238.072V334.401H249.012V325.136Z" fill="#DBDBDB"/>
<path d="M249.012 344.936H238.072V354.201H249.012V344.936Z" fill="#DBDBDB"/>
<path d="M258.737 197.29H217.571V213.049H258.737V197.29Z" fill="#DBDBDB"/>
<path d="M258.737 187.532H232.64V197.29H258.737V187.532Z" fill="#EBEBEB"/>
<path d="M302.126 213.049H258.737V364.342H302.126V213.049Z" fill="#A6A6A6"/>
<path d="M288.777 352.722H297.68V343.458H288.777V352.722Z" fill="#C7C7C7"/>
<path d="M288.777 332.933H297.68V323.668H288.777V332.933Z" fill="#C7C7C7"/>
<path d="M288.777 313.133H297.68V303.868H288.777V313.133Z" fill="#C7C7C7"/>
<path d="M288.777 293.333H297.68V284.068H288.777V293.333Z" fill="#C7C7C7"/>
<path d="M288.777 273.533H297.68V264.268H288.777V273.533Z" fill="#C7C7C7"/>
<path d="M288.777 253.733H297.68V244.468H288.777V253.733Z" fill="#C7C7C7"/>
<path d="M288.777 233.944H297.68V224.679H288.777V233.944Z" fill="#C7C7C7"/>
<path d="M275.963 352.722H284.867V343.458H275.963V352.722Z" fill="#C7C7C7"/>
<path d="M275.963 332.933H284.867V323.668H275.963V332.933Z" fill="#C7C7C7"/>
<path d="M275.963 313.133H284.867V303.868H275.963V313.133Z" fill="#C7C7C7"/>
<path d="M275.963 293.333H284.867V284.068H275.963V293.333Z" fill="#C7C7C7"/>
<path d="M275.963 273.533H284.867V264.268H275.963V273.533Z" fill="#C7C7C7"/>
<path d="M275.963 253.733H284.867V244.468H275.963V253.733Z" fill="#C7C7C7"/>
<path d="M275.963 233.944H284.867V224.679H275.963V233.944Z" fill="#C7C7C7"/>
<path d="M263.183 352.722H272.087V343.458H263.183V352.722Z" fill="#C7C7C7"/>
<path d="M263.183 332.933H272.087V323.668H263.183V332.933Z" fill="#C7C7C7"/>
<path d="M263.183 313.133H272.087V303.868H263.183V313.133Z" fill="#C7C7C7"/>
<path d="M263.183 293.333H272.087V284.068H263.183V293.333Z" fill="#C7C7C7"/>
<path d="M263.183 273.533H272.087V264.268H263.183V273.533Z" fill="#C7C7C7"/>
<path d="M263.183 253.733H272.087V244.468H263.183V253.733Z" fill="#C7C7C7"/>
<path d="M263.183 233.944H272.087V224.679H263.183V233.944Z" fill="#C7C7C7"/>
<path d="M295.556 197.29H258.737V213.049H295.556V197.29Z" fill="#C7C7C7"/>
<path d="M278.69 187.532H258.737V197.29H278.69V187.532Z" fill="#DBDBDB"/>
<path d="M11.4989 409.297C241.62 408.618 499.766 408.618 729.909 409.297C499.788 409.965 241.642 409.965 11.4989 409.297Z" fill="#EBEBEB"/>
<path d="M11.4989 364.342C241.62 363.674 499.766 363.663 729.909 364.342C499.788 365.021 241.642 365.01 11.4989 364.342Z" fill="#EBEBEB"/>
<path d="M477.742 145.862C476.893 145.437 476.014 145.071 475.114 144.767C474.196 144.419 473.234 144.198 472.256 144.11C471.957 144.087 471.656 144.121 471.369 144.208C471.275 144.243 471.184 144.284 471.095 144.329L470.92 144.46C470.81 144.537 470.723 144.625 470.613 144.712C470.227 145.056 469.862 145.421 469.518 145.807C468.883 146.53 468.302 147.286 467.733 148.063L468.445 147.811C467.486 147.537 466.509 147.332 465.521 147.198C465.016 147.128 464.508 147.091 463.998 147.089C463.727 147.086 463.456 147.104 463.188 147.143C463.039 147.166 462.892 147.202 462.75 147.253C462.598 147.309 462.451 147.378 462.312 147.461C461.876 147.766 461.488 148.135 461.162 148.556C460.845 148.95 460.571 149.356 460.297 149.772C459.78 150.605 459.326 151.477 458.939 152.378C459.574 151.622 460.176 150.867 460.823 150.188C461.14 149.826 461.458 149.476 461.797 149.158C462.104 148.849 462.45 148.58 462.827 148.359C463.18 148.244 463.553 148.207 463.922 148.249C464.382 148.28 464.839 148.342 465.291 148.436C466.211 148.6 467.142 148.83 468.04 149.071L468.489 149.191L468.751 148.819C469.277 148.074 469.847 147.329 470.416 146.629C470.688 146.276 470.981 145.939 471.292 145.621L471.522 145.402L471.621 145.314C471.781 145.25 471.952 145.216 472.124 145.216C473.029 145.214 473.931 145.302 474.818 145.479C475.837 145.501 476.812 145.698 477.742 145.862Z" fill="#EBEBEB"/>
<path d="M467.426 173.722C466.309 172.842 465.135 172.037 463.911 171.313C462.662 170.534 461.314 169.926 459.903 169.506C459.468 169.387 459.015 169.35 458.567 169.396C458.415 169.408 458.267 169.445 458.128 169.506L457.833 169.637C457.636 169.725 457.482 169.824 457.307 169.911C456.676 170.294 456.065 170.711 455.478 171.16C454.317 172.036 453.288 172.977 452.193 173.941L453.288 173.788C451.961 173.106 450.589 172.517 449.181 172.025C448.464 171.781 447.732 171.58 446.991 171.422C446.593 171.345 446.191 171.298 445.786 171.28C445.564 171.264 445.341 171.264 445.118 171.28C444.888 171.28 444.636 171.4 444.417 171.455C443.682 171.778 443.002 172.214 442.402 172.748C441.83 173.231 441.285 173.747 440.771 174.292C439.764 175.359 438.845 176.505 438.022 177.719C439.117 176.8 440.267 175.869 441.428 175.014C441.982 174.575 442.56 174.166 443.158 173.788C443.697 173.42 444.283 173.126 444.899 172.912C445.478 172.843 446.065 172.903 446.619 173.087C447.283 173.265 447.934 173.489 448.568 173.755C449.86 174.27 451.174 174.85 452.423 175.496L453.047 175.803L453.54 175.332C454.525 174.379 455.577 173.459 456.628 172.572C457.134 172.131 457.664 171.718 458.216 171.335C458.347 171.258 458.479 171.16 458.61 171.094L458.786 170.995C458.786 170.995 458.786 170.995 458.851 170.995C459.105 170.95 459.364 170.95 459.618 170.995C460.95 171.255 462.252 171.648 463.506 172.167C464.809 172.649 466.112 173.197 467.426 173.722Z" fill="#EBEBEB"/>
<path d="M252.199 61.5473C251.437 60.9806 250.635 60.4683 249.801 60.0141C248.949 59.5292 248.035 59.1608 247.085 58.919C246.788 58.8666 246.484 58.8666 246.187 58.919C246.09 58.9412 245.995 58.9705 245.902 59.0066L245.705 59.1052C245.588 59.1644 245.475 59.2302 245.365 59.3023C244.951 59.5677 244.553 59.8565 244.172 60.1675C243.416 60.7807 242.726 61.4269 242.036 62.0949L242.77 61.9635C241.869 61.5438 240.944 61.1781 239.999 60.8683C239.517 60.7369 239.025 60.6055 238.51 60.5179C238.242 60.4696 237.971 60.444 237.699 60.4412C237.55 60.431 237.4 60.431 237.25 60.4412C237.094 60.4734 236.94 60.5174 236.79 60.5727C236.305 60.8056 235.858 61.1122 235.465 61.4816C235.099 61.8271 234.751 62.1927 234.425 62.5768C233.775 63.3119 233.182 64.0953 232.651 64.9204C233.396 64.2852 234.118 63.639 234.841 63.0367C235.213 62.741 235.597 62.4453 235.936 62.1935C236.273 61.9394 236.641 61.7296 237.031 61.5692C237.416 61.5115 237.808 61.5377 238.181 61.6459C238.627 61.7558 239.066 61.8911 239.495 62.0511C240.372 62.3687 241.259 62.741 242.102 63.1462L242.529 63.3324L242.847 63.0148C243.482 62.3577 244.172 61.7116 244.851 61.0983C245.178 60.7949 245.522 60.5097 245.88 60.2441C245.968 60.2441 246.055 60.1127 246.143 60.0689L246.252 60.0032C246.252 60.0032 246.252 60.0032 246.307 60.0032C246.474 59.9732 246.644 59.9732 246.811 60.0032C247.703 60.1549 248.58 60.3895 249.428 60.7041C250.425 60.8902 251.334 61.2297 252.199 61.5473Z" fill="#EBEBEB"/>
<path d="M283.651 57.7254C282.845 56.5492 281.96 55.4295 281.001 54.3743C280.042 53.26 278.937 52.2801 277.716 51.4612C277.337 51.2194 276.918 51.0487 276.478 50.9575C276.329 50.9348 276.178 50.9348 276.029 50.9575C275.92 50.951 275.81 50.951 275.701 50.9575L275.12 51.0779C274.4 51.2468 273.69 51.4589 272.996 51.7131C271.638 52.2059 270.345 52.8082 269.031 53.3996L270.126 53.5748C269.058 52.5353 267.92 51.5693 266.721 50.6837C266.107 50.2306 265.463 49.8208 264.793 49.4571C264.44 49.2622 264.074 49.0902 263.698 48.9424C263.483 48.8735 263.263 48.8187 263.041 48.7781C262.8 48.7611 262.559 48.7611 262.318 48.7781C261.523 48.8685 260.747 49.0829 260.018 49.4133C259.317 49.709 258.66 50.0485 258.003 50.3989C256.726 51.1247 255.506 51.9485 254.356 52.863C255.714 52.3154 257.061 51.7679 258.408 51.286C259.07 51.031 259.747 50.8153 260.434 50.6399C261.058 50.4409 261.707 50.3339 262.362 50.3223C262.932 50.4202 263.472 50.6488 263.939 50.9903C264.52 51.3587 265.076 51.7648 265.603 52.2059C266.699 53.082 267.794 54.0457 268.768 55.0095L269.272 55.4913L269.885 55.1847C271.112 54.5714 272.393 54.0019 273.653 53.4653C274.266 53.1952 274.895 52.9612 275.536 52.7644C275.684 52.7155 275.833 52.6752 275.985 52.644H276.183H276.259C276.515 52.6801 276.763 52.7578 276.993 52.874C278.182 53.5016 279.308 54.2424 280.355 55.0861C281.461 55.9184 282.534 56.8274 283.651 57.7254Z" fill="#EBEBEB"/>
<path d="M508.757 166.889C507.951 165.712 507.065 164.593 506.107 163.538C505.15 162.42 504.045 161.44 502.821 160.624C502.446 160.376 502.025 160.205 501.584 160.121C501.435 160.103 501.284 160.103 501.135 160.121H500.817C500.598 160.121 500.423 160.197 500.226 160.23C499.51 160.406 498.804 160.622 498.112 160.876C496.743 161.369 495.451 161.972 494.137 162.563L495.232 162.738C494.166 161.695 493.028 160.729 491.826 159.847C491.21 159.394 490.567 158.981 489.899 158.609C489.547 158.414 489.181 158.245 488.803 158.106C488.593 158.033 488.377 157.978 488.157 157.941C487.917 157.925 487.675 157.925 487.435 157.941C486.636 158.03 485.856 158.244 485.124 158.577C484.436 158.863 483.767 159.192 483.12 159.562C481.839 160.284 480.616 161.104 479.462 162.015C480.831 161.479 482.167 160.92 483.525 160.438C484.193 160.197 484.872 159.967 485.54 159.792C486.166 159.604 486.814 159.497 487.467 159.475C488.038 159.582 488.579 159.81 489.055 160.143C489.631 160.518 490.183 160.927 490.709 161.369C491.804 162.234 492.899 163.209 493.874 164.173L494.378 164.655L494.991 164.348C496.218 163.735 497.499 163.165 498.758 162.629C499.372 162.357 500.001 162.119 500.642 161.917L501.091 161.807H501.288C501.288 161.807 501.288 161.807 501.365 161.807C501.621 161.838 501.87 161.916 502.098 162.037C503.292 162.683 504.418 163.446 505.46 164.315C506.567 165.082 507.651 165.991 508.757 166.889Z" fill="#EBEBEB"/>
<path d="M86.2202 230.932C72.9722 231.677 59.6928 231.677 46.4448 230.932C59.6928 230.187 72.9722 230.187 86.2202 230.932Z" fill="#EBEBEB"/>
<path d="M55.5235 244.019C41.8627 244.764 28.1714 244.764 14.5106 244.019C28.1711 243.263 41.863 243.263 55.5235 244.019Z" fill="#EBEBEB"/>
<path d="M47.9451 235.893C32.0108 236.638 15.9452 236.638 0 235.893C15.9452 235.138 32.0108 235.138 47.9451 235.893Z" fill="#EBEBEB"/>
<path d="M354.277 160.909C341.029 161.654 327.749 161.654 314.501 160.909C327.749 160.164 341.029 160.164 354.277 160.909Z" fill="#EBEBEB"/>
<path d="M296.158 214.22C282.493 214.965 268.799 214.965 255.134 214.22C268.799 213.476 282.493 213.476 296.158 214.22Z" fill="#EBEBEB"/>
<path d="M318.039 204.638C302.093 205.383 286.028 205.383 270.083 204.638C286.028 203.893 302.093 203.893 318.039 204.638Z" fill="#EBEBEB"/>
<path d="M527.46 125.349H519.995V138.945H527.46V125.349Z" fill="#EBEBEB"/>
<path d="M527.46 147.44H519.995V161.036H527.46V147.44Z" fill="#EBEBEB"/>
<path d="M527.46 169.531H519.995V183.127H527.46V169.531Z" fill="#EBEBEB"/>
<path d="M527.46 191.633H519.995V205.229H527.46V191.633Z" fill="#EBEBEB"/>
<path d="M527.46 213.724H519.995V227.32H527.46V213.724Z" fill="#EBEBEB"/>
<path d="M527.46 235.815H519.995V249.411H527.46V235.815Z" fill="#EBEBEB"/>
<path d="M527.46 257.906H519.995V271.502H527.46V257.906Z" fill="#EBEBEB"/>
<path d="M527.46 279.997H519.995V293.593H527.46V279.997Z" fill="#EBEBEB"/>
<path d="M527.46 302.099H519.995V315.695H527.46V302.099Z" fill="#EBEBEB"/>
<path d="M527.46 324.19H519.995V363.949H527.46V324.19Z" fill="#EBEBEB"/>
<path d="M498.331 134.227H437.761V363.949H498.331V134.227Z" fill="#EBEBEB"/>
<path d="M498.331 119H446.376V134.238H498.331V119Z" fill="black"/>
<path d="M491.686 142.185H444.395V313.911H491.686V142.185Z" fill="#DBDBDB"/>
<path d="M491.686 158.573H444.395V162.634H491.686V158.573Z" fill="white"/>
<path d="M491.686 175.377H444.395V179.438H491.686V175.377Z" fill="white"/>
<path d="M491.686 192.191H444.395V196.253H491.686V192.191Z" fill="white"/>
<path d="M491.686 208.995H444.395V213.056H491.686V208.995Z" fill="white"/>
<path d="M491.686 225.809H444.395V229.871H491.686V225.809Z" fill="white"/>
<path d="M491.686 242.613H444.395V246.674H491.686V242.613Z" fill="white"/>
<path d="M491.686 259.427H444.395V263.489H491.686V259.427Z" fill="white"/>
<path d="M491.686 276.231H444.395V280.292H491.686V276.231Z" fill="white"/>
<path d="M491.686 293.046H444.395V297.107H491.686V293.046Z" fill="white"/>
<path d="M491.686 309.849H444.395V313.911H491.686V309.849Z" fill="white"/>
<path d="M536.273 134.227H498.331V363.949H536.273V134.227Z" fill="#DBDBDB"/>
<path d="M530.58 119H498.331V134.238H530.58V119Z" fill="#263238"/>
<path d="M532.737 142.185H503.563V313.911H532.737V142.185Z" fill="#C7C7C7"/>
<path d="M532.737 158.573H503.563V162.634H532.737V158.573Z" fill="white"/>
<path d="M532.737 175.377H503.563V179.438H532.737V175.377Z" fill="white"/>
<path d="M532.737 192.191H503.563V196.253H532.737V192.191Z" fill="white"/>
<path d="M532.737 208.995H503.563V213.056H532.737V208.995Z" fill="white"/>
<path d="M532.737 225.809H503.563V229.871H532.737V225.809Z" fill="white"/>
<path d="M532.737 242.613H503.563V246.674H532.737V242.613Z" fill="white"/>
<path d="M532.737 259.427H503.563V263.489H532.737V259.427Z" fill="white"/>
<path d="M532.737 276.231H503.563V280.292H532.737V276.231Z" fill="white"/>
<path d="M532.737 293.046H503.563V297.107H532.737V293.046Z" fill="white"/>
<path d="M532.737 309.849H503.563V313.911H532.737V309.849Z" fill="white"/>
<path d="M37.7824 314.995C37.7824 314.995 51.1321 344.64 29.3389 344.673C7.54564 344.706 21.6729 314.009 21.6729 314.009C21.6729 314.009 16.6243 311.819 22.4505 295.239C28.2766 278.658 30.9049 278.68 33.3361 278.68C36.4025 278.68 39.2718 285.842 37.191 296.837C37.1691 296.837 44.846 310.549 37.7824 314.995Z" fill="black"/>
<path d="M27.4333 364.342L29.4922 319.66L31.6387 364.342H27.4333Z" fill="#EBEBEB"/>
<path d="M28.6489 338.387L36.5668 329.133L30.3573 339.614L28.6489 338.387Z" fill="#EBEBEB"/>
<path d="M200.082 318.181C200.082 318.181 193.861 315.728 188.933 324.314C183.896 333.075 190.236 338.912 195.263 335.452C195.263 335.452 199.217 343.731 207.112 341.749C215.008 339.767 216.279 333.459 216.279 333.459C216.279 333.459 223.277 333.94 223.474 328.717C223.671 323.493 218.524 318.86 218.524 318.86C218.524 318.86 218.217 305.839 209.763 305.949C201.308 306.058 200.082 318.181 200.082 318.181Z" fill="white"/>
<path d="M205.897 364.32L207.638 325.574L209.456 364.32H205.897Z" fill="#EBEBEB"/>
<path d="M207.123 340.139L201.67 329.275L208.011 338.442L207.123 340.139Z" fill="#EBEBEB"/>
<path d="M720.195 314.798C720.195 314.798 733.545 344.443 711.752 344.465C689.958 344.487 704.086 313.801 704.086 313.801C704.086 313.801 699.037 311.611 704.874 295.03C710.711 278.45 713.285 278.494 715.672 278.494C718.75 278.494 721.608 285.645 719.527 296.651C719.571 296.64 727.259 310.351 720.195 314.798Z" fill="black"/>
<path d="M709.846 364.144L711.894 319.452L714.04 364.134L709.846 364.144Z" fill="#EBEBEB"/>
<path d="M711.062 338.19L718.968 328.936L712.77 339.416L711.062 338.19Z" fill="#EBEBEB"/>
<path d="M636.527 314.798C636.527 314.798 649.876 344.443 628.083 344.465C606.29 344.487 620.417 313.801 620.417 313.801C620.417 313.801 615.369 311.611 621.206 295.03C627.043 278.45 629.627 278.494 632.048 278.494C635.125 278.494 637.994 285.645 635.902 296.651C635.902 296.64 643.59 310.351 636.527 314.798Z" fill="black"/>
<path d="M626.177 364.144L628.225 319.452L630.383 364.134L626.177 364.144Z" fill="#EBEBEB"/>
<path d="M627.393 338.19L635.3 328.936L629.101 339.416L627.393 338.19Z" fill="#EBEBEB"/>
<path d="M274.54 321.095C274.54 321.095 262.91 347.093 281.998 347.071C301.086 347.05 288.689 320.197 288.689 320.197C288.689 320.197 293.07 318.247 287.955 303.77C282.841 289.292 280.53 289.281 278.395 289.292C275.712 289.292 273.215 295.567 275.109 305.193C275.055 305.183 268.352 317.218 274.54 321.095Z" fill="black"/>
<path d="M283.706 364.298L281.823 325.158L280.027 364.298H283.706Z" fill="#EBEBEB"/>
<path d="M282.589 341.574L275.646 333.47L281.1 342.647L282.589 341.574Z" fill="#EBEBEB"/>
<path d="M454.734 341.574L447.791 333.47L453.245 342.647L454.734 341.574Z" fill="#EBEBEB"/>
<path d="M648.485 318.028C648.485 318.028 642.265 315.564 637.337 324.15C632.288 332.966 638.64 338.748 643.667 335.298C643.667 335.298 647.62 343.578 655.516 341.595C663.412 339.613 664.672 333.294 664.672 333.294C664.672 333.294 671.68 333.787 671.867 328.552C672.053 323.318 666.928 318.696 666.928 318.696C666.928 318.696 666.621 305.675 658.166 305.785C649.712 305.894 648.485 318.028 648.485 318.028Z" fill="white"/>
<path d="M654.301 364.166L656.031 325.42L657.849 364.155L654.301 364.166Z" fill="#EBEBEB"/>
<path d="M655.505 339.931L650.062 329.111L656.579 338.266L655.505 339.931Z" fill="#EBEBEB"/>
<path d="M389.669 36.9998H325V371.81H389.669V36.9998Z" fill="#DBDBDB"/>
<path d="M347.605 47.8719H335.036V60.6513H347.605V47.8719Z" fill="#EBEBEB"/>
<path d="M363.688 47.8719H351.12V60.6513H363.688V47.8719Z" fill="#EBEBEB"/>
<path d="M347.605 69.582H335.036V82.3614H347.605V69.582Z" fill="#EBEBEB"/>
<path d="M363.688 69.582H351.12V82.3614H363.688V69.582Z" fill="#EBEBEB"/>
<path d="M347.605 91.2806H335.036V104.06H347.605V91.2806Z" fill="#EBEBEB"/>
<path d="M363.688 91.2806H351.12V104.06H363.688V91.2806Z" fill="#EBEBEB"/>
<path d="M347.605 112.991H335.036V125.77H347.605V112.991Z" fill="#EBEBEB"/>
<path d="M363.688 112.991H351.12V125.77H363.688V112.991Z" fill="#EBEBEB"/>
<path d="M347.605 134.69H335.036V147.469H347.605V134.69Z" fill="#EBEBEB"/>
<path d="M363.688 134.69H351.12V147.469H363.688V134.69Z" fill="#EBEBEB"/>
<path d="M347.605 156.4H335.036V169.179H347.605V156.4Z" fill="#EBEBEB"/>
<path d="M363.688 156.4H351.12V169.179H363.688V156.4Z" fill="#EBEBEB"/>
<path d="M347.605 178.098H335.036V190.878H347.605V178.098Z" fill="#EBEBEB"/>
<path d="M363.688 178.098H351.12V190.878H363.688V178.098Z" fill="#EBEBEB"/>
<path d="M347.605 199.808H335.036V212.588H347.605V199.808Z" fill="#EBEBEB"/>
<path d="M363.688 199.808H351.12V212.588H363.688V199.808Z" fill="#EBEBEB"/>
<path d="M347.605 221.507H335.036V234.286H347.605V221.507Z" fill="#EBEBEB"/>
<path d="M363.688 221.507H351.12V234.286H363.688V221.507Z" fill="#EBEBEB"/>
<path d="M347.605 243.217H335.036V255.997H347.605V243.217Z" fill="#EBEBEB"/>
<path d="M363.688 243.217H351.12V255.997H363.688V243.217Z" fill="#EBEBEB"/>
<path d="M347.605 264.916H335.036V277.695H347.605V264.916Z" fill="#EBEBEB"/>
<path d="M363.688 264.916H351.12V277.695H363.688V264.916Z" fill="#EBEBEB"/>
<path d="M347.605 286.626H335.036V299.405H347.605V286.626Z" fill="#EBEBEB"/>
<path d="M363.688 286.626H351.12V299.405H363.688V286.626Z" fill="#EBEBEB"/>
<path d="M347.605 308.324H335.036V321.104H347.605V308.324Z" fill="#EBEBEB"/>
<path d="M363.688 308.324H351.12V321.104H363.688V308.324Z" fill="#EBEBEB"/>
<path d="M347.605 330.035H335.036V342.814H347.605V330.035Z" fill="#EBEBEB"/>
<path d="M367.064 342.814H379.632V330.035H367.064V342.814Z" fill="#EBEBEB"/>
<path d="M367.064 321.115H379.632V308.336H367.064V321.115Z" fill="#EBEBEB"/>
<path d="M367.064 299.405H379.632V286.626H367.064V299.405Z" fill="#EBEBEB"/>
<path d="M367.064 277.706H379.632V264.927H367.064V277.706Z" fill="#EBEBEB"/>
<path d="M367.064 255.997H379.632V243.217H367.064V255.997Z" fill="#EBEBEB"/>
<path d="M367.064 234.298H379.632V221.518H367.064V234.298Z" fill="#EBEBEB"/>
<path d="M367.064 212.588H379.632V199.808H367.064V212.588Z" fill="#EBEBEB"/>
<path d="M367.064 190.889H379.632V178.11H367.064V190.889Z" fill="#EBEBEB"/>
<path d="M367.064 169.179H379.632V156.399H367.064V169.179Z" fill="#EBEBEB"/>
<path d="M367.064 147.48H379.632V134.701H367.064V147.48Z" fill="#EBEBEB"/>
<path d="M367.064 125.77H379.632V112.991H367.064V125.77Z" fill="#EBEBEB"/>
<path d="M367.064 104.071H379.632V91.292H367.064V104.071Z" fill="#EBEBEB"/>
<path d="M367.064 82.3615H379.632V69.5821H367.064V82.3615Z" fill="#EBEBEB"/>
<path d="M367.064 60.6627H379.632V47.8833H367.064V60.6627Z" fill="#EBEBEB"/>
<path d="M363.688 330.035H351.12V342.814H363.688V330.035Z" fill="#EBEBEB"/>
<path d="M440.659 36.9998H389.668V371.81H440.659V36.9998Z" fill="#A6A6A6"/>
<path d="M425.027 342.814H435.41V330.035H425.027V342.814Z" fill="#C7C7C7"/>
<path d="M411.741 342.814H422.124V330.035H411.741V342.814Z" fill="#C7C7C7"/>
<path d="M425.027 321.115H435.41V308.336H425.027V321.115Z" fill="#C7C7C7"/>
<path d="M411.741 321.115H422.124V308.336H411.741V321.115Z" fill="#C7C7C7"/>
<path d="M425.027 299.405H435.41V286.626H425.027V299.405Z" fill="#C7C7C7"/>
<path d="M411.741 299.405H422.124V286.626H411.741V299.405Z" fill="#C7C7C7"/>
<path d="M425.027 277.706H435.41V264.927H425.027V277.706Z" fill="#C7C7C7"/>
<path d="M411.741 277.706H422.124V264.927H411.741V277.706Z" fill="#C7C7C7"/>
<path d="M425.027 255.997H435.41V243.217H425.027V255.997Z" fill="#C7C7C7"/>
<path d="M411.741 255.997H422.124V243.217H411.741V255.997Z" fill="#C7C7C7"/>
<path d="M425.027 234.298H435.41V221.518H425.027V234.298Z" fill="#C7C7C7"/>
<path d="M411.741 234.298H422.124V221.518H411.741V234.298Z" fill="#C7C7C7"/>
<path d="M425.027 212.588H435.41V199.808H425.027V212.588Z" fill="#C7C7C7"/>
<path d="M411.741 212.588H422.124V199.808H411.741V212.588Z" fill="#C7C7C7"/>
<path d="M425.027 190.889H435.41V178.11H425.027V190.889Z" fill="#C7C7C7"/>
<path d="M411.741 190.889H422.124V178.11H411.741V190.889Z" fill="#C7C7C7"/>
<path d="M425.027 169.179H435.41V156.399H425.027V169.179Z" fill="#C7C7C7"/>
<path d="M411.741 169.179H422.124V156.399H411.741V169.179Z" fill="#C7C7C7"/>
<path d="M425.027 147.48H435.41V134.701H425.027V147.48Z" fill="#C7C7C7"/>
<path d="M411.741 147.48H422.124V134.701H411.741V147.48Z" fill="#C7C7C7"/>
<path d="M425.027 125.77H435.41V112.991H425.027V125.77Z" fill="#C7C7C7"/>
<path d="M411.741 125.77H422.124V112.991H411.741V125.77Z" fill="#C7C7C7"/>
<path d="M425.027 104.071H435.41V91.292H425.027V104.071Z" fill="#C7C7C7"/>
<path d="M411.741 104.071H422.124V91.292H411.741V104.071Z" fill="#C7C7C7"/>
<path d="M425.027 82.3615H435.41V69.5821H425.027V82.3615Z" fill="#C7C7C7"/>
<path d="M411.741 82.3615H422.124V69.5821H411.741V82.3615Z" fill="#C7C7C7"/>
<path d="M425.027 60.6627H435.41V47.8833H425.027V60.6627Z" fill="#C7C7C7"/>
<path d="M408.955 47.8719H398.572V60.6513H408.955V47.8719Z" fill="#C7C7C7"/>
<path d="M408.955 69.582H398.572V82.3614H408.955V69.582Z" fill="#C7C7C7"/>
<path d="M408.955 91.2806H398.572V104.06H408.955V91.2806Z" fill="#C7C7C7"/>
<path d="M408.955 112.991H398.572V125.77H408.955V112.991Z" fill="#C7C7C7"/>
<path d="M408.955 134.69H398.572V147.469H408.955V134.69Z" fill="#C7C7C7"/>
<path d="M408.955 156.4H398.572V169.179H408.955V156.4Z" fill="#C7C7C7"/>
<path d="M408.955 178.098H398.572V190.878H408.955V178.098Z" fill="#C7C7C7"/>
<path d="M408.955 199.808H398.572V212.588H408.955V199.808Z" fill="#C7C7C7"/>
<path d="M408.955 221.507H398.572V234.286H408.955V221.507Z" fill="#C7C7C7"/>
<path d="M408.955 243.217H398.572V255.997H408.955V243.217Z" fill="#C7C7C7"/>
<path d="M408.955 264.916H398.572V277.695H408.955V264.916Z" fill="#C7C7C7"/>
<path d="M408.955 286.626H398.572V299.405H408.955V286.626Z" fill="#C7C7C7"/>
<path d="M408.955 308.324H398.572V321.104H408.955V308.324Z" fill="#C7C7C7"/>
<path d="M408.955 330.035H398.572V342.814H408.955V330.035Z" fill="#C7C7C7"/>
<path d="M411.741 60.6627H422.124V47.8833H411.741V60.6627Z" fill="#C7C7C7"/>
</svg>
