<svg width="317" height="315" viewBox="0 0 317 315" fill="none" xmlns="http://www.w3.org/2000/svg">
<path d="M202.182 140.038H308.172V-0.000198364H202.182V140.038Z" fill="#EBEBEB"/>
<path d="M257.291 67.9038H303.191V5.61308L257.291 5.61308V67.9038Z" fill="white"/>
<path d="M207.147 67.9038H253.047V5.61308L207.147 5.61308V67.9038Z" fill="white"/>
<path d="M257.291 134.432H303.191V72.1414H257.291V134.432Z" fill="white"/>
<path d="M207.147 134.432H253.047V72.1414H207.147V134.432Z" fill="white"/>
<path d="M237.59 0.00732422H202.174V200.35H222.67L208.369 98.4056L237.59 0.00732422Z" fill="#DBDBDB"/>
<path d="M231.455 5.42188L225.856 28.7064L220.147 51.9689L208.722 98.4938L208.729 98.3614L214.012 146.983L216.645 171.29L219.161 195.612L216.285 171.327L213.519 147.035L208.001 98.4423L207.994 98.3835L208.008 98.3172L219.676 51.8512L225.51 28.6255L231.455 5.42188Z" fill="#EBEBEB"/>
<path d="M204.285 9.52686L204.462 29.6185L204.565 49.7175L204.653 89.9008L204.565 130.084L204.462 150.176L204.285 170.267L204.101 150.176L203.998 130.084L203.917 89.9008L203.998 49.7175L204.101 29.6185L204.285 9.52686Z" fill="#EBEBEB"/>
<path d="M210.9 13.2935L209.819 34.6505L208.663 56.0075L206.243 98.7069V98.6775L207.42 146.254L207.935 170.047L208.369 193.839L207.56 170.054L206.832 146.269L205.522 98.6922V98.6775V98.6627L208.119 55.9707L209.48 34.6358L210.9 13.2935Z" fill="#EBEBEB"/>
<path d="M215.512 190.756L213.18 167.707L210.921 144.651C209.486 129.275 207.978 113.906 206.603 98.5232V98.4276L213.18 62.526L216.52 44.5825L219.911 26.6538L216.821 44.6414L213.68 62.6143L207.294 98.5526V98.457C208.765 113.833 210.119 129.216 211.539 144.599L213.562 167.671L215.512 190.756Z" fill="#EBEBEB"/>
<path d="M202.181 101.392H210.178V96.7205H202.181V101.392Z" fill="#DBDBDB"/>
<path d="M272.667 0.00732422H308.083V200.35H287.587L301.896 98.4056L272.667 0.00732422Z" fill="#DBDBDB"/>
<path d="M278.804 5.42188L284.748 28.6255L290.582 51.8512L302.25 98.3172L302.265 98.3835L302.257 98.4423L296.74 147.035L293.974 171.327L291.097 195.612L293.613 171.29L296.254 146.983L301.529 98.3614L301.536 98.4938L290.111 51.9689L284.402 28.7064L278.804 5.42188Z" fill="#EBEBEB"/>
<path d="M305.973 9.52686L306.157 29.6185L306.26 49.7175L306.341 89.9008L306.26 130.084L306.157 150.176L305.973 170.267L305.797 150.176L305.694 130.084L305.613 89.9008L305.694 49.7175L305.797 29.6185L305.973 9.52686Z" fill="#EBEBEB"/>
<path d="M299.359 13.2935L300.786 34.6358L302.14 55.9707L304.737 98.6627V98.6775V98.6922L303.427 146.269L302.699 170.054L301.897 193.839L302.331 170.047L302.839 146.254L304.016 98.6775V98.7069L301.596 56.0075L300.448 34.6505L299.359 13.2935Z" fill="#EBEBEB"/>
<path d="M294.746 190.756L296.695 167.671L298.726 144.599C300.138 129.216 301.492 113.833 302.963 98.457V98.5526L296.592 62.6143L293.451 44.6414L290.361 26.6538L293.76 44.5825L297.1 62.526L303.67 98.4276V98.5232C302.287 113.906 300.786 129.275 299.344 144.651L297.093 167.707L294.746 190.756Z" fill="#EBEBEB"/>
<path d="M308.084 96.728H300.087V101.4H308.084V96.728Z" fill="#DBDBDB"/>
<path d="M6.56223 241.571H143.672L146.52 185.312H3.70776L6.56223 241.571Z" fill="#EBEBEB"/>
<path d="M137.169 211.061H79.8519L78.7778 191.529H138.42L137.169 211.061ZM80.5214 210.37H136.537L137.684 192.228H79.5062L80.5214 210.37Z" fill="#DBDBDB"/>
<path d="M136.109 233.522H82.0952L81.2197 215.866H137.213L136.109 233.522ZM82.75 232.831H135.477L136.477 216.601H81.9481L82.75 232.831Z" fill="#DBDBDB"/>
<path d="M114.031 203.418H104.401L103.79 198.702H114.634L114.031 203.418ZM105.004 202.726H113.405L113.832 199.394H104.577L105.004 202.726Z" fill="#DBDBDB"/>
<path d="M114.031 227.07H104.401L103.79 222.362H114.634L114.031 227.07ZM105.004 226.379H113.405L113.832 223.053H104.577L105.004 226.379Z" fill="#DBDBDB"/>
<path d="M69.7504 211.061H12.4255L11.3514 191.529H71.001L69.7504 211.061ZM13.1024 210.37H69.1177L70.2874 192.228H12.0798L13.1024 210.37Z" fill="#DBDBDB"/>
<path d="M68.6904 233.522H14.6688L13.7933 215.866H69.7939L68.6904 233.522ZM15.3309 232.831H68.0356L69.0509 216.601H14.5217L15.3309 232.831Z" fill="#DBDBDB"/>
<path d="M46.6056 203.418H36.9755L36.3649 198.702H47.1942L46.6056 203.418ZM37.5861 202.726H45.995L46.4291 199.394H37.1521L37.5861 202.726Z" fill="#DBDBDB"/>
<path d="M46.6056 227.07H36.9755L36.3649 222.362H47.1942L46.6056 227.07ZM37.5861 226.379H45.995L46.4291 223.053H37.1521L37.5861 226.379Z" fill="#DBDBDB"/>
<path d="M18.8551 241.57L17.9944 247.699L16.2655 260.014H12.8813V241.57H18.8551Z" fill="#EBEBEB"/>
<path d="M18.8551 241.57L17.9944 247.699H12.8813V241.57H18.8551Z" fill="#DBDBDB"/>
<path d="M131.371 241.57L132.232 247.699L133.968 260.014H137.352V241.57H131.371Z" fill="#EBEBEB"/>
<path d="M131.371 241.57L132.232 247.699H137.352V241.57H131.371Z" fill="#DBDBDB"/>
<path d="M57.4057 13.5215H15.8688V63.9088H57.4057V13.5215Z" fill="#EBEBEB"/>
<path d="M52.6605 18.127H20.6139V59.3181H52.6605V18.127Z" fill="white"/>
<path d="M21.8646 18.127H20.6139V59.3181H21.8646V18.127Z" fill="#DBDBDB"/>
<path d="M58.6559 13.5215H57.4053V63.9088H58.6559V13.5215Z" fill="#DBDBDB"/>
<path d="M38.9109 23.7993H31.3553V46.3114H38.9109V23.7993Z" fill="#DBDBDB"/>
<path d="M48.2087 39.1313H28.0582V50.1593H48.2087V39.1313Z" stroke="#EBEBEB" stroke-width="0.579979" stroke-miterlimit="10"/>
<path d="M95.6465 76.1362H54.1095V126.524H95.6465V76.1362Z" fill="#EBEBEB"/>
<path d="M90.9012 80.7344H58.8546V121.926H90.9012V80.7344Z" fill="white"/>
<path d="M60.1053 80.7344H58.8546V121.926H60.1053V80.7344Z" fill="#DBDBDB"/>
<path d="M96.8967 76.1362H95.646V126.524H96.8967V76.1362Z" fill="#DBDBDB"/>
<path d="M78.2475 91.3799H71.7734V107.749H78.2475V91.3799Z" fill="#EBEBEB"/>
<path d="M85.0676 101.326H67.6759V112.612H85.0676V101.326Z" stroke="#DBDBDB" stroke-width="0.579979" stroke-miterlimit="10"/>
<path d="M158.283 287.021C217.592 287.021 265.671 282.051 265.671 275.919C265.671 269.788 217.592 264.818 158.283 264.818C98.9741 264.818 50.8947 269.788 50.8947 275.919C50.8947 282.051 98.9741 287.021 158.283 287.021Z" fill="#EBEBEB"/>
<path d="M213.43 311.291C265.137 311.291 307.053 303.798 307.053 294.554C307.053 285.311 265.137 277.817 213.43 277.817C161.723 277.817 119.806 285.311 119.806 294.554C119.806 303.798 161.723 311.291 213.43 311.291Z" fill="#EBEBEB"/>
<path d="M0 259.735L39.5727 259.551L79.1453 259.484L158.283 259.367L237.421 259.484L276.994 259.551L316.567 259.735L276.994 259.911L237.421 259.977L158.283 260.095L79.1453 259.977L39.5727 259.911L0 259.735Z" fill="#263238"/>
<path d="M36.5197 203.932C41.1913 194.368 49.3648 189.402 58.5903 192.161C67.8158 194.92 69.2284 207.728 62.357 210.973C55.4857 214.217 48.5997 204.749 44.9654 202.799C41.3311 200.85 36.5197 203.932 36.5197 203.932Z" fill="#FFA500"/>
<path d="M31.9961 229.49C31.9961 228.335 32.0697 227.173 32.1064 226.018C32.1898 223.708 32.2732 221.398 32.3566 219.088C32.4816 214.858 32.9672 210.716 34.6887 206.817C36.2343 203.284 38.8182 200.305 42.0971 198.275C43.3113 197.539 44.6208 196.972 45.9889 196.59C47.232 195.338 48.811 194.472 50.5354 194.096C52.6698 193.664 54.8635 193.609 57.0169 193.935C57.0978 193.935 57.0904 194.067 57.0169 194.052C54.9626 193.79 52.8767 193.94 50.8812 194.494C50.0301 194.73 49.2045 195.051 48.4167 195.45C47.9191 195.719 47.442 196.024 46.9894 196.362C48.8474 195.976 50.7668 195.994 52.6174 196.414C53.2845 196.574 53.9366 196.791 54.567 197.061C55.0706 196.944 55.5884 196.9 56.1046 196.929C56.7775 196.948 57.4461 197.042 58.0983 197.208C59.4311 197.584 60.7059 198.141 61.8871 198.864C61.8964 198.874 61.9024 198.887 61.9042 198.9C61.9059 198.914 61.9034 198.928 61.8969 198.94C61.8904 198.952 61.8803 198.962 61.868 198.968C61.8557 198.974 61.8418 198.976 61.8283 198.974C60.6732 198.339 59.4351 197.869 58.1498 197.576C57.5227 197.435 56.8857 197.341 56.2444 197.297C55.8915 197.278 55.5379 197.278 55.185 197.297C57.8117 198.508 59.9234 200.611 61.1441 203.234C61.1441 203.307 61.0705 203.366 61.0411 203.293C60.3134 201.774 59.2531 200.438 57.9387 199.385C56.6244 198.331 55.0898 197.588 53.4488 197.208C53.2428 197.157 53.0368 197.128 52.8308 197.091C52.9044 197.385 52.8896 197.731 52.9338 198.018C52.9926 198.489 53.0736 198.952 53.1618 199.416C53.3518 200.366 53.5974 201.304 53.8975 202.226C54.2118 203.156 54.5853 204.065 55.0158 204.948C55.4286 205.883 55.9522 206.764 56.5754 207.574C56.5837 207.581 56.5903 207.589 56.5948 207.598C56.5994 207.607 56.6016 207.618 56.6015 207.628C56.6013 207.638 56.5987 207.648 56.5939 207.658C56.5891 207.667 56.5822 207.675 56.5737 207.681C56.5653 207.687 56.5556 207.691 56.5453 207.692C56.5351 207.694 56.5246 207.693 56.5148 207.69C56.5049 207.687 56.496 207.681 56.4886 207.674C56.4813 207.667 56.4757 207.658 56.4724 207.648C55.9207 206.78 55.2806 205.985 54.773 205.08C53.7909 203.351 53.0929 201.476 52.7057 199.526C52.6027 199.004 52.5218 198.489 52.4629 197.959C52.3992 197.647 52.3794 197.327 52.4041 197.01C51.3204 196.844 50.2197 196.822 49.1303 196.944C49.5423 199.232 49.9763 201.623 51.2638 203.609C51.3079 203.675 51.1902 203.734 51.1534 203.668C50.5541 202.613 50.0257 201.519 49.5717 200.394C49.1523 199.298 48.8874 198.149 48.7845 196.98C46.8838 197.236 45.049 197.85 43.3772 198.79C40.2294 200.621 37.7163 203.37 36.1748 206.669C34.5493 210.221 33.6417 214.059 33.5043 217.962C33.1953 222.869 33.1364 227.806 32.6435 232.676C32.6435 233 32.1064 233.103 32.0402 232.742C31.9244 231.662 31.9096 230.573 31.9961 229.49Z" fill="#263238"/>
<path d="M42.7805 197.473C43.0881 197.101 43.4444 196.772 43.8399 196.495C44.2225 196.178 44.6124 195.869 45.0244 195.59C45.8351 195.036 46.7327 194.62 47.6802 194.361C47.7538 194.361 47.7832 194.464 47.6802 194.479C46.7268 194.72 45.8345 195.159 45.0611 195.766C44.6712 196.053 44.3255 196.362 43.9282 196.679C43.6044 197.018 43.247 197.324 42.8614 197.591C42.832 197.657 42.7805 197.576 42.7805 197.473Z" fill="#263238"/>
<path d="M57.7008 200.983C58.4765 201.881 59.1917 202.829 59.8416 203.822C60.4826 204.816 61.0177 205.874 61.4381 206.978C61.4381 206.978 61.4381 207.03 61.3792 206.978C60.3124 204.888 59.0513 202.903 57.6125 201.049C57.561 201.005 57.6493 200.924 57.7008 200.983Z" fill="#263238"/>
<path d="M47.6506 200.033C47.7485 200.633 47.9266 201.217 48.1803 201.769C48.4322 202.307 48.73 202.821 49.0705 203.307C49.0705 203.344 49.0705 203.373 49.0116 203.351C48.2121 202.421 47.7008 201.278 47.5402 200.063C47.5182 199.989 47.6359 199.952 47.6506 200.033Z" fill="#263238"/>
<path d="M32.6499 204.167C32.6499 204.167 26.0287 195.854 13.2719 198.804C1.13304 201.6 -4.46555 223.854 7.79838 226.51C20.0623 229.166 17.8994 208.589 22.365 205.094C25.6462 202.527 30.3546 203.079 32.6499 204.167Z" fill="#FFA500"/>
<path d="M3.40656 210.951C4.23879 210.221 5.11866 209.548 6.04032 208.935C6.90821 208.346 7.85087 207.876 8.84329 207.537C9.34033 206.781 9.89627 206.065 10.5059 205.396C11.6314 204.183 12.9336 203.146 14.3683 202.321H13.9858C13.3094 202.284 12.6316 202.284 11.9553 202.321C10.5953 202.409 9.26219 202.74 8.01932 203.299C7.94575 203.299 7.89425 203.219 7.96782 203.189C9.22296 202.646 10.5361 202.249 11.8817 202.005C12.5395 201.886 13.207 201.829 13.8754 201.835C14.2342 201.837 14.5927 201.856 14.9495 201.894H15.1555C16.3271 201.307 17.561 200.853 18.8339 200.541L18.4808 200.445C17.8564 200.309 17.2253 200.206 16.5901 200.136C15.3175 199.994 14.0321 200.013 12.7645 200.195C12.6909 200.195 12.6689 200.085 12.7645 200.077C14.0456 199.921 15.3372 199.867 16.6269 199.915C17.7097 199.949 18.7865 200.09 19.8418 200.335C20.6094 200.191 21.3863 200.102 22.1666 200.07C26.5807 199.879 31.4731 201.541 34.2098 205.22C36.9466 208.898 37.491 213.768 37.9692 218.182C38.7178 224.338 38.8828 230.55 38.4621 236.736C38.4621 237.104 37.9177 237.038 37.9103 236.692C37.7411 231.447 37.5572 226.194 37.0569 220.971C36.8215 218.55 36.564 216.115 36.1594 213.717C35.8635 211.66 35.2686 209.657 34.3937 207.772C33.4478 205.834 31.9472 204.221 30.0826 203.138C28.2145 202.067 26.1309 201.426 23.9838 201.262C22.0567 201.1 20.1162 201.281 18.2527 201.799C18.3201 202.17 18.3325 202.549 18.2895 202.924C18.2447 203.399 18.151 203.867 18.01 204.322C17.8696 204.752 17.6898 205.168 17.4729 205.565C17.2375 206.007 16.9432 206.397 16.6784 206.816C16.6342 206.882 16.5312 206.816 16.5754 206.75C17.0983 205.997 17.4384 205.133 17.5686 204.226C17.6422 203.798 17.6938 203.366 17.723 202.932C17.723 202.601 17.723 202.27 17.723 201.938C15.6971 202.563 13.8057 203.561 12.1465 204.881C11.8375 205.131 11.5433 205.396 11.249 205.668C11.6694 206.057 12.0335 206.503 12.3305 206.993C12.7648 207.634 13.1438 208.31 13.4634 209.016C14.0531 210.428 14.4514 211.912 14.6479 213.43C14.6479 213.503 14.5375 213.526 14.5228 213.43C14.2818 211.952 13.7838 210.528 13.0514 209.222C12.7169 208.574 12.3383 207.949 11.9185 207.353C11.7051 207.044 11.4844 206.743 11.249 206.448C11.1239 206.286 10.9841 206.125 10.8664 205.955C9.36621 207.426 8.14047 209.152 7.24685 211.054C7.84504 211.69 8.34135 212.414 8.71823 213.202C9.17461 214.024 9.57286 214.877 9.91004 215.755C10.5558 217.472 11.089 219.229 11.5065 221.015C11.5065 221.088 11.4035 221.11 11.3888 221.015C11.0036 219.229 10.3956 217.499 9.57898 215.865C9.19642 215.063 8.79179 214.276 8.37245 213.496C7.92763 212.786 7.52714 212.049 7.17328 211.289C6.31624 213.141 5.81702 215.138 5.7019 217.175C5.69738 217.188 5.68894 217.199 5.67773 217.207C5.66652 217.215 5.65312 217.219 5.63937 217.219C5.62562 217.219 5.61221 217.215 5.60101 217.207C5.5898 217.199 5.58136 217.188 5.57684 217.175C5.8123 213.968 6.7949 210.862 8.44602 208.104C7.65884 208.435 6.879 208.751 6.1286 209.156C5.17083 209.668 4.279 210.296 3.47277 211.024C3.42863 211.098 3.3477 211.002 3.40656 210.951Z" fill="#263238"/>
<path d="M12.772 211.451C13.1546 212.717 13.6401 213.938 13.9859 215.211C14.3371 216.431 14.5251 217.693 14.545 218.963H14.4862C14.1445 216.401 13.5304 213.883 12.6543 211.451C12.6543 211.436 12.6605 211.421 12.6715 211.41C12.6826 211.399 12.6975 211.393 12.7132 211.393C12.7288 211.393 12.7437 211.399 12.7548 211.41C12.7658 211.421 12.772 211.436 12.772 211.451Z" fill="#263238"/>
<path d="M4.68607 208.295C5.18772 207.812 5.75788 207.405 6.37815 207.089C7.00901 206.801 7.66383 206.57 8.33508 206.397C8.40865 206.397 8.43072 206.5 8.33508 206.515C7.67599 206.691 7.04283 206.954 6.45172 207.295C5.84611 207.604 5.2656 207.961 4.7155 208.361C4.70851 208.36 4.70195 208.357 4.69638 208.352C4.6908 208.348 4.68638 208.342 4.68349 208.336C4.6806 208.329 4.67933 208.322 4.67978 208.315C4.68022 208.308 4.68238 208.301 4.68607 208.295Z" fill="#263238"/>
<path d="M26.3601 193.059C26.3601 193.059 25.1242 178.132 14.0373 173.291C4.76768 169.252 -0.536636 179.67 6.01835 186.048C11.3153 191.205 19.8199 188.873 26.3601 193.059Z" fill="#FFA500"/>
<path d="M8.07029 176.182C9.75951 176.866 11.4078 177.647 13.0068 178.521C14.3346 179.292 15.6146 180.142 16.8397 181.067C16.6558 180.692 16.4939 180.294 16.31 179.926C16.0157 179.345 15.7067 178.786 15.3683 178.234C14.6842 177.104 13.8612 176.063 12.9185 175.137C12.8596 175.086 12.9553 174.997 13.0068 175.056C13.9373 175.983 14.7911 176.985 15.5596 178.05C15.9419 178.596 16.2956 179.16 16.619 179.742C16.9414 180.28 17.189 180.859 17.3547 181.464L17.4797 181.552C19.4156 183.098 21.1902 184.836 22.7767 186.739C22.7767 186.592 22.7178 186.445 22.6811 186.312C22.4751 185.576 22.247 184.841 22.0042 184.142C21.5353 182.621 20.8726 181.167 20.0326 179.816C19.9884 179.75 20.0988 179.691 20.1356 179.757C21.0077 181.117 21.7845 182.535 22.4604 184.002C22.76 184.719 23.0059 185.456 23.196 186.209C23.3592 186.688 23.4798 187.18 23.5565 187.681C24.0421 188.291 24.5203 188.917 24.9691 189.549C29.7363 196.34 32.1273 204.543 32.7011 212.753C32.8678 215.201 32.9096 217.657 32.8262 220.11C32.8021 222.575 32.5832 225.035 32.1714 227.467C32.1714 227.621 31.8992 227.577 31.9066 227.422C31.9581 225.267 32.1862 223.119 32.2229 220.956C32.2647 218.793 32.1959 216.63 32.0169 214.474C31.6689 210.165 30.8574 205.905 29.5965 201.769C28.3049 197.533 26.4015 193.508 23.9464 189.821C23.483 189.726 23.0195 189.601 22.556 189.483C22.0925 189.365 21.4525 189.196 20.9007 189.042C19.8426 188.768 18.8148 188.388 17.8329 187.909C17.7593 187.872 17.8329 187.761 17.8991 187.806C18.8766 188.337 19.9357 188.703 21.0331 188.887C21.9012 189.064 22.8061 189.174 23.6742 189.373C22.8726 188.198 22.0107 187.066 21.092 185.981C18.9763 186.171 16.8439 186.012 14.7798 185.51C13.6801 185.245 12.5988 184.908 11.5427 184.502C10.4319 184.076 9.37982 183.524 8.28364 183.031C8.20272 183.031 8.28364 182.869 8.33514 182.921C10.3224 184.004 12.492 184.712 14.7356 185.01C16.7164 185.327 18.7182 185.494 20.7241 185.51C19.9369 184.605 19.1203 183.723 18.2522 182.891C15.3095 180.118 11.8738 177.565 8.03351 176.27C7.95994 176.277 7.99672 176.138 8.07029 176.182Z" fill="#263238"/>
<path d="M17.1051 176.226C17.6147 176.859 18.0817 177.525 18.5029 178.22C18.9057 178.958 19.2217 179.741 19.4446 180.552C19.4446 180.552 19.4078 180.596 19.4004 180.552C19.0326 179.816 18.7163 179.081 18.3411 178.345C17.9716 177.629 17.5278 176.953 17.0168 176.329C16.9653 176.256 17.0315 176.138 17.1051 176.226Z" fill="#263238"/>
<path d="M34.9967 190.381C35.0629 191.021 36.674 184.959 46.032 179.574C54.5586 174.682 64.7332 161.954 56.3758 153.92C49.6516 147.446 31.8773 161.572 34.9967 190.381Z" fill="#FFA500"/>
<path d="M28.5304 225.165C28.6599 218.849 29.1512 212.546 30.0017 206.287C30.7409 200.526 32.0697 194.856 33.9671 189.366C34.7028 187.394 35.4385 185.452 36.3287 183.539C36.2707 182.805 36.2707 182.067 36.3287 181.332C36.3728 180.376 36.4611 179.42 36.5494 178.463C36.6376 177.507 36.7333 176.558 36.851 175.609C36.9687 174.66 37.16 173.711 37.2041 172.762C37.2041 172.673 37.3439 172.695 37.3218 172.762C37.1349 173.76 37.0218 174.77 36.9834 175.785C36.9246 176.722 36.8951 177.649 36.8951 178.566C36.8951 179.493 36.8951 180.42 36.8951 181.34C36.8951 181.671 36.8951 182.031 36.8951 182.384C37.778 180.516 38.7294 178.686 39.7496 176.896C39.1169 173.004 39.9409 168.936 40.7354 165.125C40.7354 165.052 40.8678 165.125 40.8531 165.162C40.4637 167.15 40.2569 169.169 40.2352 171.195C40.1984 172.791 40.2352 174.395 40.2793 175.991C40.5 175.609 40.7281 175.256 40.9561 174.844C42.1774 172.857 43.4795 170.908 44.8553 169.017C44.7474 168.093 44.7796 167.158 44.9509 166.243C45.103 165.218 45.3292 164.205 45.6278 163.212C45.9294 162.219 46.2752 161.241 46.6651 160.27C47.055 159.298 47.6141 158.349 48.0114 157.327C48.0114 157.246 48.1659 157.327 48.1217 157.378C47.6191 158.311 47.2242 159.299 46.9446 160.321C46.6402 161.286 46.3945 162.269 46.2089 163.264C46.0103 164.257 45.8411 165.243 45.7087 166.243C45.613 166.905 45.5542 167.59 45.4438 168.252C47.4513 165.553 49.6466 162.998 52.0135 160.608C52.0724 160.549 52.1533 160.608 52.1018 160.696C48.5159 164.714 45.3139 169.059 42.5379 173.674C42.4349 173.85 42.3392 174.027 42.2362 174.196C42.7586 173.872 43.3471 173.615 43.8327 173.35L46.5768 171.842L49.2326 170.371C49.6887 170.113 50.1375 169.848 50.601 169.635C51.156 169.389 51.6878 169.093 52.1901 168.752C52.2637 168.701 52.3372 168.811 52.2637 168.855C51.3588 169.348 50.5569 170.084 49.6887 170.643C48.8206 171.202 47.9157 171.746 47.0108 172.254C45.3408 173.181 43.5237 173.85 41.861 174.814C40.7183 176.805 39.6662 178.848 38.7049 180.942C39.6981 180.302 40.7207 179.692 41.7507 179.118C42.4201 178.743 43.0823 178.382 43.7591 178.022C44.4315 177.709 45.0679 177.324 45.6572 176.874C45.6689 176.863 45.6844 176.858 45.7002 176.858C45.7161 176.859 45.7311 176.866 45.7418 176.878C45.7525 176.889 45.7582 176.905 45.7575 176.921C45.7568 176.937 45.7498 176.952 45.7381 176.962C44.643 177.942 43.4324 178.785 42.1332 179.471C40.9267 180.17 39.7128 180.854 38.4548 181.465C37.4543 183.672 36.542 185.879 35.7401 188.189C31.7895 199.371 30.3328 211.253 29.6412 223.046C29.4353 226.562 29.3249 230.079 29.2881 233.603C29.2513 237.127 29.4279 240.629 29.4205 244.145C29.4205 244.248 29.2513 244.27 29.2366 244.145C28.8099 241.026 28.7363 237.855 28.6039 234.714C28.4715 231.572 28.4641 228.372 28.5304 225.165Z" fill="#263238"/>
<path d="M45.5833 174.512C47.3011 173.757 48.9696 172.895 50.5786 171.93C52.2091 171.014 53.7883 170.009 55.3091 168.921C55.3091 168.921 55.368 168.921 55.3091 168.965C53.8697 170.132 52.3505 171.196 50.7626 172.151C49.0986 173.078 47.3787 173.901 45.6128 174.615C45.576 174.667 45.5171 174.542 45.5833 174.512Z" fill="#263238"/>
<path d="M42.8689 161.865C43.0087 161.321 43.1779 160.784 43.3618 160.247C43.3572 160.243 43.3535 160.239 43.3509 160.234C43.3484 160.229 43.3471 160.223 43.3471 160.217C43.3471 160.212 43.3484 160.206 43.3509 160.201C43.3535 160.196 43.3572 160.191 43.3618 160.188C43.4795 159.886 43.6046 159.585 43.7296 159.283C43.7296 159.246 43.7296 159.202 43.7738 159.173L43.84 159.003L43.7517 159.32C43.7379 159.377 43.7207 159.434 43.7002 159.489C43.083 161.568 42.6207 163.69 42.3171 165.838C42.3171 165.912 42.1994 165.912 42.2068 165.838C42.3 164.496 42.5217 163.165 42.8689 161.865Z" fill="#263238"/>
<path d="M18.6138 227.43L19.2832 235.368L21.3358 259.587H43.2961L45.3487 235.368L46.0182 227.43H18.6138Z" fill="#455A64"/>
<path d="M18.6138 227.43L19.2832 235.368H45.3487L46.0182 227.43H18.6138Z" fill="#263238"/>
<path d="M16.4576 231.859H48.1731V224.245H16.4576V231.859Z" fill="#455A64"/>
<path d="M214.041 19.1572H102.511C99.492 19.1864 96.6079 20.4132 94.4931 22.5681C92.3782 24.723 91.2056 27.6295 91.233 30.6487V260.242C91.2075 263.261 92.3808 266.166 94.4952 268.321C96.6097 270.475 99.4926 271.703 102.511 271.734H214.041C217.062 271.705 219.947 270.478 222.065 268.324C224.182 266.169 225.358 263.263 225.334 260.242V30.6487C225.36 27.6276 224.184 24.72 222.067 22.5651C219.949 20.4102 217.063 19.1844 214.041 19.1572ZM218.279 253.143C218.279 259.19 213.755 264.075 208.178 264.075H108.397C102.805 264.075 98.2809 259.19 98.2809 253.143V39.3519C98.2809 27.0438 102.805 26.4405 108.397 26.4405H128.385C129.54 26.4405 130.489 27.7648 130.489 29.3833V30.119C130.489 33.9519 132.593 33.9666 135.168 33.9666H181.392C183.989 33.9666 186.071 33.9666 186.071 30.119V29.3833C186.071 27.7501 187.005 26.4405 188.182 26.4405H208.178C213.755 26.4405 218.279 28.0811 218.279 39.3519V253.143Z" fill="#263238"/>
<path d="M164.582 29.1627H151.979C151.877 29.1637 151.775 29.1442 151.68 29.1053C151.585 29.0665 151.498 29.0091 151.426 28.9365C151.353 28.8639 151.296 28.7775 151.257 28.6824C151.218 28.5874 151.198 28.4855 151.199 28.3829C151.199 28.176 151.282 27.9777 151.428 27.8314C151.574 27.6852 151.772 27.603 151.979 27.603H164.582C164.788 27.603 164.987 27.6852 165.133 27.8314C165.279 27.9777 165.361 28.176 165.361 28.3829C165.362 28.4855 165.343 28.5874 165.304 28.6824C165.265 28.7775 165.208 28.8639 165.135 28.9365C165.063 29.0091 164.976 29.0665 164.881 29.1053C164.786 29.1442 164.684 29.1637 164.582 29.1627Z" fill="white"/>
<path d="M218.279 39.3518V253.143C218.279 259.19 213.755 264.075 208.178 264.075H108.397C102.805 264.075 98.281 259.19 98.281 253.143V39.3518C98.281 27.0437 102.805 26.4404 108.397 26.4404H128.385C129.54 26.4404 130.489 27.7647 130.489 29.3832V30.1189C130.489 33.9518 132.594 33.9665 135.168 33.9665H181.392C183.989 33.9665 186.071 33.9665 186.071 30.1189V29.3832C186.071 27.75 187.005 26.4404 188.182 26.4404H208.178C213.755 26.4404 218.279 28.081 218.279 39.3518Z" fill="white"/>
<path d="M124.935 31.2441L124.744 31.4354L124.633 31.5457C124.135 31.0638 123.465 30.7992 122.772 30.81C122.428 30.803 122.087 30.8645 121.767 30.9908C121.448 31.1171 121.157 31.3057 120.911 31.5457L120.8 31.4427L120.616 31.2514L120.859 31.0307C121.032 30.8893 121.223 30.7707 121.426 30.6776C121.658 30.5595 121.906 30.4729 122.161 30.4201C122.286 30.4201 122.412 30.4201 122.537 30.376H122.868H123.118C123.354 30.4071 123.586 30.4638 123.809 30.5452C123.969 30.6043 124.124 30.6756 124.273 30.7585C124.426 30.853 124.573 30.9562 124.714 31.0675L124.92 31.2514L124.935 31.2441Z" fill="#A6A6A6"/>
<path d="M121.5 32.1564L121.191 31.8474C121.531 31.5007 121.975 31.2757 122.456 31.2074C122.794 31.1546 123.14 31.1832 123.465 31.2907C123.79 31.3981 124.085 31.5814 124.325 31.8254L124.016 32.127C123.852 31.9626 123.658 31.8322 123.444 31.7432C123.23 31.6541 123.001 31.6083 122.769 31.6083C122.537 31.6083 122.307 31.6541 122.093 31.7432C121.879 31.8322 121.685 31.9626 121.522 32.127L121.5 32.1564Z" fill="#A6A6A6"/>
<path d="M123.706 32.4581L123.404 32.7598C123.32 32.6757 123.221 32.609 123.111 32.5635C123.001 32.518 122.883 32.4945 122.764 32.4945C122.646 32.4945 122.528 32.518 122.418 32.5635C122.308 32.609 122.208 32.6757 122.124 32.7598L121.823 32.4581C121.946 32.3336 122.093 32.2347 122.254 32.1672C122.416 32.0997 122.589 32.0649 122.764 32.0649C122.94 32.0649 123.113 32.0997 123.275 32.1672C123.436 32.2347 123.583 32.3336 123.706 32.4581Z" fill="#A6A6A6"/>
<path d="M123.043 33.0391C123.033 33.1046 122.999 33.164 122.949 33.207C122.898 33.2499 122.834 33.2735 122.768 33.2735C122.701 33.2735 122.637 33.2499 122.587 33.207C122.536 33.164 122.502 33.1046 122.492 33.0391C122.485 32.9991 122.487 32.9582 122.498 32.9191C122.509 32.88 122.528 32.8438 122.555 32.8129C122.581 32.782 122.613 32.7572 122.65 32.7402C122.687 32.7232 122.727 32.7144 122.768 32.7144C122.808 32.7144 122.848 32.7232 122.885 32.7402C122.922 32.7572 122.954 32.782 122.981 32.8129C123.007 32.8438 123.026 32.88 123.037 32.9191C123.048 32.9582 123.05 32.9991 123.043 33.0391Z" fill="#A6A6A6"/>
<path d="M106.896 32.6203C107.335 32.6203 107.69 32.2646 107.69 31.8258C107.69 31.387 107.335 31.0312 106.896 31.0312C106.457 31.0312 106.101 31.387 106.101 31.8258C106.101 32.2646 106.457 32.6203 106.896 32.6203Z" fill="#A6A6A6"/>
<path d="M108.61 31.8258C108.61 31.6686 108.656 31.515 108.744 31.3844C108.831 31.2537 108.955 31.1519 109.1 31.0917C109.245 31.0316 109.405 31.0159 109.559 31.0465C109.713 31.0772 109.855 31.1528 109.966 31.264C110.077 31.3751 110.153 31.5167 110.183 31.6708C110.214 31.8249 110.198 31.9847 110.138 32.1298C110.078 32.275 109.976 32.3991 109.846 32.4864C109.715 32.5737 109.561 32.6203 109.404 32.6203C109.193 32.6203 108.991 32.5366 108.842 32.3876C108.693 32.2386 108.61 32.0365 108.61 31.8258Z" fill="#A6A6A6"/>
<path d="M111.905 32.6203C112.344 32.6203 112.7 32.2646 112.7 31.8258C112.7 31.387 112.344 31.0312 111.905 31.0312C111.467 31.0312 111.111 31.387 111.111 31.8258C111.111 32.2646 111.467 32.6203 111.905 32.6203Z" fill="#A6A6A6"/>
<path d="M113.62 31.8258C113.62 31.6686 113.667 31.515 113.754 31.3844C113.842 31.2537 113.966 31.1519 114.111 31.0917C114.256 31.0316 114.416 31.0159 114.57 31.0465C114.724 31.0772 114.866 31.1528 114.977 31.264C115.088 31.3751 115.164 31.5167 115.194 31.6708C115.225 31.8249 115.209 31.9847 115.149 32.1298C115.089 32.275 114.987 32.3991 114.856 32.4864C114.726 32.5737 114.572 32.6203 114.415 32.6203C114.204 32.6203 114.002 32.5366 113.853 32.3876C113.704 32.2386 113.62 32.0365 113.62 31.8258Z" fill="#A6A6A6"/>
<path d="M116.122 31.8258C116.122 31.7214 116.142 31.6181 116.182 31.5217C116.222 31.4253 116.281 31.3377 116.354 31.264C116.428 31.1902 116.516 31.1317 116.612 31.0917C116.708 31.0518 116.812 31.0312 116.916 31.0312C117.02 31.0312 117.124 31.0518 117.22 31.0917C117.317 31.1317 117.404 31.1902 117.478 31.264C117.552 31.3377 117.61 31.4253 117.65 31.5217C117.69 31.6181 117.711 31.7214 117.711 31.8258C117.711 31.9301 117.69 32.0335 117.65 32.1298C117.61 32.2262 117.552 32.3138 117.478 32.3876C117.404 32.4614 117.317 32.5199 117.22 32.5599C117.124 32.5998 117.02 32.6203 116.916 32.6203C116.812 32.6203 116.708 32.5998 116.612 32.5599C116.516 32.5199 116.428 32.4614 116.354 32.3876C116.281 32.3138 116.222 32.2262 116.182 32.1298C116.142 32.0335 116.122 31.9301 116.122 31.8258Z" fill="#A6A6A6"/>
<path d="M209.113 30.7295H202.97V33.4H209.113V30.7295Z" fill="#A6A6A6"/>
<path d="M209.296 33.5838H202.785V30.5454H209.296V33.5838ZM203.153 33.216H208.928V30.9133H203.16L203.153 33.216Z" fill="white"/>
<path d="M207.516 31.0752H203.344V33.0542H207.516V31.0752Z" fill="#A6A6A6"/>
<path d="M209.855 31.2593H209.281V32.8631H209.855V31.2593Z" fill="#A6A6A6"/>
<path d="M183.385 257.462H133.174C132.888 257.485 132.622 257.614 132.428 257.825C132.233 258.036 132.125 258.312 132.125 258.598C132.125 258.885 132.233 259.161 132.428 259.372C132.622 259.582 132.888 259.712 133.174 259.735H183.385C183.542 259.748 183.7 259.728 183.848 259.676C183.997 259.625 184.134 259.543 184.25 259.436C184.365 259.33 184.458 259.2 184.521 259.056C184.584 258.912 184.617 258.756 184.617 258.598C184.617 258.441 184.584 258.285 184.521 258.141C184.458 257.997 184.365 257.867 184.25 257.76C184.134 257.653 183.997 257.572 183.848 257.52C183.7 257.469 183.542 257.449 183.385 257.462Z" fill="#A6A6A6"/>
<path d="M166.256 140.004C170.661 135.599 170.661 128.458 166.256 124.054C161.852 119.65 154.711 119.65 150.307 124.054C145.902 128.458 145.902 135.599 150.307 140.004C154.711 144.408 161.852 144.408 166.256 140.004Z" fill="#455A64"/>
<path d="M155.149 126.398C154.936 126.4 154.727 126.465 154.551 126.584C154.374 126.704 154.236 126.873 154.156 127.071C154.075 127.269 154.054 127.486 154.097 127.695C154.14 127.905 154.243 128.097 154.395 128.247C154.546 128.398 154.739 128.5 154.948 128.541C155.158 128.582 155.375 128.56 155.572 128.478C155.77 128.396 155.938 128.258 156.056 128.08C156.175 127.902 156.238 127.694 156.238 127.48C156.238 127.337 156.21 127.196 156.155 127.064C156.1 126.933 156.02 126.813 155.919 126.713C155.818 126.612 155.698 126.533 155.566 126.479C155.433 126.425 155.292 126.397 155.149 126.398Z" fill="white"/>
<path d="M158.283 126.398C158.069 126.398 157.86 126.462 157.682 126.581C157.504 126.7 157.366 126.868 157.284 127.066C157.202 127.264 157.181 127.481 157.222 127.691C157.264 127.901 157.367 128.093 157.518 128.245C157.67 128.396 157.862 128.499 158.072 128.541C158.282 128.582 158.499 128.561 158.697 128.479C158.894 128.397 159.063 128.259 159.182 128.081C159.301 127.903 159.364 127.694 159.364 127.48C159.364 127.193 159.251 126.918 159.048 126.715C158.845 126.512 158.57 126.398 158.283 126.398Z" fill="white"/>
<path d="M161.409 128.561C161.623 128.56 161.831 128.495 162.008 128.376C162.185 128.256 162.323 128.086 162.403 127.889C162.484 127.691 162.504 127.474 162.462 127.264C162.419 127.055 162.316 126.863 162.164 126.713C162.013 126.562 161.82 126.46 161.61 126.419C161.401 126.378 161.184 126.399 160.987 126.481C160.789 126.564 160.621 126.702 160.502 126.88C160.384 127.057 160.321 127.266 160.321 127.48C160.321 127.623 160.349 127.764 160.404 127.895C160.459 128.027 160.539 128.147 160.64 128.247C160.741 128.348 160.861 128.427 160.993 128.481C161.125 128.535 161.267 128.562 161.409 128.561Z" fill="white"/>
<path d="M155.15 129.429C154.935 129.429 154.724 129.493 154.545 129.613C154.366 129.732 154.226 129.902 154.144 130.101C154.062 130.3 154.04 130.519 154.082 130.73C154.124 130.942 154.228 131.136 154.38 131.288C154.532 131.44 154.726 131.544 154.937 131.586C155.149 131.628 155.368 131.606 155.567 131.524C155.765 131.442 155.936 131.302 156.055 131.123C156.175 130.944 156.239 130.733 156.239 130.518C156.24 130.375 156.212 130.233 156.158 130.1C156.103 129.968 156.023 129.847 155.922 129.746C155.821 129.645 155.7 129.564 155.568 129.51C155.435 129.456 155.293 129.428 155.15 129.429Z" fill="white"/>
<path d="M158.283 129.429C158.068 129.428 157.857 129.49 157.677 129.609C157.497 129.728 157.356 129.897 157.272 130.096C157.189 130.295 157.166 130.514 157.207 130.726C157.248 130.938 157.352 131.132 157.504 131.285C157.656 131.438 157.85 131.543 158.061 131.585C158.272 131.628 158.492 131.607 158.691 131.525C158.89 131.442 159.061 131.303 159.181 131.124C159.301 130.945 159.365 130.734 159.365 130.518C159.365 130.231 159.251 129.955 159.049 129.751C158.846 129.547 158.571 129.431 158.283 129.429Z" fill="white"/>
<path d="M161.41 129.429C161.194 129.428 160.983 129.49 160.803 129.609C160.623 129.728 160.482 129.897 160.398 130.096C160.315 130.295 160.292 130.514 160.334 130.726C160.375 130.938 160.478 131.132 160.63 131.285C160.782 131.438 160.976 131.543 161.187 131.585C161.399 131.628 161.618 131.607 161.817 131.525C162.017 131.442 162.187 131.303 162.307 131.124C162.427 130.945 162.491 130.734 162.491 130.518C162.491 130.231 162.377 129.955 162.175 129.751C161.972 129.547 161.697 129.431 161.41 129.429Z" fill="white"/>
<path d="M155.15 132.468C154.935 132.468 154.724 132.532 154.545 132.651C154.366 132.771 154.226 132.941 154.144 133.14C154.062 133.339 154.04 133.558 154.082 133.769C154.124 133.98 154.228 134.174 154.38 134.327C154.532 134.479 154.726 134.583 154.937 134.625C155.149 134.667 155.368 134.645 155.567 134.563C155.765 134.48 155.936 134.341 156.055 134.162C156.175 133.982 156.239 133.772 156.239 133.557C156.24 133.413 156.212 133.271 156.158 133.139C156.103 133.006 156.023 132.886 155.922 132.785C155.821 132.683 155.7 132.603 155.568 132.549C155.435 132.494 155.293 132.467 155.15 132.468Z" fill="white"/>
<path d="M158.283 132.468C158.068 132.466 157.857 132.529 157.677 132.648C157.497 132.766 157.356 132.936 157.272 133.135C157.189 133.334 157.166 133.553 157.207 133.764C157.248 133.976 157.352 134.171 157.504 134.324C157.656 134.477 157.85 134.581 158.061 134.624C158.272 134.667 158.492 134.645 158.691 134.563C158.89 134.481 159.061 134.341 159.181 134.162C159.301 133.983 159.365 133.772 159.365 133.557C159.365 133.269 159.251 132.993 159.049 132.789C158.846 132.585 158.571 132.47 158.283 132.468Z" fill="white"/>
<path d="M161.41 132.468C161.194 132.466 160.983 132.529 160.803 132.648C160.623 132.766 160.482 132.936 160.398 133.135C160.315 133.334 160.292 133.553 160.334 133.764C160.375 133.976 160.478 134.171 160.63 134.324C160.782 134.477 160.976 134.581 161.187 134.624C161.399 134.667 161.618 134.645 161.817 134.563C162.017 134.481 162.187 134.341 162.307 134.162C162.427 133.983 162.491 133.772 162.491 133.557C162.491 133.269 162.377 132.993 162.175 132.789C161.972 132.585 161.697 132.47 161.41 132.468Z" fill="white"/>
<path d="M158.283 135.506C158.067 135.504 157.856 135.567 157.676 135.686C157.496 135.805 157.355 135.975 157.272 136.175C157.188 136.374 157.166 136.593 157.208 136.805C157.25 137.017 157.353 137.212 157.506 137.365C157.659 137.517 157.854 137.621 158.065 137.663C158.277 137.705 158.497 137.683 158.696 137.599C158.895 137.516 159.065 137.375 159.184 137.195C159.304 137.015 159.366 136.803 159.365 136.587C159.365 136.301 159.251 136.025 159.048 135.823C158.845 135.62 158.57 135.506 158.283 135.506Z" fill="white"/>
<path d="M190.206 176.146C196.434 176.146 201.484 171.096 201.484 164.867C201.484 158.639 196.434 153.589 190.206 153.589C183.977 153.589 178.927 158.639 178.927 164.867C178.927 171.096 183.977 176.146 190.206 176.146Z" fill="#455A64"/>
<path d="M192.625 161.646C192.625 162.124 192.483 162.592 192.217 162.99C191.951 163.388 191.573 163.698 191.131 163.882C190.689 164.065 190.202 164.113 189.733 164.019C189.263 163.926 188.832 163.696 188.493 163.357C188.155 163.019 187.924 162.587 187.831 162.118C187.737 161.648 187.785 161.162 187.969 160.719C188.152 160.277 188.462 159.899 188.86 159.633C189.258 159.367 189.726 159.225 190.205 159.225C190.847 159.225 191.462 159.48 191.916 159.934C192.37 160.388 192.625 161.004 192.625 161.646Z" fill="white"/>
<path d="M194.391 168.325V169.326C193.68 169.763 192.905 170.089 192.095 170.29C191.069 170.54 190.003 170.584 188.96 170.418C187.917 170.253 186.917 169.882 186.018 169.326V168.325C186.018 167.215 186.459 166.15 187.245 165.365C188.03 164.58 189.094 164.139 190.205 164.139C191.315 164.139 192.379 164.58 193.164 165.365C193.95 166.15 194.391 167.215 194.391 168.325Z" fill="white"/>
<path d="M134.329 140.01C138.733 135.606 138.733 128.465 134.329 124.06C129.924 119.656 122.783 119.656 118.379 124.06C113.975 128.465 113.975 135.606 118.379 140.01C122.783 144.414 129.924 144.414 134.329 140.01Z" fill="#455A64"/>
<path d="M126.361 138.338C126.293 138.338 126.228 138.311 126.179 138.263C126.131 138.215 126.104 138.149 126.104 138.081V135.079C126.104 135.011 126.131 134.945 126.179 134.897C126.228 134.849 126.293 134.822 126.361 134.822C126.43 134.822 126.495 134.849 126.544 134.897C126.592 134.945 126.619 135.011 126.619 135.079V138.081C126.619 138.149 126.592 138.215 126.544 138.263C126.495 138.311 126.43 138.338 126.361 138.338Z" fill="white"/>
<path d="M128.003 138.338H124.714C124.646 138.338 124.58 138.311 124.532 138.263C124.484 138.215 124.457 138.149 124.457 138.081C124.457 138.012 124.484 137.947 124.532 137.899C124.58 137.85 124.646 137.823 124.714 137.823H128.003C128.071 137.823 128.136 137.85 128.185 137.899C128.233 137.947 128.26 138.012 128.26 138.081C128.26 138.149 128.233 138.215 128.185 138.263C128.136 138.311 128.071 138.338 128.003 138.338Z" fill="white"/>
<path d="M128.474 127.848V132.211C128.491 132.499 128.448 132.788 128.35 133.059C128.251 133.33 128.098 133.579 127.9 133.789C127.702 133.999 127.463 134.166 127.198 134.281C126.933 134.395 126.647 134.454 126.358 134.454C126.07 134.454 125.784 134.395 125.519 134.281C125.254 134.166 125.015 133.999 124.817 133.789C124.619 133.579 124.466 133.33 124.367 133.059C124.268 132.788 124.226 132.499 124.243 132.211V127.848C124.23 127.288 124.439 126.746 124.825 126.34C125.212 125.934 125.743 125.699 126.303 125.685C126.863 125.672 127.406 125.881 127.811 126.267C128.217 126.654 128.452 127.185 128.466 127.745C128.473 127.779 128.475 127.814 128.474 127.848Z" fill="white"/>
<path d="M126.354 135.329C125.951 135.33 125.552 135.252 125.179 135.098C124.806 134.944 124.468 134.718 124.183 134.433C123.898 134.148 123.672 133.809 123.518 133.437C123.364 133.064 123.285 132.665 123.286 132.262V130.422C123.28 130.385 123.282 130.348 123.292 130.311C123.301 130.275 123.319 130.242 123.343 130.213C123.367 130.184 123.398 130.161 123.432 130.146C123.466 130.13 123.503 130.122 123.54 130.122C123.578 130.122 123.615 130.13 123.649 130.146C123.683 130.161 123.713 130.184 123.737 130.213C123.761 130.242 123.779 130.275 123.789 130.311C123.798 130.348 123.8 130.385 123.794 130.422V132.262C123.796 132.607 123.867 132.949 124.004 133.266C124.14 133.583 124.34 133.869 124.59 134.108C124.84 134.346 125.135 134.532 125.459 134.653C125.782 134.774 126.127 134.829 126.472 134.815C127.139 134.768 127.762 134.468 128.216 133.978C128.67 133.487 128.92 132.842 128.914 132.173V130.422C128.914 130.354 128.941 130.289 128.99 130.24C129.038 130.192 129.103 130.165 129.172 130.165C129.24 130.165 129.306 130.192 129.354 130.24C129.402 130.289 129.429 130.354 129.429 130.422V132.173C129.442 132.978 129.142 133.756 128.594 134.344C128.045 134.933 127.29 135.286 126.487 135.329H126.354Z" fill="white"/>
<path d="M158.284 176.146C164.513 176.146 169.562 171.096 169.562 164.867C169.562 158.639 164.513 153.589 158.284 153.589C152.055 153.589 147.006 158.639 147.006 164.867C147.006 171.096 152.055 176.146 158.284 176.146Z" fill="#455A64"/>
<path d="M164.853 163.44V166.309C164.848 166.427 164.817 166.542 164.762 166.646C164.707 166.75 164.629 166.84 164.535 166.911C164.44 166.981 164.332 167.03 164.216 167.053C164.101 167.076 163.982 167.073 163.867 167.045L162.587 166.721L161.962 166.574V163.153L163.669 162.719L163.897 162.66C164.013 162.636 164.132 162.638 164.247 162.666C164.362 162.694 164.469 162.748 164.561 162.822C164.652 162.897 164.726 162.991 164.777 163.098C164.827 163.205 164.854 163.322 164.853 163.44Z" fill="white"/>
<path d="M159.821 161.351H154.863C154.062 161.351 153.414 162 153.414 162.8V166.942C153.414 167.743 154.062 168.392 154.863 168.392H159.821C160.622 168.392 161.271 167.743 161.271 166.942V162.8C161.271 162 160.622 161.351 159.821 161.351Z" fill="white"/>
<path d="M126.355 176.146C132.584 176.146 137.633 171.096 137.633 164.867C137.633 158.639 132.584 153.589 126.355 153.589C120.126 153.589 115.077 158.639 115.077 164.867C115.077 171.096 120.126 176.146 126.355 176.146Z" fill="#455A64"/>
<path d="M130.658 164.183H127.038V160.571C127.038 160.389 126.966 160.215 126.838 160.087C126.709 159.959 126.535 159.887 126.354 159.887C126.173 159.887 125.999 159.959 125.87 160.087C125.742 160.215 125.67 160.389 125.67 160.571V164.183H122.058C121.961 164.173 121.864 164.184 121.772 164.214C121.68 164.244 121.595 164.293 121.523 164.357C121.451 164.422 121.394 164.502 121.354 164.59C121.315 164.678 121.295 164.774 121.295 164.871C121.295 164.968 121.315 165.064 121.354 165.152C121.394 165.241 121.451 165.32 121.523 165.385C121.595 165.449 121.68 165.498 121.772 165.528C121.864 165.558 121.961 165.569 122.058 165.559H125.67V169.171C125.67 169.353 125.742 169.527 125.87 169.655C125.999 169.783 126.173 169.855 126.354 169.855C126.535 169.855 126.709 169.783 126.838 169.655C126.966 169.527 127.038 169.353 127.038 169.171V165.559H130.658C130.828 165.541 130.986 165.461 131.1 165.334C131.215 165.207 131.278 165.042 131.278 164.871C131.278 164.7 131.215 164.535 131.1 164.408C130.986 164.281 130.828 164.201 130.658 164.183Z" fill="white"/>
<path d="M198.179 140.01C202.584 135.606 202.584 128.465 198.179 124.06C193.775 119.656 186.634 119.656 182.23 124.06C177.825 128.465 177.825 135.606 182.23 140.01C186.634 144.414 193.775 144.414 198.179 140.01Z" fill="#455A64"/>
<path d="M195.803 131.548C195.803 131.29 195.744 131.025 195.7 130.768C195.597 130.223 195.419 129.696 195.171 129.201C194.972 128.779 194.725 128.382 194.435 128.016L193.986 127.509L193.589 127.906L193.361 128.119C193.874 128.63 194.281 129.237 194.559 129.906C194.837 130.574 194.98 131.291 194.98 132.015C194.98 132.739 194.837 133.456 194.559 134.124C194.281 134.793 193.874 135.4 193.361 135.91L193.589 136.138L193.994 136.543C194.126 136.403 194.258 136.263 194.383 136.116C194.626 135.827 194.843 135.517 195.031 135.189C195.209 134.879 195.362 134.554 195.487 134.218C195.658 133.756 195.772 133.274 195.825 132.784C195.825 132.607 195.825 132.423 195.87 132.247C195.803 132.217 195.803 131.636 195.803 131.548Z" fill="white"/>
<path d="M193.95 131.349C193.813 130.364 193.355 129.451 192.647 128.752L192.015 129.392C192.358 129.735 192.631 130.142 192.816 130.59C193.002 131.039 193.097 131.519 193.096 132.004C193.1 132.49 193.006 132.971 192.82 133.42C192.635 133.868 192.361 134.275 192.015 134.616L192.655 135.256C193.162 134.752 193.543 134.136 193.768 133.457C193.993 132.778 194.055 132.056 193.95 131.349Z" fill="white"/>
<path d="M191.389 130.033L190.756 130.665C190.935 130.84 191.076 131.048 191.172 131.278C191.268 131.508 191.317 131.755 191.316 132.004C191.317 132.253 191.268 132.499 191.174 132.729C191.079 132.959 190.94 133.168 190.764 133.343L191.397 133.976C191.658 133.718 191.865 133.411 192.006 133.072C192.147 132.733 192.22 132.37 192.219 132.003C192.218 131.636 192.144 131.273 192.002 130.934C191.86 130.596 191.651 130.29 191.389 130.033Z" fill="white"/>
<path d="M186.49 130.195H184.621V133.814H186.49V130.195Z" fill="white"/>
<path d="M186.489 130.195L189.932 128.746V135.264L186.489 133.814V130.195Z" fill="white"/>
<path d="M158.284 232.587C165.634 232.587 171.593 226.629 171.593 219.279C171.593 211.929 165.634 205.97 158.284 205.97C150.934 205.97 144.975 211.929 144.975 219.279C144.975 226.629 150.934 232.587 158.284 232.587Z" fill="#FFA500"/>
<path d="M165.839 219.36C165.782 219.148 165.713 218.939 165.633 218.735C165.527 218.533 165.407 218.338 165.273 218.153L164.787 217.668C164.581 217.521 164.39 217.366 164.177 217.234C163.382 216.725 162.494 216.38 161.565 216.219C159.394 215.785 157.159 215.785 154.988 216.219C154.049 216.382 153.151 216.73 152.347 217.241C152.141 217.381 151.949 217.528 151.758 217.668L151.251 218.168L151.023 218.514C150.847 218.773 150.748 219.077 150.736 219.389H155.017C155.048 219.391 155.078 219.382 155.103 219.365C155.129 219.348 155.147 219.323 155.157 219.294C155.276 219.067 155.451 218.875 155.667 218.737C155.882 218.599 156.13 218.52 156.386 218.507C157.635 218.426 158.888 218.426 160.138 218.507C160.394 218.513 160.644 218.589 160.86 218.726C161.077 218.863 161.252 219.057 161.366 219.286C161.381 219.319 161.405 219.345 161.435 219.364C161.465 219.382 161.5 219.391 161.535 219.389H165.692L165.839 219.36Z" fill="white"/>
<path d="M150.728 220.279V221.846C150.718 221.918 150.725 221.991 150.748 222.06C150.772 222.129 150.81 222.191 150.862 222.242C150.913 222.294 150.975 222.332 151.044 222.356C151.113 222.379 151.186 222.386 151.258 222.376H154.436C154.509 222.386 154.584 222.379 154.654 222.355C154.725 222.331 154.788 222.291 154.84 222.238C154.892 222.185 154.932 222.121 154.955 222.05C154.978 221.98 154.984 221.905 154.973 221.832V220.588C154.973 220.478 154.973 220.368 154.973 220.272L150.728 220.279Z" fill="white"/>
<path d="M165.802 220.228H161.601C161.601 220.758 161.601 221.287 161.601 221.824C161.595 221.893 161.604 221.962 161.628 222.026C161.652 222.091 161.69 222.149 161.74 222.197C161.789 222.245 161.848 222.281 161.913 222.303C161.978 222.325 162.048 222.333 162.116 222.325H165.323C165.393 222.333 165.464 222.325 165.531 222.302C165.597 222.279 165.658 222.242 165.708 222.192C165.758 222.143 165.796 222.083 165.82 222.017C165.844 221.95 165.853 221.88 165.846 221.81C165.846 221.309 165.846 220.817 165.846 220.338L165.802 220.228Z" fill="white"/>
<path d="M143.356 100.84C143.372 100.017 143.71 99.2335 144.297 98.657C144.885 98.0806 145.675 97.7577 146.498 97.7579C147.216 97.754 147.915 97.9895 148.484 98.4273C148.588 98.5073 148.655 98.6251 148.672 98.7548C148.688 98.8845 148.652 99.0155 148.572 99.1189C148.492 99.2223 148.375 99.2897 148.245 99.3062C148.115 99.3228 147.984 99.2872 147.881 99.2072C147.49 98.8918 147 98.725 146.498 98.7363C145.924 98.7348 145.373 98.9564 144.96 99.3543C144.762 99.5488 144.605 99.7806 144.498 100.036C144.391 100.292 144.336 100.567 144.336 100.844C144.336 101.121 144.391 101.396 144.498 101.652C144.605 101.908 144.762 102.139 144.96 102.334C145.376 102.727 145.926 102.948 146.498 102.952C147 102.962 147.489 102.795 147.881 102.481C147.987 102.409 148.115 102.379 148.241 102.397C148.368 102.415 148.483 102.479 148.565 102.577C148.642 102.679 148.676 102.808 148.661 102.935C148.646 103.062 148.583 103.179 148.484 103.261C147.915 103.699 147.216 103.934 146.498 103.93C145.673 103.932 144.881 103.609 144.292 103.031C143.704 102.452 143.368 101.665 143.356 100.84Z" fill="#263238"/>
<path d="M151.089 103.46C151.089 103.522 151.077 103.584 151.053 103.641C151.028 103.699 150.993 103.751 150.949 103.795C150.904 103.839 150.851 103.873 150.793 103.897C150.735 103.92 150.673 103.931 150.611 103.93C150.507 103.928 150.407 103.892 150.325 103.829C150.243 103.765 150.183 103.677 150.155 103.577C150.151 103.538 150.151 103.499 150.155 103.46V98.398C150.169 98.2823 150.225 98.1759 150.313 98.0987C150.4 98.0216 150.513 97.979 150.629 97.979C150.746 97.979 150.858 98.0216 150.946 98.0987C151.033 98.1759 151.089 98.2823 151.104 98.398V99.8694C151.385 99.7103 151.701 99.6243 152.023 99.6192C152.52 99.6212 152.995 99.8197 153.345 100.171C153.695 100.523 153.892 100.999 153.892 101.495V103.437C153.878 103.553 153.821 103.66 153.734 103.737C153.647 103.814 153.534 103.856 153.418 103.856C153.301 103.856 153.188 103.814 153.101 103.737C153.014 103.66 152.957 103.553 152.943 103.437V101.495C152.943 101.251 152.846 101.017 152.674 100.845C152.501 100.673 152.267 100.576 152.023 100.576C151.78 100.576 151.546 100.673 151.373 100.845C151.201 101.017 151.104 101.251 151.104 101.495L151.089 103.46Z" fill="#263238"/>
<path d="M159.358 101.834V103.511C159.358 103.631 159.311 103.746 159.227 103.831C159.143 103.917 159.029 103.966 158.909 103.967C158.803 103.966 158.701 103.929 158.62 103.862C158.538 103.796 158.482 103.703 158.46 103.6C158.127 103.838 157.729 103.966 157.32 103.967C157.045 103.97 156.772 103.916 156.519 103.808C156.266 103.701 156.038 103.542 155.848 103.342C155.471 102.931 155.263 102.392 155.267 101.834C155.267 101.287 155.475 100.761 155.848 100.363C156.17 100.003 156.614 99.7753 157.094 99.7249C157.575 99.6746 158.056 99.8049 158.445 100.09C158.466 99.9858 158.521 99.8914 158.603 99.8231C158.685 99.7547 158.788 99.7166 158.894 99.7152C158.954 99.7161 159.013 99.7289 159.068 99.7527C159.123 99.7765 159.173 99.8109 159.215 99.854C159.256 99.897 159.289 99.9478 159.311 100.004C159.333 100.059 159.344 100.119 159.343 100.179L159.358 101.834ZM158.453 101.834C158.459 101.507 158.338 101.19 158.114 100.951C158.015 100.838 157.893 100.748 157.756 100.687C157.619 100.626 157.47 100.596 157.32 100.598C157.17 100.594 157.02 100.624 156.883 100.685C156.745 100.746 156.623 100.837 156.525 100.951C156.305 101.191 156.186 101.508 156.194 101.834C156.191 102.159 156.309 102.474 156.525 102.717C156.628 102.824 156.751 102.908 156.888 102.965C157.025 103.022 157.172 103.05 157.32 103.048C157.468 103.049 157.614 103.02 157.751 102.963C157.887 102.906 158.011 102.822 158.114 102.717C158.333 102.475 158.453 102.16 158.453 101.834Z" fill="#263238"/>
<path d="M163.683 100.098C163.683 100.219 163.635 100.335 163.549 100.42C163.464 100.506 163.348 100.554 163.227 100.554C163.042 100.548 162.86 100.605 162.712 100.716C162.551 100.822 162.415 100.963 162.314 101.128C162.16 101.352 162.043 101.601 161.969 101.863V103.489C161.968 103.55 161.955 103.61 161.931 103.666C161.906 103.722 161.872 103.772 161.828 103.815C161.784 103.857 161.732 103.89 161.676 103.913C161.619 103.935 161.559 103.946 161.498 103.945C161.377 103.945 161.261 103.897 161.175 103.812C161.09 103.726 161.042 103.61 161.042 103.489V100.112C161.042 100.053 161.054 99.9939 161.077 99.9389C161.1 99.884 161.133 99.8342 161.176 99.7925C161.218 99.7507 161.269 99.7178 161.324 99.6957C161.379 99.6736 161.438 99.6627 161.498 99.6636C161.62 99.6616 161.737 99.7076 161.825 99.7916C161.913 99.8755 161.965 99.9908 161.969 100.112V100.171C162.022 100.109 162.081 100.053 162.145 100.002C162.463 99.7813 162.84 99.6632 163.227 99.6636C163.345 99.6616 163.458 99.706 163.544 99.7872C163.629 99.8685 163.679 99.98 163.683 100.098Z" fill="#263238"/>
<path d="M165.339 97.9272C165.464 97.9272 165.585 97.9766 165.674 98.0647C165.764 98.1528 165.815 98.2725 165.817 98.3981V103.46C165.802 103.575 165.746 103.682 165.659 103.759C165.571 103.836 165.459 103.879 165.342 103.879C165.226 103.879 165.113 103.836 165.026 103.759C164.938 103.682 164.882 103.575 164.868 103.46V98.3981C164.868 98.3363 164.88 98.275 164.904 98.2179C164.927 98.1608 164.962 98.1089 165.006 98.0652C165.049 98.0214 165.101 97.9868 165.158 97.9631C165.215 97.9394 165.277 97.9272 165.339 97.9272Z" fill="#263238"/>
<path d="M167.848 98.5747C167.848 98.6983 167.799 98.8169 167.712 98.905C167.626 98.9931 167.508 99.0436 167.384 99.0455C167.261 99.0436 167.143 98.9931 167.056 98.905C166.969 98.8169 166.921 98.6983 166.921 98.5747V98.3907C166.921 98.3299 166.933 98.2696 166.956 98.2134C166.979 98.1571 167.013 98.106 167.056 98.063C167.099 98.02 167.151 97.9858 167.207 97.9625C167.263 97.9392 167.323 97.9272 167.384 97.9272C167.445 97.9272 167.505 97.9392 167.562 97.9625C167.618 97.9858 167.669 98.02 167.712 98.063C167.755 98.106 167.789 98.1571 167.812 98.2134C167.836 98.2696 167.848 98.3299 167.848 98.3907V98.5747ZM167.848 100.12V103.467C167.848 103.59 167.799 103.708 167.712 103.795C167.625 103.882 167.507 103.93 167.384 103.93C167.261 103.93 167.143 103.882 167.056 103.795C166.969 103.708 166.921 103.59 166.921 103.467V100.12C166.921 100.059 166.933 99.9985 166.956 99.9422C166.979 99.886 167.013 99.8349 167.056 99.7919C167.099 99.7488 167.151 99.7147 167.207 99.6914C167.263 99.6681 167.323 99.6561 167.384 99.6561C167.445 99.6561 167.505 99.6681 167.562 99.6914C167.618 99.7147 167.669 99.7488 167.712 99.7919C167.755 99.8349 167.789 99.886 167.812 99.9422C167.836 99.9985 167.848 100.059 167.848 100.12Z" fill="#263238"/>
<path d="M169.046 101.782C169.042 101.222 169.26 100.683 169.651 100.282C170.042 99.8812 170.576 99.6509 171.136 99.6412C171.672 99.6352 172.189 99.84 172.576 100.212C172.962 100.583 173.188 101.092 173.203 101.628V101.672C173.207 101.699 173.207 101.726 173.203 101.753C173.185 101.855 173.129 101.947 173.045 102.01C172.962 102.073 172.858 102.102 172.754 102.091H170.054C170.096 102.304 170.198 102.501 170.349 102.658C170.567 102.878 170.856 103.016 171.165 103.047C171.479 103.074 171.794 103 172.063 102.834C172.151 102.755 172.265 102.711 172.383 102.711C172.501 102.711 172.615 102.755 172.703 102.834C172.74 102.87 172.77 102.914 172.79 102.962C172.81 103.01 172.821 103.062 172.821 103.114C172.821 103.166 172.81 103.217 172.79 103.265C172.77 103.313 172.74 103.357 172.703 103.393C172.282 103.772 171.731 103.975 171.165 103.96C170.882 103.958 170.603 103.9 170.343 103.789C170.083 103.678 169.847 103.517 169.65 103.314C169.453 103.111 169.298 102.872 169.195 102.609C169.091 102.346 169.041 102.065 169.046 101.782ZM169.981 101.363H172.408C172.31 101.103 172.136 100.878 171.909 100.717C171.683 100.556 171.414 100.466 171.136 100.458C170.87 100.461 170.614 100.551 170.405 100.715C170.196 100.878 170.047 101.106 169.981 101.363Z" fill="#263238"/>
<path d="M147.571 56.2209C147.581 55.7083 147.791 55.22 148.157 54.8609C148.523 54.5018 149.016 54.3007 149.528 54.3008C149.972 54.2997 150.404 54.4445 150.757 54.7128C150.818 54.7643 150.857 54.8369 150.866 54.916C150.876 54.9951 150.855 55.0749 150.808 55.1395C150.759 55.2029 150.687 55.2445 150.607 55.2555C150.527 55.2665 150.447 55.246 150.382 55.1983C150.14 55.0054 149.838 54.9038 149.528 54.9114C149.17 54.9121 148.826 55.0489 148.565 55.294C148.441 55.4146 148.343 55.5588 148.275 55.7179C148.208 55.8771 148.174 56.0482 148.174 56.2209C148.174 56.3937 148.208 56.5647 148.275 56.7239C148.343 56.8831 148.441 57.0273 148.565 57.1479C148.826 57.393 149.17 57.5297 149.528 57.5305C149.839 57.536 150.141 57.4318 150.382 57.2362C150.448 57.1935 150.528 57.1759 150.606 57.1867C150.684 57.1975 150.756 57.2359 150.808 57.295C150.855 57.3596 150.876 57.4394 150.866 57.5185C150.857 57.5976 150.818 57.6702 150.757 57.7217C150.404 57.9901 149.972 58.1348 149.528 58.1337C149.016 58.1357 148.524 57.9363 148.158 57.5784C147.792 57.2205 147.581 56.7329 147.571 56.2209Z" fill="#C7C7C7"/>
<path d="M154.039 56.839V57.8837C154.039 57.9578 154.009 58.0289 153.957 58.0813C153.904 58.1338 153.833 58.1632 153.759 58.1632C153.694 58.1629 153.63 58.1401 153.579 58.0986C153.528 58.0571 153.493 57.9994 153.48 57.9352C153.266 58.0905 153.008 58.1707 152.744 58.1632C152.575 58.1647 152.408 58.1315 152.252 58.0657C152.096 57.9999 151.956 57.9029 151.839 57.7807C151.6 57.5256 151.468 57.1885 151.471 56.839C151.468 56.6666 151.498 56.4953 151.561 56.3349C151.625 56.1745 151.719 56.0283 151.839 55.9046C151.952 55.7766 152.092 55.6742 152.248 55.6045C152.404 55.5347 152.573 55.4991 152.744 55.5C153.008 55.4989 153.265 55.5813 153.48 55.7354C153.493 55.6704 153.528 55.6118 153.578 55.5691C153.629 55.5263 153.693 55.502 153.759 55.5C153.834 55.5019 153.905 55.533 153.957 55.5866C154.01 55.6402 154.039 55.7121 154.039 55.7869V56.839ZM153.472 56.839C153.474 56.636 153.401 56.4395 153.266 56.2872C153.202 56.2198 153.125 56.166 153.04 56.1293C152.955 56.0926 152.863 56.0737 152.77 56.0737C152.677 56.0737 152.585 56.0926 152.499 56.1293C152.414 56.166 152.337 56.2198 152.273 56.2872C152.145 56.4426 152.075 56.6377 152.075 56.839C152.075 57.0403 152.145 57.2353 152.273 57.3907C152.409 57.5148 152.586 57.5836 152.77 57.5836C152.954 57.5836 153.131 57.5148 153.266 57.3907C153.401 57.2385 153.474 57.042 153.472 56.839Z" fill="#C7C7C7"/>
<path d="M155.488 54.4331C155.566 54.435 155.64 54.4666 155.694 54.5214C155.749 54.5761 155.781 54.6499 155.783 54.7274V57.8761C155.783 57.9542 155.752 58.029 155.696 58.0842C155.641 58.1394 155.566 58.1704 155.488 58.1704C155.41 58.1704 155.335 58.1394 155.28 58.0842C155.225 58.029 155.194 57.9542 155.194 57.8761V54.7495C155.192 54.7092 155.198 54.669 155.212 54.6312C155.226 54.5934 155.247 54.5587 155.275 54.5292C155.302 54.4997 155.335 54.476 155.372 54.4595C155.408 54.443 155.448 54.434 155.488 54.4331Z" fill="#C7C7C7"/>
<path d="M156.812 54.4331C156.891 54.4331 156.966 54.4639 157.023 54.5188C157.079 54.5738 157.112 54.6487 157.113 54.7274V57.8761C157.102 57.9471 157.066 58.0118 157.012 58.0585C156.957 58.1051 156.887 58.1308 156.816 58.1308C156.744 58.1308 156.674 58.1051 156.62 58.0585C156.565 58.0118 156.529 57.9471 156.518 57.8761V54.7495C156.516 54.7092 156.522 54.669 156.536 54.6312C156.549 54.5934 156.571 54.5587 156.598 54.5292C156.625 54.4997 156.658 54.476 156.695 54.4595C156.732 54.443 156.772 54.434 156.812 54.4331Z" fill="#C7C7C7"/>
<path d="M158.394 54.8382C158.395 54.8771 158.388 54.9159 158.373 54.952C158.359 54.9882 158.337 55.021 158.31 55.0486C158.282 55.0761 158.249 55.0977 158.213 55.1122C158.177 55.1266 158.138 55.1335 158.099 55.1325C158.023 55.1306 157.95 55.0987 157.896 55.0438C157.842 54.9888 157.812 54.915 157.812 54.8382V54.7499C157.812 54.6732 157.842 54.5994 157.896 54.5444C157.95 54.4894 158.023 54.4576 158.099 54.4557C158.138 54.4547 158.177 54.4616 158.213 54.476C158.249 54.4904 158.282 54.5121 158.31 54.5396C158.337 54.5671 158.359 54.6 158.373 54.6361C158.388 54.6723 158.395 54.711 158.394 54.7499V54.8382ZM158.394 55.802V57.8766C158.383 57.9457 158.347 58.0087 158.294 58.0541C158.241 58.0996 158.173 58.1245 158.103 58.1245C158.033 58.1245 157.965 58.0996 157.912 58.0541C157.859 58.0087 157.823 57.9457 157.812 57.8766V55.802C157.806 55.7599 157.808 55.7169 157.82 55.676C157.831 55.635 157.851 55.597 157.879 55.5646C157.907 55.5322 157.941 55.5062 157.98 55.4884C158.018 55.4706 158.06 55.4613 158.103 55.4613C158.146 55.4613 158.188 55.4706 158.226 55.4884C158.265 55.5062 158.299 55.5322 158.327 55.5646C158.354 55.597 158.375 55.635 158.386 55.676C158.398 55.7169 158.4 55.7599 158.394 55.802Z" fill="#C7C7C7"/>
<path d="M161.528 56.6109V57.8836C161.528 57.9578 161.499 58.0289 161.446 58.0813C161.394 58.1337 161.323 58.1632 161.249 58.1632C161.175 58.1613 161.105 58.1313 161.053 58.0792C161.001 58.0272 160.971 57.9572 160.969 57.8836V56.6109C160.968 56.5394 160.953 56.4688 160.925 56.4031C160.897 56.3374 160.856 56.2779 160.804 56.2281C160.753 56.1782 160.693 56.1389 160.626 56.1125C160.56 56.086 160.489 56.0729 160.417 56.0738C160.346 56.0729 160.276 56.0861 160.211 56.1127C160.145 56.1393 160.085 56.1789 160.035 56.2289C159.985 56.279 159.946 56.3386 159.919 56.4042C159.892 56.4698 159.879 56.5401 159.88 56.6109V57.8836C159.883 57.9007 159.883 57.9181 159.88 57.9351C159.865 58 159.829 58.0579 159.777 58.0993C159.724 58.1407 159.66 58.1632 159.593 58.1632C159.519 58.1632 159.448 58.1337 159.396 58.0813C159.343 58.0289 159.314 57.9578 159.314 57.8836V55.7869C159.314 55.7121 159.343 55.6402 159.395 55.5866C159.447 55.533 159.518 55.5019 159.593 55.5C159.649 55.5003 159.703 55.5163 159.75 55.5463C159.797 55.5762 159.834 55.6189 159.858 55.6692C160.027 55.5594 160.223 55.5007 160.425 55.5C160.717 55.5038 160.997 55.6224 161.203 55.8301C161.41 56.0378 161.526 56.3181 161.528 56.6109Z" fill="#C7C7C7"/>
<path d="M164.956 56.8535V57.8393C164.954 58.1782 164.819 58.5027 164.579 58.7423C164.34 58.982 164.015 59.1175 163.676 59.1194C163.482 59.1218 163.29 59.0763 163.117 58.987C163.049 58.9537 162.997 58.8947 162.972 58.823C162.947 58.7513 162.952 58.6727 162.985 58.6044C163.001 58.5697 163.024 58.5387 163.053 58.5132C163.082 58.4876 163.115 58.4681 163.152 58.4557C163.188 58.4434 163.226 58.4385 163.265 58.4413C163.303 58.444 163.34 58.4545 163.375 58.472C163.468 58.5196 163.571 58.5447 163.676 58.5456C163.84 58.5414 163.998 58.4827 164.124 58.3787C164.251 58.2748 164.339 58.1315 164.375 57.9717C164.169 58.1112 163.925 58.1856 163.676 58.1851C163.505 58.1846 163.337 58.1484 163.181 58.0787C163.025 58.009 162.885 57.9074 162.771 57.7805C162.53 57.5293 162.396 57.1944 162.396 56.8461C162.398 56.4939 162.532 56.1552 162.771 55.8971C162.887 55.7725 163.027 55.673 163.183 55.6047C163.338 55.5364 163.506 55.5007 163.676 55.4998C163.94 55.494 164.198 55.574 164.412 55.7279C164.424 55.663 164.459 55.6045 164.51 55.5627C164.561 55.521 164.625 55.4987 164.691 55.4998C164.768 55.4998 164.841 55.53 164.894 55.5839C164.948 55.6377 164.978 55.7106 164.978 55.7867V56.8461L164.956 56.8535ZM164.382 56.8535C164.385 56.6538 164.314 56.4602 164.184 56.3091C164.12 56.2376 164.042 56.1804 163.954 56.1411C163.867 56.1018 163.772 56.0813 163.676 56.081C163.582 56.0811 163.49 56.1015 163.405 56.1409C163.32 56.1802 163.244 56.2376 163.183 56.3091C163.046 56.4568 162.969 56.6515 162.97 56.8535C162.966 56.954 162.984 57.0542 163.02 57.1478C163.057 57.2414 163.112 57.3265 163.183 57.3979C163.244 57.4684 163.32 57.5247 163.405 57.5628C163.491 57.6009 163.583 57.62 163.676 57.6186C163.772 57.6197 163.866 57.6005 163.954 57.5625C164.041 57.5245 164.12 57.4684 164.184 57.3979C164.318 57.246 164.389 57.0486 164.382 56.8461V56.8535Z" fill="#C7C7C7"/>
<path d="M166.42 57.4131C166.526 57.4131 166.628 57.4547 166.703 57.529C166.779 57.6033 166.823 57.7043 166.824 57.8104C166.823 57.8625 166.812 57.914 166.791 57.9618C166.771 58.0097 166.74 58.0529 166.703 58.0891C166.665 58.1253 166.621 58.1538 166.572 58.1729C166.524 58.1919 166.472 58.2012 166.42 58.2003C166.316 58.2003 166.217 58.1592 166.144 58.0861C166.071 58.0129 166.03 57.9138 166.03 57.8104C166.03 57.7063 166.071 57.6063 166.144 57.532C166.217 57.4577 166.316 57.415 166.42 57.4131Z" fill="#C7C7C7"/>
<path d="M167.649 57.4131C167.701 57.4131 167.753 57.4234 167.801 57.4433C167.849 57.4633 167.893 57.4926 167.93 57.5294C167.967 57.5663 167.996 57.6101 168.016 57.6583C168.036 57.7065 168.046 57.7582 168.046 57.8104C168.046 57.9157 168.004 58.0168 167.93 58.0913C167.855 58.1658 167.754 58.2076 167.649 58.2076C167.543 58.2076 167.442 58.1658 167.368 58.0913C167.293 58.0168 167.251 57.9157 167.251 57.8104C167.251 57.705 167.293 57.6039 167.368 57.5294C167.442 57.4549 167.543 57.4131 167.649 57.4131Z" fill="#C7C7C7"/>
<path d="M168.87 57.4131C168.976 57.4131 169.078 57.4547 169.154 57.529C169.229 57.6033 169.273 57.7043 169.275 57.8104C169.274 57.8625 169.263 57.914 169.242 57.9618C169.221 58.0097 169.191 58.0529 169.153 58.0891C169.116 58.1253 169.071 58.1538 169.023 58.1729C168.974 58.1919 168.922 58.2012 168.87 58.2003C168.767 58.2003 168.668 58.1592 168.594 58.0861C168.521 58.0129 168.48 57.9138 168.48 57.8104C168.48 57.7063 168.521 57.6063 168.594 57.532C168.667 57.4577 168.766 57.415 168.87 57.4131Z" fill="#C7C7C7"/>
<path d="M166.443 90.9895C165.059 91.8497 163.546 92.4831 161.962 92.8655C158.164 93.7934 154.155 93.2551 150.736 91.358C147.317 89.461 144.739 86.3446 143.517 82.6307C142.294 78.9168 142.516 74.8784 144.139 71.3213C145.763 67.7641 148.667 64.9497 152.274 63.4396C155.881 61.9294 159.924 61.8345 163.597 63.1739C167.271 64.5132 170.304 67.1883 172.093 70.6654C173.881 74.1426 174.292 78.1661 173.245 81.9332C172.198 85.7004 169.769 88.9342 166.443 90.9895Z" fill="#C7C7C7"/>
<path d="M163.006 76.0039C163.006 76.9395 162.729 77.8541 162.209 78.632C161.689 79.4099 160.95 80.0163 160.086 80.3743C159.222 80.7323 158.27 80.826 157.353 80.6435C156.435 80.461 155.592 80.0104 154.931 79.3489C154.269 78.6873 153.819 77.8444 153.636 76.9268C153.454 76.0092 153.547 75.058 153.905 74.1936C154.263 73.3293 154.87 72.5905 155.648 72.0707C156.425 71.5509 157.34 71.2734 158.276 71.2734C158.897 71.2725 159.513 71.3942 160.087 71.6316C160.661 71.8689 161.183 72.2173 161.623 72.6568C162.062 73.0963 162.411 73.6181 162.648 74.1925C162.885 74.7669 163.007 75.3824 163.006 76.0039Z" fill="white"/>
<path d="M166.442 89.0402V90.9897C165.058 91.85 163.545 92.4833 161.961 92.8657C159.96 93.3582 157.88 93.4453 155.845 93.1219C153.81 92.7984 151.859 92.071 150.109 90.9824V89.0402C150.109 86.8744 150.97 84.7973 152.501 83.2658C154.033 81.7344 156.11 80.874 158.276 80.874C160.441 80.874 162.518 81.7344 164.05 83.2658C165.581 84.7973 166.442 86.8744 166.442 89.0402Z" fill="white"/>
<path d="M295.452 282.584C295.452 282.584 270.107 294.583 236.817 294.583C201.468 294.583 184.326 283.07 184.326 283.07C158.511 262.802 155.847 232.771 174.262 214.563C185.407 203.527 193.559 205.771 207.037 204.02H207.073C211.834 203.515 216.465 202.154 220.743 200.003C234.618 192.683 242.445 175.417 254.121 160.887C255.592 159.062 257.115 157.297 258.689 155.59C268.253 145.334 287.381 145.003 297.394 159.415C322.79 196.001 322.076 250.508 295.452 282.584Z" fill="#FFA500"/>
<g opacity="0.1">
<path d="M295.451 282.584C295.451 282.584 270.107 294.583 236.817 294.583C201.467 294.583 184.326 283.07 184.326 283.07C158.51 262.802 155.847 232.771 174.262 214.563C185.407 203.527 193.559 205.771 207.036 204.02H207.073C211.834 203.515 216.465 202.154 220.742 200.003C234.617 192.683 242.445 175.417 254.12 160.887C255.592 159.062 257.115 157.297 258.689 155.59C268.253 145.334 287.381 145.003 297.394 159.415C322.79 196.001 322.076 250.508 295.451 282.584Z" fill="black"/>
</g>
<path opacity="0.1" d="M224.495 253.054C258.337 261.382 289.361 242.372 292.141 198.797C294.179 166.89 271.483 151.823 254.092 160.857C242.446 175.402 234.625 192.654 220.743 199.974C216.465 202.125 211.835 203.485 207.074 203.991H207.03L205.595 204.167C190.153 213.834 198.216 246.587 224.495 253.054Z" fill="black"/>
<path d="M193.751 310.475C195.414 310.203 235.899 288.846 236.929 287.058C237.319 286.381 234.552 280.304 230.999 273.08C230.263 271.513 229.432 269.902 228.608 268.268C223.282 257.667 217.374 246.536 217.374 246.536L190.257 260.742L202.234 282.077L204.86 286.764C204.86 286.764 193.023 301.86 192.125 303.942C191.228 306.024 192.125 310.769 193.751 310.475Z" fill="#F7A9A0"/>
<path d="M193.751 310.475C195.413 310.203 235.891 288.853 236.921 287.058C237.274 286.462 235.163 281.665 232.227 275.566C230.587 277.84 206.787 296.563 199.121 298.093C195.98 298.719 201.13 291.59 201.328 291.288C197.76 295.923 192.691 302.596 192.103 303.935C191.191 306.024 192.081 310.769 193.751 310.475Z" fill="#263238"/>
<path d="M200.865 291.869C200.865 291.869 204.448 288.993 210.929 291.972L200.865 291.869Z" fill="#263238"/>
<path d="M174.351 227.224C176.256 239.643 200.026 281.915 200.026 281.915L229.005 266.201L211.452 235.81C211.452 235.81 249.84 242.254 264.848 236.759C280.864 230.873 279.459 211.959 279.459 211.959L241.416 205.625C241.004 206.687 240.232 207.572 239.234 208.123C238.236 208.674 237.077 208.858 235.957 208.641C221.192 206.794 200.968 206.434 193.155 206.89C183.076 207.515 172.607 215.865 174.351 227.224Z" fill="#37474F"/>
<path d="M203.16 225.099C204.012 226.015 204.803 226.986 205.529 228.005C206.346 229.027 207.17 230.035 207.979 231.058C207.832 230.756 207.692 230.454 207.538 230.16C207.015 229.138 206.596 228.078 205.985 227.107C205.949 227.048 206.044 226.989 206.081 227.048C206.706 228.012 207.427 228.932 207.964 229.947C208.222 230.425 208.465 230.911 208.7 231.418C208.825 231.683 208.95 231.955 209.06 232.235C209.121 232.364 209.172 232.496 209.215 232.632C209.583 233.103 209.951 233.581 210.289 234.059C211.062 235.141 211.76 236.266 212.54 237.34C212.577 237.399 212.489 237.451 212.445 237.399C211.657 236.399 210.767 235.472 209.965 234.457C209.163 233.441 208.369 232.404 207.596 231.352C206.824 230.3 206.125 229.299 205.389 228.277C204.568 227.269 203.811 226.21 203.123 225.106C203.109 225.113 203.16 225.069 203.16 225.099Z" fill="#263238"/>
<path d="M198.534 275.22C199.27 274.698 200.101 274.22 200.895 273.749C201.69 273.278 202.455 272.793 203.242 272.322C204.853 271.358 206.479 270.424 208.105 269.482C211.364 267.599 214.66 265.76 217.941 263.913C219.788 262.883 221.62 261.882 223.496 260.867C223.533 260.867 223.577 260.867 223.54 260.926C220.384 262.883 217.213 264.825 214.013 266.723C210.812 268.621 207.509 270.527 204.206 272.351C203.286 272.859 202.359 273.352 201.432 273.823C200.505 274.293 199.556 274.838 198.585 275.294C198.541 275.316 198.49 275.25 198.534 275.22Z" fill="#263238"/>
<path d="M274.148 212.922C274.289 217.948 272.51 222.838 269.175 226.599C267.493 228.423 265.475 229.905 263.23 230.961C260.972 231.981 258.565 232.637 256.101 232.904C251.165 233.509 246.188 233.719 241.218 233.529C236.245 233.382 231.272 232.999 226.335 232.389C221.393 231.824 216.491 230.946 211.658 229.762C210.459 229.453 209.26 229.115 208.083 228.725C207.495 228.526 206.913 228.32 206.339 228.1C205.758 227.832 205.152 227.623 204.53 227.474C204.192 227.404 203.844 227.404 203.507 227.474C203.319 227.517 203.144 227.607 203 227.736C202.856 227.864 202.747 228.028 202.683 228.21C202.624 228.38 202.596 228.56 202.602 228.74C202.601 228.921 202.634 229.1 202.698 229.269C202.801 229.586 202.933 229.873 203.058 230.16C203.588 231.3 204.169 232.367 204.758 233.507C209.547 242.262 214.704 250.796 219.876 259.315C217.36 255.018 214.869 250.702 212.402 246.367C209.922 242.041 207.45 237.715 205.126 233.308C204.552 232.212 203.971 231.101 203.47 229.976C203.351 229.692 203.248 229.403 203.161 229.108C203.113 228.988 203.085 228.861 203.08 228.732C203.083 228.6 203.105 228.468 203.147 228.342C203.279 227.842 203.882 227.783 204.478 227.894C205.069 228.034 205.644 228.236 206.192 228.497C206.781 228.725 207.369 228.938 207.965 229.137C209.15 229.534 210.356 229.873 211.563 230.196C216.405 231.405 221.32 232.302 226.277 232.882C231.235 233.477 236.223 233.845 241.211 233.978C246.208 234.152 251.212 233.906 256.168 233.242C258.666 232.943 261.101 232.253 263.385 231.197C265.655 230.104 267.689 228.577 269.373 226.702C271.016 224.828 272.266 222.644 273.052 220.279C273.864 217.915 274.236 215.421 274.148 212.922Z" fill="#263238"/>
<path d="M230.138 314.941C231.712 314.33 266.856 285.013 267.489 283.048C267.732 282.313 263.766 276.935 258.778 270.586C257.704 269.21 256.571 267.805 255.438 266.378C248.037 257.115 239.945 247.5 239.945 247.5L216.403 267.047L232.588 285.439L236.134 289.478C236.134 289.478 227.696 306.723 227.232 308.952C226.769 311.181 228.571 315.559 230.138 314.941Z" fill="#F7A9A0"/>
<path d="M230.139 314.94C231.713 314.329 266.857 285.012 267.489 283.048C267.703 282.393 264.642 278.141 260.5 272.785C259.36 275.353 239.982 298.615 232.802 301.712C229.859 302.978 233.412 294.929 233.537 294.591C231.021 299.858 227.446 307.451 227.152 308.878C226.703 311.115 228.564 315.558 230.139 314.94Z" fill="#263238"/>
<path d="M233.221 295.261C233.221 295.261 236.127 291.7 243.087 293.267L233.221 295.261Z" fill="#263238"/>
<path d="M191.389 230.903C193.287 243.321 224.731 278.62 228.365 282.673L229.189 283.593L254.165 263.553L253.864 263.185L236.612 242.299C236.612 242.299 264.178 253.091 276.987 236.34C282.085 229.674 279.458 211.959 279.458 211.959L248.898 207.037C248.898 207.037 248.125 212.268 243.844 211.738C229.086 209.892 217.491 208.251 209.678 208.729C199.592 209.318 189.638 219.544 191.389 230.903Z" fill="#37474F"/>
<path d="M243.013 211.591C233.53 210.237 224.01 209.001 214.424 208.567C213.225 208.523 212.018 208.501 210.819 208.516C209.607 208.516 208.397 208.612 207.199 208.803C206.6 208.922 206.012 209.091 205.441 209.31C204.867 209.509 204.308 209.73 203.756 209.98C202.648 210.464 201.578 211.032 200.556 211.679C198.493 212.959 196.654 214.57 195.112 216.446C192.779 219.283 191.356 222.757 191.029 226.415C190.985 226.717 190.978 227.018 190.963 227.32C190.948 227.622 190.963 227.931 190.963 228.24C190.983 228.851 191.045 229.461 191.147 230.064C191.645 232.434 192.444 234.731 193.523 236.899C195.653 241.209 198.128 245.34 200.924 249.251C203.668 253.187 206.581 256.998 209.583 260.735C212.585 264.472 215.711 268.092 218.867 271.711C215.778 268.033 212.732 264.355 209.789 260.573C206.846 256.792 203.955 252.966 201.262 249.015C198.521 245.099 196.081 240.98 193.964 236.693C192.913 234.561 192.137 232.304 191.654 229.976C191.556 229.399 191.497 228.817 191.478 228.232C191.478 227.651 191.515 227.048 191.566 226.467C191.681 225.29 191.907 224.127 192.243 222.994C192.918 220.723 194.036 218.608 195.531 216.77C197.027 214.926 198.82 213.345 200.836 212.091C201.836 211.453 202.884 210.892 203.97 210.414C204.507 210.171 205.059 209.95 205.618 209.752C206.168 209.54 206.733 209.373 207.31 209.251C208.481 209.068 209.663 208.97 210.848 208.957C212.04 208.957 213.232 208.957 214.431 208.957C219.213 209.097 223.995 209.509 228.755 209.972C233.515 210.436 238.26 210.988 243.013 211.591Z" fill="#263238"/>
<path d="M227.276 229.99C228.125 230.907 228.914 231.878 229.638 232.896C230.454 233.911 231.278 234.919 232.087 235.942C231.94 235.64 231.8 235.339 231.646 235.044C231.131 234.022 230.704 232.962 230.101 231.991C230.101 231.932 230.152 231.874 230.189 231.932C230.815 232.896 231.536 233.816 232.08 234.831C232.33 235.317 232.573 235.802 232.816 236.302C232.933 236.575 233.066 236.839 233.176 237.119C233.228 237.244 233.287 237.377 233.331 237.516C233.691 237.987 234.066 238.465 234.397 238.988C235.177 240.062 235.869 241.195 236.649 242.262C236.693 242.32 236.597 242.379 236.553 242.32C235.766 241.32 234.876 240.393 234.074 239.378C233.272 238.362 232.477 237.325 231.705 236.28C230.932 235.236 230.233 234.22 229.498 233.198C228.678 232.191 227.922 231.134 227.232 230.034C227.232 230.029 227.233 230.023 227.235 230.017C227.237 230.012 227.241 230.007 227.245 230.003C227.249 229.999 227.254 229.996 227.259 229.994C227.264 229.991 227.27 229.99 227.276 229.99Z" fill="#263238"/>
<path d="M226.386 277.869C227.048 277.229 227.769 276.626 228.468 276.015L230.543 274.213C231.97 272.991 233.419 271.8 234.861 270.601C237.76 268.195 240.688 265.826 243.623 263.457C245.264 262.125 246.934 260.831 248.582 259.514C248.582 259.514 248.663 259.514 248.633 259.565C245.853 262.017 243.047 264.47 240.217 266.922C237.387 269.374 234.481 271.775 231.499 274.124C230.675 274.772 229.851 275.419 229.02 276.052C228.189 276.685 227.335 277.376 226.452 277.972C226.416 277.965 226.349 277.906 226.386 277.869Z" fill="#263238"/>
<path d="M275.207 213.459C275.639 216.17 275.708 218.926 275.413 221.655C275.154 224.381 274.386 227.034 273.147 229.475C271.883 231.897 269.96 233.911 267.6 235.287C265.204 236.599 262.538 237.34 259.809 237.45C257.081 237.616 254.343 237.512 251.635 237.141C248.914 236.795 246.212 236.304 243.543 235.67C238.208 234.411 232.968 232.783 227.858 230.8L227.667 230.719L227.571 230.888C227.214 231.53 226.981 232.234 226.887 232.963C226.773 233.679 226.773 234.409 226.887 235.125C227.013 235.835 227.231 236.525 227.534 237.178C227.873 237.804 228.254 238.406 228.675 238.981C230.315 241.261 232.095 243.395 233.883 245.602C235.671 247.809 237.488 249.883 239.327 251.987C241.167 254.092 243.006 256.188 244.889 258.27C243.065 256.151 241.262 254.011 239.467 251.87C237.672 249.729 235.892 247.573 234.126 245.403C232.36 243.233 230.617 241.048 229.013 238.782C228.614 238.224 228.255 237.639 227.939 237.031C227.658 236.413 227.456 235.763 227.336 235.096C227.1 233.763 227.312 232.39 227.939 231.19L227.652 231.278C232.774 233.297 238.033 234.951 243.388 236.229C246.058 236.861 248.759 237.352 251.481 237.7C254.222 238.06 256.991 238.151 259.75 237.973C262.539 237.851 265.26 237.069 267.688 235.692C270.087 234.253 272.033 232.167 273.301 229.674C274.533 227.194 275.268 224.498 275.464 221.736C275.748 218.978 275.662 216.194 275.207 213.459Z" fill="#263238"/>
<path d="M262.06 212.459C262.274 213.93 262.575 215.358 262.914 216.792C263.141 218.1 263.623 219.35 264.334 220.471C265.1 221.461 266.085 222.261 267.21 222.81C267.851 223.152 268.512 223.454 269.189 223.715C269.888 223.947 270.569 224.23 271.227 224.561C271.254 224.577 271.274 224.602 271.286 224.63C271.298 224.659 271.3 224.691 271.293 224.721C271.286 224.752 271.269 224.779 271.245 224.799C271.221 224.819 271.192 224.831 271.161 224.833C270.381 224.784 269.61 224.638 268.865 224.399C268.141 224.209 267.433 223.963 266.747 223.664C265.501 223.087 264.423 222.204 263.613 221.096C262.858 219.887 262.383 218.525 262.222 217.109C261.95 215.584 261.832 214.036 261.869 212.488C261.869 212.334 262.016 212.334 262.06 212.459Z" fill="#263238"/>
<path d="M259.809 134.55C259.809 134.55 266.364 131.607 271.653 135.528C276.943 139.449 278.892 148.226 277.347 155.318C275.802 162.41 281.261 167.626 281.453 173.011C281.644 178.397 277.943 180.567 276.538 183.267C274.927 186.357 279.378 198.172 265.459 199.68C248.045 201.564 242.358 190.484 244.823 181.913C246.029 177.713 248.685 174.88 248.928 171.422C249.171 167.965 246.949 165.007 248.582 160.733C250.215 156.458 251.856 157.194 253.121 150.374C254.387 143.554 253.629 135.219 259.809 134.55Z" fill="#263238"/>
<path d="M270.469 135.271C273.908 137.917 276.455 141.552 277.767 145.688C278.431 147.74 278.749 149.888 278.709 152.044C278.65 154.862 278.01 157.452 278.827 160.255C280.136 164.75 283.182 168.656 282.623 173.497C282.359 175.752 281.464 177.886 280.041 179.655C278.378 181.722 276.127 183.282 274.692 185.54C274.633 185.636 274.486 185.54 274.545 185.445C275.752 183.444 277.554 181.987 279.106 180.236C280.963 178.19 282.075 175.577 282.262 172.82C282.513 168.193 279.511 164.375 278.319 160.049C277.869 158.149 277.799 156.179 278.113 154.252C278.402 151.913 278.295 149.543 277.797 147.24C276.671 142.592 274.094 138.423 270.44 135.337C270.44 135.337 270.433 135.241 270.469 135.271Z" fill="#263238"/>
<path d="M244.969 180.685C245.573 178.655 246.809 176.874 247.405 174.859C248.14 172.423 247.706 169.907 247.405 167.443C247.015 163.926 247.36 160.66 249.163 157.518C250.325 155.488 251.694 153.619 252.606 151.456C253.602 149.11 254.251 146.632 254.533 144.099C254.533 144.048 254.622 144.055 254.622 144.099C254.386 147.775 253.301 151.346 251.451 154.531C250.362 156.4 249.045 158.136 248.332 160.196C247.6 162.629 247.406 165.192 247.765 167.708C247.989 169.414 248.061 171.138 247.978 172.857C247.737 174.592 247.186 176.269 246.353 177.809C244.362 181.881 244.002 186.56 245.345 190.889C245.345 190.963 245.234 191.007 245.205 190.926C244.073 187.618 243.99 184.041 244.969 180.685Z" fill="#263238"/>
<path d="M281.946 172.46C282.108 168.649 279.673 165.838 278.341 162.425C277.333 159.835 276.723 157.113 277.355 154.406C277.355 154.362 277.444 154.406 277.436 154.406C276.907 158.356 278.275 162.094 280.195 165.596C281.475 167.928 282.505 170.15 282.299 172.813C282.093 175.476 280.879 177.521 279.217 179.559C278.032 181.03 276.877 182.355 276.274 184.135C275.768 185.928 275.521 187.783 275.538 189.645C275.538 189.741 275.384 189.726 275.384 189.645C275.384 186.776 275.553 184.017 277.194 181.553C279.239 178.463 281.784 176.3 281.946 172.46Z" fill="#263238"/>
<path d="M244.535 177.933C245.256 176.693 246.088 175.521 247.022 174.431C248.655 172.416 249.037 170.702 248.765 168.127C248.769 168.117 248.776 168.109 248.784 168.103C248.793 168.097 248.803 168.094 248.813 168.094C248.823 168.094 248.833 168.097 248.842 168.103C248.85 168.109 248.857 168.117 248.861 168.127C249.383 170.275 249.405 172.026 248.008 173.843C246.058 176.388 244.167 178.691 243.549 181.869C242.446 187.505 245.227 193.074 250.17 196.384C250.244 196.429 250.17 196.532 250.097 196.487C248.062 195.337 246.342 193.704 245.087 191.732C243.832 189.76 243.082 187.51 242.902 185.18C242.766 182.66 243.331 180.151 244.535 177.933Z" fill="#263238"/>
<path d="M257.116 171.805C254.011 186.357 249.251 198.621 245.242 201.468C242.005 203.771 214.858 209.105 213.909 209.208C211.569 209.443 207.155 194.082 208.759 192.132C209.127 191.683 235.244 189.241 236.068 188.395C236.892 187.549 244.653 177.183 250.877 169.215C255.218 163.632 258.837 163.735 257.116 171.805Z" fill="#F7A9A0"/>
<path d="M218.567 207.471C216.332 208.562 214.029 209.508 211.673 210.304C209.79 210.848 204.316 212.268 203.529 210.259C202.977 208.884 206.089 207.67 208.267 206.765C209.422 206.287 210.835 205.08 210.474 204.344C209.885 203.05 206.928 204.344 204.978 205.477C201.219 207.684 196.209 211.598 193.906 209.686C193.046 208.95 194.053 207.655 195.525 206.368C193.134 207.839 190.581 209.097 189.58 208.332C189.325 208.135 189.155 207.848 189.103 207.53C189.051 207.212 189.122 206.886 189.301 206.618C188.999 206.758 188.663 206.806 188.334 206.755C188.005 206.704 187.699 206.556 187.454 206.331C186.674 205.514 187.057 204.315 187.91 203.086C187.758 203.075 187.612 203.026 187.483 202.944C187.355 202.862 187.249 202.749 187.175 202.616C185.527 200.107 193.796 192.897 196.628 192.22C202.316 191.007 208.143 190.581 213.946 190.955C217.294 193.589 218.567 207.464 218.567 207.471Z" fill="#F7A9A0"/>
<path d="M206.221 199.68C204.221 199.978 202.312 200.714 200.63 201.836C198.665 203.182 197.113 205.021 195.303 206.537C195.296 206.54 195.29 206.545 195.285 206.552C195.28 206.558 195.277 206.565 195.275 206.573C195.274 206.581 195.274 206.589 195.276 206.597C195.278 206.605 195.282 206.612 195.288 206.618C195.293 206.623 195.3 206.628 195.307 206.631C195.314 206.634 195.322 206.635 195.33 206.634C195.338 206.634 195.346 206.631 195.353 206.627C195.36 206.623 195.365 206.617 195.37 206.61C196.223 205.823 197.157 205.139 198.04 204.403C198.923 203.668 199.747 202.932 200.652 202.196C202.299 200.959 204.206 200.111 206.228 199.717C206.228 199.717 206.243 199.68 206.221 199.68Z" fill="#263238"/>
<path d="M204.632 196.083C202.39 196.611 200.209 197.368 198.121 198.341C195.877 199.481 194.126 201.343 192.405 203.13C191.365 204.214 190.352 205.313 189.366 206.426C189.329 206.47 189.366 206.551 189.432 206.5C191.183 204.653 192.986 202.821 194.847 201.115C196.56 199.487 198.578 198.215 200.784 197.37C202.05 196.892 203.344 196.509 204.639 196.127L204.632 196.083Z" fill="#263238"/>
<path d="M202.308 192.971C200.167 193.412 198.291 193.787 196.422 194.935C194.291 196.349 192.346 198.025 190.632 199.923C189.691 200.923 188.786 201.961 187.896 203.005C187.859 203.05 187.896 203.116 187.969 203.072C190.006 200.774 192.191 198.611 194.509 196.598C195.605 195.619 196.846 194.818 198.188 194.221C199.538 193.692 200.931 193.278 202.352 192.985C202.352 192.985 202.315 192.971 202.308 192.971Z" fill="#263238"/>
<path d="M213.52 190.433L218.669 209.921C218.669 209.921 239.945 205.61 245.831 201.387C251.716 197.164 256.094 178.544 257.602 170.488C259.11 162.432 253.659 164.934 250.326 169.09C246.993 173.247 236.061 187.482 235.693 187.806C235.325 188.13 213.52 190.433 213.52 190.433Z" fill="#DBDBDB"/>
<path d="M223.598 208.111C223.326 206.64 222.862 205.205 222.443 203.771C222.024 202.336 221.626 200.946 221.207 199.54C220.354 196.701 219.559 193.817 218.522 191.036C218.522 191.022 218.516 191.009 218.507 190.999C218.497 190.99 218.484 190.984 218.47 190.984C218.457 190.984 218.444 190.99 218.434 190.999C218.424 191.009 218.419 191.022 218.419 191.036C218.993 193.979 219.89 196.855 220.714 199.724C221.141 201.166 221.582 202.601 222.038 204.028C222.455 205.419 222.946 206.787 223.51 208.126C223.517 208.222 223.605 208.177 223.598 208.111Z" fill="#263238"/>
<path d="M257.601 170.474C256.056 178.566 251.649 197.165 245.83 201.373C242.887 203.484 236.141 205.618 230.086 207.221L255.004 165.361C257.013 164.669 258.484 165.787 257.601 170.474Z" fill="#C7C7C7"/>
<path d="M281.533 215.667L259.293 212.415L243.197 210.061L238.37 209.325L242.049 196.193L243.564 190.742C243.564 190.742 240.909 186.158 242.196 182.208C243.667 177.735 255.63 165.574 256.557 164.985C260.235 162.638 264.296 162.484 267.791 167.317C269.598 170.081 271.042 173.065 272.087 176.197C272.823 178.117 273.478 180.199 274.125 182.355C278.532 197.127 281.533 215.667 281.533 215.667Z" fill="#DBDBDB"/>
<path d="M259.602 195.266C258.234 194.683 256.834 194.178 255.409 193.75C254.673 193.544 253.974 193.375 253.246 193.228C252.893 193.155 252.547 193.088 252.194 193.029C251.841 192.971 251.414 192.949 251.032 192.875C250.995 192.875 250.973 192.934 251.032 192.941C251.385 193.015 251.767 193.155 252.091 193.258L253.165 193.552C253.901 193.758 254.585 193.964 255.306 194.155C256.741 194.545 258.16 194.942 259.58 195.384C259.646 195.391 259.669 195.266 259.602 195.266Z" fill="#263238"/>
<path d="M243.535 190.771C242.4 189.118 241.731 187.189 241.6 185.188C241.535 184.176 241.645 183.16 241.924 182.186C242.243 181.228 242.67 180.31 243.197 179.449C244.273 177.779 245.483 176.199 246.816 174.726C248.136 173.254 249.541 171.861 251.025 170.555C249.7 172.026 248.391 173.497 247.14 174.969C245.87 176.46 244.71 178.041 243.668 179.699C243.15 180.515 242.725 181.386 242.402 182.296C242.135 183.219 242.006 184.176 242.02 185.136C242.077 187.107 242.596 189.037 243.535 190.771Z" fill="#263238"/>
<path d="M249.906 170.907C249.543 171.716 249.07 172.471 248.501 173.151C248.683 172.748 248.892 172.357 249.127 171.981C249.358 171.604 249.619 171.244 249.906 170.907Z" fill="#263238"/>
<path d="M264.222 165.75C263.958 166.486 259.757 171.003 256.299 170.436C255.173 170.252 255.916 164.058 255.916 164.058L255.865 163.594L255.173 157.017L263.266 153.059L264.428 152.552C264.428 152.552 264.502 154.362 264.568 156.613C264.568 156.723 264.568 156.826 264.568 156.936C264.568 157.047 264.568 157.187 264.568 157.304C264.568 157.643 264.568 157.988 264.605 158.327C264.642 158.665 264.605 158.842 264.605 159.114C264.605 159.386 264.605 159.659 264.605 159.938C264.609 161.882 264.482 163.824 264.222 165.75Z" fill="#F7A9A0"/>
<path d="M264.583 156.613C263.733 158.346 262.514 159.872 261.012 161.084C259.51 162.297 257.761 163.166 255.888 163.632L255.196 157.054L263.289 153.096L264.451 152.589C264.451 152.589 264.517 154.362 264.583 156.613Z" fill="#263238"/>
<path d="M255.932 164.08L256.866 169.517L264.458 164.514L265.783 166.927C265.783 166.927 257.528 175.697 257.602 175.233L256.469 170.473L252.842 172.835L254.659 165.345L255.932 164.08Z" fill="white"/>
<path d="M253.541 169.083C253.887 167.854 254.203 166.611 254.608 165.404C254.608 165.36 254.696 165.353 254.696 165.404C254.696 166.655 253.328 171.341 253.092 172.481C253.239 172.378 256.418 170.436 256.44 170.48C256.741 171.26 257.58 174.733 257.624 175.042C258.926 173.644 264.37 168.222 265.834 166.949C265.879 166.912 265.937 166.949 265.901 167.008C264.701 168.509 257.602 175.696 257.602 175.66C257.12 174.004 256.724 172.324 256.418 170.627C255.21 171.558 253.939 172.403 252.614 173.158C252.85 171.784 253.159 170.424 253.541 169.083Z" fill="#263238"/>
<path d="M249.017 143.767C243.867 154.17 249.547 158.415 251.79 159.519C253.828 160.519 260.891 163.668 267.071 153.854C273.25 144.04 270.013 138.36 265.489 135.822C260.964 133.284 254.145 133.328 249.017 143.767Z" fill="#F7A9A0"/>
<path d="M251.371 142.664C251.628 142.745 251.886 142.782 252.151 142.841C252.42 142.932 252.712 142.932 252.982 142.841C253.063 142.799 253.128 142.732 253.166 142.649C253.205 142.567 253.215 142.474 253.195 142.385C253.128 142.215 253.018 142.065 252.874 141.951C252.731 141.837 252.56 141.764 252.379 141.737C252.022 141.63 251.639 141.662 251.305 141.826C251.218 141.861 251.145 141.923 251.095 142.003C251.046 142.083 251.024 142.176 251.031 142.269C251.038 142.363 251.075 142.451 251.136 142.522C251.197 142.593 251.28 142.643 251.371 142.664Z" fill="#263238"/>
<path d="M258.595 145.975C258.373 145.828 258.159 145.668 257.955 145.497C257.705 145.305 257.492 145.18 257.389 144.879C257.371 144.79 257.382 144.698 257.421 144.616C257.459 144.534 257.523 144.466 257.602 144.423C257.775 144.364 257.96 144.352 258.139 144.39C258.318 144.427 258.483 144.512 258.617 144.636C258.931 144.837 259.158 145.15 259.25 145.511C259.265 145.594 259.257 145.68 259.225 145.758C259.193 145.837 259.14 145.904 259.071 145.953C259.002 146.002 258.921 146.03 258.836 146.034C258.752 146.038 258.668 146.017 258.595 145.975Z" fill="#263238"/>
<path d="M255.726 147.799C255.726 147.799 255.763 147.866 255.726 147.895C255.351 148.587 255.042 149.447 255.572 149.999C255.572 149.999 255.572 150.051 255.572 150.036C254.836 149.543 255.263 148.403 255.726 147.799Z" fill="#263238"/>
<path d="M256.719 147.373C257.903 147.851 256.866 150.183 255.77 149.742C254.674 149.3 255.733 146.975 256.719 147.373Z" fill="#263238"/>
<path d="M257.124 147.704C257.271 147.925 257.366 148.248 257.595 148.381C257.823 148.513 258.19 148.381 258.485 148.234C258.485 148.234 258.522 148.234 258.485 148.278C258.293 148.726 257.918 149.109 257.411 148.962C256.903 148.815 256.815 148.292 256.903 147.799C256.94 147.704 257.065 147.616 257.124 147.704Z" fill="#263238"/>
<path d="M251.783 145.857C251.783 145.857 251.709 145.857 251.702 145.901C251.407 146.637 250.966 147.424 250.186 147.372C250.186 147.372 250.149 147.409 250.186 147.409C251.025 147.659 251.621 146.6 251.783 145.857Z" fill="#263238"/>
<path d="M251.466 144.82C250.341 144.224 249.259 146.52 250.274 147.071C251.29 147.623 252.452 145.32 251.466 144.82Z" fill="#263238"/>
<path d="M250.915 144.739C250.679 144.776 250.392 144.908 250.179 144.82C249.966 144.731 249.855 144.371 249.811 144.084C249.811 144.084 249.811 144.084 249.767 144.084C249.629 144.266 249.56 144.491 249.574 144.719C249.587 144.947 249.682 145.163 249.841 145.327C250.194 145.592 250.657 145.327 250.974 144.967C251.018 144.879 250.981 144.724 250.915 144.739Z" fill="#263238"/>
<path d="M251.355 149.786C251.355 149.786 250.715 150.786 250.48 151.257C250.48 151.301 250.575 151.382 250.737 151.47C251.133 151.75 251.599 151.915 252.083 151.948C252.567 151.98 253.051 151.879 253.481 151.654C253.494 151.648 253.503 151.637 253.509 151.624C253.514 151.611 253.515 151.597 253.51 151.583C253.506 151.57 253.497 151.559 253.485 151.551C253.473 151.544 253.458 151.542 253.444 151.544C252.596 151.69 251.723 151.555 250.958 151.161C250.958 151.007 252.113 149.484 252.039 149.44C251.629 149.292 251.201 149.201 250.767 149.168C252.047 147.041 253.65 145.136 254.894 142.995C254.905 142.98 254.91 142.96 254.908 142.941C254.905 142.921 254.895 142.904 254.879 142.892C254.863 142.88 254.844 142.875 254.824 142.878C254.805 142.881 254.788 142.891 254.776 142.907C252.991 144.898 251.409 147.062 250.053 149.366C249.898 149.653 251.12 149.778 251.355 149.786Z" fill="#263238"/>
<path d="M266.474 153.258C264.34 152.913 265.193 148.057 265.193 148.057C265.193 148.057 256.88 144.011 258.234 136.669C256.278 139.243 253.407 140.966 250.215 141.48C250.215 141.48 252.812 133.763 259.448 134.057C259.448 134.057 267.952 133.512 270.483 140.877C273.014 148.241 267.901 153.486 266.474 153.258Z" fill="#263238"/>
<path d="M258.337 136.131C257.912 137.202 257.721 138.351 257.778 139.501C257.811 140.663 258.086 141.806 258.588 142.856C258.71 143.109 258.847 143.355 258.999 143.591L259.22 143.966C259.301 144.092 259.389 144.202 259.478 144.32C259.662 144.548 259.831 144.783 260.022 144.996C260.213 145.21 260.427 145.408 260.633 145.607C260.839 145.806 260.839 145.813 260.949 145.901L261.287 146.166L261.972 146.688C262.457 146.99 262.957 147.27 263.443 147.535C263.009 147.167 262.546 146.85 262.119 146.482L261.493 145.923L261.184 145.636C261.089 145.541 261.001 145.43 260.912 145.327C260.824 145.224 260.544 144.908 260.353 144.702C260.162 144.496 260.037 144.253 259.875 144.033L259.632 143.702L259.426 143.341C259.285 143.103 259.158 142.857 259.044 142.605C258.57 141.607 258.271 140.534 258.161 139.435C258.104 138.88 258.092 138.321 258.124 137.765C258.15 137.215 258.221 136.669 258.337 136.131Z" fill="#263238"/>
<path d="M264.958 157.128C264.774 157.13 264.591 157.108 264.414 157.062C264.233 157.029 264.059 156.967 263.899 156.878C263.686 156.774 263.5 156.623 263.354 156.437C263.234 156.293 263.137 156.132 263.067 155.958C262.965 155.726 262.905 155.477 262.891 155.223L264.612 152.567C264.612 152.567 268.291 150.117 269.49 151.552C270.689 152.986 267.003 157.165 264.958 157.128Z" fill="#F7A9A0"/>
<path d="M268.395 152.699V152.75C266.923 152.75 265.82 153.685 264.878 154.715C265 154.616 265.142 154.546 265.294 154.508C265.446 154.47 265.605 154.466 265.759 154.495C265.913 154.524 266.058 154.587 266.186 154.678C266.313 154.769 266.419 154.887 266.497 155.024C266.497 155.024 266.497 155.097 266.438 155.082C266.244 154.925 266.007 154.831 265.758 154.814C265.509 154.796 265.261 154.857 265.047 154.987C264.692 155.209 264.362 155.467 264.062 155.759C263.959 155.848 263.782 155.708 263.878 155.597C264.481 153.95 266.607 152.191 268.395 152.699Z" fill="#263238"/>
<path d="M264.958 156.621C264.88 156.737 264.76 156.819 264.623 156.849C264.486 156.879 264.342 156.855 264.223 156.782C264.132 156.726 264.061 156.643 264.018 156.546C263.974 156.449 263.961 156.341 263.979 156.236C263.997 156.131 264.046 156.033 264.12 155.956C264.194 155.879 264.289 155.826 264.393 155.803C264.497 155.78 264.605 155.789 264.705 155.828C264.804 155.867 264.889 155.934 264.95 156.022C265.01 156.11 265.044 156.213 265.045 156.32C265.047 156.427 265.016 156.531 264.958 156.621Z" fill="white"/>
<path d="M266.297 156.274C266.257 156.336 266.199 156.385 266.132 156.415C266.064 156.444 265.989 156.453 265.916 156.44C265.843 156.428 265.776 156.393 265.723 156.342C265.669 156.291 265.632 156.226 265.616 156.153C265.599 156.081 265.605 156.006 265.631 155.937C265.658 155.868 265.704 155.808 265.764 155.765C265.824 155.723 265.896 155.698 265.97 155.696C266.044 155.694 266.117 155.713 266.179 155.752C266.263 155.806 266.323 155.892 266.345 155.989C266.367 156.087 266.35 156.189 266.297 156.274Z" fill="white"/>
<path d="M251.179 186.666C251.179 186.666 257.47 175.262 261.045 169.414C264.62 163.565 268.034 164.595 268.299 171.437C268.564 178.279 270.58 187.063 264.186 198.275C247.619 227.32 251.179 186.666 251.179 186.666Z" fill="#DBDBDB"/>
<path d="M264.789 148.035L248.773 159.32C248.658 159.361 248.556 159.432 248.478 159.526C248.4 159.62 248.349 159.733 248.33 159.854C248.311 159.975 248.325 160.098 248.371 160.211C248.417 160.325 248.492 160.424 248.589 160.497L253.805 167.464C254.048 167.642 254.335 167.747 254.634 167.768C254.934 167.789 255.233 167.724 255.498 167.582L271.513 156.275C271.627 156.233 271.727 156.162 271.804 156.069C271.881 155.975 271.931 155.863 271.95 155.744C271.969 155.625 271.955 155.502 271.911 155.39C271.866 155.278 271.793 155.179 271.697 155.105L266.481 148.182C266.242 148 265.956 147.889 265.657 147.863C265.357 147.837 265.056 147.897 264.789 148.035Z" fill="#A6A6A6"/>
<path d="M265.261 148.601L249.245 159.887C249.131 159.929 249.031 160.001 248.955 160.095C248.878 160.189 248.828 160.302 248.809 160.421C248.791 160.541 248.804 160.664 248.848 160.777C248.893 160.889 248.966 160.988 249.061 161.064L254.284 168.031C254.525 168.208 254.811 168.314 255.11 168.334C255.408 168.355 255.706 168.291 255.969 168.148L271.985 156.863C272.099 156.822 272.2 156.752 272.278 156.659C272.355 156.566 272.406 156.454 272.426 156.334C272.446 156.215 272.433 156.092 272.389 155.98C272.345 155.867 272.271 155.768 272.176 155.693L266.953 148.726C266.712 148.548 266.424 148.441 266.125 148.419C265.826 148.397 265.526 148.46 265.261 148.601Z" fill="#DBDBDB"/>
<path d="M266.732 151.015C266.621 151.136 266.477 151.222 266.318 151.262C266.158 151.302 265.991 151.293 265.836 151.238C265.682 151.183 265.547 151.083 265.449 150.951C265.351 150.819 265.294 150.661 265.286 150.497C265.278 150.333 265.319 150.17 265.403 150.029C265.487 149.888 265.611 149.775 265.759 149.705C265.908 149.634 266.074 149.609 266.236 149.633C266.399 149.656 266.551 149.728 266.673 149.838C266.835 149.987 266.933 150.194 266.944 150.414C266.955 150.634 266.879 150.85 266.732 151.015Z" fill="#263238"/>
<path d="M247.045 203.925C247.096 210.017 255.292 210.885 258.08 208.089C264.613 201.541 269.984 187.762 272.375 179.75C273.147 177.175 256.064 171.113 254.821 173.703C253.313 176.815 246.942 191.992 247.045 203.925Z" fill="#F7A9A0"/>
<path d="M268.416 184.15C271.324 181.637 273.657 178.528 275.258 175.034C276.935 171.179 279.672 162.395 272.315 152.228C270.564 149.815 266.371 147.623 267.79 152.589C268.806 156.12 270.505 158.055 270.733 160.21C270.733 160.21 265.068 158.055 262.729 159.894C260.678 161.506 258.743 163.262 256.939 165.147C257.212 165.554 257.509 165.945 257.829 166.316C256.182 168.446 255.162 170.995 254.886 173.673L268.416 184.15Z" fill="#F7A9A0"/>
<path d="M276.243 171.099C275.574 169.002 274.095 164.573 271.623 161.38C268.872 157.827 262.626 151.728 260.029 153.781C258.116 155.252 260.301 157.827 260.301 157.827C260.301 157.827 257.189 155.848 255.762 157.584C254.459 159.166 256.269 161.035 256.269 161.035C256.269 161.035 254.172 160.159 253.216 161.925C252.061 164.044 256.644 165.53 257.336 168.693C257.49 169.399 276.243 171.099 276.243 171.099Z" fill="#F7A9A0"/>
<path d="M268.349 164.904C266.479 161.785 263.702 159.311 260.389 157.812C260.308 157.775 260.235 157.812 260.308 157.871C263.256 159.891 265.946 162.263 268.32 164.934C268.32 164.934 268.364 164.926 268.349 164.904Z" fill="#263238"/>
<path d="M264.686 167.575C263.7 166.045 260.184 162.381 256.314 160.954C256.233 160.954 256.16 160.954 256.233 161.012C259.28 162.88 262.106 165.087 264.657 167.59C264.657 167.59 264.701 167.597 264.686 167.575Z" fill="#263238"/>
<path d="M246.206 204.948C246.537 211.076 255.034 212.062 257.977 209.288C264.827 202.778 270.344 188.969 272.787 180.935L253.188 174.888C251.621 178 245.574 193.317 246.206 204.948Z" fill="#DBDBDB"/>
<path d="M254.137 175.182L253.166 174.902C252.025 177.956 251.003 181.068 250.061 184.187C249.119 187.306 248.259 190.47 247.574 193.655C246.89 196.841 246.265 200.07 246.353 203.3C246.339 204.896 246.742 206.469 247.523 207.861C247.939 208.517 248.504 209.067 249.171 209.465C249.856 209.851 250.603 210.115 251.378 210.245C252.938 210.571 254.559 210.443 256.05 209.877C257.524 209.251 258.846 208.315 259.927 207.133C262.067 204.699 263.853 201.974 265.231 199.04C266.702 196.098 267.938 193.103 269.233 190.102C270.528 187.1 271.801 184.091 272.757 180.965L272.139 180.751L272.764 180.95C272.352 182.539 271.793 184.076 271.234 185.614C270.675 187.152 270.087 188.675 269.483 190.19C268.233 193.214 267.019 196.252 265.606 199.21C264.904 200.695 264.118 202.139 263.252 203.535C262.406 204.948 261.42 206.271 260.309 207.486C259.187 208.733 257.806 209.719 256.263 210.377C254.681 210.986 252.958 211.129 251.297 210.789C250.458 210.65 249.65 210.361 248.913 209.936C248.172 209.493 247.547 208.881 247.089 208.148C246.269 206.673 245.849 205.01 245.868 203.322C245.844 201.672 245.964 200.022 246.228 198.393C246.471 196.767 246.809 195.171 247.17 193.567C248.692 187.193 250.704 180.945 253.188 174.88L254.137 175.182Z" fill="#263238"/>
<path d="M260.846 183.164C259.375 182.744 253.556 181.17 252.069 180.957C252.025 180.957 252.011 181.037 252.069 181.052C253.445 181.67 259.257 183.421 260.714 183.84C263.617 184.728 266.563 185.464 269.542 186.048C269.608 186.048 269.645 185.945 269.586 185.922C266.723 184.851 263.806 183.931 260.846 183.164Z" fill="#263238"/>
</svg>
