<svg width="318" height="316" viewBox="0 0 318 316" fill="none" xmlns="http://www.w3.org/2000/svg">
<path d="M39.366 0H38.667V94.7301H39.366V0Z" fill="#C7C7C7"/>
<path d="M71.9097 126.442L69.2676 132.258H8.75862L6.12354 126.442L31.8802 108.612H46.153L71.9097 126.442Z" fill="#EBEBEB"/>
<path d="M47.9418 91.4312L46.1524 108.612H31.8797L30.0903 91.4312H47.9418Z" fill="#DBDBDB"/>
<path d="M71.9093 126.442L69.2603 132.257H8.75828L6.11621 126.442H71.9093Z" fill="#DBDBDB"/>
<path d="M109.995 0H109.296V75.97H109.995V0Z" fill="#C7C7C7"/>
<path d="M142.54 107.675L139.897 113.497H79.3885L76.7534 107.675L102.51 89.8442H116.783L142.54 107.675Z" fill="#EBEBEB"/>
<path d="M118.572 72.6704L116.783 89.8439H102.51L100.721 72.6704H118.572Z" fill="#DBDBDB"/>
<path d="M142.539 107.682L139.89 113.497H79.3882L76.7461 107.682H142.539Z" fill="#DBDBDB"/>
<path d="M5.74561 305.977L44.0556 305.809L82.3656 305.746L158.986 305.634L235.606 305.746L273.916 305.809L312.226 305.977L273.916 306.152L235.606 306.214L158.986 306.326L82.3656 306.214L44.0556 306.152L5.74561 305.977Z" fill="#263238"/>
<path d="M305.962 62.9136H190.075V180.045H305.962V62.9136Z" fill="#EBEBEB"/>
<path d="M243.356 55.847C247.221 51.3108 253.841 50.2204 260.243 51.5135C266.646 52.8066 274.313 56.0358 275.012 66.7438C275.585 75.4389 272.915 83.9173 272.915 93.6189C272.915 103.32 283.896 126.952 266.324 138.485C250.535 148.844 218.543 139.331 217.558 118.006C216.782 101.105 236.828 85.476 238.939 78.7869C241.05 72.0979 239.121 60.8097 243.356 55.847Z" fill="#263238"/>
<path d="M240.47 65.3877C240.351 70.2245 239.652 75.1172 237.674 79.6814C237.161 80.8374 236.49 81.917 235.682 82.8897C234.906 83.8682 234.081 84.7908 233.257 85.6855C231.593 87.4958 229.951 89.2921 228.364 91.1584C225.213 94.8146 222.609 98.909 220.633 103.313C218.739 107.738 217.698 112.481 217.565 117.292C217.368 114.864 217.441 112.422 217.782 110.009C218.159 107.585 218.785 105.205 219.648 102.908C221.469 98.3052 224.049 94.0406 227.28 90.2916C228.867 88.3975 230.552 86.5872 232.229 84.7978C233.907 83.0085 235.605 81.303 236.647 79.2061C237.715 77.0623 238.529 74.8009 239.072 72.4682C239.685 70.1395 240.152 67.7747 240.47 65.3877Z" fill="#263238"/>
<path d="M274.572 74.0483C274.453 78.983 274.139 83.9107 274.271 88.8104C274.329 91.2506 274.534 93.6852 274.886 96.1005C275.25 98.477 275.963 100.853 276.557 103.258C277.151 105.662 277.682 108.102 278.074 110.562C278.452 113.034 278.611 115.534 278.549 118.034C278.435 120.546 277.964 123.029 277.151 125.408C276.213 127.746 274.813 129.872 273.034 131.657C274.592 129.741 275.778 127.551 276.529 125.198C277.181 122.859 277.505 120.441 277.494 118.013C277.295 113.125 276.531 108.277 275.215 103.565C274.656 101.168 273.943 98.7915 273.6 96.2683C273.28 93.796 273.153 91.3024 273.223 88.8104C273.371 83.8668 273.821 78.9368 274.572 74.0483Z" fill="#263238"/>
<path d="M249.151 115.546C233.075 133.243 219.956 141.743 207.025 141.743C194.73 141.743 168.463 111.89 166.534 107.955C164.871 104.558 186.434 85.9725 189.747 88.2861C195.338 92.1583 213.274 114.574 215.175 114.679C217.076 114.784 224.08 110.157 240.946 102.258C251.192 97.4704 260.335 103.279 249.151 115.546Z" fill="#EB9481"/>
<path d="M169.036 110.897C166.674 108.339 156.756 95.569 154.792 91.4032C152.828 87.2374 148.068 74.8378 151.108 73.0135C154.149 71.1892 155.826 74.705 155.826 74.705C155.826 74.705 154.645 69.1553 157.874 67.5966C161.103 66.0379 163.536 71.5946 163.536 71.5946C163.536 71.5946 162.739 65.8072 166.066 64.4792C169.393 63.1512 170.917 69.1622 170.917 69.1622C170.917 69.1622 169.938 63.8991 173.139 63.962C176.991 64.0389 177.697 73.9431 180.206 78.3815C180.772 79.388 193.199 97.9524 193.199 97.9524L169.036 110.897Z" fill="#EB9481"/>
<path d="M170.784 68.6516C171.322 75.9277 172.818 79.0241 177.074 84.8045C177.158 84.9164 177.011 85.0631 176.914 84.9583C172.21 79.6742 169.777 76.0675 170.413 68.6585C170.462 68.2951 170.756 68.3021 170.784 68.6516Z" fill="#263238"/>
<path d="M163.514 71.0217C164.731 78.5355 166.31 81.9045 170.357 88.286C170.413 88.3768 170.266 88.4817 170.203 88.3978C165.723 82.4636 163.375 78.8081 163.144 71.1405C163.13 70.791 163.459 70.6722 163.514 71.0217Z" fill="#263238"/>
<path d="M156.05 75.0268C157.755 82.2191 159.342 85.9865 164.053 91.676C164.164 91.8158 163.976 91.9905 163.857 91.8647C158.489 86.5246 156.476 81.8346 155.84 75.0897C155.798 74.6423 155.945 74.5724 156.05 75.0268Z" fill="#263238"/>
<path d="M198.742 99.7279C198.742 99.7279 198.581 90.5786 197.623 86.5735C196.666 82.5685 187.642 68.9667 184.56 70.756C180.624 73.0626 184.301 81.9394 186.657 86.0633C186.657 86.0633 177.57 91.4033 178.807 98.351C180.044 105.299 198.742 99.7279 198.742 99.7279Z" fill="#EB9481"/>
<path d="M183.687 71.7416C181.59 76.4387 185.085 81.6459 187.077 85.8047C187.109 85.8646 187.126 85.9312 187.127 85.999C187.128 86.0669 187.113 86.1341 187.083 86.1949C187.053 86.2557 187.009 86.3085 186.954 86.3489C186.9 86.3892 186.836 86.4159 186.769 86.4268C183.093 88.9221 178.64 93.5003 178.584 98.1833C178.584 98.2111 178.573 98.2378 178.554 98.2574C178.534 98.2771 178.507 98.2882 178.48 98.2882C178.452 98.2882 178.425 98.2771 178.405 98.2574C178.386 98.2378 178.375 98.2111 178.375 98.1833C177.753 93.1508 181.758 88.286 185.951 85.8187C183.855 81.576 180.59 76.208 183.645 71.6997L183.687 71.7416Z" fill="#263238"/>
<path d="M221.43 109.534L234.347 133.634C234.347 133.634 251.863 116.628 254.659 109.534C257.455 102.439 254.442 97.2879 241.98 101.083C234.86 103.193 227.975 106.025 221.43 109.534Z" fill="#FFA500"/>
<path d="M237.332 128.609C236.696 127.302 236.137 125.953 235.473 124.653C234.809 123.353 234.145 122.067 233.453 120.794C232.055 118.222 230.657 115.643 229.203 113.106C228.378 111.708 227.512 110.268 226.61 108.912C226.575 108.849 226.456 108.912 226.491 108.961C228.861 114.266 231.733 119.348 234.599 124.394C235.431 125.855 236.375 127.246 237.241 128.686C237.269 128.721 237.367 128.658 237.332 128.609Z" fill="#263238"/>
<path d="M254.659 109.534C251.863 116.629 234.347 133.635 234.347 133.635L225.645 117.426L254.351 101.552C256.001 103.272 255.98 106.186 254.659 109.534Z" fill="#263238"/>
<path d="M224.373 150.109C224.373 150.109 217.271 167.108 219.781 180.038H298.078C295.534 144.888 278.011 114.679 267.659 104.9C259.314 97.0159 250.528 97.7219 244.412 101.755C242.972 102.712 227.085 124.667 225.365 128.141C218.543 141.847 224.373 150.109 224.373 150.109Z" fill="#FFA500"/>
<path d="M244.957 100.72C244.957 100.72 240.065 114.79 242.902 115.524C249.962 117.342 259.433 105.816 259.999 104.641C260.139 104.341 260.768 96.4637 261.236 90.3338C261.537 86.3916 261.767 83.1694 261.767 83.1694L244.349 89.1455L244.908 99.9445L244.957 100.72Z" fill="#EB9481"/>
<path d="M244.321 89.1455L244.88 99.9445C248.424 99.4482 256.218 97.5261 261.208 90.3338C261.509 86.3916 261.739 83.1694 261.739 83.1694L259.559 83.8684L244.321 89.1455Z" fill="#263238"/>
<path d="M231.348 74.0275C231.139 79.5143 231.684 83.9527 233.019 86.9023C234.163 89.4217 235.983 91.5747 238.276 93.122C240.57 94.6693 243.248 95.5503 246.012 95.6673C248.109 95.7441 254.148 95.192 258.517 91.8649C261.914 89.2788 263.962 84.6167 265.122 76.4179C267.778 57.6718 259.202 51.3672 250.751 50.6123C242.301 49.8574 232.047 55.1136 231.348 74.0275Z" fill="#EB9481"/>
<path d="M236.192 69.8476C236.633 69.7847 237.038 69.6588 237.465 69.561C237.928 69.5193 238.367 69.3307 238.716 69.0228C238.803 68.9031 238.85 68.7587 238.85 68.6104C238.85 68.4621 238.803 68.3177 238.716 68.198C238.498 67.9958 238.231 67.8549 237.941 67.7898C237.651 67.7247 237.349 67.7377 237.066 67.8276C236.463 67.9234 235.918 68.2398 235.535 68.7152C235.445 68.8253 235.391 68.9603 235.379 69.1022C235.368 69.2441 235.4 69.3861 235.471 69.5092C235.543 69.6323 235.65 69.7306 235.779 69.7911C235.908 69.8516 236.052 69.8713 236.192 69.8476Z" fill="#263238"/>
<path d="M248.543 70.3157C248.115 70.2401 247.69 70.1421 247.271 70.0221C246.808 69.9835 246.37 69.7917 246.027 69.477C245.94 69.3572 245.893 69.2128 245.893 69.0646C245.893 68.9163 245.94 68.7719 246.027 68.6522C246.246 68.4504 246.516 68.311 246.807 68.2483C247.098 68.1856 247.401 68.202 247.684 68.2957C248.291 68.3928 248.84 68.7146 249.221 69.1974C249.309 69.3091 249.361 69.4449 249.369 69.5867C249.378 69.7285 249.343 69.8695 249.269 69.9909C249.195 70.1123 249.087 70.2085 248.957 70.2665C248.827 70.3245 248.683 70.3417 248.543 70.3157Z" fill="#263238"/>
<path d="M245.454 75.0404C245.454 74.9915 245.551 75.1033 245.551 75.1592C245.447 76.4383 245.551 77.9551 246.691 78.4164C246.691 78.4164 246.691 78.4933 246.691 78.4863C245.265 78.2207 245.153 76.2356 245.454 75.0404Z" fill="#263238"/>
<path d="M246.67 73.7476C248.767 73.6917 248.711 77.8505 246.782 77.9064C244.853 77.9624 244.958 73.7966 246.67 73.7476Z" fill="#263238"/>
<path d="M247.488 73.9783C247.845 74.216 248.187 74.6354 248.634 74.6773C249.082 74.7192 249.529 74.2999 249.865 73.8805C249.899 73.8385 249.934 73.8805 249.934 73.9294C249.934 74.7262 249.627 75.544 248.767 75.6558C247.907 75.7677 247.439 75.0408 247.243 74.2579C247.208 74.0902 247.341 73.8805 247.488 73.9783Z" fill="#263238"/>
<path d="M238.569 74.495C238.569 74.4461 238.471 74.5579 238.471 74.6069C238.471 75.8999 238.338 77.4027 237.171 77.8081C237.136 77.8081 237.136 77.885 237.171 77.878C238.604 77.6823 238.813 75.7112 238.569 74.495Z" fill="#263238"/>
<path d="M237.423 73.1461C235.326 72.9854 235.179 77.1442 237.101 77.291C239.023 77.4378 239.156 73.2859 237.423 73.1461Z" fill="#263238"/>
<path d="M236.57 73.391C236.235 73.6007 235.871 73.9851 235.501 73.9991C235.13 74.0131 234.725 73.5448 234.452 73.1044C234.452 73.0555 234.389 73.1044 234.382 73.1464C234.333 73.9432 234.557 74.7749 235.319 74.9637C236.081 75.1524 236.549 74.4674 236.766 73.6846C236.78 73.5308 236.675 73.3071 236.57 73.391Z" fill="#263238"/>
<path d="M245.328 85.0499C245.027 85.3645 244.733 85.7908 244.272 85.8467C243.793 85.8503 243.317 85.7576 242.874 85.5741C242.866 85.5667 242.855 85.5629 242.844 85.5636C242.833 85.5642 242.822 85.5693 242.815 85.5776C242.807 85.586 242.804 85.5969 242.804 85.6081C242.805 85.6192 242.81 85.6296 242.818 85.637C243.012 85.8837 243.269 86.0736 243.562 86.1868C243.855 86.2999 244.172 86.3322 244.482 86.2801C244.74 86.1994 244.969 86.0454 245.142 85.837C245.314 85.6286 245.422 85.3746 245.453 85.1058C245.457 85.0899 245.456 85.073 245.448 85.0583C245.441 85.0435 245.429 85.0317 245.414 85.0251C245.399 85.0184 245.382 85.0172 245.366 85.0218C245.35 85.0263 245.337 85.0363 245.328 85.0499Z" fill="#263238"/>
<path d="M240.065 80.2757C240.065 80.2757 239.757 82.1978 239.743 83.1064C239.743 83.1903 239.96 83.2323 240.267 83.2602C240.267 83.2602 240.267 83.2602 240.302 83.2602C241.074 83.4128 241.872 83.3515 242.612 83.0829C243.351 82.8143 244.002 82.3487 244.496 81.7365C244.559 81.6526 244.447 81.5548 244.363 81.6107C243.189 82.3757 241.799 82.7432 240.4 82.6591C240.344 82.4005 241.036 79.388 240.889 79.374C240.174 79.4184 239.468 79.5619 238.793 79.8004C239.317 75.7813 240.477 71.8811 240.931 67.8761C240.931 67.7363 240.743 67.6874 240.701 67.8132C239.191 71.8112 238.492 76.4244 237.842 80.5552C237.786 81.0795 239.673 80.4294 240.065 80.2757Z" fill="#263238"/>
<path d="M240.848 82.7853C241.296 83.4705 241.912 84.0289 242.637 84.4069C243.038 84.5976 243.486 84.661 243.924 84.5886C244.881 84.4139 244.972 83.5542 244.86 82.8063C244.792 82.4082 244.679 82.019 244.525 81.646C243.452 82.4084 242.164 82.8076 240.848 82.7853Z" fill="#263238"/>
<path d="M242.636 84.4061C243.036 84.5967 243.485 84.6601 243.922 84.5878C244.88 84.413 244.971 83.5533 244.859 82.8054C244.362 82.7832 243.873 82.9291 243.47 83.2196C243.066 83.5101 242.773 83.9281 242.636 84.4061Z" fill="#FF98B9"/>
<path d="M264.78 74.7329C262.718 74.7958 256.868 69.6514 255.805 59.7681C255.805 59.7681 257.378 68.575 258.161 69.8122C258.944 71.0494 254.89 66.9115 253.918 58.9573C253.918 58.9573 249.794 62.55 246.118 63.9479C242.441 65.3458 240.142 65.5276 239.827 65.2759C239.513 65.0243 244.916 62.7737 246.258 60.9144C246.258 60.9144 236.661 66.5061 232.076 67.261C231.545 67.3449 232.439 59.0901 239.156 53.778C245.873 48.4659 255.106 49.794 258.42 52.45C258.42 52.45 262.04 52.6387 266.402 57.5664C270.763 62.4941 266.996 74.663 264.78 74.7329Z" fill="#263238"/>
<path d="M262.06 77.7526C262.06 77.7526 265.898 71.6506 268.645 72.9926C271.392 74.3347 268.715 83.0367 265.632 84.3577C265.249 84.556 264.829 84.6744 264.398 84.7058C263.967 84.7373 263.535 84.6811 263.127 84.5406C262.718 84.4001 262.343 84.1783 262.022 83.8886C261.702 83.5989 261.444 83.2473 261.264 82.855L262.06 77.7526Z" fill="#EB9481"/>
<path d="M267.814 75.4878C267.87 75.4878 267.877 75.5507 267.814 75.5717C265.654 76.5712 264.599 78.6751 263.886 80.8348C264.508 79.9821 265.375 79.4928 266.507 80.2198C266.563 80.2547 266.507 80.3526 266.451 80.3386C266.062 80.2435 265.653 80.2687 265.279 80.411C264.904 80.5533 264.582 80.8059 264.354 81.1354C263.977 81.7004 263.659 82.3023 263.404 82.9317C263.313 83.1344 262.949 83.0505 263.019 82.8199C263.016 82.8014 263.016 82.7825 263.019 82.764C262.823 79.9402 264.815 75.9002 267.814 75.4878Z" fill="#263238"/>
<path d="M273.72 108.738C281.464 117.677 303.174 150.039 298.141 158.783C293.312 167.171 282.359 169.533 276.054 158.266C271.518 150.207 263.892 126.163 261.998 114.63C260.46 105.292 266.562 100.469 273.72 108.738Z" fill="#EB9481"/>
<path d="M266.486 137.388L292.152 127.959C292.152 127.959 277.746 108.241 271.113 104.488C264.48 100.734 258.958 102.999 260.985 115.867C262.076 123.21 263.92 130.422 266.486 137.388Z" fill="#FFA500"/>
<path d="M287.594 124.296C286.196 124.751 284.798 125.114 283.4 125.589C282.002 126.065 280.66 126.547 279.304 127.057C276.557 128.078 273.817 129.098 271.098 130.196C269.575 130.811 268.051 131.475 266.562 132.174C266.492 132.174 266.52 132.32 266.562 132.299C272.154 130.692 277.578 128.553 282.974 126.421C284.539 125.799 286.042 125.023 287.587 124.401C287.692 124.373 287.643 124.275 287.594 124.296Z" fill="#263238"/>
<path d="M267.932 136.787C267.423 136.899 266.926 137.054 266.443 137.248C265.744 135.732 264.087 129.064 263.703 127.351C262.934 123.94 262.305 120.494 261.501 117.083C261.501 116.986 261.313 117.013 261.327 117.083C261.564 118.978 261.858 120.865 262.186 122.738C261.837 121.843 261.487 120.942 261.215 120.026C261.217 120.02 261.219 120.013 261.218 120.006C261.217 119.999 261.215 119.992 261.211 119.986C261.207 119.98 261.202 119.976 261.196 119.972C261.19 119.969 261.183 119.967 261.176 119.967C261.169 119.967 261.162 119.969 261.156 119.972C261.15 119.976 261.145 119.98 261.141 119.986C261.137 119.992 261.135 119.999 261.134 120.006C261.134 120.013 261.135 120.02 261.138 120.026C261.455 121.163 261.845 122.279 262.305 123.367C262.578 126.862 265.758 137.968 265.849 137.926C266.568 137.6 267.268 137.234 267.946 136.829C268.023 136.85 268.023 136.78 267.932 136.787Z" fill="#263238"/>
<path d="M255.238 70.9937L247.934 102.174C247.62 103.09 248.088 103.824 248.983 103.81L262.927 106.648C263.416 106.603 263.881 106.42 264.27 106.121C264.659 105.821 264.954 105.417 265.122 104.956L272.426 73.7756C272.74 72.86 272.272 72.126 271.377 72.147L257.433 69.3022C256.945 69.347 256.479 69.5297 256.09 69.8292C255.702 70.1288 255.406 70.5326 255.238 70.9937Z" fill="#A6A6A6"/>
<path d="M256.434 71.1685L249.151 102.349C248.836 103.265 249.304 103.999 250.199 103.985L264.143 106.823C264.631 106.778 265.096 106.597 265.485 106.298C265.873 106 266.169 105.598 266.338 105.138L273.614 73.9574C273.929 73.0348 273.46 72.3078 272.566 72.3218L258.629 69.4771C258.141 69.5242 257.676 69.7079 257.288 70.0071C256.9 70.3063 256.604 70.7088 256.434 71.1685Z" fill="#DBDBDB"/>
<path d="M260.852 72.5101C260.859 72.7897 260.782 73.065 260.631 73.3003C260.479 73.5356 260.261 73.7201 260.004 73.83C259.746 73.9398 259.462 73.97 259.188 73.9166C258.913 73.8632 258.661 73.7286 258.464 73.5303C258.266 73.332 258.133 73.0791 258.081 72.8043C258.029 72.5295 258.061 72.2453 258.172 71.9887C258.283 71.732 258.469 71.5146 258.705 71.3646C258.941 71.2146 259.216 71.1388 259.496 71.1471C259.856 71.1489 260.201 71.2934 260.455 71.5488C260.709 71.8042 260.852 72.1498 260.852 72.5101Z" fill="#263238"/>
<path d="M279.779 161.09C284.316 169.477 296.324 164.697 298.141 158.783C302.405 144.909 299.763 121.843 297.218 108.961C296.401 104.817 268.247 108.961 268.414 113.442C268.61 118.859 270.889 144.594 279.779 161.09Z" fill="#EB9481"/>
<path d="M296.904 115.119C298.323 109.007 298.408 102.661 297.156 96.5126C295.674 89.8095 290.83 75.5927 271.357 69.2531C266.737 67.7434 259.083 68.8687 265.766 74.069C270.491 77.7665 274.6 78.6821 276.949 81.3381C276.949 81.3381 267.387 83.9243 266.059 88.6073C264.896 92.7064 264.025 96.8827 263.452 101.105C264.201 101.385 264.967 101.619 265.745 101.804C265.334 105.881 266.283 109.98 268.443 113.462L296.904 115.119Z" fill="#EB9481"/>
<path d="M294.717 90.3407C291.824 88.2438 285.631 83.7845 279.277 81.9532C272.232 79.8563 258.12 77.8293 256.652 83.0366C255.575 86.8599 260.895 88.125 260.895 88.125C260.895 88.125 254.884 88.5024 254.667 92.165C254.471 95.506 258.644 96.2399 258.644 96.2399C258.644 96.2399 255.037 97.0927 255.464 100.35C255.981 104.257 263.467 101.825 267.416 105.333C268.304 106.102 294.717 90.3407 294.717 90.3407Z" fill="#EB9481"/>
<path d="M278.34 89.7321C275.292 88.1665 267.45 86.3981 261.006 87.9987C260.859 87.9987 260.81 88.1595 260.95 88.1595C266.787 88.002 272.621 88.5512 278.326 89.795C278.361 89.809 278.375 89.7461 278.34 89.7321Z" fill="#263238"/>
<path d="M276.061 96.7781C273.265 95.7017 265.123 94.2339 258.65 96.0791C258.503 96.1211 258.461 96.2539 258.601 96.2469C264.43 95.7813 270.293 95.983 276.075 96.848C276.085 96.8461 276.093 96.8407 276.098 96.8328C276.103 96.8249 276.105 96.8153 276.103 96.8061C276.101 96.7968 276.096 96.7886 276.088 96.7834C276.08 96.7781 276.071 96.7762 276.061 96.7781Z" fill="#263238"/>
<path d="M277.207 155.246C276.998 154.547 276.795 153.848 276.571 153.212C276.11 151.814 275.712 150.417 275.306 149.019C274.481 146.223 273.692 143.385 273 140.533C271.619 134.849 270.571 129.089 269.861 123.283C269.666 121.675 269.498 120.068 269.323 118.46C269.148 116.852 269.093 115.182 268.785 113.567C268.785 113.484 267.967 112.253 267.646 111.645C267.312 111.013 267.02 110.359 266.772 109.688C266.249 108.32 265.895 106.893 265.717 105.438C265.713 105.429 265.707 105.422 265.699 105.416C265.69 105.411 265.681 105.408 265.671 105.408C265.661 105.408 265.652 105.411 265.644 105.416C265.636 105.422 265.629 105.429 265.626 105.438C265.535 107.093 265.743 108.751 266.241 110.331C266.671 111.653 267.415 112.852 268.408 113.826C268.408 114.036 268.456 116.622 268.54 118.069C268.624 119.516 268.757 120.962 268.918 122.402C269.246 125.296 269.652 128.183 270.162 131.055C271.159 136.866 272.546 142.604 274.314 148.229C274.314 148.32 274.377 148.411 274.405 148.501C274.405 148.711 274.405 148.921 274.405 149.13C274.415 149.647 274.457 150.163 274.53 150.675C274.674 151.694 274.924 152.694 275.278 153.66C275.275 153.668 275.274 153.677 275.275 153.686C275.276 153.695 275.28 153.704 275.285 153.711C275.29 153.719 275.297 153.725 275.305 153.729C275.313 153.733 275.322 153.735 275.331 153.735C275.34 153.735 275.349 153.733 275.357 153.729C275.365 153.725 275.371 153.719 275.377 153.711C275.382 153.704 275.385 153.695 275.386 153.686C275.387 153.677 275.386 153.668 275.383 153.66C275.135 152.649 274.967 151.621 274.88 150.584L274.754 149.522C275.139 150.654 275.544 151.787 275.942 152.912C276.222 153.695 276.508 154.457 276.83 155.218C277.152 155.98 277.403 156.721 277.781 157.427C277.781 157.483 277.892 157.427 277.878 157.385C277.704 156.637 277.424 155.952 277.207 155.246Z" fill="#263238"/>
<path d="M190.075 180.038V161.25L168.722 180.038H190.075Z" fill="#EBEBEB"/>
<path d="M80.3318 219.872C86.4826 246.635 99.2037 278.718 104.635 283.925C111.505 290.509 156.959 302.587 159.223 302.832C164.815 303.398 176.089 262.991 170.106 262.117C161.02 260.803 127.917 259.007 125.939 256.973C123.961 254.939 109.912 237.227 95.5551 217.328C85.6439 203.579 76.5085 203.265 80.3318 219.872Z" fill="#AD6359"/>
<path d="M154.723 300.651C155.387 300.986 164.886 305.767 170.757 307.466C175.139 308.738 187.847 312.058 189.727 307.368C191.013 304.181 183.765 301.35 178.69 299.232C176.013 298.114 172.714 295.318 173.504 293.598C174.902 290.593 181.773 293.598 186.302 296.24C195.06 301.329 206.725 310.492 212.072 306.026C214.092 304.348 211.744 301.287 208.312 298.288C213.904 301.783 219.831 304.649 222.144 302.873C223.479 301.86 223.542 300.469 222.801 298.889C224.521 299.449 226.038 299.337 227.1 298.19C228.91 296.289 228.03 293.493 226.045 290.621C226.385 290.585 226.713 290.469 227 290.282C227.287 290.095 227.525 289.842 227.694 289.544C231.532 283.694 212.317 266.898 205.684 265.325C186.148 260.677 165.557 261.544 165.557 261.544C157.882 267.702 154.702 300.637 154.723 300.651Z" fill="#AD6359"/>
<path d="M183.45 282.666C188.101 283.393 192.545 285.101 196.485 287.678C201.441 290.949 204.726 294.779 208.878 298.63C208.894 298.652 208.903 298.679 208.902 298.706C208.901 298.734 208.89 298.76 208.872 298.78C208.854 298.801 208.83 298.815 208.803 298.819C208.776 298.824 208.748 298.819 208.724 298.805C206.746 296.974 198.54 290.082 196.423 288.516C192.592 285.634 188.156 283.66 183.45 282.743C183.387 282.736 183.401 282.652 183.45 282.666Z" fill="#263238"/>
<path d="M187.091 274.37C192.229 275.768 197.492 277.166 202.259 279.626C207.473 282.282 211.555 286.616 215.539 290.81C217.953 293.312 220.308 295.875 222.605 298.498C222.696 298.61 222.55 298.785 222.452 298.673C218.379 294.367 214.185 290.174 209.87 286.092C205.877 282.301 201.173 279.337 196.031 277.369C193.095 276.243 190.076 275.356 187.056 274.461C187.014 274.447 187.035 274.356 187.091 274.37Z" fill="#263238"/>
<path d="M192.579 267.121C197.569 268.149 201.924 269.023 206.341 271.693C212.192 275.236 217.839 281.198 219.817 283.316C222.005 285.651 224.116 288.055 226.185 290.495C226.269 290.592 226.101 290.746 226.01 290.648C221.268 285.3 216.186 280.264 210.794 275.572C208.257 273.3 205.386 271.433 202.28 270.036C199.132 268.8 195.884 267.837 192.572 267.156C192.572 267.156 192.537 267.114 192.579 267.121Z" fill="#263238"/>
<path d="M162.411 259.936L148.432 304.222C148.432 304.222 110.583 293.416 103.698 285.959C96.8136 278.501 84.0156 239.988 80.2622 221.319C76.5088 202.649 85.9447 203.146 94.6188 214.881C103.293 226.617 124.891 255.176 126.072 255.798C127.253 256.42 162.411 259.936 162.411 259.936Z" fill="#FFA500"/>
<path opacity="0.1" d="M162.411 259.936L148.432 304.222C148.432 304.222 110.583 293.416 103.698 285.959C96.8136 278.501 84.0156 239.988 80.2622 221.319C76.5088 202.649 85.9447 203.146 94.6188 214.881C103.293 226.617 124.891 255.176 126.072 255.798C127.253 256.42 162.411 259.936 162.411 259.936Z" fill="black"/>
<path d="M144.798 284.547C146.496 279.326 148.229 274.119 149.725 268.835C150.578 265.836 151.445 262.831 152.269 259.825C152.304 259.706 152.116 259.643 152.074 259.755C150.166 264.927 148.264 270.121 146.594 275.377C144.923 280.633 143.225 285.861 141.631 291.083C140.73 294.074 139.912 297.08 139.192 300.12C139.192 300.176 139.276 300.211 139.297 300.155C141.38 295.046 143.092 289.803 144.798 284.547Z" fill="#263238"/>
<path d="M129.344 298.135L127.666 297.548C124.514 296.422 121.299 295.213 118.272 293.976C117.881 293.822 117.496 293.661 117.119 293.501C116.511 293.249 115.903 292.99 115.316 292.732L114.435 292.347L114.12 292.207L113.212 291.788C112.009 291.236 110.87 290.684 109.808 290.125L109.109 289.733C107.448 288.879 105.883 287.85 104.44 286.665C104.307 286.546 104.174 286.427 104.055 286.308C103.936 286.189 103.811 286.071 103.706 285.959C96.7861 278.501 84.0231 239.988 80.2697 221.319L80.1439 220.676V220.536C79.8922 219.138 79.6686 217.363 79.4868 215.462C78.9626 206.172 83.3591 204.656 88.79 208.738C102.329 237.793 123.067 285.805 129.344 298.135Z" fill="#263238"/>
<path d="M109.71 305.571L27.2324 306.005C27.3023 304.229 39.0449 252.297 48.383 233.131C60.3562 208.556 66.5559 206.571 70.2115 205.257C74.9295 203.565 83.331 204.404 85.323 205.348C87.5876 206.403 94.7869 218.97 97.3661 228.19C102.524 246.733 110.87 304.439 109.71 305.571Z" fill="#EBEBEB"/>
<path d="M65.9823 207.2C65.9823 207.2 76.4667 246.027 76.991 248.607C77.7808 252.353 83.009 305.809 83.009 305.809L25.5195 306.005C25.5195 306.005 38.0659 256.519 47.404 234.851C57.5948 211.086 65.9823 207.2 65.9823 207.2Z" fill="#FFA500"/>
<g opacity="0.1">
<path d="M65.9823 207.2C65.9823 207.2 76.4667 246.027 76.991 248.607C77.7808 252.353 83.009 305.809 83.009 305.809L25.5195 306.005C25.5195 306.005 38.0659 256.519 47.404 234.851C57.5948 211.086 65.9823 207.2 65.9823 207.2Z" fill="black"/>
</g>
<path d="M86.0776 205.949C86.3852 207.186 96.0518 238.73 96.7228 246.593C97.4707 255.316 104.083 306.005 104.083 306.005H112.47C112.47 306.005 100.329 233.18 96.9954 225.485C90.1735 209.779 86.0776 205.949 86.0776 205.949Z" fill="#FFA500"/>
<path opacity="0.1" d="M86.0776 205.949C86.3852 207.186 96.0518 238.73 96.7228 246.593C97.4707 255.316 104.083 306.005 104.083 306.005H112.47C112.47 306.005 100.329 233.18 96.9954 225.485C90.1735 209.779 86.0776 205.949 86.0776 205.949Z" fill="black"/>
<path d="M55.1279 216.279C41.3164 231.076 7.73837 287.217 18.3905 297.457C29.0427 307.696 88.1817 293.913 104.789 285.994C109.731 283.645 90.9566 252.835 85.1482 252.115C80.3114 251.521 55.5962 262.823 54.8763 261.404C54.0725 259.797 58.0006 247.935 63.9627 226.456C70.8056 201.699 61.2368 209.737 55.1279 216.279Z" fill="#AD6359"/>
<path d="M109.695 242.176C121.703 240.498 125.072 241.917 134.432 235.123C140.589 230.664 146.083 232.684 142.567 239.765C136.822 251.353 121.78 256.763 116.007 257.141L109.695 242.176Z" fill="#AD6359"/>
<path d="M77.7944 253.723C77.7944 253.723 91.2914 246.23 103.915 243.183C112.638 241.086 132.139 238.605 150.801 257.861C155.225 262.425 158.294 272.071 148.361 267.241C141.302 263.809 137.877 259.503 133.397 258.252C133.397 258.252 135.843 270.98 131.097 275.237C126.949 278.957 122.542 282.376 117.908 285.47C117.146 284.753 116.431 283.987 115.769 283.177C115.769 283.177 110.96 286.735 101.916 285.868L77.7944 253.723Z" fill="#AD6359"/>
<path d="M112.569 242.539C116.763 244.713 125.507 249.473 131.322 255.861C137.787 262.963 148.321 278.368 143.029 283.121C139.157 286.581 134.642 281.024 134.642 281.024C134.642 281.024 137.654 288.314 133.468 290.669C129.658 292.822 126.401 288.335 126.401 288.335C126.401 288.335 127.471 293.067 123.396 294.43C118.503 296.065 117.063 285.875 110.668 283.247C109.207 282.617 112.569 242.539 112.569 242.539Z" fill="#AD6359"/>
<path d="M122.689 261.412C126.275 264.103 132.859 272.301 134.676 280.794C134.718 280.99 134.599 281.122 134.522 280.955C131.365 274.004 127.375 267.463 122.64 261.475C122.584 261.412 122.64 261.412 122.689 261.412Z" fill="#263238"/>
<path d="M115.714 268.142C118.573 270.784 124.982 279.535 126.527 288.209C126.562 288.405 126.429 288.531 126.366 288.356C123.567 281.254 119.973 274.491 115.651 268.198C115.609 268.156 115.651 268.107 115.714 268.142Z" fill="#263238"/>
<path d="M133.397 258.169C137.312 259.322 139.856 261.244 143.183 263.537C144.802 264.694 146.485 265.76 148.222 266.731C149.816 267.591 152.172 268.891 153.863 267.542C154.814 266.794 154.8 265.445 154.562 264.347C154.084 262.759 153.357 261.256 152.409 259.895C152.409 259.839 152.458 259.776 152.5 259.825C153.416 261.065 154.202 262.396 154.849 263.795C155.272 264.754 155.396 265.819 155.205 266.85C154.625 269.003 152.081 269.289 150.312 268.695C149.241 268.301 148.211 267.803 147.237 267.206C146.286 266.661 145.364 266.074 144.441 265.459C142.582 264.201 140.799 262.838 138.954 261.559C137.161 260.355 135.294 259.267 133.363 258.301C133.348 258.294 133.336 258.283 133.329 258.268C133.322 258.253 133.321 258.236 133.325 258.221C133.329 258.205 133.339 258.191 133.352 258.182C133.365 258.172 133.381 258.167 133.397 258.169Z" fill="#263238"/>
<path d="M141.596 271.938C140.582 269.708 135.096 260.412 133.32 258.259C133.314 258.248 133.311 258.236 133.312 258.223C133.314 258.211 133.32 258.199 133.328 258.19C133.337 258.181 133.349 258.176 133.361 258.174C133.374 258.173 133.386 258.176 133.397 258.182C136.452 261.076 141.351 268.757 142.484 271.218C143.616 273.678 144.916 276.76 144.916 279.465C144.916 283.554 142.204 284.358 141.205 284.533C140.008 284.749 138.774 284.547 137.71 283.96C136.465 283.199 135.389 282.19 134.55 280.996C134.508 280.94 134.585 280.863 134.634 280.919C136.032 282.534 138.409 284.12 140.624 283.827C141.116 283.781 141.593 283.636 142.028 283.402C142.462 283.168 142.845 282.849 143.155 282.464C143.76 281.48 143.993 280.312 143.812 279.172C143.485 276.653 142.736 274.207 141.596 271.938Z" fill="#263238"/>
<path d="M77.7948 253.723L96.7227 293.563C96.7227 293.563 22.6888 310.185 16.3003 297.296C9.91183 284.407 38.6671 233.97 51.6188 219.278C66.6394 202.251 68.5546 208.046 65.2485 223.136C61.7537 238.933 55.0926 261.775 55.0926 261.775L77.7948 253.723Z" fill="#FFA500"/>
<path opacity="0.1" d="M77.7948 253.723L96.7227 293.563C96.7227 293.563 22.6888 310.185 16.3003 297.296C9.91183 284.407 38.6671 233.97 51.6188 219.278C66.6394 202.251 68.5546 208.046 65.2485 223.136C61.7537 238.933 55.0926 261.775 55.0926 261.775L77.7948 253.723Z" fill="black"/>
<path d="M32.5928 272.378C39.4216 267.635 46.9203 263.939 54.8407 261.411C57.0844 260.712 59.349 260.048 61.6137 259.398C61.6836 259.398 61.7115 259.489 61.6137 259.51C57.6639 260.788 53.792 262.296 50.0179 264.025C46.2482 265.703 42.5204 267.448 38.8346 269.26C36.7377 270.288 34.6967 271.413 32.6418 272.51C32.628 272.507 32.6152 272.501 32.6045 272.492C32.5939 272.483 32.5857 272.471 32.5809 272.457C32.576 272.444 32.5745 272.43 32.5766 272.416C32.5787 272.402 32.5843 272.389 32.5928 272.378Z" fill="#263238"/>
<path d="M77.5993 253.618C77.2289 253.716 56.98 260.405 56.316 260.713C56.3999 260.405 60.0345 249.641 60.5797 248.061C60.6286 247.908 60.6775 247.747 60.7334 247.593C61.0969 246.894 61.4743 246.195 61.8168 245.496C62.2502 244.581 62.6835 243.651 63.1099 242.7H63.068L61.67 245.405C61.4534 245.818 61.2507 246.244 61.048 246.671C61.4044 245.559 61.7469 244.441 62.0894 243.316C62.6346 241.533 63.1239 239.73 63.6062 237.927C63.6062 237.864 63.5363 237.85 63.5153 237.927C62.4389 241.065 61.2646 244.168 60.1813 247.307C59.0979 250.445 54.9321 261.985 54.967 261.985C55.002 261.985 77.2638 254.114 77.6972 253.94C77.7183 253.933 77.738 253.923 77.755 253.909C77.772 253.895 77.7862 253.878 77.7965 253.858C77.8069 253.839 77.8134 253.817 77.8155 253.795C77.8177 253.773 77.8155 253.751 77.809 253.73C77.8026 253.709 77.7921 253.689 77.7781 253.672C77.7641 253.655 77.7468 253.641 77.7274 253.631C77.7079 253.62 77.6866 253.614 77.6646 253.612C77.6426 253.61 77.6205 253.612 77.5993 253.618Z" fill="#263238"/>
<path d="M78.9622 279.584C76.8653 275.146 74.8314 270.68 72.5877 266.304C71.3086 263.823 70.0435 261.334 68.7434 258.867C68.6945 258.776 68.5267 258.867 68.5687 258.944C70.4838 263.487 72.413 268.03 74.5378 272.497C76.6626 276.963 78.7316 281.374 80.8914 285.777C82.1215 288.279 83.4286 290.742 84.8125 293.165C84.8125 293.214 84.9243 293.165 84.9034 293.165C83.142 288.538 81.0661 284.072 78.9622 279.584Z" fill="#263238"/>
<path d="M97.6801 294.178C96.9392 292.948 96.0026 291.187 95.2128 289.984C95.0031 289.67 94.7585 289.733 94.9262 290.061C95.4924 291.18 95.9607 292.431 96.5129 293.556C95.4784 293.766 94.416 293.947 93.3955 294.164C92.1933 294.416 90.9981 294.674 89.7959 294.919C87.438 295.385 85.0802 295.851 82.7224 296.317C77.9415 297.207 73.142 297.99 68.3238 298.665C58.6713 300.079 48.9521 300.991 39.2051 301.398C36.4792 301.496 33.7463 301.545 31.0203 301.51C28.3314 301.517 25.6439 301.386 22.9683 301.119C22.8914 301.119 22.8774 301.238 22.9683 301.252C25.2706 301.738 27.6077 302.042 29.9579 302.16C32.4252 302.279 34.8995 302.335 37.3739 302.307C42.2666 302.251 47.2082 301.93 52.1079 301.482C61.8235 300.588 71.5111 299.274 81.1148 297.575C83.8081 297.109 86.4945 296.603 89.1738 296.058C90.5298 295.786 91.8788 295.513 93.2278 295.213C94.5768 294.912 97.806 294.388 97.6801 294.178Z" fill="#263238"/>
<path d="M86.0911 220.438C81.1983 221.787 72.4404 214.553 68.8617 208.556C68.617 208.143 69.0993 203.698 69.4278 198.267C69.6166 194.975 69.7424 191.278 69.6166 187.937C69.6166 187.238 90.8859 192.284 90.8859 192.284C90.8859 192.284 89.0686 199.4 89.3202 205.257C89.3425 205.728 89.408 206.196 89.516 206.655C89.5352 206.728 89.5492 206.803 89.5579 206.878C90.0821 209.472 90.823 219.131 86.0911 220.438Z" fill="#AD6359"/>
<path d="M70.9175 188.02C72.1057 193.668 76.1457 207.262 87.399 207.102C88.1207 207.095 88.8406 207.029 89.5518 206.906C89.5606 206.829 89.5606 206.752 89.5518 206.675C89.448 206.215 89.3803 205.748 89.3491 205.277C89.1044 199.413 90.9147 192.291 90.9147 192.291C90.9147 192.291 75.5236 188.656 70.9175 188.02Z" fill="#263238"/>
<path d="M93.4241 177.851C93.1864 183.009 96.6673 187.356 101.197 187.566C105.726 187.776 109.584 183.75 109.815 178.591C110.045 173.433 106.565 169.086 102.042 168.883C97.52 168.68 93.6547 172.692 93.4241 177.851Z" fill="#455A64"/>
<path d="M108.984 178.876C109.243 173.138 105.371 168.302 100.334 168.074C95.2981 167.846 91.0049 172.313 90.7454 178.051C90.4858 183.79 94.3581 188.626 99.3945 188.854C104.431 189.082 108.724 184.615 108.984 178.876Z" fill="#C7C7C7"/>
<path d="M72.3916 161.173C68.7291 168.079 68.4984 190.033 72.804 195.779C79.0457 204.097 91.3125 207.151 98.8752 199.204C106.235 191.473 106.026 162.858 101.028 157.427C93.682 149.41 77.8016 150.976 72.3916 161.173Z" fill="#AD6359"/>
<path d="M90.6485 178.144C90.6485 178.088 90.5297 178.221 90.5367 178.284C90.6136 179.759 90.4598 181.464 89.1388 181.982C89.0968 181.982 89.1038 182.072 89.1388 182.065C90.7743 181.8 90.956 179.535 90.6485 178.144Z" fill="#263238"/>
<path d="M89.2934 176.634C86.91 176.508 86.8331 181.282 89.0348 181.394C91.2365 181.506 91.2925 176.739 89.2934 176.634Z" fill="#263238"/>
<path d="M98.9246 178.326C98.9246 178.27 99.0365 178.403 99.0365 178.459C98.9666 179.941 99.1343 181.646 100.434 182.156C100.476 182.156 100.434 182.247 100.434 182.24C98.8198 181.982 98.6171 179.717 98.9246 178.326Z" fill="#263238"/>
<path d="M100.273 176.837C102.65 176.691 102.762 181.464 100.553 181.597C98.3442 181.73 98.2743 176.921 100.273 176.837Z" fill="#263238"/>
<path d="M87.1537 172.818C87.8526 172.783 88.4328 172.636 89.0968 172.538C89.7973 172.525 90.4734 172.279 91.0189 171.839C91.1652 171.671 91.2515 171.459 91.2641 171.236C91.2768 171.013 91.2151 170.793 91.0888 170.609C90.7832 170.287 90.3973 170.053 89.971 169.93C89.5447 169.807 89.0933 169.8 88.6634 169.91C87.7526 169.982 86.902 170.394 86.28 171.063C86.1497 171.224 86.0683 171.418 86.0456 171.624C86.0229 171.829 86.0598 172.037 86.1519 172.222C86.2441 172.407 86.3875 172.561 86.5652 172.667C86.7428 172.773 86.9471 172.825 87.1537 172.818Z" fill="#263238"/>
<path d="M102.517 173.342C101.879 173.202 101.249 173.027 100.63 172.818C99.9424 172.735 99.3013 172.428 98.8057 171.944C98.6803 171.76 98.6199 171.539 98.6338 171.316C98.6477 171.093 98.7352 170.882 98.8826 170.714C99.2244 170.428 99.6363 170.237 100.076 170.162C100.516 170.087 100.967 170.131 101.385 170.288C102.279 170.475 103.071 170.989 103.608 171.728C103.712 171.903 103.765 172.105 103.759 172.309C103.753 172.513 103.689 172.712 103.575 172.881C103.461 173.05 103.3 173.184 103.113 173.265C102.926 173.347 102.719 173.374 102.517 173.342Z" fill="#263238"/>
<path d="M87.9516 191.85C88.3011 192.2 88.6506 192.682 89.1818 192.738C89.7315 192.733 90.2741 192.614 90.7754 192.389C90.7854 192.386 90.7959 192.387 90.8055 192.391C90.8152 192.394 90.8238 192.4 90.8303 192.408C90.8368 192.416 90.8409 192.425 90.8424 192.436C90.8438 192.446 90.8424 192.456 90.8383 192.465C90.624 192.754 90.335 192.979 90.0025 193.116C89.67 193.252 89.3065 193.296 88.9511 193.241C88.6506 193.157 88.3816 192.986 88.1777 192.75C87.9739 192.514 87.8441 192.223 87.8048 191.913C87.7839 191.829 87.8957 191.795 87.9516 191.85Z" fill="#263238"/>
<path d="M89.5798 187.448C89.9447 188.038 90.4282 188.547 90.9996 188.942C91.571 189.336 92.218 189.608 92.8998 189.74C93.4943 189.867 94.1041 189.907 94.7101 189.859C94.8272 189.855 94.944 189.843 95.0596 189.824L95.3811 189.775C95.4603 189.762 95.5331 189.724 95.5885 189.666C95.644 189.608 95.6791 189.533 95.6887 189.454C95.6922 189.402 95.6922 189.351 95.6887 189.3V189.167C95.7376 188.028 95.6887 186.294 95.6887 186.294C96.1011 186.511 98.2119 187.503 98.184 186.909C97.9743 181.975 97.7366 176.495 96.4855 171.637C96.4784 171.606 96.4611 171.579 96.4364 171.559C96.4116 171.539 96.3809 171.528 96.3492 171.528C96.3175 171.528 96.2868 171.539 96.262 171.559C96.2372 171.579 96.2199 171.606 96.2129 171.637C96.2129 176.383 97.0796 181.094 97.1705 185.861C96.422 185.499 95.6269 185.243 94.808 185.099C94.6472 185.148 95.0247 188.447 94.9617 188.957C94.9634 188.976 94.9634 188.995 94.9617 189.013C93.0396 189.223 91.6067 188.622 89.7755 187.308C89.6077 187.231 89.4889 187.322 89.5798 187.448Z" fill="#263238"/>
<path d="M94.0458 189.265C93.4102 190.069 92.577 190.695 91.6274 191.082C91.1033 191.276 90.5319 191.303 89.9919 191.159C88.8176 190.823 88.8036 189.761 89.0343 188.817C89.1631 188.331 89.3485 187.862 89.5865 187.419C90.8385 188.494 92.4008 189.14 94.0458 189.265Z" fill="#263238"/>
<path d="M91.6274 191.082C91.1033 191.276 90.5319 191.302 89.9919 191.158C88.8176 190.823 88.8036 189.76 89.0343 188.817C90.2994 188.971 91.5366 189.851 91.6274 191.082Z" fill="#FF98B9"/>
<path opacity="0.2" d="M69.645 176.676C71.0849 176.446 74.5377 171.574 75.9986 169.638C77.4594 167.702 78.3051 157.322 78.4379 154.959C75.8747 156.409 73.7756 158.557 72.3849 161.152C70.7494 164.256 69.8058 170.358 69.645 176.676Z" fill="#263238"/>
<path d="M96.2958 163.556C95.4423 164.493 94.3638 165.195 93.1626 165.598C91.9614 166 90.6772 166.089 89.432 165.856C88.1613 165.622 86.9714 165.067 85.9756 164.244C84.9798 163.42 84.211 162.356 83.7425 161.152C83.7425 161.075 83.6027 161.117 83.6307 161.187C84.0086 162.499 84.7376 163.682 85.7391 164.61C86.7406 165.537 87.9764 166.174 89.3132 166.45C90.6414 166.651 91.9989 166.498 93.2492 166.007C94.4996 165.516 95.5986 164.705 96.4356 163.654C96.4404 163.636 96.4395 163.617 96.4331 163.6C96.4267 163.582 96.4151 163.567 96.3999 163.557C96.3846 163.546 96.3665 163.54 96.3479 163.54C96.3293 163.54 96.3111 163.546 96.2958 163.556Z" fill="#263238"/>
<path d="M89.1954 144.95C84.8828 144.908 80.8568 147.166 79.1863 150.046C78.2584 151.687 77.9135 153.594 78.2077 155.456C78.2077 155.533 78.3685 155.519 78.3615 155.456C78.3253 153.815 78.7312 152.194 79.5367 150.764C80.3422 149.334 81.5176 148.146 82.9397 147.327C84.4968 146.372 86.2541 145.792 88.0734 145.632C89.8926 145.472 91.7242 145.736 93.4241 146.404C95.0809 147.017 96.4641 148.202 97.3243 149.745C97.4082 149.906 97.7297 149.815 97.6668 149.654C96.5764 146.914 93.0886 144.985 89.1954 144.95Z" fill="#263238"/>
<path d="M113.903 155.079C113.264 152.931 111.888 151.077 110.017 149.844C107.424 148.124 104.425 148.271 101.462 148.481C101.445 148.481 101.429 148.487 101.417 148.499C101.406 148.511 101.399 148.527 101.399 148.543C101.399 148.56 101.406 148.576 101.417 148.588C101.429 148.6 101.445 148.606 101.462 148.606C103.992 148.439 106.571 148.411 108.85 149.676C110.746 150.703 112.229 152.355 113.044 154.352C113.819 156.4 113.829 158.659 113.072 160.714C112.314 162.769 110.839 164.481 108.92 165.535C107.8 166.114 106.574 166.457 105.317 166.545C104.06 166.633 102.798 166.463 101.609 166.045C101.511 166.011 101.441 166.143 101.532 166.185C103.138 166.818 104.889 166.992 106.588 166.687C108.288 166.381 109.868 165.609 111.154 164.456C112.439 163.304 113.379 161.816 113.867 160.16C114.355 158.504 114.372 156.744 113.917 155.079H113.903Z" fill="#263238"/>
<path d="M70.8328 165.402C70.8328 165.402 67.0165 157.553 70.5951 153.219C72.6221 150.766 79.0386 151.325 79.0386 151.325C79.0386 151.325 81.2403 147.712 86.6083 146.684C91.9763 145.657 98.3089 149.019 98.3089 149.019C98.3089 149.019 103.523 146.286 108.206 149.193C114.741 153.247 113.539 163.375 106.703 166.395C101.909 168.492 95.6598 164.116 95.6598 164.116C95.0378 164.179 88.5934 167.744 84.0361 161.949C84.0361 161.949 80.0381 165.248 76.6481 162.711C76.0714 163.702 75.2043 164.491 74.1641 164.972C73.124 165.454 71.961 165.604 70.8328 165.402Z" fill="#263238"/>
<path d="M73.5797 179.333C73.5797 179.333 69.9521 171.644 66.5342 172.79C63.1163 173.937 65.0105 184.575 68.4354 186.574C68.858 186.861 69.3342 187.059 69.8353 187.157C70.3365 187.255 70.8523 187.251 71.3518 187.144C71.8513 187.038 72.324 186.831 72.7417 186.538C73.1594 186.244 73.5134 185.869 73.7824 185.435L73.5797 179.333Z" fill="#AD6359"/>
<path d="M67.1496 175.816C67.0937 175.816 67.0657 175.886 67.1496 175.914C69.5401 177.396 70.4837 180.017 71.0009 182.652C70.4068 181.569 69.4492 180.87 68.0233 181.555C68.0086 181.565 67.9973 181.579 67.991 181.595C67.9848 181.612 67.9839 181.63 67.9886 181.647C67.9932 181.664 68.0032 181.679 68.0169 181.69C68.0307 181.701 68.0476 181.708 68.0653 181.709C68.5426 181.644 69.0282 181.728 69.456 181.949C69.8838 182.171 70.2329 182.519 70.4557 182.946C70.818 183.664 71.1038 184.418 71.3084 185.196C71.3923 185.448 71.8257 185.392 71.7837 185.113C71.787 185.092 71.787 185.071 71.7837 185.05C72.3708 181.786 70.6165 176.76 67.1496 175.816Z" fill="#263238"/>
<path d="M81.485 194.814L74.6002 191.844L69.0645 184.952L70.1269 184.092L75.453 190.725L82.0302 193.563L81.485 194.814Z" fill="#C7C7C7"/>
<path d="M80.7511 193.717C81.4501 191.711 87.0418 192.452 86.0283 195.485C85.0148 198.519 80.0731 195.709 80.7511 193.717Z" fill="#37474F"/>
<path d="M66.4302 172.58C66.4302 172.58 65.6823 161.306 68.9814 155.106C72.6579 148.18 87.8953 141.589 98.3377 149.032C98.3377 149.032 81.374 145.999 73.4687 155.603C70.1417 159.643 70.2256 172.895 70.2256 172.895L66.4302 172.58Z" fill="#C7C7C7"/>
<path d="M67.9677 188.773C73.009 188.723 77.0494 184.026 76.9922 178.282C76.9351 172.538 72.802 167.923 67.7608 167.973C62.7195 168.023 58.6791 172.72 58.7363 178.463C58.7934 184.207 62.9265 188.823 67.9677 188.773Z" fill="#C7C7C7"/>
<path d="M74.3279 177.983C74.3769 183.149 70.7493 187.37 66.22 187.412C61.6907 187.454 57.9723 183.309 57.9233 178.144C57.8744 172.979 61.502 168.757 66.0313 168.715C70.5605 168.673 74.279 172.818 74.3279 177.983Z" fill="#455A64"/>
<path d="M89.4744 206.529L84.5468 218.97L69.0438 203.328L64.6963 208.388C64.6963 208.388 79.8987 233.278 79.9895 232.153L85.057 221.424L92.48 228.84L91.781 210.149L89.4744 206.529Z" fill="#EBEBEB"/>
<path d="M92.6616 219.579C92.4449 216.496 92.3191 213.386 91.9627 210.317C91.9627 210.213 91.7809 210.164 91.753 210.317C91.1519 213.302 92.0396 225.079 92.0396 227.91H92.0046C91.6971 227.589 85.1268 221.389 85.0639 221.487C83.9666 223.192 80.2411 231 79.9895 231.713C77.585 227.757 67.4082 212.177 64.5424 208.437C64.5285 208.413 64.5056 208.396 64.4788 208.388C64.4519 208.381 64.4233 208.385 64.3992 208.399C64.3751 208.413 64.3575 208.436 64.3503 208.462C64.3431 208.489 64.3468 208.518 64.3607 208.542C66.4576 212.736 79.6679 233.292 79.8497 233.236C81.8108 229.551 83.5815 225.767 85.1548 221.899C86.2661 223.248 92.8923 230.252 92.9132 229.79C93.0098 226.384 92.9258 222.976 92.6616 219.579Z" fill="#263238"/>
<path d="M258.825 173.817H237.206C235.11 173.815 233.1 172.982 231.618 171.5C230.136 170.018 229.303 168.008 229.301 165.912C229.301 163.815 230.134 161.805 231.616 160.322C233.099 158.84 235.109 158.007 237.206 158.007H258.825C260.921 158.007 262.932 158.84 264.415 160.322C265.897 161.805 266.73 163.815 266.73 165.912C266.73 166.95 266.526 167.978 266.128 168.937C265.731 169.896 265.149 170.768 264.415 171.502C263.681 172.236 262.809 172.818 261.85 173.216C260.891 173.613 259.863 173.817 258.825 173.817Z" fill="#455A64"/>
<path d="M241.931 165.773C241.946 165.523 242.028 165.281 242.168 165.074L242.364 164.787L242.776 164.375L243.259 164.025C243.923 163.603 244.664 163.315 245.439 163.179C247.227 162.823 249.068 162.823 250.856 163.179C251.622 163.31 252.354 163.593 253.009 164.011C253.177 164.123 253.345 164.249 253.505 164.368L253.911 164.773C254.017 164.926 254.115 165.085 254.204 165.248C254.273 165.416 254.329 165.589 254.372 165.766H250.828C250.801 165.769 250.773 165.764 250.749 165.75C250.725 165.736 250.706 165.714 250.696 165.689C250.599 165.501 250.454 165.342 250.276 165.228C250.098 165.114 249.893 165.048 249.682 165.039C248.651 164.972 247.617 164.972 246.586 165.039C246.376 165.047 246.173 165.112 245.996 165.225C245.819 165.338 245.675 165.495 245.579 165.682C245.579 165.731 245.53 165.766 245.46 165.766H241.931V165.773Z" fill="white"/>
<path d="M241.93 167.751V166.458H245.425C245.425 166.534 245.425 166.618 245.425 166.709V167.751C245.435 167.812 245.43 167.874 245.411 167.932C245.392 167.991 245.359 168.044 245.315 168.088C245.272 168.132 245.218 168.164 245.16 168.183C245.101 168.203 245.039 168.207 244.978 168.198H242.371C242.31 168.208 242.248 168.203 242.189 168.184C242.131 168.165 242.078 168.132 242.035 168.088C241.992 168.044 241.96 167.991 241.941 167.932C241.923 167.873 241.919 167.811 241.93 167.751Z" fill="white"/>
<path d="M250.856 167.793C250.856 167.353 250.856 166.912 250.856 166.479H254.316V166.556C254.316 166.961 254.316 167.374 254.316 167.779C254.323 167.838 254.316 167.897 254.297 167.953C254.278 168.008 254.246 168.059 254.204 168.1C254.162 168.142 254.112 168.174 254.056 168.193C254.001 168.213 253.941 168.219 253.883 168.212H251.248C251.193 168.215 251.139 168.205 251.089 168.185C251.038 168.164 250.993 168.133 250.956 168.093C250.918 168.053 250.89 168.006 250.873 167.954C250.856 167.902 250.85 167.847 250.856 167.793Z" fill="white"/>
<path d="M170.127 306.844H165.333V309.975H170.127V306.844Z" fill="#455A64"/>
<path d="M176.342 306.634H171.547V309.765H176.342V306.634Z" fill="#455A64"/>
<path d="M182.562 306.424H177.768V309.556H182.562V306.424Z" fill="#455A64"/>
<path d="M188.783 306.221H183.988V309.353H188.783V306.221Z" fill="#455A64"/>
<path d="M195.003 306.012H190.208V309.143H195.003V306.012Z" fill="#455A64"/>
<path d="M201.225 305.81H196.43V308.941H201.225V305.81Z" fill="#455A64"/>
<path d="M207.445 305.599H202.65V308.73H207.445V305.599Z" fill="#455A64"/>
<path d="M213.665 305.39H208.871V308.521H213.665V305.39Z" fill="#455A64"/>
<path d="M219.879 305.187H215.084V308.318H219.879V305.187Z" fill="#455A64"/>
<path d="M221.06 311.771H164.151V307.962L221.06 306.375V311.771Z" fill="#37474F"/>
<path d="M276.599 296.751H182.659L197.596 226.813H291.536L276.599 296.751Z" fill="#455A64"/>
<path d="M280.074 296.751H186.134L201.071 226.813H295.011L280.074 296.751Z" fill="#37474F"/>
<path d="M246.526 261.657C249.075 259.302 249.51 255.627 247.498 253.45C245.486 251.273 241.789 251.417 239.24 253.772C236.691 256.127 236.256 259.802 238.268 261.979C240.28 264.157 243.977 264.012 246.526 261.657Z" fill="#263238"/>
<path d="M253.506 315.014H207.305V311.421L253.506 309.933V315.014Z" fill="#455A64"/>
<path d="M266.066 315.008H241.26L226.316 275.817H251.123L266.066 315.008Z" fill="#455A64"/>
<path d="M270.148 315.008H245.342L230.405 275.817H255.211L270.148 315.008Z" fill="#263238"/>
<path d="M162.397 315.965H114.763C110.702 315.965 116.58 304.39 131.419 299.952C146.258 295.514 167.08 311.625 162.397 315.965Z" fill="#37474F"/>
<path d="M143.707 315.965C143.745 314.646 143.964 313.338 144.357 312.079C144.74 310.809 145.278 309.59 145.957 308.451C146.641 307.306 147.494 306.272 148.487 305.383C149.47 304.49 150.604 303.78 151.835 303.286C151.325 303.705 150.745 303.985 150.277 304.453L149.578 305.075L148.879 305.774C147.996 306.695 147.222 307.716 146.572 308.814C145.913 309.914 145.347 311.066 144.881 312.26C144.407 313.467 144.014 314.705 143.707 315.965Z" fill="#263238"/>
<path d="M149.347 304.949C152.176 305.886 154.853 307.23 157.294 308.94C158.527 309.793 159.643 310.803 160.614 311.946C161.09 312.53 161.501 313.165 161.837 313.84C162.169 314.514 162.36 315.249 162.396 316C162.23 315.288 161.938 314.611 161.537 314.001C161.156 313.388 160.711 312.819 160.209 312.302C159.19 311.27 158.079 310.334 156.888 309.506C155.707 308.654 154.456 307.892 153.205 307.137C152.576 306.76 151.933 306.396 151.29 306.047C150.647 305.697 149.997 305.306 149.347 304.949Z" fill="#263238"/>
<path d="M165.807 157.19C165.396 161.088 163.91 164.795 161.515 167.899C159.12 171.002 155.91 173.379 152.243 174.764C148.576 176.149 144.596 176.488 140.747 175.744C136.899 174.999 133.333 173.2 130.447 170.547L119.844 172.126L125.142 162.977C123.818 159.754 123.318 156.251 123.688 152.786C123.959 150.008 124.778 147.311 126.096 144.85C127.414 142.389 129.206 140.214 131.369 138.449C133.531 136.683 136.022 135.363 138.696 134.565C141.371 133.766 144.178 133.504 146.954 133.795C149.73 134.085 152.422 134.922 154.874 136.257C157.325 137.592 159.488 139.398 161.239 141.573C162.989 143.747 164.292 146.247 165.073 148.927C165.853 151.607 166.096 154.415 165.786 157.19H165.807Z" fill="white"/>
<path d="M165.808 157.189C165.401 161.091 163.923 164.804 161.537 167.918C160.944 168.693 160.305 169.43 159.622 170.127C158.914 170.799 158.167 171.429 157.385 172.014C155.828 173.199 154.11 174.157 152.283 174.859C150.456 175.574 148.539 176.031 146.586 176.215C145.608 176.307 144.624 176.325 143.644 176.271C142.661 176.248 141.682 176.147 140.715 175.97C136.808 175.253 133.177 173.462 130.231 170.798L130.482 170.875L119.907 172.503L119.145 172.643L119.529 171.944L124.8 162.767V163.13C123.563 160.124 123.028 156.875 123.236 153.631C123.445 150.387 124.39 147.233 126.001 144.409C127.611 141.585 129.845 139.166 132.531 137.336C135.218 135.505 138.286 134.312 141.504 133.846C144.721 133.38 148.002 133.654 151.097 134.647C154.193 135.64 157.021 137.327 159.366 139.577C161.712 141.828 163.513 144.585 164.633 147.636C165.753 150.688 166.162 153.955 165.829 157.189H165.808ZM165.808 157.189C166.139 154.004 165.737 150.784 164.632 147.779C163.526 144.773 161.747 142.06 159.43 139.849C157.114 137.637 154.321 135.986 151.267 135.021C148.213 134.057 144.979 133.805 141.812 134.284C138.672 134.752 135.681 135.934 133.068 137.737C130.484 139.555 128.324 141.911 126.736 144.643C125.173 147.388 124.251 150.451 124.038 153.603C123.842 156.762 124.356 159.923 125.541 162.858L125.617 163.046L125.513 163.214L120.186 172.349L119.809 171.79L130.405 170.309H130.552L130.657 170.406C133.485 173.054 136.994 174.862 140.792 175.628C141.739 175.818 142.699 175.935 143.665 175.977C144.628 176.043 145.595 176.043 146.558 175.977C148.492 175.829 150.396 175.411 152.213 174.733C154.039 174.073 155.759 173.147 157.315 171.986C158.095 171.406 158.842 170.783 159.552 170.12C160.237 169.431 160.879 168.7 161.474 167.932C163.886 164.822 165.386 161.102 165.808 157.189Z" fill="#263238"/>
<path d="M156.56 155.631C156.561 156.139 156.412 156.635 156.131 157.058C155.85 157.481 155.449 157.811 154.981 158.006C154.512 158.201 153.996 158.253 153.498 158.155C153 158.056 152.542 157.813 152.183 157.454C151.824 157.096 151.579 156.639 151.479 156.141C151.379 155.643 151.43 155.127 151.624 154.658C151.818 154.189 152.147 153.788 152.569 153.506C152.991 153.223 153.487 153.073 153.994 153.073C154.331 153.072 154.664 153.137 154.976 153.265C155.287 153.394 155.57 153.582 155.808 153.82C156.046 154.057 156.235 154.34 156.364 154.65C156.493 154.961 156.56 155.294 156.56 155.631Z" fill="#263238"/>
<path d="M147.376 155.631C147.377 156.139 147.228 156.636 146.947 157.059C146.665 157.482 146.265 157.812 145.796 158.007C145.327 158.202 144.81 158.253 144.312 158.154C143.814 158.055 143.356 157.811 142.997 157.452C142.638 157.093 142.393 156.635 142.295 156.137C142.196 155.638 142.247 155.122 142.442 154.653C142.637 154.184 142.967 153.783 143.39 153.502C143.813 153.221 144.31 153.071 144.818 153.073C145.496 153.073 146.147 153.342 146.627 153.822C147.106 154.302 147.376 154.952 147.376 155.631Z" fill="#263238"/>
<path d="M138.199 155.631C138.2 156.139 138.051 156.635 137.77 157.058C137.489 157.481 137.089 157.811 136.62 158.006C136.151 158.201 135.635 158.253 135.137 158.155C134.639 158.056 134.182 157.813 133.822 157.454C133.463 157.096 133.218 156.639 133.118 156.141C133.019 155.643 133.069 155.127 133.263 154.658C133.457 154.189 133.786 153.788 134.208 153.506C134.63 153.223 135.126 153.073 135.634 153.073C136.313 153.073 136.964 153.342 137.445 153.822C137.926 154.301 138.197 154.952 138.199 155.631Z" fill="#263238"/>
<path d="M174.774 47.4386C175.186 51.3369 176.671 55.0443 179.066 58.1477C181.46 61.2511 184.67 63.6286 188.336 65.015C192.003 66.4014 195.982 66.7424 199.831 65.9999C203.68 65.2574 207.247 63.4606 210.135 60.8097L220.717 62.3614L215.426 53.212C216.639 50.2327 217.158 47.0159 216.941 43.8062C216.725 40.5965 215.78 37.4784 214.178 34.6887C212.576 31.899 210.359 29.5113 207.695 27.707C205.032 25.9026 201.993 24.7291 198.808 24.2757C195.623 23.8223 192.377 24.1009 189.315 25.0903C186.254 26.0797 183.459 27.7538 181.142 29.9855C178.825 32.2173 177.047 34.9478 175.944 37.9696C174.841 40.9914 174.441 44.225 174.774 47.4246V47.4386Z" fill="white"/>
<path d="M181.107 29.9575C183.412 27.6843 186.209 25.9713 189.281 24.9509C192.353 23.9304 195.619 23.6298 198.826 24.0722C202.055 24.4981 205.144 25.6577 207.856 27.4622C211.965 30.2046 214.999 34.2829 216.445 39.0062C217.89 43.7295 217.659 48.8074 215.789 53.3796V53.0161L221.046 62.2075L221.43 62.9064L220.668 62.7876L210.086 61.166L210.338 61.0891C207.391 63.7535 203.76 65.5445 199.853 66.2614C198.886 66.4386 197.907 66.5391 196.925 66.562C195.946 66.6133 194.965 66.5946 193.989 66.5061C190.069 66.1323 186.329 64.6808 183.183 62.3123C182.401 61.7276 181.654 61.0974 180.946 60.4251C180.265 59.727 179.626 58.9895 179.031 58.2164C175.863 54.0768 174.323 48.9188 174.703 43.7197C175.083 38.5205 177.356 33.6413 181.093 30.0064L181.107 29.9575ZM179.108 58.1186C179.704 58.8841 180.345 59.6124 181.03 60.2993C181.737 60.9668 182.484 61.5901 183.267 62.1655C184.823 63.333 186.545 64.2612 188.376 64.9194C190.192 65.5939 192.093 66.0126 194.024 66.1636C194.99 66.23 195.959 66.23 196.925 66.1636C197.887 66.1209 198.845 66.004 199.79 65.8141C203.588 65.0484 207.097 63.2405 209.925 60.5929L210.03 60.495H210.177L220.773 61.9768L220.396 62.536L215.07 53.4006L214.965 53.2258L215.042 53.0371C216.228 50.1145 216.737 46.961 216.53 43.8134C216.323 40.6659 215.405 37.6062 213.846 34.8642C212.26 32.1311 210.099 29.775 207.514 27.9584C204.903 26.1563 201.914 24.9752 198.777 24.5056C194.63 23.8652 190.386 24.4865 186.596 26.2887C182.806 28.0909 179.646 30.9908 177.525 34.6119C175.405 38.2329 174.422 42.4079 174.704 46.5947C174.986 50.7816 176.521 54.7869 179.108 58.0906V58.1186Z" fill="#263238"/>
<g clip-path="url(#clip0_27135_244586)">
<path d="M200.422 38.626C199.579 38.6391 198.755 38.8742 198.033 39.3077C197.31 39.7411 196.715 40.3575 196.307 41.0946C195.899 40.3575 195.304 39.7411 194.582 39.3077C193.859 38.8742 193.035 38.6391 192.193 38.626C190.85 38.6843 189.585 39.2718 188.674 40.26C187.763 41.2482 187.28 42.5568 187.33 43.8999C187.33 48.9682 195.526 54.8219 195.875 55.0703L196.307 55.3763L196.74 55.0703C197.088 54.8234 205.284 48.9682 205.284 43.8999C205.335 42.5568 204.852 41.2482 203.941 40.26C203.03 39.2718 201.765 38.6843 200.422 38.626Z" fill="#FFA500"/>
</g>
<defs>
<clipPath id="clip0_27135_244586">
<rect width="17.9539" height="17.9539" fill="white" transform="translate(187.331 37.9399)"/>
</clipPath>
</defs>
</svg>
