<svg width="115" height="140" viewBox="0 0 115 140" fill="none" xmlns="http://www.w3.org/2000/svg">
<path d="M78.9915 117.039L4.52686 117.534C4.52686 117.534 8.50731 71.4748 44.3314 74.5687C80.1555 77.6626 78.9915 117.039 78.9915 117.039Z" fill="#FFA500"/>
<path opacity="0.5" d="M78.9915 117.039L4.52686 117.534C4.52686 117.534 8.50731 71.4748 44.3314 74.5687C80.1555 77.6626 78.9915 117.039 78.9915 117.039Z" fill="black"/>
<path opacity="0.6" d="M20.9613 48.2374L22.5414 49.142C22.5414 49.142 12.5602 50.0648 10.3588 49.8175C8.15753 49.5702 -30.9052 25.3618 -31.448 25.1266C-31.9907 24.8914 -57.4114 15.2841 -57.4114 15.2841C-57.4114 15.2841 -22.5824 26.375 -20.3329 27.1892C-18.0833 28.0034 20.9613 48.2374 20.9613 48.2374Z" fill="white"/>
<path d="M110.558 109.85C110.558 109.85 103.043 116.719 100.709 117.359C98.3752 117.998 76.7661 119.934 75.4876 119.512C74.209 119.089 80.8069 79.8157 43.8792 77.6144C6.95145 75.4131 11.0103 121.158 10.1057 121.14C9.20099 121.122 -147.671 119.934 -148.377 119.289C-149.082 118.643 -143.636 77.1621 -179.497 76.7097C-213.831 76.2755 -211.877 114.253 -213.234 114.295C-214.591 114.337 -240.928 111.177 -243.142 110.574C-245.355 109.971 -248.569 103.572 -248.805 103.017C-249.04 102.462 -248.34 100.997 -248.34 100.997C-248.34 100.997 -251.742 90.1407 -251.917 85.8225C-252.092 81.5044 -243.956 69.5087 -243.956 69.5087L-238.244 50.288C-238.244 50.288 -240.91 48.6958 -241.26 48.147C-241.61 47.5981 -241.99 45.5295 -241.99 45.5295L-186.951 41.0063C-186.322 40.5655 -185.651 40.1878 -184.949 39.8785C-184.345 39.7217 -180.805 39.6192 -180.805 39.6192C-180.805 39.6192 -175.04 43.9856 -172.682 44.5525C-170.323 45.1194 -14.0183 52.7607 -13.1498 52.4832C-12.2814 52.2058 -34.6503 30.0781 -36.9361 27.9793C-39.2218 25.8806 -58.6959 20.507 -58.9311 19.934C-59.1663 19.3611 -59.2206 14.8077 -58.6054 14.874C-57.9902 14.9403 -33.414 23.9687 -30.5975 25.5368C-27.781 27.1048 9.81012 49.2929 10.9198 49.7331C12.0295 50.1734 22.439 49.2144 22.5415 49.13C22.6441 49.0456 20.9614 48.4546 20.9614 48.2374C20.9614 48.0203 23.7297 48.6596 24.3267 48.6596C24.9238 48.6596 69.7883 55.3419 77.1642 57.9654C84.5401 60.5889 95.5527 67.3496 100.498 72.102C105.444 76.8545 109.997 84.0917 110.823 84.5802C111.649 85.0687 113.64 85.1833 113.989 88.3375C114.339 91.4917 113.893 94.7303 113.193 95.4058C112.494 96.0813 110.244 96.7869 110.015 97.0462C109.786 97.3056 109.484 104.886 109.599 105.164C109.713 105.441 110.624 105.658 110.721 106.328C110.817 106.997 111.016 109.096 110.558 109.85Z" fill="#FFA500"/>
<path opacity="0.3" d="M16.0158 92.4807C15.1541 94.1328 14.4104 95.8438 13.7904 97.601C-13.3491 96.7506 -136.435 92.8305 -136.194 91.6363C-135.953 90.4422 -5.6535 92.1489 16.0158 92.4807Z" fill="white"/>
<path d="M72.4094 113.615C74.6578 97.4534 63.3786 82.5288 47.2166 80.2803C31.0545 78.0319 16.1298 89.3111 13.8814 105.473C11.633 121.635 22.9122 136.56 39.0743 138.808C55.2364 141.057 70.161 129.778 72.4094 113.615Z" fill="#263238"/>
<path d="M51.8031 129.324C62.7218 124.556 67.708 111.839 62.94 100.921C58.172 90.0019 45.4554 85.0158 34.5367 89.7838C23.618 94.5518 18.6318 107.268 23.3998 118.187C28.1678 129.106 40.8844 134.092 51.8031 129.324Z" fill="#DBDBDB"/>
<path d="M57.2294 123.624C64.997 115.856 64.997 103.263 57.2294 95.4951C49.4618 87.7275 36.868 87.7275 29.1004 95.4951C21.3328 103.263 21.3328 115.856 29.1004 123.624C36.868 131.392 49.4618 131.392 57.2294 123.624Z" fill="#A6A6A6"/>
<path d="M39.3559 105.073L45.5376 104.175C43.0106 101.467 48.7522 89.8874 48.7522 89.8874L45.3446 89.2843C43.7223 93.313 42.7996 94.5614 41.0204 94.8207C39.2413 95.0801 38.0049 94.1453 35.285 90.7498L32.2031 92.3119C32.2031 92.3119 41.0023 101.756 39.3559 105.073Z" fill="#DBDBDB"/>
<path d="M46.1106 104.476L48.8788 110.079C50.6881 106.841 63.4557 108.722 63.4557 108.722L62.9853 105.285C58.655 104.989 57.1835 104.494 56.3874 102.872C55.5913 101.25 56.0979 99.7903 58.4862 96.1657L56.0738 93.7111C56.0738 93.7111 49.7774 105.019 46.1106 104.476Z" fill="#DBDBDB"/>
<path d="M48.7701 110.712L44.2952 115.079C47.9138 115.784 50.0909 128.522 50.0909 128.522L53.215 127.014C52.1596 122.792 52.1716 121.255 53.4623 120C54.7529 118.746 56.2968 118.764 60.4884 119.922L62.0685 116.846C62.0685 116.846 49.3853 114.367 48.7701 110.712Z" fill="#DBDBDB"/>
<path d="M43.656 115.169L38.1256 112.262C38.5779 115.941 27.1311 121.912 27.1311 121.912L29.5435 124.415C33.2224 122.111 34.7 121.647 36.2922 122.479C37.8844 123.311 38.3427 124.801 38.5418 129.143L41.9553 129.692C41.9553 129.692 40.3752 116.888 43.656 115.169Z" fill="#DBDBDB"/>
<path d="M37.8482 111.683L38.8976 105.526C35.5444 107.088 26.3049 98.0533 26.3049 98.0533L24.6705 101.105C27.9996 103.897 28.8922 105.158 28.5907 106.931C28.2891 108.704 27.0226 109.597 22.9517 111.153L23.4824 114.572C23.4824 114.572 35.1946 109.09 37.8482 111.683Z" fill="#DBDBDB"/>
<path d="M37.4319 110.254C37.5965 111.384 38.0924 112.439 38.8568 113.287C39.6213 114.135 40.6199 114.737 41.7265 115.017C42.8331 115.297 43.998 115.243 45.0737 114.861C46.1495 114.479 47.0879 113.787 47.7703 112.872C48.4526 111.957 48.8483 110.86 48.9072 109.72C48.9661 108.58 48.6857 107.448 48.1013 106.467C47.517 105.487 46.655 104.701 45.6243 104.211C44.5936 103.72 43.4406 103.546 42.311 103.71C41.561 103.82 40.8398 104.076 40.1887 104.464C39.5376 104.852 38.9693 105.364 38.5162 105.972C38.0632 106.579 37.7342 107.27 37.5482 108.005C37.3621 108.74 37.3226 109.504 37.4319 110.254Z" fill="#DBDBDB"/>
<path d="M72.255 65.7454C73.7507 69.2253 87.3988 77.0052 92.6759 78.6879C95.999 79.7493 107.699 82.2281 108.471 81.7034C109.243 81.1787 104.72 72.4699 102.06 70.1179C99.4005 67.7658 85.3905 60.6673 80.9035 60.215C76.4164 59.7626 70.7412 62.2293 72.255 65.7454Z" fill="white"/>
<path d="M108.477 81.7154C107.699 82.2341 96.005 79.7493 92.6759 78.6999C87.3987 77.0112 73.7506 69.2373 72.2489 65.7514C70.7472 62.2655 76.4163 59.7928 80.9034 60.2391C81.2527 60.2738 81.5993 60.3322 81.9407 60.414C77.5682 61.3307 76.2414 64.4487 78.497 66.6741C80.7526 68.8996 88.2069 74.4179 91.3129 75.799C94.3284 77.1319 105.661 80.654 106.776 80.0207C107.003 79.8212 107.182 79.5737 107.301 79.2962C107.42 79.0187 107.476 78.7181 107.464 78.4165C108.296 80.1474 108.767 81.5224 108.477 81.7154Z" fill="#EBEBEB"/>
<g opacity="0.1">
<path d="M75.2402 114.241C75.3126 117.377 75.198 119.415 75.4875 119.512C76.7661 119.934 98.3691 118.01 100.709 117.359C103.049 116.707 110.558 109.844 110.558 109.844C110.558 109.844 110.594 109.784 110.606 109.747C102.745 112.382 94.5536 113.899 86.2709 114.253C84.7632 114.307 80.9455 114.301 75.2402 114.241Z" fill="black"/>
<path d="M-148.708 109.434C-148.256 115.006 -148.624 119.083 -148.407 119.288C-147.707 119.952 9.15263 121.098 10.0693 121.14C10.3166 121.14 10.202 117.859 10.6181 113.089C-37.292 112.087 -99.1458 110.652 -148.708 109.434Z" fill="black"/>
</g>
<g opacity="0.2">
<path d="M71.8148 63.532C57.5998 61.7227 43.1736 59.7868 29.031 57.4166C22.8793 55.1007 16.9328 52.3807 10.938 49.7512C13.7605 50.8368 26.6186 56.0536 29.1817 56.91C42.6007 59.0389 58.4622 61.2463 71.8329 63.5441L71.8148 63.532Z" fill="black"/>
</g>
<path d="M110.021 97.0462C110.021 97.0462 95.9568 98.2946 95.7819 98.2524C95.607 98.2102 95.1788 96.2743 94.0027 96.22C92.8267 96.1657 88.7437 99.6516 88.0924 103.005C87.441 106.358 88.207 108.873 90.3359 108.62C92.4648 108.366 95.3718 104.06 95.3718 104.06C95.3718 104.06 106.167 103.457 106.427 103.656C106.86 104.046 107.322 104.403 107.808 104.724C108.395 104.928 109.001 105.075 109.617 105.164L110.021 97.0462Z" fill="#263238"/>
<g opacity="0.4">
<path d="M79.4017 94.6941C76.2595 84.6223 68.763 75.9498 58.9988 71.8728C47.6304 67.3073 33.7953 67.434 23.2893 74.1525C16.8143 78.3929 11.7696 84.4886 8.81494 91.6424C10.0991 87.9606 11.9597 84.5061 14.3273 81.4078C24.5377 67.6632 42.5403 64.521 58.064 70.3409C68.6182 74.2732 76.7601 83.8745 79.4077 94.6941H79.4017Z" fill="white"/>
</g>
</svg>
