<svg width="171" height="233" viewBox="0 0 171 233" fill="none" xmlns="http://www.w3.org/2000/svg">
<path d="M23.9392 87.5C22.5842 84.4686 22.4771 81.4372 22.4834 78.4059L22.3762 69.3117C22.2691 63.2489 22.3132 57.1799 22.3132 51.1171C22.3699 38.9916 22.559 26.8661 22.7355 14.7406C22.9119 2.61503 23.101 -9.5168 23.3657 -21.6423L23.8005 -39.8054C23.9896 -45.8682 24.1345 -51.9309 24.3614 -58H24.6261C24.853 -51.9309 24.998 -45.8682 25.187 -39.8054L25.6093 -21.6171C25.8866 -9.49159 26.0378 2.64023 26.2395 14.7658C26.4412 26.8913 26.605 39.0168 26.6618 51.1423C26.6618 57.2051 26.7059 63.2742 26.5987 69.3369L26.4916 78.4311C26.4916 81.4624 26.3908 84.4938 25.0358 87.5252L23.9392 87.5Z" fill="#FFB651"/>
<path d="M23.9455 87.595C22.0863 84.8472 21.4561 81.8788 20.933 78.8916L19.2503 69.955C18.0907 63.9994 17.0824 58.0248 16.0236 52.0503C13.9817 40.076 12.0595 28.1018 10.1247 16.1275C8.18989 4.15321 6.274 -7.82106 4.45265 -19.7953L1.71118 -37.7819C0.847773 -43.788 -0.0660525 -49.7562 -0.897949 -55.7938L-0.633256 -55.8379C0.627194 -49.9075 1.83722 -43.9645 3.07877 -38.0214L6.65214 -20.1861C9.03439 -8.28743 11.2843 3.63012 13.5846 15.5351C15.8849 27.44 18.1537 39.3576 20.3217 51.2877C21.3742 57.256 22.4645 63.2242 23.4161 69.2113L24.8908 78.1857C25.4202 81.173 25.8425 84.1792 25.0358 87.3996L23.9455 87.595Z" fill="#FFB651"/>
<path d="M23.9706 87.6887C21.664 85.3001 20.5296 82.4893 19.4897 79.6407L16.3008 71.1138C14.1265 65.4418 12.0909 59.7382 9.99855 54.041C5.90839 42.6276 1.93797 31.1638 -2.04505 19.7126C-6.02807 8.26146 -9.99848 -3.20863 -13.887 -14.6976L-19.7039 -31.9343C-21.5946 -37.6945 -23.542 -43.4422 -25.4075 -49.2213L-25.1491 -49.3096C-22.8677 -43.688 -20.6556 -38.0411 -18.4057 -32.4069L-11.7883 -15.4602C-7.37675 -4.16027 -3.09122 7.18378 1.26363 18.5089C5.61849 29.8341 9.89771 41.197 14.1013 52.5411C16.1747 58.2131 18.286 63.9229 20.2649 69.658L23.2774 78.2416C24.311 81.0902 25.25 83.9704 25.0168 87.2854L23.9706 87.6887Z" fill="#FFB651"/>
<path d="M24.0148 87.777C21.3238 85.8296 19.7167 83.2583 18.2042 80.6302L13.5657 72.8091C10.4146 67.6098 7.44622 62.3348 4.41484 57.085C-1.5975 46.554 -7.49641 35.9536 -13.4079 25.3658C-19.3194 14.778 -25.2183 4.17766 -31.0542 -6.46054L-39.7891 -22.4241C-42.663 -27.7684 -45.5683 -33.0938 -48.4043 -38.4571L-48.1711 -38.5957C-44.9444 -33.4531 -41.7869 -28.2789 -38.5917 -23.1174L-29.1383 -7.57604C-22.8361 2.78486 -16.6473 13.2214 -10.3954 23.6075C-4.14361 33.9936 2.04519 44.4049 8.16467 54.9044C11.1961 60.1542 14.2589 65.3851 17.2021 70.6601L21.6578 78.5883C23.1766 81.2163 24.6009 83.8948 24.9413 87.1972L24.0148 87.777Z" fill="#FFB651"/>
<path d="M24.065 87.8593C21.084 86.4035 19.0547 84.1473 17.1325 81.8281L11.2021 74.9271C7.2254 70.3517 3.36211 65.6817 -0.538979 61.0621C-8.29074 51.7285 -15.9354 42.3193 -23.5989 32.9163C-31.2624 23.5134 -38.9071 14.1041 -46.495 4.63812L-57.839 -9.57345C-61.6204 -14.3379 -65.4017 -19.0772 -69.1074 -23.8669L-68.8995 -24.0371C-64.8282 -19.5373 -60.82 -14.9871 -56.7802 -10.4621L-44.8312 3.176C-36.821 12.289 -28.918 21.484 -20.952 30.6286C-12.9859 39.7731 -5.0829 48.9744 2.7571 58.2261C6.65189 62.8709 10.5845 67.4904 14.3974 72.2045L20.1639 79.2378C22.1113 81.5633 23.9831 83.9519 24.8969 87.1408L24.065 87.8593Z" fill="#FFB651"/>
<path d="M24.1345 87.9288C20.9456 87.0149 18.5571 85.1432 16.2315 83.1958L9.19822 77.4166C4.48414 73.6038 -0.135406 69.6712 -4.78016 65.7764C-14.0319 57.9364 -23.1953 50.0208 -32.3777 42.0673C-41.5601 34.1139 -50.7172 26.2109 -59.8303 18.1755L-73.4936 6.20122C-78.0186 2.16148 -82.5688 -1.84675 -87.0686 -5.91801L-86.8984 -6.12598C-82.1087 -2.40135 -77.3694 1.3863 -72.6049 5.14244L-58.3934 16.4865C-48.94 24.0492 -39.5434 31.7505 -30.1152 39.3763C-20.687 47.002 -11.2967 54.6844 -1.96936 62.4362C2.67539 66.3373 7.34536 70.2006 11.8956 74.1773L18.8217 80.114C21.141 82.0614 23.3972 84.0907 24.853 87.0465L24.1345 87.9288Z" fill="#FFB651"/>
<path d="M24.2163 87.9791C20.9139 87.6388 18.2354 86.2145 15.6074 84.6956L7.67916 80.2399C2.37897 77.2968 -2.85189 74.2339 -8.07645 71.2025C-18.5508 65.083 -28.9621 58.8564 -39.3734 52.6424C-49.7847 46.4284 -60.2213 40.2333 -70.5821 33.931L-86.1235 24.4776C-91.285 21.2824 -96.4592 18.125 -101.602 14.8982L-101.463 14.665C-96.0999 17.5011 -90.7493 20.4064 -85.4302 23.2802L-69.4666 32.0088C-58.8285 37.8321 -48.2533 43.7688 -37.6403 49.6551C-27.0273 55.5414 -16.471 61.4088 -5.92109 67.4212C-0.671318 70.4525 4.60366 73.4461 9.80302 76.572L17.6241 81.1979C20.2521 82.7104 22.8235 84.3175 24.7709 87.0086L24.2163 87.9791Z" fill="#FFB651"/>
<path d="M24.3046 88.0234C20.9896 88.2566 18.1095 87.3176 15.2609 86.284L6.67723 83.2715C0.942184 81.2926 -4.74242 79.1814 -10.4397 77.108C-21.7837 72.9044 -33.1278 68.581 -44.4718 64.2703C-55.8158 59.9595 -67.1599 55.6299 -78.4409 51.2183L-95.3877 44.601C-101.022 42.3511 -106.669 40.139 -112.29 37.8576L-112.202 37.6055C-106.423 39.4646 -100.675 41.3868 -94.915 43.2775L-77.6783 49.0945C-66.1893 52.983 -54.7445 56.9912 -43.2681 60.9364C-31.7917 64.8816 -20.3531 68.8898 -8.93974 72.98C-3.26772 75.0534 2.46732 77.0891 8.13304 79.2822L16.6411 82.4901C19.4897 83.5299 22.3131 84.6644 24.6891 86.971L24.3046 88.0234Z" fill="#FFB651"/>
<path d="M24.3991 88.0484C21.1786 88.855 18.1725 88.4328 15.1852 87.9034L6.21712 86.4287C0.22998 85.477 -5.75716 84.3868 -11.7065 83.3343C-23.6366 81.1663 -35.5479 78.8786 -47.4591 76.5972C-59.3704 74.3158 -71.2816 72.028 -83.1803 69.6647L-101.022 66.0724C-106.965 64.812 -112.908 63.6398 -118.838 62.3604L-118.794 62.0957C-112.782 62.9276 -106.82 63.8414 -100.782 64.7048L-82.7958 67.4463C-70.8216 69.2803 -58.8473 71.2277 -46.873 73.1183C-34.8987 75.009 -22.9245 76.9753 -10.9502 79.0172C-4.97567 80.076 1.02407 81.0844 6.95449 82.244L15.8911 83.9267C18.8783 84.4498 21.8467 85.08 24.5945 86.9392L24.3991 88.0484Z" fill="#FFB651"/>
<path d="M24.4937 88.0548C21.4623 89.4098 18.4309 89.5169 15.3995 89.5106L6.30539 89.6178C0.24263 89.7249 -5.82643 89.6808 -11.8892 89.6808C-24.0147 89.6241 -36.1402 89.435 -48.2658 89.2585C-60.3913 89.0821 -72.5231 88.893 -84.6486 88.6283L-102.812 88.1935C-108.874 88.0044 -114.937 87.8594 -121 87.6326V87.3679C-114.937 87.141 -108.874 86.996 -102.812 86.807L-84.6234 86.3847C-72.4979 86.1074 -60.3661 85.9562 -48.2406 85.7545C-36.115 85.5528 -23.9895 85.389 -11.864 85.3322C-5.80122 85.3322 0.26783 85.2881 6.3306 85.3953L15.4247 85.5024C18.4561 85.5024 21.4875 85.6032 24.5189 86.9582L24.4937 88.0548Z" fill="#FFB651"/>
<path d="M24.5881 88.048C21.8403 89.9072 18.872 90.5374 15.8847 91.0605L6.94814 92.7432C0.992516 93.9028 -4.98202 94.9112 -10.9566 95.97C-22.9308 98.0119 -34.9051 99.9341 -46.8794 101.869C-58.8536 103.804 -70.8279 105.72 -82.8022 107.541L-100.789 110.282C-106.795 111.146 -112.763 112.06 -118.801 112.892L-118.845 112.627C-112.914 111.366 -106.971 110.156 -101.028 108.915L-83.1929 105.341C-71.2943 102.959 -59.3767 100.709 -47.4718 98.4089C-35.5668 96.1086 -23.6493 93.8398 -11.7191 91.6718C-5.75089 90.6194 0.217339 89.5291 6.20447 88.5774L15.1789 87.1027C18.1661 86.5733 21.1723 86.1511 24.3928 86.9578L24.5881 88.048Z" fill="#FFB651"/>
<path d="M24.6828 88.0233C22.2943 90.3299 19.4835 91.4644 16.6348 92.5042L8.10791 95.6932C2.43588 97.8674 -3.26765 99.9031 -8.96487 101.995C-20.3783 106.086 -31.842 110.056 -43.2932 114.039C-54.7444 118.022 -66.2145 121.992 -77.7035 125.881L-94.9401 131.698C-100.7 133.589 -106.448 135.536 -112.227 137.37L-112.315 137.118C-106.694 134.836 -101.047 132.624 -95.4128 130.374L-78.4661 123.757C-67.1661 119.345 -55.8221 115.06 -44.4969 110.705C-33.1718 106.35 -21.8089 102.071 -10.4648 97.8674C-4.79279 95.794 0.917046 93.6828 6.65209 91.7038L15.2357 88.6914C18.0844 87.6578 20.9645 86.7188 24.2795 86.9519L24.6828 88.0233Z" fill="#FFB651"/>
<path d="M24.7709 87.9792C22.8235 90.6702 20.2521 92.2773 17.6241 93.7898L9.80302 98.4283C4.60366 101.579 -0.671318 104.548 -5.92109 107.579C-16.4521 113.591 -27.0525 119.49 -37.6403 125.402C-48.2281 131.313 -58.8285 137.212 -69.4666 143.048L-85.4302 151.783C-90.7745 154.657 -96.0999 157.562 -101.463 160.398L-101.602 160.165C-96.4592 156.938 -91.285 153.781 -86.1235 150.586L-70.5821 141.132C-60.2213 134.83 -49.7847 128.641 -39.3986 122.389C-29.0125 116.138 -18.6012 109.949 -8.10167 103.829C-2.8519 100.798 2.37897 97.7351 7.65395 94.7919L15.5822 90.3362C18.2102 88.8174 20.8887 87.3931 24.191 87.0527L24.7709 87.9792Z" fill="#FFB651"/>
<path d="M24.853 87.9286C23.3971 90.9095 21.1409 92.9389 18.8217 94.861L11.9207 100.791C7.3453 104.768 2.67533 108.631 -1.94421 112.533C-11.2715 120.284 -20.6871 127.929 -30.09 135.592C-39.493 143.256 -48.9023 150.901 -58.3682 158.482L-72.5798 169.826C-77.3443 173.608 -82.0836 177.389 -86.8733 181.095L-87.0435 180.887C-82.5437 176.815 -77.9934 172.807 -73.4684 168.768L-59.8304 156.825C-50.7173 148.815 -41.5223 140.912 -32.3778 132.946C-23.2332 124.979 -14.0319 117.076 -4.78023 109.236C-0.135468 105.342 4.48407 101.409 9.19815 97.5962L16.2315 91.8297C18.557 89.8823 20.9455 88.0105 24.1345 87.0967L24.853 87.9286Z" fill="#FFB651"/>
<path d="M24.9222 87.8591C24.0083 91.048 22.1366 93.4366 20.1892 95.7621L14.41 102.795C10.5972 107.509 6.66456 112.129 2.76978 116.774C-5.07022 126.026 -12.9858 135.189 -20.9393 144.371C-28.8927 153.554 -36.7957 162.711 -44.8311 171.824L-56.8054 185.487C-60.8451 190.012 -64.8533 194.562 -68.9246 199.062L-69.1326 198.892C-65.4079 194.102 -61.6203 189.363 -57.8642 184.599L-46.5201 170.387C-38.9574 160.934 -31.2498 151.537 -23.624 142.109C-15.9983 132.681 -8.31588 123.29 -0.56411 113.963C3.33698 109.318 7.20025 104.648 11.177 100.098L17.1074 93.1719C19.0548 90.8527 21.0841 88.5964 24.0399 87.1406L24.9222 87.8591Z" fill="#FFB651"/>
<path d="M24.9727 87.7773C24.6324 91.0796 23.2081 93.7581 21.6893 96.3861L17.2336 104.314C14.2904 109.615 11.2275 114.845 8.19616 120.07C2.07667 130.544 -4.14995 140.956 -10.364 151.367C-16.578 161.778 -22.7731 172.215 -29.0753 182.576L-38.5287 198.117C-41.7239 203.279 -44.8814 208.453 -48.1081 213.595L-48.3413 213.457C-45.5053 208.093 -42.6 202.743 -39.7261 197.424L-30.9975 181.46C-25.1742 170.822 -19.2375 160.247 -13.3512 149.634C-7.46493 139.021 -1.59754 128.465 4.41481 117.915C7.44619 112.665 10.4398 107.39 13.5657 102.19L18.1915 94.3694C19.7041 91.7414 21.3111 89.1701 24.0022 87.2227L24.9727 87.7773Z" fill="#FFB651"/>
<path d="M25.0168 87.6891C25.25 91.0041 24.311 93.8842 23.2774 96.7328L20.2649 105.317C18.286 111.052 16.1747 116.736 14.1013 122.433C9.89771 133.809 5.57437 145.122 1.26363 156.466C-3.0471 167.81 -7.37675 179.154 -11.7883 190.435L-18.4057 207.381C-20.6556 213.016 -22.8677 218.662 -25.1491 224.284L-25.4075 224.196C-23.5168 218.417 -21.6261 212.669 -19.7039 206.909L-13.887 189.672C-9.99848 178.183 -5.99025 166.738 -2.04505 155.268C1.90016 143.798 5.90839 132.347 9.99855 120.933C12.072 115.261 14.1076 109.526 16.3008 103.861L19.5086 95.3527C20.5485 92.504 21.6829 89.6806 23.9895 87.3047L25.0168 87.6891Z" fill="#FFB651"/>
<path d="M25.042 87.5948C25.8487 90.8152 25.4264 93.8214 24.8971 96.8087L23.4223 105.777C22.4707 111.764 21.3804 117.751 20.3279 123.7C18.16 135.631 15.8722 147.542 13.5908 159.453C11.3094 171.364 9.02169 183.276 6.65835 195.174L3.06607 213.016C1.80562 218.959 0.633405 224.902 -0.645951 230.832L-0.910645 230.788C-0.0787479 224.776 0.835078 218.782 1.69849 212.776L4.43996 194.79C6.27391 182.815 8.2213 170.841 10.112 158.867C12.0027 146.893 13.969 134.918 16.0109 122.944C17.0697 116.97 18.078 110.97 19.2376 105.039L20.9203 96.1028C21.4434 93.1156 22.0736 90.1472 23.9328 87.3994L25.042 87.5948Z" fill="#FFB651"/>
<path d="M25.0482 87.4998C26.4032 90.5312 26.5103 93.5626 26.504 96.594L26.6112 105.688C26.7183 111.751 26.6742 117.82 26.6742 123.883C26.6175 136.008 26.4284 148.134 26.2519 160.259C26.0755 172.385 25.8864 184.517 25.6217 196.642L25.1869 214.805C24.9978 220.868 24.8529 226.931 24.626 233H24.3613C24.1344 226.931 23.9894 220.868 23.8004 214.805L23.3781 196.617C23.1008 184.491 22.9496 172.36 22.7479 160.234C22.5462 148.109 22.3824 135.983 22.3256 123.857C22.3256 117.795 22.2815 111.726 22.3887 105.663L22.4958 96.5688C22.4958 93.5374 22.5966 90.506 23.9516 87.4746L25.0482 87.4998Z" fill="#FFB651"/>
<path d="M25.0419 87.4053C26.9011 90.1531 27.5313 93.1214 28.0544 96.1087L29.7371 105.045C30.8967 111.001 31.9051 116.975 32.9639 122.95C35.0058 134.924 36.928 146.898 38.8628 158.873C40.7976 170.847 42.7134 182.821 44.5348 194.796L47.2763 212.782C48.1397 218.788 49.0535 224.756 49.8854 230.794L49.6207 230.838C48.3603 224.908 47.1502 218.965 45.9087 213.022L42.3353 195.186C39.9531 183.288 37.7032 171.37 35.4028 159.465C33.1025 147.56 30.8337 135.643 28.6657 123.713C27.6133 117.744 26.523 111.776 25.5713 105.789L24.0966 96.8145C23.5672 93.8273 23.145 90.8211 23.9516 87.6006L25.0419 87.4053Z" fill="#FFB651"/>
<path d="M25.0167 87.3105C27.3234 89.6991 28.4578 92.5099 29.4976 95.3585L32.6866 103.885C34.8608 109.557 36.8965 115.23 38.9888 120.958C43.079 132.372 47.0494 143.835 51.0324 155.293C55.0154 166.75 58.9858 178.208 62.8743 189.697L68.6913 206.934C70.582 212.694 72.5294 218.441 74.3633 224.221L74.1113 224.309C71.8298 218.687 69.6177 213.04 67.3678 207.406L60.7505 190.459C56.3389 179.16 52.0534 167.815 47.6985 156.49C43.3437 145.165 39.0645 133.802 34.8609 122.458C32.7874 116.786 30.6762 111.076 28.6973 105.341L25.6848 96.7576C24.6512 93.909 23.7122 91.0289 23.9454 87.7139L25.0167 87.3105Z" fill="#FFB651"/>
<path d="M24.9726 87.2227C27.6636 89.1701 29.2707 91.7414 30.7833 94.3694L35.4217 102.19C38.5728 107.39 41.5412 112.665 44.5726 117.915C50.5849 128.446 56.4838 139.046 62.3953 149.634C68.3068 160.222 74.2057 170.822 80.0416 181.46L88.7765 197.424C91.6503 202.768 94.5557 208.093 97.3917 213.457L97.1585 213.595C93.9317 208.453 90.7743 203.279 87.5791 198.117L78.1257 182.576C71.8235 172.215 65.6347 161.778 59.3828 151.392C53.131 141.006 46.9422 130.595 40.8227 120.095C37.7913 114.845 34.7285 109.615 31.7853 104.34L27.3296 96.4113C25.8108 93.7833 24.3865 91.1048 24.0461 87.8025L24.9726 87.2227Z" fill="#FFB651"/>
<path d="M24.9222 87.1406C27.9032 88.5964 29.9325 90.8527 31.8547 93.1719L37.8103 100.104C41.787 104.68 45.6503 109.35 49.5514 113.969C57.3032 123.297 64.9478 132.712 72.6113 142.115C80.2749 151.518 87.9195 160.927 95.5011 170.393L106.845 184.605C110.626 189.369 114.408 194.109 118.114 198.898L117.906 199.069C113.834 194.569 109.826 190.019 105.786 185.493L93.8184 171.824C85.8082 162.711 77.9052 153.516 69.9392 144.371C61.9731 135.227 54.0701 126.026 46.2301 116.774C42.3353 112.129 38.4027 107.509 34.5899 102.795L28.8233 95.7621C26.8759 93.4366 25.0042 91.048 24.0903 87.8591L24.9222 87.1406Z" fill="#FFB651"/>
<path d="M24.853 87.0713C28.0419 87.9851 30.4305 89.8569 32.756 91.8043L39.7893 97.5834C44.5034 101.365 49.1229 105.329 53.7677 109.224C63.0194 117.064 72.1828 124.979 81.3652 132.933C90.5476 140.886 99.7048 148.802 108.818 156.812L122.481 168.799C127.006 172.839 131.556 176.847 136.056 180.918L135.886 181.126C131.096 177.401 126.357 173.614 121.592 169.858L107.381 158.514C97.9275 150.951 88.5309 143.25 79.1027 135.624C69.6746 127.998 60.2842 120.309 50.9632 112.558C46.3184 108.656 41.6485 104.793 37.0982 100.816L30.1658 94.8861C27.8465 92.9387 25.5903 90.9094 24.1345 87.9536L24.853 87.0713Z" fill="#FFB651"/>
<path d="M24.7709 87.0215C28.0733 87.3618 30.7517 88.7861 33.3798 90.305L41.308 94.7606C46.6082 97.7038 51.8391 100.767 57.0636 103.798C67.538 109.918 77.943 116.144 88.3606 122.358C98.7782 128.572 109.158 134.799 119.544 141.101L135.085 150.554C140.247 153.75 145.421 156.907 150.564 160.134L150.425 160.367C145.062 157.531 139.711 154.626 134.392 151.752L118.429 143.023C107.79 137.2 97.2152 131.263 86.6022 125.377C75.9893 119.491 65.4582 113.592 54.9083 107.579C49.6585 104.548 44.3835 101.554 39.1841 98.4285L31.3631 93.8027C28.735 92.2902 26.1637 90.6516 24.2163 87.992L24.7709 87.0215Z" fill="#FFB651"/>
<path d="M24.6828 86.9773C27.9978 86.7442 30.8779 87.6832 33.7265 88.7168L42.3102 91.7292C48.0452 93.7081 53.7299 95.8194 59.4271 97.8928C70.8027 102.096 82.1152 106.42 93.4593 110.731C104.803 115.041 116.147 119.371 127.428 123.782L144.375 130.4C150.009 132.65 155.656 134.862 161.278 137.143L161.189 137.395C155.41 135.536 149.663 133.614 143.902 131.723L126.666 125.906C115.177 122.018 103.732 118.01 92.2555 114.064C80.7791 110.119 69.3469 106.086 57.9335 101.996C52.2615 99.9222 46.5264 97.8865 40.8607 95.6933L32.3527 92.4855C29.504 91.4456 26.6806 90.3112 24.3047 88.0046L24.6828 86.9773Z" fill="#FFB651"/>
<path d="M24.5881 86.9519C27.8086 86.1452 30.8148 86.5675 33.802 87.0968L42.7701 88.5716C48.7573 89.5232 54.7444 90.6135 60.6937 91.666C72.6239 93.8339 84.5351 96.1217 96.4464 98.4031C108.358 100.684 120.269 102.972 132.168 105.336L150.003 108.909C155.946 110.169 161.889 111.342 167.819 112.621L167.775 112.886C161.763 112.054 155.769 111.14 149.763 110.277L131.777 107.535C119.803 105.701 107.828 103.754 95.854 101.863C83.8797 99.9723 71.9054 98.006 59.9312 95.9641C53.9566 94.9053 47.9569 93.897 42.0265 92.7374L33.0899 91.0547C30.1026 90.5316 27.1343 89.9013 24.3865 88.0422L24.5881 86.9519Z" fill="#FFB651"/>
<path d="M24.4937 86.9455C27.525 85.5905 30.5564 85.4834 33.5878 85.4897L42.6819 85.3826C48.7447 85.2754 54.8138 85.3195 60.8765 85.3195C73.0021 85.3763 85.1276 85.5653 97.2531 85.7418C109.379 85.9183 121.51 86.1073 133.636 86.372L151.824 86.7943C157.887 86.9833 163.95 87.1283 170.013 87.3552V87.6199C163.95 87.8468 157.887 87.9917 151.824 88.1808L133.636 88.603C121.51 88.8803 109.379 89.0316 97.2531 89.2332C85.1276 89.4349 73.0021 89.5988 60.8765 89.6555C54.8138 89.6555 48.7447 89.6996 42.6819 89.5925L33.5878 89.4853C30.5564 89.4853 27.525 89.3845 24.4937 88.0295V86.9455Z" fill="#FFB651"/>
<path d="M24.3992 86.9519C27.147 85.0927 30.1153 84.4625 33.1026 83.9394L42.0392 82.2567C47.9948 81.0971 53.9693 80.0887 59.9438 79.0299C71.9181 76.988 83.8924 75.0658 95.8667 73.131C107.841 71.1962 119.815 69.2804 131.789 67.459L149.776 64.7175C155.782 63.8541 161.75 62.9403 167.788 62.1084L167.832 62.3731C161.902 63.6335 155.959 64.8436 150.016 66.0851L132.18 69.6585C120.282 72.0407 108.364 74.2906 96.4591 76.591C84.5541 78.8913 72.6366 81.1601 60.7064 83.3281C54.7382 84.3805 48.77 85.4708 42.7828 86.4225L33.8084 87.8972C30.8212 88.4266 27.815 88.8488 24.5945 88.0421L24.3992 86.9519Z" fill="#FFB651"/>
<path d="M24.3047 86.9765C26.6932 84.6699 29.504 83.5355 32.3527 82.4956L40.8796 79.3066C46.5516 77.1324 52.2236 75.0967 57.9524 73.0044C69.3657 68.9142 80.8295 64.9438 92.2807 60.9608C103.732 56.9778 115.202 53.0074 126.691 49.1189L143.928 43.3019C149.688 41.4112 155.436 39.4638 161.215 37.6299L161.303 37.882C155.681 40.1634 150.035 42.3755 144.4 44.6254L127.454 51.2427C116.154 55.6543 104.81 59.9398 93.4845 64.2947C82.1593 68.6495 70.7964 72.9288 59.4523 77.1324C53.7803 79.2058 48.0705 81.3171 42.3354 83.296L33.7518 86.3084C30.9031 87.342 28.023 88.281 24.708 88.0479L24.3047 86.9765Z" fill="#FFB651"/>
<path d="M24.2163 87.0207C26.1637 84.3296 28.735 82.7226 31.3631 81.21L39.1841 76.5716C44.3835 73.4204 49.6585 70.4521 54.9083 67.4207C65.4393 61.4084 76.0397 55.5095 86.6275 49.5979C97.2152 43.6864 107.816 37.7875 118.454 31.9516L134.417 23.2167C139.762 20.3429 145.087 17.4376 150.45 14.6016L150.589 14.8347C145.446 18.0615 140.272 21.2189 135.111 24.4142L119.569 33.8675C109.208 40.1698 98.7719 46.3586 88.3858 52.6104C77.9997 58.8622 67.5884 65.0511 57.0888 71.1705C51.8391 74.2019 46.6082 77.2648 41.3332 80.208L33.405 84.6637C30.777 86.1825 28.0985 87.6068 24.7961 87.9471L24.2163 87.0207Z" fill="#FFB651"/>
<path d="M24.1345 87.0712C25.5903 84.0903 27.8465 82.0609 30.1658 80.1388L37.0982 74.1831C41.6737 70.2064 46.3436 66.3431 50.9632 62.442C60.2905 54.6903 69.7061 47.0456 79.109 39.3821C88.512 31.7186 97.9212 24.074 107.387 16.4924L121.599 5.14831C126.363 1.36696 131.103 -2.4144 135.892 -6.12012L136.062 -5.91214C131.563 -1.84089 127.012 2.16734 122.487 6.20708L108.818 18.1751C99.7048 26.1852 90.5098 34.0882 81.3652 42.0543C72.2207 50.0203 63.0194 57.9233 53.7677 65.7633C49.1229 69.6581 44.5034 73.5907 39.7893 77.4036L32.756 83.1701C30.4305 85.1175 28.0419 86.9893 24.853 87.9031L24.1345 87.0712Z" fill="#FFB651"/>
<path d="M24.0652 87.1407C24.979 83.9517 26.8508 81.5632 28.7982 79.2377L34.5773 72.2043C38.3587 67.4903 42.3228 62.8707 46.2176 58.226C54.0576 48.9743 61.9732 39.8108 69.9266 30.6284C77.8801 21.446 85.7957 12.2889 93.8059 3.17581L105.793 -10.4875C109.832 -15.0125 113.841 -19.5627 117.912 -24.0625L118.12 -23.8923C114.395 -19.1026 110.608 -14.3633 106.852 -9.59884L95.5075 4.61273C87.9448 14.0661 80.2434 23.4628 72.6177 32.8909C64.992 42.3191 57.3032 51.7031 49.5515 61.0304C45.6504 65.6752 41.7871 70.3452 37.8104 74.8954L31.88 81.8279C29.9326 84.1471 27.9033 86.4033 24.9475 87.8591L24.0652 87.1407Z" fill="#FFB651"/>
<path d="M24.0146 87.2226C24.355 83.9202 25.7793 81.2417 27.2981 78.6137L31.7538 70.6855C34.6969 65.3853 37.7598 60.1544 40.7912 54.9299C46.9107 44.4555 53.1373 34.0442 59.3513 23.6329C65.5654 13.2216 71.792 2.83546 78.0942 -7.55065L87.5476 -23.092C90.7428 -28.2535 93.9003 -33.4277 97.127 -38.5703L97.3602 -38.4317C94.5242 -33.0684 91.6189 -27.7178 88.745 -22.3987L80.0164 -6.43515C74.1931 4.20304 68.2564 14.7782 62.3701 25.3912C56.4838 36.0042 50.5849 46.5352 44.5726 57.0852C41.5412 62.335 38.5476 67.61 35.4217 72.8093L30.7959 80.6304C29.2833 83.2585 27.6447 85.8298 24.9852 87.7772L24.0146 87.2226Z" fill="#FFB651"/>
<path d="M23.9705 87.3108C23.7373 83.9958 24.6763 81.1157 25.7099 78.267L28.7224 69.6834C30.7013 63.9483 32.8125 58.2637 34.886 52.5665C39.0896 41.2224 43.4129 29.8784 47.7237 18.5343C52.0344 7.19028 56.3641 -4.15378 60.7756 -15.4348L67.393 -32.3815C69.6429 -38.0158 71.855 -43.6626 74.1364 -49.2842L74.3885 -49.1959C72.5293 -43.4168 70.6071 -37.6691 68.7165 -31.9089L62.8743 -14.6785C58.9858 -3.18953 54.9775 8.25536 51.0323 19.7318C47.0871 31.2081 43.0789 42.6467 38.9888 54.0601C36.9153 59.7321 34.8797 65.4672 32.6865 71.1329L29.4787 79.6409C28.4388 82.4895 27.3044 85.3129 24.9978 87.6889L23.9705 87.3108Z" fill="#FFB651"/>
<path d="M23.9453 87.4055C23.1386 84.185 23.5609 81.1788 24.0903 78.1916L25.565 69.2235C26.5166 63.2363 27.6069 57.2492 28.6594 51.2999C30.8273 39.3697 33.1151 27.4585 35.3965 15.5472C37.6779 3.63599 39.9656 -8.27526 42.3289 -20.1739L45.9212 -38.0156C47.1817 -43.9586 48.3539 -49.9016 49.6333 -55.832L49.8979 -55.7879C49.0661 -49.7756 48.1522 -43.8136 47.2888 -37.7761L44.5473 -19.7895C42.7134 -7.8152 40.766 4.15907 38.8753 16.1333C36.9847 28.1076 35.0183 40.0819 32.9764 52.0562C31.9176 58.0307 30.9093 64.0304 29.7497 69.9608L28.067 78.8974C27.5439 81.8847 26.9137 84.8531 25.0545 87.6008L23.9453 87.4055Z" fill="#FFB651"/>
<g opacity="0.9">
<path d="M23.9392 87.5C22.5842 84.4686 22.4771 81.4372 22.4834 78.4059L22.3762 69.3117C22.2691 63.2489 22.3132 57.1799 22.3132 51.1171C22.3699 38.9916 22.559 26.8661 22.7355 14.7406C22.9119 2.61503 23.101 -9.5168 23.3657 -21.6423L23.8005 -39.8054C23.9896 -45.8682 24.1345 -51.9309 24.3614 -58H24.6261C24.853 -51.9309 24.998 -45.8682 25.187 -39.8054L25.6093 -21.6171C25.8866 -9.49159 26.0378 2.64023 26.2395 14.7658C26.4412 26.8913 26.605 39.0168 26.6618 51.1423C26.6618 57.2051 26.7059 63.2742 26.5987 69.3369L26.4916 78.4311C26.4916 81.4624 26.3908 84.4938 25.0358 87.5252L23.9392 87.5Z" fill="#FFB651"/>
<path d="M23.9455 87.595C22.0863 84.8472 21.4561 81.8788 20.933 78.8916L19.2503 69.955C18.0907 63.9994 17.0824 58.0248 16.0236 52.0503C13.9817 40.076 12.0595 28.1018 10.1247 16.1275C8.18989 4.15321 6.274 -7.82106 4.45265 -19.7953L1.71118 -37.7819C0.847773 -43.788 -0.0660525 -49.7562 -0.897949 -55.7938L-0.633256 -55.8379C0.627194 -49.9075 1.83722 -43.9645 3.07877 -38.0214L6.65214 -20.1861C9.03439 -8.28743 11.2843 3.63012 13.5846 15.5351C15.8849 27.44 18.1537 39.3576 20.3217 51.2877C21.3742 57.256 22.4645 63.2242 23.4161 69.2113L24.8908 78.1857C25.4202 81.173 25.8425 84.1792 25.0358 87.3996L23.9455 87.595Z" fill="#FFB651"/>
<path d="M23.9706 87.6887C21.664 85.3001 20.5296 82.4893 19.4897 79.6407L16.3008 71.1138C14.1265 65.4418 12.0909 59.7382 9.99855 54.041C5.90839 42.6276 1.93797 31.1638 -2.04505 19.7126C-6.02807 8.26146 -9.99848 -3.20863 -13.887 -14.6976L-19.7039 -31.9343C-21.5946 -37.6945 -23.542 -43.4422 -25.4075 -49.2213L-25.1491 -49.3096C-22.8677 -43.688 -20.6556 -38.0411 -18.4057 -32.4069L-11.7883 -15.4602C-7.37675 -4.16027 -3.09122 7.18378 1.26363 18.5089C5.61849 29.8341 9.89771 41.197 14.1013 52.5411C16.1747 58.2131 18.286 63.9229 20.2649 69.658L23.2774 78.2416C24.311 81.0902 25.25 83.9704 25.0168 87.2854L23.9706 87.6887Z" fill="#FFB651"/>
<path d="M24.0148 87.777C21.3238 85.8296 19.7167 83.2583 18.2042 80.6302L13.5657 72.8091C10.4146 67.6098 7.44622 62.3348 4.41484 57.085C-1.5975 46.554 -7.49641 35.9536 -13.4079 25.3658C-19.3194 14.778 -25.2183 4.17766 -31.0542 -6.46054L-39.7891 -22.4241C-42.663 -27.7684 -45.5683 -33.0938 -48.4043 -38.4571L-48.1711 -38.5957C-44.9444 -33.4531 -41.7869 -28.2789 -38.5917 -23.1174L-29.1383 -7.57604C-22.8361 2.78486 -16.6473 13.2214 -10.3954 23.6075C-4.14361 33.9936 2.04519 44.4049 8.16467 54.9044C11.1961 60.1542 14.2589 65.3851 17.2021 70.6601L21.6578 78.5883C23.1766 81.2163 24.6009 83.8948 24.9413 87.1972L24.0148 87.777Z" fill="#FFB651"/>
<path d="M24.065 87.8593C21.084 86.4035 19.0547 84.1473 17.1325 81.8281L11.2021 74.9271C7.2254 70.3517 3.36211 65.6817 -0.538979 61.0621C-8.29074 51.7285 -15.9354 42.3193 -23.5989 32.9163C-31.2624 23.5134 -38.9071 14.1041 -46.495 4.63812L-57.839 -9.57345C-61.6204 -14.3379 -65.4017 -19.0772 -69.1074 -23.8669L-68.8995 -24.0371C-64.8282 -19.5373 -60.82 -14.9871 -56.7802 -10.4621L-44.8312 3.176C-36.821 12.289 -28.918 21.484 -20.952 30.6286C-12.9859 39.7731 -5.0829 48.9744 2.7571 58.2261C6.65189 62.8709 10.5845 67.4904 14.3974 72.2045L20.1639 79.2378C22.1113 81.5633 23.9831 83.9519 24.8969 87.1408L24.065 87.8593Z" fill="#FFB651"/>
<path d="M24.1345 87.9288C20.9456 87.0149 18.5571 85.1432 16.2315 83.1958L9.19822 77.4166C4.48414 73.6038 -0.135406 69.6712 -4.78016 65.7764C-14.0319 57.9364 -23.1953 50.0208 -32.3777 42.0673C-41.5601 34.1139 -50.7172 26.2109 -59.8303 18.1755L-73.4936 6.20122C-78.0186 2.16148 -82.5688 -1.84675 -87.0686 -5.91801L-86.8984 -6.12598C-82.1087 -2.40135 -77.3694 1.3863 -72.6049 5.14244L-58.3934 16.4865C-48.94 24.0492 -39.5434 31.7505 -30.1152 39.3763C-20.687 47.002 -11.2967 54.6844 -1.96936 62.4362C2.67539 66.3373 7.34536 70.2006 11.8956 74.1773L18.8217 80.114C21.141 82.0614 23.3972 84.0907 24.853 87.0465L24.1345 87.9288Z" fill="#FFB651"/>
<path d="M24.2163 87.9791C20.9139 87.6388 18.2354 86.2145 15.6074 84.6956L7.67916 80.2399C2.37897 77.2968 -2.85189 74.2339 -8.07645 71.2025C-18.5508 65.083 -28.9621 58.8564 -39.3734 52.6424C-49.7847 46.4284 -60.2213 40.2333 -70.5821 33.931L-86.1235 24.4776C-91.285 21.2824 -96.4592 18.125 -101.602 14.8982L-101.463 14.665C-96.0999 17.5011 -90.7493 20.4064 -85.4302 23.2802L-69.4666 32.0088C-58.8285 37.8321 -48.2533 43.7688 -37.6403 49.6551C-27.0273 55.5414 -16.471 61.4088 -5.92109 67.4212C-0.671318 70.4525 4.60366 73.4461 9.80302 76.572L17.6241 81.1979C20.2521 82.7104 22.8235 84.3175 24.7709 87.0086L24.2163 87.9791Z" fill="#FFB651"/>
<path d="M24.3046 88.0234C20.9896 88.2566 18.1095 87.3176 15.2609 86.284L6.67723 83.2715C0.942184 81.2926 -4.74242 79.1814 -10.4397 77.108C-21.7837 72.9044 -33.1278 68.581 -44.4718 64.2703C-55.8158 59.9595 -67.1599 55.6299 -78.4409 51.2183L-95.3877 44.601C-101.022 42.3511 -106.669 40.139 -112.29 37.8576L-112.202 37.6055C-106.423 39.4646 -100.675 41.3868 -94.915 43.2775L-77.6783 49.0945C-66.1893 52.983 -54.7445 56.9912 -43.2681 60.9364C-31.7917 64.8816 -20.3531 68.8898 -8.93974 72.98C-3.26772 75.0534 2.46732 77.0891 8.13304 79.2822L16.6411 82.4901C19.4897 83.5299 22.3131 84.6644 24.6891 86.971L24.3046 88.0234Z" fill="#FFB651"/>
<path d="M24.3991 88.0484C21.1786 88.855 18.1725 88.4328 15.1852 87.9034L6.21712 86.4287C0.22998 85.477 -5.75716 84.3868 -11.7065 83.3343C-23.6366 81.1663 -35.5479 78.8786 -47.4591 76.5972C-59.3704 74.3158 -71.2816 72.028 -83.1803 69.6647L-101.022 66.0724C-106.965 64.812 -112.908 63.6398 -118.838 62.3604L-118.794 62.0957C-112.782 62.9276 -106.82 63.8414 -100.782 64.7048L-82.7958 67.4463C-70.8216 69.2803 -58.8473 71.2277 -46.873 73.1183C-34.8987 75.009 -22.9245 76.9753 -10.9502 79.0172C-4.97567 80.076 1.02407 81.0844 6.95449 82.244L15.8911 83.9267C18.8783 84.4498 21.8467 85.08 24.5945 86.9392L24.3991 88.0484Z" fill="#FFB651"/>
<path d="M24.4937 88.0548C21.4623 89.4098 18.4309 89.5169 15.3995 89.5106L6.30539 89.6178C0.24263 89.7249 -5.82643 89.6808 -11.8892 89.6808C-24.0147 89.6241 -36.1402 89.435 -48.2658 89.2585C-60.3913 89.0821 -72.5231 88.893 -84.6486 88.6283L-102.812 88.1935C-108.874 88.0044 -114.937 87.8594 -121 87.6326V87.3679C-114.937 87.141 -108.874 86.996 -102.812 86.807L-84.6234 86.3847C-72.4979 86.1074 -60.3661 85.9562 -48.2406 85.7545C-36.115 85.5528 -23.9895 85.389 -11.864 85.3322C-5.80122 85.3322 0.26783 85.2881 6.3306 85.3953L15.4247 85.5024C18.4561 85.5024 21.4875 85.6032 24.5189 86.9582L24.4937 88.0548Z" fill="#FFB651"/>
<path d="M24.5881 88.048C21.8403 89.9072 18.872 90.5374 15.8847 91.0605L6.94814 92.7432C0.992516 93.9028 -4.98202 94.9112 -10.9566 95.97C-22.9308 98.0119 -34.9051 99.9341 -46.8794 101.869C-58.8536 103.804 -70.8279 105.72 -82.8022 107.541L-100.789 110.282C-106.795 111.146 -112.763 112.06 -118.801 112.892L-118.845 112.627C-112.914 111.366 -106.971 110.156 -101.028 108.915L-83.1929 105.341C-71.2943 102.959 -59.3767 100.709 -47.4718 98.4089C-35.5668 96.1086 -23.6493 93.8398 -11.7191 91.6718C-5.75089 90.6194 0.217339 89.5291 6.20447 88.5774L15.1789 87.1027C18.1661 86.5733 21.1723 86.1511 24.3928 86.9578L24.5881 88.048Z" fill="#FFB651"/>
<path d="M24.6828 88.0233C22.2943 90.3299 19.4835 91.4644 16.6348 92.5042L8.10791 95.6932C2.43588 97.8674 -3.26765 99.9031 -8.96487 101.995C-20.3783 106.086 -31.842 110.056 -43.2932 114.039C-54.7444 118.022 -66.2145 121.992 -77.7035 125.881L-94.9401 131.698C-100.7 133.589 -106.448 135.536 -112.227 137.37L-112.315 137.118C-106.694 134.836 -101.047 132.624 -95.4128 130.374L-78.4661 123.757C-67.1661 119.345 -55.8221 115.06 -44.4969 110.705C-33.1718 106.35 -21.8089 102.071 -10.4648 97.8674C-4.79279 95.794 0.917046 93.6828 6.65209 91.7038L15.2357 88.6914C18.0844 87.6578 20.9645 86.7188 24.2795 86.9519L24.6828 88.0233Z" fill="#FFB651"/>
<path d="M24.7709 87.9792C22.8235 90.6702 20.2521 92.2773 17.6241 93.7898L9.80302 98.4283C4.60366 101.579 -0.671318 104.548 -5.92109 107.579C-16.4521 113.591 -27.0525 119.49 -37.6403 125.402C-48.2281 131.313 -58.8285 137.212 -69.4666 143.048L-85.4302 151.783C-90.7745 154.657 -96.0999 157.562 -101.463 160.398L-101.602 160.165C-96.4592 156.938 -91.285 153.781 -86.1235 150.586L-70.5821 141.132C-60.2213 134.83 -49.7847 128.641 -39.3986 122.389C-29.0125 116.138 -18.6012 109.949 -8.10167 103.829C-2.8519 100.798 2.37897 97.7351 7.65395 94.7919L15.5822 90.3362C18.2102 88.8174 20.8887 87.3931 24.191 87.0527L24.7709 87.9792Z" fill="#FFB651"/>
<path d="M24.853 87.9286C23.3971 90.9095 21.1409 92.9389 18.8217 94.861L11.9207 100.791C7.3453 104.768 2.67533 108.631 -1.94421 112.533C-11.2715 120.284 -20.6871 127.929 -30.09 135.592C-39.493 143.256 -48.9023 150.901 -58.3682 158.482L-72.5798 169.826C-77.3443 173.608 -82.0836 177.389 -86.8733 181.095L-87.0435 180.887C-82.5437 176.815 -77.9934 172.807 -73.4684 168.768L-59.8304 156.825C-50.7173 148.815 -41.5223 140.912 -32.3778 132.946C-23.2332 124.979 -14.0319 117.076 -4.78023 109.236C-0.135468 105.342 4.48407 101.409 9.19815 97.5962L16.2315 91.8297C18.557 89.8823 20.9455 88.0105 24.1345 87.0967L24.853 87.9286Z" fill="#FFB651"/>
<path d="M24.9222 87.8591C24.0083 91.048 22.1366 93.4366 20.1892 95.7621L14.41 102.795C10.5972 107.509 6.66456 112.129 2.76978 116.774C-5.07022 126.026 -12.9858 135.189 -20.9393 144.371C-28.8927 153.554 -36.7957 162.711 -44.8311 171.824L-56.8054 185.487C-60.8451 190.012 -64.8533 194.562 -68.9246 199.062L-69.1326 198.892C-65.4079 194.102 -61.6203 189.363 -57.8642 184.599L-46.5201 170.387C-38.9574 160.934 -31.2498 151.537 -23.624 142.109C-15.9983 132.681 -8.31588 123.29 -0.56411 113.963C3.33698 109.318 7.20025 104.648 11.177 100.098L17.1074 93.1719C19.0548 90.8527 21.0841 88.5964 24.0399 87.1406L24.9222 87.8591Z" fill="#FFB651"/>
<path d="M24.9727 87.7773C24.6324 91.0796 23.2081 93.7581 21.6893 96.3861L17.2336 104.314C14.2904 109.615 11.2275 114.845 8.19616 120.07C2.07667 130.544 -4.14995 140.956 -10.364 151.367C-16.578 161.778 -22.7731 172.215 -29.0753 182.576L-38.5287 198.117C-41.7239 203.279 -44.8814 208.453 -48.1081 213.595L-48.3413 213.457C-45.5053 208.093 -42.6 202.743 -39.7261 197.424L-30.9975 181.46C-25.1742 170.822 -19.2375 160.247 -13.3512 149.634C-7.46493 139.021 -1.59754 128.465 4.41481 117.915C7.44619 112.665 10.4398 107.39 13.5657 102.19L18.1915 94.3694C19.7041 91.7414 21.3111 89.1701 24.0022 87.2227L24.9727 87.7773Z" fill="#FFB651"/>
<path d="M25.0168 87.6891C25.25 91.0041 24.311 93.8842 23.2774 96.7328L20.2649 105.317C18.286 111.052 16.1747 116.736 14.1013 122.433C9.89771 133.809 5.57437 145.122 1.26363 156.466C-3.0471 167.81 -7.37675 179.154 -11.7883 190.435L-18.4057 207.381C-20.6556 213.016 -22.8677 218.662 -25.1491 224.284L-25.4075 224.196C-23.5168 218.417 -21.6261 212.669 -19.7039 206.909L-13.887 189.672C-9.99848 178.183 -5.99025 166.738 -2.04505 155.268C1.90016 143.798 5.90839 132.347 9.99855 120.933C12.072 115.261 14.1076 109.526 16.3008 103.861L19.5086 95.3527C20.5485 92.504 21.6829 89.6806 23.9895 87.3047L25.0168 87.6891Z" fill="#FFB651"/>
<path d="M25.042 87.5948C25.8487 90.8152 25.4264 93.8214 24.8971 96.8087L23.4223 105.777C22.4707 111.764 21.3804 117.751 20.3279 123.7C18.16 135.631 15.8722 147.542 13.5908 159.453C11.3094 171.364 9.02169 183.276 6.65835 195.174L3.06607 213.016C1.80562 218.959 0.633405 224.902 -0.645951 230.832L-0.910645 230.788C-0.0787479 224.776 0.835078 218.782 1.69849 212.776L4.43996 194.79C6.27391 182.815 8.2213 170.841 10.112 158.867C12.0027 146.893 13.969 134.918 16.0109 122.944C17.0697 116.97 18.078 110.97 19.2376 105.039L20.9203 96.1028C21.4434 93.1156 22.0736 90.1472 23.9328 87.3994L25.042 87.5948Z" fill="#FFB651"/>
<path d="M25.0482 87.4998C26.4032 90.5312 26.5103 93.5626 26.504 96.594L26.6112 105.688C26.7183 111.751 26.6742 117.82 26.6742 123.883C26.6175 136.008 26.4284 148.134 26.2519 160.259C26.0755 172.385 25.8864 184.517 25.6217 196.642L25.1869 214.805C24.9978 220.868 24.8529 226.931 24.626 233H24.3613C24.1344 226.931 23.9894 220.868 23.8004 214.805L23.3781 196.617C23.1008 184.491 22.9496 172.36 22.7479 160.234C22.5462 148.109 22.3824 135.983 22.3256 123.857C22.3256 117.795 22.2815 111.726 22.3887 105.663L22.4958 96.5688C22.4958 93.5374 22.5966 90.506 23.9516 87.4746L25.0482 87.4998Z" fill="#FFB651"/>
<path d="M25.0419 87.4053C26.9011 90.1531 27.5313 93.1214 28.0544 96.1087L29.7371 105.045C30.8967 111.001 31.9051 116.975 32.9639 122.95C35.0058 134.924 36.928 146.898 38.8628 158.873C40.7976 170.847 42.7134 182.821 44.5348 194.796L47.2763 212.782C48.1397 218.788 49.0535 224.756 49.8854 230.794L49.6207 230.838C48.3603 224.908 47.1502 218.965 45.9087 213.022L42.3353 195.186C39.9531 183.288 37.7032 171.37 35.4028 159.465C33.1025 147.56 30.8337 135.643 28.6657 123.713C27.6133 117.744 26.523 111.776 25.5713 105.789L24.0966 96.8145C23.5672 93.8273 23.145 90.8211 23.9516 87.6006L25.0419 87.4053Z" fill="#FFB651"/>
<path d="M25.0167 87.3105C27.3234 89.6991 28.4578 92.5099 29.4976 95.3585L32.6866 103.885C34.8608 109.557 36.8965 115.23 38.9888 120.958C43.079 132.372 47.0494 143.835 51.0324 155.293C55.0154 166.75 58.9858 178.208 62.8743 189.697L68.6913 206.934C70.582 212.694 72.5294 218.441 74.3633 224.221L74.1113 224.309C71.8298 218.687 69.6177 213.04 67.3678 207.406L60.7505 190.459C56.3389 179.16 52.0534 167.815 47.6985 156.49C43.3437 145.165 39.0645 133.802 34.8609 122.458C32.7874 116.786 30.6762 111.076 28.6973 105.341L25.6848 96.7576C24.6512 93.909 23.7122 91.0289 23.9454 87.7139L25.0167 87.3105Z" fill="#FFB651"/>
<path d="M24.9726 87.2227C27.6636 89.1701 29.2707 91.7414 30.7833 94.3694L35.4217 102.19C38.5728 107.39 41.5412 112.665 44.5726 117.915C50.5849 128.446 56.4838 139.046 62.3953 149.634C68.3068 160.222 74.2057 170.822 80.0416 181.46L88.7765 197.424C91.6503 202.768 94.5557 208.093 97.3917 213.457L97.1585 213.595C93.9317 208.453 90.7743 203.279 87.5791 198.117L78.1257 182.576C71.8235 172.215 65.6347 161.778 59.3828 151.392C53.131 141.006 46.9422 130.595 40.8227 120.095C37.7913 114.845 34.7285 109.615 31.7853 104.34L27.3296 96.4113C25.8108 93.7833 24.3865 91.1048 24.0461 87.8025L24.9726 87.2227Z" fill="#FFB651"/>
<path d="M24.9222 87.1406C27.9032 88.5964 29.9325 90.8527 31.8547 93.1719L37.8103 100.104C41.787 104.68 45.6503 109.35 49.5514 113.969C57.3032 123.297 64.9478 132.712 72.6113 142.115C80.2749 151.518 87.9195 160.927 95.5011 170.393L106.845 184.605C110.626 189.369 114.408 194.109 118.114 198.898L117.906 199.069C113.834 194.569 109.826 190.019 105.786 185.493L93.8184 171.824C85.8082 162.711 77.9052 153.516 69.9392 144.371C61.9731 135.227 54.0701 126.026 46.2301 116.774C42.3353 112.129 38.4027 107.509 34.5899 102.795L28.8233 95.7621C26.8759 93.4366 25.0042 91.048 24.0903 87.8591L24.9222 87.1406Z" fill="#FFB651"/>
<path d="M24.853 87.0713C28.0419 87.9851 30.4305 89.8569 32.756 91.8043L39.7893 97.5834C44.5034 101.365 49.1229 105.329 53.7677 109.224C63.0194 117.064 72.1828 124.979 81.3652 132.933C90.5476 140.886 99.7048 148.802 108.818 156.812L122.481 168.799C127.006 172.839 131.556 176.847 136.056 180.918L135.886 181.126C131.096 177.401 126.357 173.614 121.592 169.858L107.381 158.514C97.9275 150.951 88.5309 143.25 79.1027 135.624C69.6746 127.998 60.2842 120.309 50.9632 112.558C46.3184 108.656 41.6485 104.793 37.0982 100.816L30.1658 94.8861C27.8465 92.9387 25.5903 90.9094 24.1345 87.9536L24.853 87.0713Z" fill="#FFB651"/>
<path d="M24.7709 87.0215C28.0733 87.3618 30.7517 88.7861 33.3798 90.305L41.308 94.7606C46.6082 97.7038 51.8391 100.767 57.0636 103.798C67.538 109.918 77.943 116.144 88.3606 122.358C98.7782 128.572 109.158 134.799 119.544 141.101L135.085 150.554C140.247 153.75 145.421 156.907 150.564 160.134L150.425 160.367C145.062 157.531 139.711 154.626 134.392 151.752L118.429 143.023C107.79 137.2 97.2152 131.263 86.6022 125.377C75.9893 119.491 65.4582 113.592 54.9083 107.579C49.6585 104.548 44.3835 101.554 39.1841 98.4285L31.3631 93.8027C28.735 92.2902 26.1637 90.6516 24.2163 87.992L24.7709 87.0215Z" fill="#FFB651"/>
<path d="M24.6828 86.9773C27.9978 86.7442 30.8779 87.6832 33.7265 88.7168L42.3102 91.7292C48.0452 93.7081 53.7299 95.8194 59.4271 97.8928C70.8027 102.096 82.1152 106.42 93.4593 110.731C104.803 115.041 116.147 119.371 127.428 123.782L144.375 130.4C150.009 132.65 155.656 134.862 161.278 137.143L161.189 137.395C155.41 135.536 149.663 133.614 143.902 131.723L126.666 125.906C115.177 122.018 103.732 118.01 92.2555 114.064C80.7791 110.119 69.3469 106.086 57.9335 101.996C52.2615 99.9222 46.5264 97.8865 40.8607 95.6933L32.3527 92.4855C29.504 91.4456 26.6806 90.3112 24.3047 88.0046L24.6828 86.9773Z" fill="#FFB651"/>
<path d="M24.5881 86.9519C27.8086 86.1452 30.8148 86.5675 33.802 87.0968L42.7701 88.5716C48.7573 89.5232 54.7444 90.6135 60.6937 91.666C72.6239 93.8339 84.5351 96.1217 96.4464 98.4031C108.358 100.684 120.269 102.972 132.168 105.336L150.003 108.909C155.946 110.169 161.889 111.342 167.819 112.621L167.775 112.886C161.763 112.054 155.769 111.14 149.763 110.277L131.777 107.535C119.803 105.701 107.828 103.754 95.854 101.863C83.8797 99.9723 71.9054 98.006 59.9312 95.9641C53.9566 94.9053 47.9569 93.897 42.0265 92.7374L33.0899 91.0547C30.1026 90.5316 27.1343 89.9013 24.3865 88.0422L24.5881 86.9519Z" fill="#FFB651"/>
<path d="M24.4937 86.9455C27.525 85.5905 30.5564 85.4834 33.5878 85.4897L42.6819 85.3826C48.7447 85.2754 54.8138 85.3195 60.8765 85.3195C73.0021 85.3763 85.1276 85.5653 97.2531 85.7418C109.379 85.9183 121.51 86.1073 133.636 86.372L151.824 86.7943C157.887 86.9833 163.95 87.1283 170.013 87.3552V87.6199C163.95 87.8468 157.887 87.9917 151.824 88.1808L133.636 88.603C121.51 88.8803 109.379 89.0316 97.2531 89.2332C85.1276 89.4349 73.0021 89.5988 60.8765 89.6555C54.8138 89.6555 48.7447 89.6996 42.6819 89.5925L33.5878 89.4853C30.5564 89.4853 27.525 89.3845 24.4937 88.0295V86.9455Z" fill="#FFB651"/>
<path d="M24.3992 86.9519C27.147 85.0927 30.1153 84.4625 33.1026 83.9394L42.0392 82.2567C47.9948 81.0971 53.9693 80.0887 59.9438 79.0299C71.9181 76.988 83.8924 75.0658 95.8667 73.131C107.841 71.1962 119.815 69.2804 131.789 67.459L149.776 64.7175C155.782 63.8541 161.75 62.9403 167.788 62.1084L167.832 62.3731C161.902 63.6335 155.959 64.8436 150.016 66.0851L132.18 69.6585C120.282 72.0407 108.364 74.2906 96.4591 76.591C84.5541 78.8913 72.6366 81.1601 60.7064 83.3281C54.7382 84.3805 48.77 85.4708 42.7828 86.4225L33.8084 87.8972C30.8212 88.4266 27.815 88.8488 24.5945 88.0421L24.3992 86.9519Z" fill="#FFB651"/>
<path d="M24.3047 86.9765C26.6932 84.6699 29.504 83.5355 32.3527 82.4956L40.8796 79.3066C46.5516 77.1324 52.2236 75.0967 57.9524 73.0044C69.3657 68.9142 80.8295 64.9438 92.2807 60.9608C103.732 56.9778 115.202 53.0074 126.691 49.1189L143.928 43.3019C149.688 41.4112 155.436 39.4638 161.215 37.6299L161.303 37.882C155.681 40.1634 150.035 42.3755 144.4 44.6254L127.454 51.2427C116.154 55.6543 104.81 59.9398 93.4845 64.2947C82.1593 68.6495 70.7964 72.9288 59.4523 77.1324C53.7803 79.2058 48.0705 81.3171 42.3354 83.296L33.7518 86.3084C30.9031 87.342 28.023 88.281 24.708 88.0479L24.3047 86.9765Z" fill="#FFB651"/>
<path d="M24.2163 87.0207C26.1637 84.3296 28.735 82.7226 31.3631 81.21L39.1841 76.5716C44.3835 73.4204 49.6585 70.4521 54.9083 67.4207C65.4393 61.4084 76.0397 55.5095 86.6275 49.5979C97.2152 43.6864 107.816 37.7875 118.454 31.9516L134.417 23.2167C139.762 20.3429 145.087 17.4376 150.45 14.6016L150.589 14.8347C145.446 18.0615 140.272 21.2189 135.111 24.4142L119.569 33.8675C109.208 40.1698 98.7719 46.3586 88.3858 52.6104C77.9997 58.8622 67.5884 65.0511 57.0888 71.1705C51.8391 74.2019 46.6082 77.2648 41.3332 80.208L33.405 84.6637C30.777 86.1825 28.0985 87.6068 24.7961 87.9471L24.2163 87.0207Z" fill="#FFB651"/>
<path d="M24.1345 87.0712C25.5903 84.0903 27.8465 82.0609 30.1658 80.1388L37.0982 74.1831C41.6737 70.2064 46.3436 66.3431 50.9632 62.442C60.2905 54.6903 69.7061 47.0456 79.109 39.3821C88.512 31.7186 97.9212 24.074 107.387 16.4924L121.599 5.14831C126.363 1.36696 131.103 -2.4144 135.892 -6.12012L136.062 -5.91214C131.563 -1.84089 127.012 2.16734 122.487 6.20708L108.818 18.1751C99.7048 26.1852 90.5098 34.0882 81.3652 42.0543C72.2207 50.0203 63.0194 57.9233 53.7677 65.7633C49.1229 69.6581 44.5034 73.5907 39.7893 77.4036L32.756 83.1701C30.4305 85.1175 28.0419 86.9893 24.853 87.9031L24.1345 87.0712Z" fill="#FFB651"/>
<path d="M24.0652 87.1407C24.979 83.9517 26.8508 81.5632 28.7982 79.2377L34.5773 72.2043C38.3587 67.4903 42.3228 62.8707 46.2176 58.226C54.0576 48.9743 61.9732 39.8108 69.9266 30.6284C77.8801 21.446 85.7957 12.2889 93.8059 3.17581L105.793 -10.4875C109.832 -15.0125 113.841 -19.5627 117.912 -24.0625L118.12 -23.8923C114.395 -19.1026 110.608 -14.3633 106.852 -9.59884L95.5075 4.61273C87.9448 14.0661 80.2434 23.4628 72.6177 32.8909C64.992 42.3191 57.3032 51.7031 49.5515 61.0304C45.6504 65.6752 41.7871 70.3452 37.8104 74.8954L31.88 81.8279C29.9326 84.1471 27.9033 86.4033 24.9475 87.8591L24.0652 87.1407Z" fill="#FFB651"/>
<path d="M24.0146 87.2226C24.355 83.9202 25.7793 81.2417 27.2981 78.6137L31.7538 70.6855C34.6969 65.3853 37.7598 60.1544 40.7912 54.9299C46.9107 44.4555 53.1373 34.0442 59.3513 23.6329C65.5654 13.2216 71.792 2.83546 78.0942 -7.55065L87.5476 -23.092C90.7428 -28.2535 93.9003 -33.4277 97.127 -38.5703L97.3602 -38.4317C94.5242 -33.0684 91.6189 -27.7178 88.745 -22.3987L80.0164 -6.43515C74.1931 4.20304 68.2564 14.7782 62.3701 25.3912C56.4838 36.0042 50.5849 46.5352 44.5726 57.0852C41.5412 62.335 38.5476 67.61 35.4217 72.8093L30.7959 80.6304C29.2833 83.2585 27.6447 85.8298 24.9852 87.7772L24.0146 87.2226Z" fill="#FFB651"/>
<path d="M23.9705 87.3108C23.7373 83.9958 24.6763 81.1157 25.7099 78.267L28.7224 69.6834C30.7013 63.9483 32.8125 58.2637 34.886 52.5665C39.0896 41.2224 43.4129 29.8784 47.7237 18.5343C52.0344 7.19028 56.3641 -4.15378 60.7756 -15.4348L67.393 -32.3815C69.6429 -38.0158 71.855 -43.6626 74.1364 -49.2842L74.3885 -49.1959C72.5293 -43.4168 70.6071 -37.6691 68.7165 -31.9089L62.8743 -14.6785C58.9858 -3.18953 54.9775 8.25536 51.0323 19.7318C47.0871 31.2081 43.0789 42.6467 38.9888 54.0601C36.9153 59.7321 34.8797 65.4672 32.6865 71.1329L29.4787 79.6409C28.4388 82.4895 27.3044 85.3129 24.9978 87.6889L23.9705 87.3108Z" fill="#FFB651"/>
<path d="M23.9453 87.4055C23.1386 84.185 23.5609 81.1788 24.0903 78.1916L25.565 69.2235C26.5166 63.2363 27.6069 57.2492 28.6594 51.2999C30.8273 39.3697 33.1151 27.4585 35.3965 15.5472C37.6779 3.63599 39.9656 -8.27526 42.3289 -20.1739L45.9212 -38.0156C47.1817 -43.9586 48.3539 -49.9016 49.6333 -55.832L49.8979 -55.7879C49.0661 -49.7756 48.1522 -43.8136 47.2888 -37.7761L44.5473 -19.7895C42.7134 -7.8152 40.766 4.15907 38.8753 16.1333C36.9847 28.1076 35.0183 40.0819 32.9764 52.0562C31.9176 58.0307 30.9093 64.0304 29.7497 69.9608L28.067 78.8974C27.5439 81.8847 26.9137 84.8531 25.0545 87.6008L23.9453 87.4055Z" fill="#FFB651"/>
</g>
<path d="M91.6125 -12.0754C79.1467 20.0282 93.4465 54.5582 140.537 48.1615C113.551 65.3603 96.0556 98.8441 142.1 124.683C103.366 117.587 77.2623 152.835 95.23 186.981C71.4895 163.94 38.8627 174.143 30.1656 203.94C22.3067 174.118 -14.3723 163.348 -38.3398 185.185C-32.4535 147.813 -64.721 120.171 -85.9848 118.381C-64.6265 103.886 -60.7317 69.6647 -88.5813 52.718C-50.5472 56.7262 -30.8086 29.6013 -52.3182 -9.24572C-19.7167 16.7132 10.7988 1.87775 17.1893 -34.4043C29.3337 0.346298 67.8342 11.829 91.6125 -12.0754Z" fill="#FFB651"/>
<path opacity="0.7" d="M91.6125 -12.0754C79.1467 20.0282 93.4465 54.5582 140.537 48.1615C113.551 65.3603 96.0556 98.8441 142.1 124.683C103.366 117.587 77.2623 152.835 95.23 186.981C71.4895 163.94 38.8627 174.143 30.1656 203.94C22.3067 174.118 -14.3723 163.348 -38.3398 185.185C-32.4535 147.813 -64.721 120.171 -85.9848 118.381C-64.6265 103.886 -60.7317 69.6647 -88.5813 52.718C-50.5472 56.7262 -30.8086 29.6013 -52.3182 -9.24572C-19.7167 16.7132 10.7988 1.87775 17.1893 -34.4043C29.3337 0.346298 67.8342 11.829 91.6125 -12.0754Z" fill="#FFB651"/>
<path d="M82.6824 0.655298C74.7289 16.4613 87.3839 54.8546 123.017 54.4261C102.011 70.4842 100.48 99.4304 120.212 116.541C97.1965 119.553 74.729 151.588 83.2496 171.459C64.929 160.606 37.3062 169.789 30.5565 187.548C19.7859 168.906 -12.387 155.924 -31.5143 173.337C-26.5167 151.714 -49.6207 123.284 -71.4202 115.804C-55.1541 99.9598 -58.6077 68.7007 -71.2059 59.367C-50.6795 58.825 -30.1026 39.5402 -39.1401 7.17813C-15.8406 18.9948 12.8346 6.07523 18.2671 -17.2998C27.3549 3.97028 67.9792 17.1168 82.6824 0.655298Z" fill="#FFB651"/>
<path opacity="0.95" d="M82.6824 0.655298C74.7289 16.4613 87.3839 54.8546 123.017 54.4261C102.011 70.4842 100.48 99.4304 120.212 116.541C97.1965 119.553 74.729 151.588 83.2496 171.459C64.929 160.606 37.3062 169.789 30.5565 187.548C19.7859 168.906 -12.387 155.924 -31.5143 173.337C-26.5167 151.714 -49.6207 123.284 -71.4202 115.804C-55.1541 99.9598 -58.6077 68.7007 -71.2059 59.367C-50.6795 58.825 -30.1026 39.5402 -39.1401 7.17813C-15.8406 18.9948 12.8346 6.07523 18.2671 -17.2998C27.3549 3.97028 67.9792 17.1168 82.6824 0.655298Z" fill="#FFB651"/>
<path opacity="0.1" d="M39.8018 -22.7449C46.9896 -25.2559 54.6278 -26.2157 62.2134 -25.5612C69.799 -24.9066 77.1599 -22.6524 83.8112 -18.9472C90.4626 -15.2419 96.2536 -10.1696 100.803 -4.0643C105.352 2.041 108.556 9.04078 110.204 16.474C112.721 27.8184 118.836 38.0463 127.636 45.6345C133.403 50.6038 138.052 56.7383 141.277 63.6342C144.501 70.5301 146.229 78.0308 146.345 85.6425C146.461 93.2542 144.963 100.804 141.95 107.795C138.938 114.786 134.478 121.06 128.865 126.202C120.298 134.056 114.497 144.468 112.328 155.886C110.907 163.364 107.917 170.456 103.557 176.696C99.1966 182.935 93.5642 188.181 87.0305 192.086C80.4968 195.992 73.21 198.47 65.6497 199.356C58.0894 200.242 50.4271 199.517 43.1672 197.229C32.084 193.738 20.17 193.919 9.19812 197.746C2.00959 200.259 -5.62987 201.22 -13.2169 200.567C-20.804 199.913 -28.1665 197.659 -34.8194 193.954C-41.4723 190.249 -47.2645 185.176 -51.8145 179.069C-56.3645 172.963 -59.569 165.961 -61.2169 158.527C-63.7341 147.182 -69.8483 136.954 -78.6489 129.366C-84.4179 124.399 -89.0692 118.266 -92.2966 111.372C-95.524 104.477 -97.2542 96.977 -97.3733 89.3653C-97.4924 81.7536 -95.9976 74.203 -92.9875 67.2108C-89.9774 60.2185 -85.5202 53.9433 -79.9094 48.7983C-71.342 40.9445 -65.5416 30.5328 -63.3723 19.1147C-61.9507 11.6365 -58.9614 4.54425 -54.6011 -1.69526C-50.2408 -7.93476 -44.6084 -13.18 -38.0747 -17.0857C-31.541 -20.9914 -24.2542 -23.469 -16.6939 -24.3553C-9.13358 -25.2416 -1.47128 -24.5167 5.78861 -22.2281C16.8854 -18.7277 28.8165 -18.909 39.8018 -22.7449Z" fill="#FFB651"/>
<path opacity="0.1" d="M8.25266 -1.61999L19.3068 -9.55452C23.341 -12.4564 27.9441 -14.4709 32.813 -15.4652C37.682 -16.4596 42.7063 -16.4112 47.5553 -15.3234C52.4042 -14.2356 56.9677 -12.1331 60.9453 -9.1541C64.9229 -6.17515 68.2244 -2.38742 70.6323 1.95968L77.2371 13.8709C80.9138 20.5057 86.6373 25.7739 93.5536 28.8892L105.969 34.4856C110.5 36.5274 114.546 39.506 117.842 43.2251C121.138 46.9442 123.609 51.3195 125.092 56.0627C126.574 60.8058 127.035 65.8093 126.444 70.7435C125.853 75.6777 124.223 80.4307 121.662 84.6893L114.647 96.3674C110.74 102.868 109.038 110.457 109.794 118.003L111.156 131.559C111.649 136.501 111.091 141.492 109.518 146.202C107.945 150.913 105.392 155.238 102.028 158.892C98.6644 162.546 94.5651 165.446 90.0001 167.402C85.435 169.359 80.5076 170.326 75.5418 170.242L61.9226 170.003C54.3375 169.87 46.9122 172.191 40.7533 176.62L29.6803 184.555C25.6462 187.457 21.0431 189.471 16.1741 190.465C11.3051 191.46 6.28077 191.411 1.43184 190.324C-3.4171 189.236 -7.98061 187.133 -11.9582 184.154C-15.9358 181.175 -19.2373 177.388 -21.6452 173.041L-28.25 161.129C-31.9267 154.494 -37.6502 149.226 -44.5665 146.111L-56.9819 140.515C-61.5125 138.473 -65.5592 135.494 -68.8553 131.775C-72.1513 128.056 -74.6221 123.681 -76.1047 118.938C-77.5873 114.194 -78.0482 109.191 -77.4569 104.257C-76.8657 99.3225 -75.2357 94.5695 -72.6745 90.3109L-65.6286 78.6769C-61.7215 72.1766 -60.0194 64.5877 -60.7758 57.0413L-62.1371 43.4852C-62.6369 38.5424 -62.0845 33.5498 -60.5162 28.8359C-58.9479 24.1219 -56.3994 19.7934 -53.0381 16.1351C-49.6769 12.4768 -45.5792 9.57167 -41.0146 7.61073C-36.45 5.64979 -31.522 4.67752 -26.5546 4.75788L-12.9355 4.99737C-5.3439 5.13465 2.08855 2.81338 8.25266 -1.61999Z" fill="#FFB651"/>
<path opacity="0.1" d="M55.4756 -3.49837C61.9796 -4.45127 68.6116 -4.01621 74.9354 -2.22182C81.2591 -0.427427 87.1312 2.68562 92.1654 6.91252C97.1996 11.1394 101.282 16.3843 104.143 22.3022C107.005 28.2201 108.581 34.6768 108.767 41.2476C109.048 51.2784 112.562 60.9499 118.788 68.8199C122.869 73.9766 125.811 79.9393 127.421 86.3155C129.03 92.6916 129.271 99.3363 128.127 105.812C126.982 112.288 124.479 118.448 120.781 123.886C117.084 129.324 112.276 133.918 106.675 137.363C98.1283 142.623 91.5098 150.504 87.8062 159.831C85.3797 165.941 81.6866 171.468 76.97 176.048C72.2534 180.627 66.6203 184.156 60.4414 186.402C54.2626 188.648 47.6782 189.56 41.1216 189.077C34.565 188.595 28.185 186.729 22.4015 183.603C13.5743 178.83 3.44032 177.039 -6.48806 178.498C-12.992 179.451 -19.624 179.016 -25.9478 177.221C-32.2715 175.427 -38.1436 172.314 -43.1778 168.087C-48.212 163.86 -52.2941 158.615 -55.1556 152.697C-58.0171 146.779 -59.593 140.323 -59.7799 133.752C-60.0608 123.721 -63.5756 114.05 -69.8004 106.18C-73.8814 101.023 -76.8236 95.0602 -78.4332 88.6841C-80.0429 82.308 -80.2834 75.6632 -79.139 69.1874C-77.9946 62.7116 -75.4912 56.5517 -71.7938 51.1135C-68.0963 45.6753 -63.2887 41.0821 -57.6875 37.6364C-49.1407 32.3767 -42.5222 24.496 -38.8186 15.1689C-36.3921 9.05875 -32.699 3.53183 -27.9824 -1.04805C-23.2658 -5.62793 -17.6327 -9.15692 -11.4538 -11.4027C-5.275 -13.6485 1.30943 -14.5601 7.86601 -14.0776C14.4226 -13.595 20.8026 -11.7293 26.5862 -8.60319C35.4133 -3.82998 45.5473 -2.03929 55.4756 -3.49837Z" fill="#FFB651"/>
<path d="M43.6337 13.411C28.9801 9.62535 13.5331 10.27 -0.754021 15.2635C-15.0412 20.257 -27.5267 29.375 -36.6318 41.4644C-45.7369 53.5538 -51.0525 68.0718 -51.9066 83.1823C-52.7607 98.2928 -49.1147 113.317 -41.4299 126.356C-33.745 139.394 -22.3664 149.861 -8.73296 156.432C4.90052 163.004 20.1765 165.385 35.1633 163.275C50.1501 161.164 64.1745 154.657 75.4631 144.577C86.7517 134.496 94.7975 121.294 98.583 106.64C103.659 86.9904 100.722 66.1291 90.4166 48.6452C80.1116 31.1614 63.2833 18.4873 43.6337 13.411Z" fill="#FFB651"/>
<path opacity="0.9" d="M43.6337 13.411C28.9801 9.62535 13.5331 10.27 -0.754021 15.2635C-15.0412 20.257 -27.5267 29.375 -36.6318 41.4644C-45.7369 53.5538 -51.0525 68.0718 -51.9066 83.1823C-52.7607 98.2928 -49.1147 113.317 -41.4299 126.356C-33.745 139.394 -22.3664 149.861 -8.73296 156.432C4.90052 163.004 20.1765 165.385 35.1633 163.275C50.1501 161.164 64.1745 154.657 75.4631 144.577C86.7517 134.496 94.7975 121.294 98.583 106.64C103.659 86.9904 100.722 66.1291 90.4166 48.6452C80.1116 31.1614 63.2833 18.4873 43.6337 13.411Z" fill="#FFB651"/>
<path d="M24.6261 164.388C18.0985 164.382 11.5977 163.552 5.27817 161.917C-13.5112 157.019 -29.7309 145.151 -40.0845 128.725C-50.4382 112.298 -54.149 92.5458 -50.4628 73.4816C-46.7767 54.4174 -35.9701 37.472 -20.2394 26.089C-4.50859 14.706 14.9661 9.73948 34.227 12.1988C53.4879 14.6582 71.0897 24.3589 83.4555 39.3295C95.8213 54.3001 102.023 73.4173 100.801 92.796C99.578 112.175 91.0229 130.361 76.8738 143.659C62.7247 156.957 44.0433 164.368 24.6261 164.388ZM24.3614 11.2432C4.91578 11.2337 -13.8033 18.6314 -27.989 31.9317C-42.1746 45.232 -50.7616 63.4362 -52.0036 82.8421C-53.2456 102.248 -47.0494 121.398 -34.675 136.399C-22.3006 151.399 -4.67735 161.122 14.6108 163.592C33.8989 166.062 53.4035 161.092 69.1579 149.693C84.9123 138.294 95.7335 121.323 99.4208 102.23C103.108 83.1372 99.3844 63.3568 89.0073 46.9116C78.6301 30.4663 62.3787 18.5911 43.558 13.701C37.2888 12.0735 30.8384 11.2476 24.3614 11.2432Z" fill="#FFB651"/>
<path opacity="0.3" d="M24.6261 164.388C18.0985 164.382 11.5977 163.552 5.27817 161.917C-13.5112 157.019 -29.7309 145.151 -40.0845 128.725C-50.4382 112.298 -54.149 92.5458 -50.4628 73.4816C-46.7767 54.4174 -35.9701 37.472 -20.2394 26.089C-4.50859 14.706 14.9661 9.73948 34.227 12.1988C53.4879 14.6582 71.0897 24.3589 83.4555 39.3295C95.8213 54.3001 102.023 73.4173 100.801 92.796C99.578 112.175 91.0229 130.361 76.8738 143.659C62.7247 156.957 44.0433 164.368 24.6261 164.388ZM24.3614 11.2432C4.91578 11.2337 -13.8033 18.6314 -27.989 31.9317C-42.1746 45.232 -50.7616 63.4362 -52.0036 82.8421C-53.2456 102.248 -47.0494 121.398 -34.675 136.399C-22.3006 151.399 -4.67735 161.122 14.6108 163.592C33.8989 166.062 53.4035 161.092 69.1579 149.693C84.9123 138.294 95.7335 121.323 99.4208 102.23C103.108 83.1372 99.3844 63.3568 89.0073 46.9116C78.6301 30.4663 62.3787 18.5911 43.558 13.701C37.2888 12.0735 30.8384 11.2476 24.3614 11.2432Z" fill="#FFB651"/>
<path opacity="0.6" d="M-16.7357 29.2863C11.4732 9.43424 24.689 28.7695 12.7273 47.9536C0.765671 67.1376 -26.1512 81.3933 -33.0522 73.8432C-39.9531 66.2931 -37.7032 44.0462 -16.7357 29.2863Z" fill="#FFB651"/>
<path opacity="0.15" d="M5.35374 161.589C-7.40255 158.293 -19.0918 151.759 -28.5826 142.621C-38.0734 133.482 -45.0444 122.048 -48.8207 109.425C-52.597 96.8028 -53.0508 83.4191 -50.1381 70.5698C-47.2255 57.7204 -41.0451 45.8406 -32.195 36.0801C-43.7597 52.3273 -54.984 100.924 -14.0005 131.95C21.1535 158.564 82.26 146.004 97.0262 111.89C90.8595 130.229 77.975 145.551 60.966 154.772C43.9571 163.993 24.0864 166.429 5.35374 161.589Z" fill="#FFB651"/>
<path opacity="0.6" d="M19.5387 105.462C25.619 103.301 29.2239 97.8238 27.5906 93.2292C25.9572 88.6345 19.704 86.662 13.6237 88.8235C7.54334 90.985 3.93838 96.462 5.57176 101.057C7.20514 105.651 13.4583 107.624 19.5387 105.462Z" fill="#FFB651"/>
<path opacity="0.6" d="M97.3602 81.6331C91.4802 83.7758 84.5666 81.9482 81.9134 77.5618C79.2601 73.1755 81.8756 67.8816 87.7555 65.7388C91.0128 64.5711 94.5718 64.5556 97.8391 65.6947C99.2172 70.3204 100.154 75.0661 100.637 79.8685C99.6383 80.6156 98.5339 81.2103 97.3602 81.6331Z" fill="#FFB651"/>
<path d="M34.1739 85.4397C35.031 89.1202 31.1929 86.133 27.5124 86.9838C23.8319 87.8346 21.7018 92.2083 20.8446 88.5278C20.4953 86.7829 20.8393 84.9704 21.8037 83.4748C22.7682 81.9793 24.2773 80.9181 26.0109 80.5165C27.7446 80.1148 29.5666 80.4042 31.0905 81.3233C32.6144 82.2424 33.7203 83.7189 34.1739 85.4397Z" fill="#263238"/>
<path d="M84.3082 68.2779C86.4195 71.4291 81.7873 69.9921 78.6362 72.1034C75.4851 74.2147 75.0754 79.0359 72.9642 75.9289C72.0102 74.4241 71.6806 72.6068 72.0454 70.8629C72.4102 69.119 73.4406 67.5861 74.9177 66.5899C76.3947 65.5937 78.2021 65.2127 79.9556 65.5279C81.7091 65.8431 83.2706 66.8297 84.3082 68.2779Z" fill="#263238"/>
<path d="M40.8796 93.7264C42.9215 88.5271 48.1713 91.59 56.6982 89.3779C65.0487 87.2099 68.0422 81.04 71.7606 85.3507C74.8613 88.9493 73.8025 100.003 60.0195 104.528C48.228 108.404 39.0582 98.3523 40.8796 93.7264Z" fill="#37474F"/>
<path d="M56.6918 89.3913C51.1521 90.8282 46.999 90.0215 44.2134 90.7463L45.5873 94.4142C45.5873 94.4142 49.085 95.7566 55.841 94.181C63.9394 92.2903 68.1178 87.9103 68.1178 87.9103L67.6703 84.1289C65.1305 85.0238 61.992 87.9985 56.6918 89.3913Z" fill="#FAFAFA"/>
<path d="M44.1883 98.8447C43.6365 99.0984 43.098 99.3803 42.575 99.6892C44.638 102.182 47.4164 103.982 50.535 104.845C53.6535 105.708 56.9619 105.594 60.0133 104.517C61.8833 103.917 63.6786 103.105 65.3639 102.097C62.5188 99.5792 59.0092 97.9339 55.2542 97.3572C51.4993 96.7806 47.6577 97.297 44.1883 98.8447Z" fill="#FFA8A7"/>
<path d="M21.771 87.721C21.5492 88.2752 21.2637 88.8018 20.9202 89.2902C20.4274 89.8461 19.7611 90.2192 19.0296 90.349C18.2725 90.4941 17.4937 90.4812 16.7418 90.3112C16.6662 90.3112 16.5591 90.3112 16.5591 90.3742C16.561 90.3907 16.5665 90.4066 16.5752 90.4208C16.5839 90.4349 16.5956 90.447 16.6095 90.4561C16.9653 90.7914 17.3982 91.0338 17.87 91.162C18.3241 91.2806 18.7941 91.3273 19.2627 91.3006C19.7624 91.2848 20.2544 91.1736 20.7123 90.9729C21.3065 90.7145 21.8218 90.3036 22.2059 89.7818C22.5685 89.3068 22.8438 88.7712 23.0189 88.1999C23.2332 87.5004 22.0988 87.0907 21.771 87.721Z" fill="#263238"/>
<path d="M21.8847 86.3725C21.468 86.7976 21.0027 87.172 20.4982 87.488C19.8372 87.818 19.0824 87.9093 18.3617 87.7464C17.6057 87.5928 16.8906 87.2814 16.2631 86.8325C16.2001 86.7884 16.0992 86.7506 16.074 86.8325C16.0663 86.8471 16.0623 86.8633 16.0623 86.8798C16.0623 86.8963 16.0663 86.9125 16.074 86.9271C16.2815 87.3759 16.5951 87.7674 16.9878 88.0678C17.3683 88.3584 17.7942 88.5841 18.2483 88.7358C18.7142 88.9156 19.2112 89.0012 19.7104 88.9879C20.3586 88.9804 20.9934 88.8022 21.5507 88.4711C22.0696 88.1735 22.5289 87.7825 22.9057 87.3178C23.3279 86.7317 22.433 85.9187 21.8847 86.3725Z" fill="#263238"/>
<path d="M23.2333 85.1686C22.691 85.4142 22.1221 85.5961 21.538 85.7106C20.8034 85.7784 20.0677 85.5939 19.452 85.1876C18.8059 84.7659 18.2526 84.217 17.826 83.5742C17.7819 83.5112 17.6999 83.4418 17.6495 83.4985C17.6418 83.512 17.6377 83.5272 17.6377 83.5427C17.6377 83.5582 17.6418 83.5734 17.6495 83.5868C17.6761 84.08 17.8255 84.5588 18.0844 84.9796C18.3294 85.3817 18.638 85.7414 18.9982 86.0447C19.367 86.3769 19.7944 86.6376 20.2586 86.8135C20.8637 87.032 21.515 87.0906 22.1493 86.9837C22.7407 86.8937 23.3108 86.6973 23.832 86.4039C24.4938 86.0194 23.9266 84.9418 23.2333 85.1686Z" fill="#263238"/>
<path d="M83.6403 68.4487C84.2066 68.6325 84.7925 68.7489 85.3861 68.7953C86.1227 68.7734 86.8307 68.5049 87.3965 68.0327C87.9927 67.5422 88.48 66.9326 88.8271 66.2429C88.8649 66.1735 88.9342 66.0979 88.9972 66.142C89.0095 66.1723 89.0095 66.2062 88.9972 66.2366C89.0251 66.7291 88.9298 67.2207 88.7199 67.6672C88.522 68.0943 88.2584 68.4877 87.9385 68.8331C87.6083 69.2076 87.2079 69.5138 86.7599 69.7343C86.177 70.0347 85.5238 70.1719 84.8693 70.1314C84.2736 70.1049 83.6871 69.9748 83.1361 69.7469C82.5248 69.4381 82.9471 68.3037 83.6403 68.4487Z" fill="#263238"/>
<path d="M82.5312 67.673C83.125 67.6245 83.7109 67.5061 84.2769 67.3201C84.9486 67.017 85.4975 66.4949 85.8336 65.8391C86.1934 65.1573 86.408 64.4084 86.4638 63.6396C86.4638 63.564 86.5016 63.4631 86.5773 63.4883C86.6529 63.5135 86.6277 63.5261 86.6403 63.5576C86.8549 64.0008 86.9566 64.49 86.9365 64.982C86.9188 65.4534 86.8274 65.9191 86.6655 66.3622C86.5001 66.8245 86.2501 67.2519 85.9281 67.6226C85.5074 68.1162 84.964 68.4901 84.3526 68.7066C83.7926 68.9172 83.1989 69.024 82.6005 69.0217C81.8821 69.0154 81.8443 67.8054 82.5312 67.673Z" fill="#263238"/>
<path d="M80.7288 67.9633C81.2652 67.7025 81.7688 67.3788 82.2287 66.999C82.7454 66.476 83.0716 65.7947 83.1551 65.0642C83.2437 64.298 83.1751 63.5217 82.9535 62.7828C82.9535 62.7072 82.9534 62.6001 83.0039 62.5938C83.0198 62.5953 83.0352 62.6 83.0493 62.6075C83.0634 62.6151 83.0758 62.6254 83.0858 62.6379C83.4476 62.9734 83.7205 63.3935 83.8799 63.8605C84.0317 64.3073 84.1125 64.7752 84.1194 65.247C84.1391 65.7465 84.0621 66.2452 83.8925 66.7154C83.6783 67.3264 83.3066 67.8699 82.8148 68.291C82.3677 68.6894 81.8506 69.0014 81.2897 69.2111C80.5838 69.4443 80.1237 68.3351 80.7288 67.9633Z" fill="#263238"/>
</svg>
