<svg width="171" height="233" viewBox="0 0 171 233" fill="none" xmlns="http://www.w3.org/2000/svg">
<path d="M23.9392 87.5C22.5842 84.4686 22.4771 81.4372 22.4834 78.4059L22.3762 69.3117C22.2691 63.2489 22.3132 57.1799 22.3132 51.1171C22.3699 38.9916 22.559 26.8661 22.7355 14.7406C22.9119 2.61503 23.101 -9.5168 23.3657 -21.6423L23.8005 -39.8054C23.9896 -45.8682 24.1345 -51.9309 24.3614 -58H24.6261C24.853 -51.9309 24.998 -45.8682 25.187 -39.8054L25.6093 -21.6171C25.8866 -9.49159 26.0378 2.64023 26.2395 14.7658C26.4412 26.8913 26.605 39.0168 26.6618 51.1423C26.6618 57.2051 26.7059 63.2742 26.5987 69.3369L26.4916 78.4311C26.4916 81.4624 26.3908 84.4938 25.0358 87.5252L23.9392 87.5Z" fill="#FFA500"/>
<path d="M23.9455 87.5945C22.0863 84.8468 21.4561 81.8784 20.933 78.8911L19.2503 69.9546C18.0907 63.9989 17.0824 58.0244 16.0236 52.0499C13.9817 40.0756 12.0595 28.1013 10.1247 16.1271C8.18989 4.15279 6.274 -7.82149 4.45265 -19.7958L1.71118 -37.7824C0.847773 -43.7884 -0.0660525 -49.7566 -0.897949 -55.7942L-0.633256 -55.8383C0.627194 -49.9079 1.83722 -43.9649 3.07877 -38.0219L6.65214 -20.1865C9.03439 -8.28786 11.2843 3.6297 13.5846 15.5346C15.8849 27.4396 18.1537 39.3571 20.3217 51.2873C21.3742 57.2555 22.4645 63.2238 23.4161 69.2109L24.8908 78.1853C25.4202 81.1726 25.8425 84.1787 25.0358 87.3992L23.9455 87.5945Z" fill="#FFA500"/>
<path d="M23.9706 87.6891C21.664 85.3005 20.5296 82.4897 19.4897 79.6411L16.3008 71.1141C14.1265 65.4421 12.0909 59.7386 9.99855 54.0414C5.90839 42.628 1.93797 31.1642 -2.04505 19.713C-6.02807 8.26183 -9.99848 -3.20826 -13.887 -14.6973L-19.7039 -31.9339C-21.5946 -37.6942 -23.542 -43.4418 -25.4075 -49.221L-25.1491 -49.3092C-22.8677 -43.6876 -20.6556 -38.0408 -18.4057 -32.4066L-11.7883 -15.4598C-7.37675 -4.1599 -3.09122 7.18414 1.26363 18.5093C5.61849 29.8344 9.89771 41.1974 14.1013 52.5414C16.1747 58.2134 18.286 63.9233 20.2649 69.6583L23.2774 78.242C24.311 81.0906 25.25 83.9707 25.0168 87.2857L23.9706 87.6891Z" fill="#FFA500"/>
<path d="M24.0148 87.7773C21.3238 85.83 19.7167 83.2586 18.2042 80.6306L13.5657 72.8095C10.4146 67.6102 7.44622 62.3352 4.41484 57.0854C-1.5975 46.5543 -7.49641 35.954 -13.4079 25.3662C-19.3194 14.7784 -25.2183 4.17802 -31.0542 -6.46017L-39.7891 -22.4238C-42.663 -27.7681 -45.5683 -33.0935 -48.4043 -38.4567L-48.1711 -38.5953C-44.9444 -33.4527 -41.7869 -28.2786 -38.5917 -23.117L-29.1383 -7.57567C-22.8361 2.78522 -16.6473 13.2217 -10.3954 23.6079C-4.14361 33.994 2.04519 44.4053 8.16467 54.9048C11.1961 60.1546 14.2589 65.3855 17.2021 70.6604L21.6578 78.5887C23.1766 81.2167 24.6009 83.8952 24.9413 87.1975L24.0148 87.7773Z" fill="#FFA500"/>
<path d="M24.065 87.8592C21.084 86.4034 19.0547 84.1472 17.1325 81.828L11.2021 74.927C7.2254 70.3516 3.36211 65.6816 -0.538979 61.0621C-8.29074 51.7284 -15.9354 42.3192 -23.5989 32.9162C-31.2624 23.5133 -38.9071 14.104 -46.495 4.63806L-57.839 -9.57351C-61.6204 -14.338 -65.4017 -19.0773 -69.1074 -23.867L-68.8995 -24.0372C-64.8282 -19.5374 -60.82 -14.9871 -56.7802 -10.4621L-44.8312 3.17594C-36.821 12.289 -28.918 21.484 -20.952 30.6285C-12.9859 39.7731 -5.0829 48.9744 2.7571 58.2261C6.65189 62.8708 10.5845 67.4904 14.3974 72.2044L20.1639 79.2378C22.1113 81.5633 23.9831 83.9518 24.8969 87.1408L24.065 87.8592Z" fill="#FFA500"/>
<path d="M24.1345 87.9286C20.9456 87.0148 18.5571 85.143 16.2315 83.1956L9.19822 77.4164C4.48414 73.6036 -0.135406 69.671 -4.78016 65.7762C-14.0319 57.9362 -23.1953 50.0206 -32.3777 42.0671C-41.5601 34.1137 -50.7172 26.2107 -59.8303 18.1753L-73.4936 6.20104C-78.0186 2.16129 -82.5688 -1.84694 -87.0686 -5.91819L-86.8984 -6.12616C-82.1087 -2.40153 -77.3694 1.38612 -72.6049 5.14226L-58.3934 16.4863C-48.94 24.049 -39.5434 31.7504 -30.1152 39.3761C-20.687 47.0018 -11.2967 54.6842 -1.96936 62.436C2.67539 66.3371 7.34536 70.2004 11.8956 74.1771L18.8217 80.1138C21.141 82.0612 23.3972 84.0905 24.853 87.0463L24.1345 87.9286Z" fill="#FFA500"/>
<path d="M24.2163 87.979C20.9139 87.6387 18.2354 86.2144 15.6074 84.6956L7.67916 80.2399C2.37897 77.2967 -2.85189 74.2338 -8.07645 71.2024C-18.5508 65.083 -28.9621 58.8563 -39.3734 52.6423C-49.7847 46.4283 -60.2213 40.2332 -70.5821 33.931L-86.1235 24.4776C-91.285 21.2823 -96.4592 18.1249 -101.602 14.8982L-101.463 14.665C-96.0999 17.501 -90.7493 20.4063 -85.4302 23.2802L-69.4666 32.0088C-58.8285 37.832 -48.2533 43.7688 -37.6403 49.6551C-27.0273 55.5414 -16.471 61.4088 -5.92109 67.4211C-0.671318 70.4525 4.60366 73.4461 9.80302 76.572L17.6241 81.1978C20.2521 82.7104 22.8235 84.3174 24.7709 87.0085L24.2163 87.979Z" fill="#FFA500"/>
<path d="M24.3046 88.0231C20.9896 88.2563 18.1095 87.3172 15.2609 86.2837L6.67723 83.2712C0.942184 81.2923 -4.74242 79.181 -10.4397 77.1076C-21.7837 72.904 -33.1278 68.5806 -44.4718 64.2699C-55.8158 59.9592 -67.1599 55.6295 -78.4409 51.218L-95.3877 44.6006C-101.022 42.3507 -106.669 40.1386 -112.29 37.8572L-112.202 37.6051C-106.423 39.4643 -100.675 41.3865 -94.915 43.2771L-77.6783 49.0941C-66.1893 52.9826 -54.7445 56.9908 -43.2681 60.936C-31.7917 64.8812 -20.3531 68.8895 -8.93974 72.9796C-3.26772 75.0531 2.46732 77.0887 8.13304 79.2819L16.6411 82.4897C19.4897 83.5296 22.3131 84.664 24.6891 86.9706L24.3046 88.0231Z" fill="#FFA500"/>
<path d="M24.3991 88.0483C21.1786 88.855 18.1725 88.4327 15.1852 87.9033L6.21712 86.4286C0.22998 85.477 -5.75716 84.3867 -11.7065 83.3342C-23.6366 81.1662 -35.5479 78.8785 -47.4591 76.5971C-59.3704 74.3157 -71.2816 72.028 -83.1803 69.6646L-101.022 66.0724C-106.965 64.8119 -112.908 63.6397 -118.838 62.3603L-118.794 62.0956C-112.782 62.9275 -106.82 63.8414 -100.782 64.7048L-82.7958 67.4462C-70.8216 69.2802 -58.8473 71.2276 -46.873 73.1183C-34.8987 75.0089 -22.9245 76.9752 -10.9502 79.0172C-4.97567 80.0759 1.02407 81.0843 6.95449 82.2439L15.8911 83.9266C18.8783 84.4497 21.8467 85.0799 24.5945 86.9391L24.3991 88.0483Z" fill="#FFA500"/>
<path d="M24.4937 88.0546C21.4623 89.4096 18.4309 89.5168 15.3995 89.5104L6.30539 89.6176C0.24263 89.7247 -5.82643 89.6806 -11.8892 89.6806C-24.0147 89.6239 -36.1402 89.4348 -48.2658 89.2584C-60.3913 89.0819 -72.5231 88.8928 -84.6486 88.6281L-102.812 88.1933C-108.874 88.0042 -114.937 87.8593 -121 87.6324V87.3677C-114.937 87.1408 -108.874 86.9958 -102.812 86.8068L-84.6234 86.3845C-72.4979 86.1072 -60.3661 85.956 -48.2406 85.7543C-36.115 85.5526 -23.9895 85.3888 -11.864 85.3321C-5.80122 85.3321 0.26783 85.2879 6.3306 85.3951L15.4247 85.5022C18.4561 85.5022 21.4875 85.6031 24.5189 86.958L24.4937 88.0546Z" fill="#FFA500"/>
<path d="M24.5881 88.0483C21.8403 89.9075 18.872 90.5377 15.8847 91.0608L6.94814 92.7435C0.992516 93.9031 -4.98202 94.9115 -10.9566 95.9703C-22.9308 98.0122 -34.9051 99.9344 -46.8794 101.869C-58.8536 103.804 -70.8279 105.72 -82.8022 107.541L-100.789 110.283C-106.795 111.146 -112.763 112.06 -118.801 112.892L-118.845 112.627C-112.914 111.367 -106.971 110.157 -101.028 108.915L-83.1929 105.342C-71.2943 102.959 -59.3767 100.71 -47.4718 98.4092C-35.5668 96.1089 -23.6493 93.8401 -11.7191 91.6721C-5.75089 90.6197 0.217339 89.5294 6.20447 88.5777L15.1789 87.103C18.1661 86.5736 21.1723 86.1514 24.3928 86.9581L24.5881 88.0483Z" fill="#FFA500"/>
<path d="M24.6828 88.0231C22.2943 90.3297 19.4835 91.4641 16.6348 92.504L8.10791 95.6929C2.43588 97.8672 -3.26765 99.9028 -8.96487 101.995C-20.3783 106.085 -31.842 110.056 -43.2932 114.039C-54.7444 118.022 -66.2145 121.992 -77.7035 125.881L-94.9401 131.698C-100.7 133.588 -106.448 135.536 -112.227 137.37L-112.315 137.118C-106.694 134.836 -101.047 132.624 -95.4128 130.374L-78.4661 123.757C-67.1661 119.345 -55.8221 115.06 -44.4969 110.705C-33.1718 106.35 -21.8089 102.071 -10.4648 97.8672C-4.79279 95.7938 0.917046 93.6825 6.65209 91.7036L15.2357 88.6911C18.0844 87.6575 20.9645 86.7185 24.2795 86.9517L24.6828 88.0231Z" fill="#FFA500"/>
<path d="M24.7709 87.9789C22.8235 90.67 20.2521 92.2771 17.6241 93.7896L9.80302 98.428C4.60366 101.579 -0.671318 104.548 -5.92109 107.579C-16.4521 113.591 -27.0525 119.49 -37.6403 125.402C-48.2281 131.313 -58.8285 137.212 -69.4666 143.048L-85.4302 151.783C-90.7745 154.657 -96.0999 157.562 -101.463 160.398L-101.602 160.165C-96.4592 156.938 -91.285 153.781 -86.1235 150.585L-70.5821 141.132C-60.2213 134.83 -49.7847 128.641 -39.3986 122.389C-29.0125 116.137 -18.6012 109.949 -8.10167 103.829C-2.8519 100.798 2.37897 97.7348 7.65395 94.7917L15.5822 90.336C18.2102 88.8171 20.8887 87.3928 24.191 87.0525L24.7709 87.9789Z" fill="#FFA500"/>
<path d="M24.853 87.9286C23.3971 90.9095 21.1409 92.9389 18.8217 94.861L11.9207 100.791C7.3453 104.768 2.67533 108.631 -1.94421 112.533C-11.2715 120.284 -20.6871 127.929 -30.09 135.592C-39.493 143.256 -48.9023 150.901 -58.3682 158.482L-72.5798 169.826C-77.3443 173.608 -82.0836 177.389 -86.8733 181.095L-87.0435 180.887C-82.5437 176.815 -77.9934 172.807 -73.4684 168.768L-59.8304 156.825C-50.7173 148.815 -41.5223 140.912 -32.3778 132.946C-23.2332 124.979 -14.0319 117.076 -4.78023 109.236C-0.135468 105.342 4.48407 101.409 9.19815 97.5962L16.2315 91.8297C18.557 89.8823 20.9455 88.0105 24.1345 87.0967L24.853 87.9286Z" fill="#FFA500"/>
<path d="M24.9222 87.8592C24.0083 91.0482 22.1366 93.4367 20.1892 95.7622L14.41 102.796C10.5972 107.51 6.66456 112.129 2.76978 116.774C-5.07022 126.026 -12.9858 135.189 -20.9393 144.371C-28.8927 153.554 -36.7957 162.711 -44.8311 171.824L-56.8054 185.487C-60.8451 190.012 -64.8533 194.563 -68.9246 199.062L-69.1326 198.892C-65.4079 194.103 -61.6203 189.363 -57.8642 184.599L-46.5201 170.387C-38.9574 160.934 -31.2498 151.537 -23.624 142.109C-15.9983 132.681 -8.31588 123.29 -0.56411 113.963C3.33698 109.318 7.20025 104.648 11.177 100.098L17.1074 93.172C19.0548 90.8528 21.0841 88.5966 24.0399 87.1407L24.9222 87.8592Z" fill="#FFA500"/>
<path d="M24.9727 87.7773C24.6324 91.0797 23.2081 93.7582 21.6893 96.3862L17.2336 104.314C14.2904 109.615 11.2275 114.845 8.19616 120.07C2.07667 130.544 -4.14995 140.956 -10.364 151.367C-16.578 161.778 -22.7731 172.215 -29.0753 182.576L-38.5287 198.117C-41.7239 203.279 -44.8814 208.453 -48.1081 213.595L-48.3413 213.457C-45.5053 208.094 -42.6 202.743 -39.7261 197.424L-30.9975 181.46C-25.1742 170.822 -19.2375 160.247 -13.3512 149.634C-7.46493 139.021 -1.59754 128.465 4.41481 117.915C7.44619 112.665 10.4398 107.39 13.5657 102.191L18.1915 94.3695C19.7041 91.7414 21.3111 89.1701 24.0022 87.2227L24.9727 87.7773Z" fill="#FFA500"/>
<path d="M25.0168 87.6891C25.25 91.004 24.311 93.8842 23.2774 96.7328L20.2649 105.316C18.286 111.051 16.1747 116.736 14.1013 122.433C9.89771 133.809 5.57437 145.121 1.26363 156.465C-3.0471 167.81 -7.37675 179.154 -11.7883 190.435L-18.4057 207.381C-20.6556 213.016 -22.8677 218.662 -25.1491 224.284L-25.4075 224.196C-23.5168 218.417 -21.6261 212.669 -19.7039 206.909L-13.887 189.672C-9.99848 178.183 -5.99025 166.738 -2.04505 155.268C1.90016 143.798 5.90839 132.347 9.99855 120.933C12.072 115.261 14.1076 109.526 16.3008 103.861L19.5086 95.3526C20.5485 92.504 21.6829 89.6806 23.9895 87.3046L25.0168 87.6891Z" fill="#FFA500"/>
<path d="M25.042 87.5945C25.8487 90.8149 25.4264 93.8211 24.8971 96.8084L23.4223 105.776C22.4707 111.764 21.3804 117.751 20.3279 123.7C18.16 135.63 15.8722 147.541 13.5908 159.453C11.3094 171.364 9.02169 183.275 6.65835 195.174L3.06607 213.016C1.80562 218.959 0.633405 224.902 -0.645951 230.832L-0.910645 230.788C-0.0787479 224.776 0.835078 218.782 1.69849 212.776L4.43996 194.789C6.27391 182.815 8.2213 170.841 10.112 158.867C12.0027 146.892 13.969 134.918 16.0109 122.944C17.0697 116.969 18.078 110.97 19.2376 105.039L20.9203 96.1025C21.4434 93.1152 22.0736 90.1469 23.9328 87.3991L25.042 87.5945Z" fill="#FFA500"/>
<path d="M25.0482 87.5C26.4032 90.5314 26.5103 93.5628 26.504 96.5941L26.6112 105.688C26.7183 111.751 26.6742 117.82 26.6742 123.883C26.6175 136.008 26.4284 148.134 26.2519 160.259C26.0755 172.385 25.8864 184.517 25.6217 196.642L25.1869 214.805C24.9978 220.868 24.8529 226.931 24.626 233H24.3613C24.1344 226.931 23.9894 220.868 23.8004 214.805L23.3781 196.617C23.1008 184.492 22.9496 172.36 22.7479 160.234C22.5462 148.109 22.3824 135.983 22.3256 123.858C22.3256 117.795 22.2815 111.726 22.3887 105.663L22.4958 96.5689C22.4958 93.5376 22.5966 90.5062 23.9516 87.4748L25.0482 87.5Z" fill="#FFA500"/>
<path d="M25.0419 87.4055C26.9011 90.1533 27.5313 93.1217 28.0544 96.1089L29.7371 105.046C30.8967 111.001 31.9051 116.976 32.9639 122.95C35.0058 134.924 36.928 146.899 38.8628 158.873C40.7976 170.847 42.7134 182.822 44.5348 194.796L47.2763 212.782C48.1397 218.788 49.0535 224.757 49.8854 230.794L49.6207 230.838C48.3603 224.908 47.1502 218.965 45.9087 213.022L42.3353 195.187C39.9531 183.288 37.7032 171.37 35.4028 159.465C33.1025 147.56 30.8337 135.643 28.6657 123.713C27.6133 117.745 26.523 111.776 25.5713 105.789L24.0966 96.8148C23.5672 93.8275 23.145 90.8213 23.9516 87.6009L25.0419 87.4055Z" fill="#FFA500"/>
<path d="M25.0167 87.3109C27.3234 89.6995 28.4578 92.5103 29.4976 95.3589L32.6866 103.886C34.8608 109.558 36.8965 115.23 38.9888 120.959C43.079 132.372 47.0494 143.836 51.0324 155.293C55.0154 166.751 58.9858 178.208 62.8743 189.697L68.6913 206.934C70.582 212.694 72.5294 218.442 74.3633 224.221L74.1113 224.309C71.8298 218.688 69.6177 213.041 67.3678 207.407L60.7505 190.46C56.3389 179.16 52.0534 167.816 47.6985 156.491C43.3437 145.166 39.0645 133.803 34.8609 122.459C32.7874 116.787 30.6762 111.077 28.6973 105.342L25.6848 96.758C24.6512 93.9094 23.7122 91.0292 23.9454 87.7143L25.0167 87.3109Z" fill="#FFA500"/>
<path d="M24.9726 87.2227C27.6636 89.1701 29.2707 91.7414 30.7833 94.3695L35.4217 102.191C38.5728 107.39 41.5412 112.665 44.5726 117.915C50.5849 128.446 56.4838 139.046 62.3953 149.634C68.3068 160.222 74.2057 170.822 80.0416 181.46L88.7765 197.424C91.6503 202.768 94.5557 208.094 97.3917 213.457L97.1585 213.595C93.9317 208.453 90.7743 203.279 87.5791 198.117L78.1257 182.576C71.8235 172.215 65.6347 161.778 59.3828 151.392C53.131 141.006 46.9422 130.595 40.8227 120.095C37.7913 114.845 34.7285 109.615 31.7853 104.34L27.3296 96.4114C25.8108 93.7834 24.3865 91.1049 24.0461 87.8025L24.9726 87.2227Z" fill="#FFA500"/>
<path d="M24.9222 87.1407C27.9032 88.5966 29.9325 90.8528 31.8547 93.172L37.8103 100.104C41.787 104.68 45.6503 109.35 49.5514 113.969C57.3032 123.297 64.9478 132.712 72.6113 142.115C80.2749 151.518 87.9195 160.927 95.5011 170.393L106.845 184.605C110.626 189.369 114.408 194.109 118.114 198.899L117.906 199.069C113.834 194.569 109.826 190.019 105.786 185.494L93.8184 171.824C85.8082 162.711 77.9052 153.516 69.9392 144.371C61.9731 135.227 54.0701 126.026 46.2301 116.774C42.3353 112.129 38.4027 107.51 34.5899 102.796L28.8233 95.7622C26.8759 93.4367 25.0042 91.0481 24.0903 87.8592L24.9222 87.1407Z" fill="#FFA500"/>
<path d="M24.853 87.0714C28.0419 87.9852 30.4305 89.857 32.756 91.8044L39.7893 97.5836C44.5034 101.365 49.1229 105.329 53.7677 109.224C63.0194 117.064 72.1828 124.979 81.3652 132.933C90.5476 140.886 99.7048 148.802 108.818 156.812L122.481 168.799C127.006 172.839 131.556 176.847 136.056 180.918L135.886 181.126C131.096 177.402 126.357 173.614 121.592 169.858L107.381 158.514C97.9275 150.951 88.5309 143.25 79.1027 135.624C69.6746 127.998 60.2842 120.309 50.9632 112.558C46.3184 108.657 41.6485 104.793 37.0982 100.817L30.1658 94.8862C27.8465 92.9388 25.5903 90.9095 24.1345 87.9537L24.853 87.0714Z" fill="#FFA500"/>
<path d="M24.7709 87.0211C28.0733 87.3614 30.7517 88.7857 33.3798 90.3045L41.308 94.7602C46.6082 97.7034 51.8391 100.766 57.0636 103.798C67.538 109.917 77.943 116.144 88.3606 122.358C98.7782 128.572 109.158 134.798 119.544 141.101L135.085 150.554C140.247 153.749 145.421 156.907 150.564 160.133L150.425 160.367C145.062 157.531 139.711 154.625 134.392 151.751L118.429 143.023C107.79 137.2 97.2152 131.263 86.6022 125.377C75.9893 119.49 65.4582 113.591 54.9083 107.579C49.6585 104.548 44.3835 101.554 39.1841 98.4281L31.3631 93.8023C28.735 92.2897 26.1637 90.6511 24.2163 87.9916L24.7709 87.0211Z" fill="#FFA500"/>
<path d="M24.6828 86.9769C27.9978 86.7437 30.8779 87.6828 33.7265 88.7163L42.3102 91.7288C48.0452 93.7077 53.7299 95.819 59.4271 97.8924C70.8027 102.096 82.1152 106.419 93.4593 110.73C104.803 115.041 116.147 119.37 127.428 123.782L144.375 130.399C150.009 132.649 155.656 134.861 161.278 137.143L161.189 137.395C155.41 135.536 149.663 133.614 143.902 131.723L126.666 125.906C115.177 122.017 103.732 118.009 92.2555 114.064C80.7791 110.119 69.3469 106.085 57.9335 101.995C52.2615 99.9217 46.5264 97.8861 40.8607 95.6929L32.3527 92.4851C29.504 91.4452 26.6806 90.3108 24.3047 88.0042L24.6828 86.9769Z" fill="#FFA500"/>
<path d="M24.5881 86.9516C27.8086 86.145 30.8148 86.5672 33.802 87.0966L42.7701 88.5713C48.7573 89.523 54.7444 90.6132 60.6937 91.6657C72.6239 93.8337 84.5351 96.1214 96.4464 98.4028C108.358 100.684 120.269 102.972 132.168 105.335L150.003 108.909C155.946 110.169 161.889 111.341 167.819 112.621L167.775 112.885C161.763 112.053 155.769 111.14 149.763 110.276L131.777 107.535C119.803 105.701 107.828 103.753 95.854 101.863C83.8797 99.9721 71.9054 98.0058 59.9312 95.9639C53.9566 94.9051 47.9569 93.8967 42.0265 92.7371L33.0899 91.0544C30.1026 90.5313 27.1343 89.9011 24.3865 88.0419L24.5881 86.9516Z" fill="#FFA500"/>
<path d="M24.4937 86.9454C27.525 85.5904 30.5564 85.4833 33.5878 85.4896L42.6819 85.3824C48.7447 85.2753 54.8138 85.3194 60.8765 85.3194C73.0021 85.3761 85.1276 85.5652 97.2531 85.7417C109.379 85.9181 121.51 86.1072 133.636 86.3719L151.824 86.7942C157.887 86.9832 163.95 87.1282 170.013 87.3551V87.6197C163.95 87.8466 157.887 87.9916 151.824 88.1806L133.636 88.6029C121.51 88.8802 109.379 89.0314 97.2531 89.2331C85.1276 89.4348 73.0021 89.5987 60.8765 89.6554C54.8138 89.6554 48.7447 89.6995 42.6819 89.5924L33.5878 89.4852C30.5564 89.4852 27.525 89.3844 24.4937 88.0294V86.9454Z" fill="#FFA500"/>
<path d="M24.3992 86.9517C27.147 85.0925 30.1153 84.4623 33.1026 83.9392L42.0392 82.2565C47.9948 81.0969 53.9693 80.0885 59.9438 79.0297C71.9181 76.9878 83.8924 75.0656 95.8667 73.1308C107.841 71.1961 119.815 69.2802 131.789 67.4588L149.776 64.7173C155.782 63.8539 161.75 62.9401 167.788 62.1082L167.832 62.3729C161.902 63.6334 155.959 64.8434 150.016 66.0849L132.18 69.6583C120.282 72.0406 108.364 74.2905 96.4591 76.5908C84.5541 78.8911 72.6366 81.1599 60.7064 83.3279C54.7382 84.3804 48.77 85.4706 42.7828 86.4223L33.8084 87.897C30.8212 88.4264 27.815 88.8486 24.5945 88.042L24.3992 86.9517Z" fill="#FFA500"/>
<path d="M24.3047 86.977C26.6932 84.6703 29.504 83.5359 32.3527 82.4961L40.8796 79.3071C46.5516 77.1329 52.2236 75.0972 57.9524 73.0049C69.3657 68.9147 80.8295 64.9443 92.2807 60.9613C103.732 56.9783 115.202 53.0079 126.691 49.1194L143.928 43.3024C149.688 41.4117 155.436 39.4643 161.215 37.6304L161.303 37.8825C155.681 40.1639 150.035 42.376 144.4 44.6259L127.454 51.2432C116.154 55.6548 104.81 59.9403 93.4845 64.2952C82.1593 68.65 70.7964 72.9293 59.4523 77.1329C53.7803 79.2063 48.0705 81.3176 42.3354 83.2965L33.7518 86.3089C30.9031 87.3425 28.023 88.2815 24.708 88.0484L24.3047 86.977Z" fill="#FFA500"/>
<path d="M24.2163 87.0211C26.1637 84.33 28.735 82.7229 31.3631 81.2104L39.1841 76.5719C44.3835 73.4208 49.6585 70.4524 54.9083 67.4211C65.4393 61.4087 76.0397 55.5098 86.6275 49.5983C97.2152 43.6868 107.816 37.7879 118.454 31.952L134.417 23.2171C139.762 20.3433 145.087 17.4379 150.45 14.6019L150.589 14.8351C145.446 18.0619 140.272 21.2193 135.111 24.4145L119.569 33.8679C109.208 40.1701 98.7719 46.359 88.3858 52.6108C77.9997 58.8626 67.5884 65.0514 57.0888 71.1709C51.8391 74.2023 46.6082 77.2652 41.3332 80.2083L33.405 84.664C30.777 86.1829 28.0985 87.6072 24.7961 87.9475L24.2163 87.0211Z" fill="#FFA500"/>
<path d="M24.1345 87.0715C25.5903 84.0905 27.8465 82.0612 30.1658 80.139L37.0982 74.1834C41.6737 70.2067 46.3436 66.3434 50.9632 62.4423C60.2905 54.6905 69.7061 47.0459 79.109 39.3824C88.512 31.7188 97.9212 24.0742 107.387 16.4926L121.599 5.14855C126.363 1.3672 131.103 -2.41415 135.892 -6.11987L136.062 -5.9119C131.563 -1.84065 127.012 2.16759 122.487 6.20733L108.818 18.1753C99.7048 26.1855 90.5098 34.0885 81.3652 42.0545C72.2207 50.0206 63.0194 57.9236 53.7677 65.7636C49.1229 69.6584 44.5034 73.591 39.7893 77.4038L32.756 83.1704C30.4305 85.1178 28.0419 86.9895 24.853 87.9034L24.1345 87.0715Z" fill="#FFA500"/>
<path d="M24.0652 87.1407C24.979 83.9518 26.8508 81.5632 28.7982 79.2377L34.5773 72.2044C38.3587 67.4903 42.3228 62.8708 46.2176 58.226C54.0576 48.9743 61.9732 39.8108 69.9266 30.6285C77.8801 21.4461 85.7957 12.2889 93.8059 3.17587L105.793 -10.4874C109.832 -15.0124 113.841 -19.5626 117.912 -24.0624L118.12 -23.8923C114.395 -19.1026 110.608 -14.3633 106.852 -9.59878L95.5075 4.61279C87.9448 14.0662 80.2434 23.4628 72.6177 32.891C64.992 42.3191 57.3032 51.7032 49.5515 61.0305C45.6504 65.6753 41.7871 70.3452 37.8104 74.8955L31.88 81.8279C29.9326 84.1472 27.9033 86.4034 24.9475 87.8592L24.0652 87.1407Z" fill="#FFA500"/>
<path d="M24.0146 87.2227C24.355 83.9203 25.7793 81.2419 27.2981 78.6138L31.7538 70.6856C34.6969 65.3854 37.7598 60.1545 40.7912 54.93C46.9107 44.4556 53.1373 34.0443 59.3513 23.633C65.5654 13.2217 71.792 2.83558 78.0942 -7.55052L87.5476 -23.0919C90.7428 -28.2534 93.9003 -33.4276 97.127 -38.5702L97.3602 -38.4315C94.5242 -33.0683 91.6189 -27.7177 88.745 -22.3986L80.0164 -6.43503C74.1931 4.20317 68.2564 14.7783 62.3701 25.3913C56.4838 36.0043 50.5849 46.5354 44.5726 57.0853C41.5412 62.3351 38.5476 67.6101 35.4217 72.8094L30.7959 80.6305C29.2833 83.2586 27.6447 85.8299 24.9852 87.7773L24.0146 87.2227Z" fill="#FFA500"/>
<path d="M23.9705 87.311C23.7373 83.996 24.6763 81.1159 25.7099 78.2673L28.7224 69.6836C30.7013 63.9486 32.8125 58.264 34.886 52.5667C39.0896 41.2227 43.4129 29.8786 47.7237 18.5346C52.0344 7.19052 56.3641 -4.15353 60.7756 -15.4346L67.393 -32.3813C69.6429 -38.0155 71.855 -43.6623 74.1364 -49.2839L74.3885 -49.1957C72.5293 -43.4165 70.6071 -37.6689 68.7165 -31.9086L62.8743 -14.6783C58.9858 -3.18929 54.9775 8.2556 51.0323 19.732C47.0871 31.2084 43.0789 42.647 38.9888 54.0603C36.9153 59.7324 34.8797 65.4674 32.6865 71.1331L29.4787 79.6412C28.4388 82.4898 27.3044 85.3132 24.9978 87.6891L23.9705 87.311Z" fill="#FFA500"/>
<path d="M23.9453 87.4055C23.1386 84.185 23.5609 81.1788 24.0903 78.1916L25.565 69.2235C26.5166 63.2363 27.6069 57.2492 28.6594 51.2999C30.8273 39.3697 33.1151 27.4585 35.3965 15.5472C37.6779 3.63599 39.9656 -8.27526 42.3289 -20.1739L45.9212 -38.0156C47.1817 -43.9586 48.3539 -49.9016 49.6333 -55.832L49.8979 -55.7879C49.0661 -49.7756 48.1522 -43.8136 47.2888 -37.7761L44.5473 -19.7895C42.7134 -7.8152 40.766 4.15907 38.8753 16.1333C36.9847 28.1076 35.0183 40.0819 32.9764 52.0562C31.9176 58.0307 30.9093 64.0304 29.7497 69.9608L28.067 78.8974C27.5439 81.8847 26.9137 84.8531 25.0545 87.6008L23.9453 87.4055Z" fill="#FFA500"/>
<g opacity="0.9">
<path d="M23.9392 87.5C22.5842 84.4686 22.4771 81.4372 22.4834 78.4059L22.3762 69.3117C22.2691 63.2489 22.3132 57.1799 22.3132 51.1171C22.3699 38.9916 22.559 26.8661 22.7355 14.7406C22.9119 2.61503 23.101 -9.5168 23.3657 -21.6423L23.8005 -39.8054C23.9896 -45.8682 24.1345 -51.9309 24.3614 -58H24.6261C24.853 -51.9309 24.998 -45.8682 25.187 -39.8054L25.6093 -21.6171C25.8866 -9.49159 26.0378 2.64023 26.2395 14.7658C26.4412 26.8913 26.605 39.0168 26.6618 51.1423C26.6618 57.2051 26.7059 63.2742 26.5987 69.3369L26.4916 78.4311C26.4916 81.4624 26.3908 84.4938 25.0358 87.5252L23.9392 87.5Z" fill="white"/>
<path d="M23.9455 87.5945C22.0863 84.8468 21.4561 81.8784 20.933 78.8911L19.2503 69.9546C18.0907 63.9989 17.0824 58.0244 16.0236 52.0499C13.9817 40.0756 12.0595 28.1013 10.1247 16.1271C8.18989 4.15279 6.274 -7.82149 4.45265 -19.7958L1.71118 -37.7824C0.847773 -43.7884 -0.0660525 -49.7566 -0.897949 -55.7942L-0.633256 -55.8383C0.627194 -49.9079 1.83722 -43.9649 3.07877 -38.0219L6.65214 -20.1865C9.03439 -8.28786 11.2843 3.6297 13.5846 15.5346C15.8849 27.4396 18.1537 39.3571 20.3217 51.2873C21.3742 57.2555 22.4645 63.2238 23.4161 69.2109L24.8908 78.1853C25.4202 81.1726 25.8425 84.1787 25.0358 87.3992L23.9455 87.5945Z" fill="white"/>
<path d="M23.9706 87.6891C21.664 85.3005 20.5296 82.4897 19.4897 79.6411L16.3008 71.1141C14.1265 65.4421 12.0909 59.7386 9.99855 54.0414C5.90839 42.628 1.93797 31.1642 -2.04505 19.713C-6.02807 8.26183 -9.99848 -3.20826 -13.887 -14.6973L-19.7039 -31.9339C-21.5946 -37.6942 -23.542 -43.4418 -25.4075 -49.221L-25.1491 -49.3092C-22.8677 -43.6876 -20.6556 -38.0408 -18.4057 -32.4066L-11.7883 -15.4598C-7.37675 -4.1599 -3.09122 7.18414 1.26363 18.5093C5.61849 29.8344 9.89771 41.1974 14.1013 52.5414C16.1747 58.2134 18.286 63.9233 20.2649 69.6583L23.2774 78.242C24.311 81.0906 25.25 83.9707 25.0168 87.2857L23.9706 87.6891Z" fill="white"/>
<path d="M24.0148 87.7773C21.3238 85.83 19.7167 83.2586 18.2042 80.6306L13.5657 72.8095C10.4146 67.6102 7.44622 62.3352 4.41484 57.0854C-1.5975 46.5543 -7.49641 35.954 -13.4079 25.3662C-19.3194 14.7784 -25.2183 4.17802 -31.0542 -6.46017L-39.7891 -22.4238C-42.663 -27.7681 -45.5683 -33.0935 -48.4043 -38.4567L-48.1711 -38.5953C-44.9444 -33.4527 -41.7869 -28.2786 -38.5917 -23.117L-29.1383 -7.57567C-22.8361 2.78522 -16.6473 13.2217 -10.3954 23.6079C-4.14361 33.994 2.04519 44.4053 8.16467 54.9048C11.1961 60.1546 14.2589 65.3855 17.2021 70.6604L21.6578 78.5887C23.1766 81.2167 24.6009 83.8952 24.9413 87.1975L24.0148 87.7773Z" fill="white"/>
<path d="M24.065 87.8592C21.084 86.4034 19.0547 84.1472 17.1325 81.828L11.2021 74.927C7.2254 70.3516 3.36211 65.6816 -0.538979 61.0621C-8.29074 51.7284 -15.9354 42.3192 -23.5989 32.9162C-31.2624 23.5133 -38.9071 14.104 -46.495 4.63806L-57.839 -9.57351C-61.6204 -14.338 -65.4017 -19.0773 -69.1074 -23.867L-68.8995 -24.0372C-64.8282 -19.5374 -60.82 -14.9871 -56.7802 -10.4621L-44.8312 3.17594C-36.821 12.289 -28.918 21.484 -20.952 30.6285C-12.9859 39.7731 -5.0829 48.9744 2.7571 58.2261C6.65189 62.8708 10.5845 67.4904 14.3974 72.2044L20.1639 79.2378C22.1113 81.5633 23.9831 83.9518 24.8969 87.1408L24.065 87.8592Z" fill="white"/>
<path d="M24.1345 87.9286C20.9456 87.0148 18.5571 85.143 16.2315 83.1956L9.19822 77.4164C4.48414 73.6036 -0.135406 69.671 -4.78016 65.7762C-14.0319 57.9362 -23.1953 50.0206 -32.3777 42.0671C-41.5601 34.1137 -50.7172 26.2107 -59.8303 18.1753L-73.4936 6.20104C-78.0186 2.16129 -82.5688 -1.84694 -87.0686 -5.91819L-86.8984 -6.12616C-82.1087 -2.40153 -77.3694 1.38612 -72.6049 5.14226L-58.3934 16.4863C-48.94 24.049 -39.5434 31.7504 -30.1152 39.3761C-20.687 47.0018 -11.2967 54.6842 -1.96936 62.436C2.67539 66.3371 7.34536 70.2004 11.8956 74.1771L18.8217 80.1138C21.141 82.0612 23.3972 84.0905 24.853 87.0463L24.1345 87.9286Z" fill="white"/>
<path d="M24.2163 87.979C20.9139 87.6387 18.2354 86.2144 15.6074 84.6956L7.67916 80.2399C2.37897 77.2967 -2.85189 74.2338 -8.07645 71.2024C-18.5508 65.083 -28.9621 58.8563 -39.3734 52.6423C-49.7847 46.4283 -60.2213 40.2332 -70.5821 33.931L-86.1235 24.4776C-91.285 21.2823 -96.4592 18.1249 -101.602 14.8982L-101.463 14.665C-96.0999 17.501 -90.7493 20.4063 -85.4302 23.2802L-69.4666 32.0088C-58.8285 37.832 -48.2533 43.7688 -37.6403 49.6551C-27.0273 55.5414 -16.471 61.4088 -5.92109 67.4211C-0.671318 70.4525 4.60366 73.4461 9.80302 76.572L17.6241 81.1978C20.2521 82.7104 22.8235 84.3174 24.7709 87.0085L24.2163 87.979Z" fill="white"/>
<path d="M24.3046 88.0231C20.9896 88.2563 18.1095 87.3172 15.2609 86.2837L6.67723 83.2712C0.942184 81.2923 -4.74242 79.181 -10.4397 77.1076C-21.7837 72.904 -33.1278 68.5806 -44.4718 64.2699C-55.8158 59.9592 -67.1599 55.6295 -78.4409 51.218L-95.3877 44.6006C-101.022 42.3507 -106.669 40.1386 -112.29 37.8572L-112.202 37.6051C-106.423 39.4643 -100.675 41.3865 -94.915 43.2771L-77.6783 49.0941C-66.1893 52.9826 -54.7445 56.9908 -43.2681 60.936C-31.7917 64.8812 -20.3531 68.8895 -8.93974 72.9796C-3.26772 75.0531 2.46732 77.0887 8.13304 79.2819L16.6411 82.4897C19.4897 83.5296 22.3131 84.664 24.6891 86.9706L24.3046 88.0231Z" fill="white"/>
<path d="M24.3991 88.0483C21.1786 88.855 18.1725 88.4327 15.1852 87.9033L6.21712 86.4286C0.22998 85.477 -5.75716 84.3867 -11.7065 83.3342C-23.6366 81.1662 -35.5479 78.8785 -47.4591 76.5971C-59.3704 74.3157 -71.2816 72.028 -83.1803 69.6646L-101.022 66.0724C-106.965 64.8119 -112.908 63.6397 -118.838 62.3603L-118.794 62.0956C-112.782 62.9275 -106.82 63.8414 -100.782 64.7048L-82.7958 67.4462C-70.8216 69.2802 -58.8473 71.2276 -46.873 73.1183C-34.8987 75.0089 -22.9245 76.9752 -10.9502 79.0172C-4.97567 80.0759 1.02407 81.0843 6.95449 82.2439L15.8911 83.9266C18.8783 84.4497 21.8467 85.0799 24.5945 86.9391L24.3991 88.0483Z" fill="white"/>
<path d="M24.4937 88.0546C21.4623 89.4096 18.4309 89.5168 15.3995 89.5104L6.30539 89.6176C0.24263 89.7247 -5.82643 89.6806 -11.8892 89.6806C-24.0147 89.6239 -36.1402 89.4348 -48.2658 89.2584C-60.3913 89.0819 -72.5231 88.8928 -84.6486 88.6281L-102.812 88.1933C-108.874 88.0042 -114.937 87.8593 -121 87.6324V87.3677C-114.937 87.1408 -108.874 86.9958 -102.812 86.8068L-84.6234 86.3845C-72.4979 86.1072 -60.3661 85.956 -48.2406 85.7543C-36.115 85.5526 -23.9895 85.3888 -11.864 85.3321C-5.80122 85.3321 0.26783 85.2879 6.3306 85.3951L15.4247 85.5022C18.4561 85.5022 21.4875 85.6031 24.5189 86.958L24.4937 88.0546Z" fill="white"/>
<path d="M24.5881 88.0483C21.8403 89.9075 18.872 90.5377 15.8847 91.0608L6.94814 92.7435C0.992516 93.9031 -4.98202 94.9115 -10.9566 95.9703C-22.9308 98.0122 -34.9051 99.9344 -46.8794 101.869C-58.8536 103.804 -70.8279 105.72 -82.8022 107.541L-100.789 110.283C-106.795 111.146 -112.763 112.06 -118.801 112.892L-118.845 112.627C-112.914 111.367 -106.971 110.157 -101.028 108.915L-83.1929 105.342C-71.2943 102.959 -59.3767 100.71 -47.4718 98.4092C-35.5668 96.1089 -23.6493 93.8401 -11.7191 91.6721C-5.75089 90.6197 0.217339 89.5294 6.20447 88.5777L15.1789 87.103C18.1661 86.5736 21.1723 86.1514 24.3928 86.9581L24.5881 88.0483Z" fill="white"/>
<path d="M24.6828 88.0231C22.2943 90.3297 19.4835 91.4641 16.6348 92.504L8.10791 95.6929C2.43588 97.8672 -3.26765 99.9028 -8.96487 101.995C-20.3783 106.085 -31.842 110.056 -43.2932 114.039C-54.7444 118.022 -66.2145 121.992 -77.7035 125.881L-94.9401 131.698C-100.7 133.588 -106.448 135.536 -112.227 137.37L-112.315 137.118C-106.694 134.836 -101.047 132.624 -95.4128 130.374L-78.4661 123.757C-67.1661 119.345 -55.8221 115.06 -44.4969 110.705C-33.1718 106.35 -21.8089 102.071 -10.4648 97.8672C-4.79279 95.7938 0.917046 93.6825 6.65209 91.7036L15.2357 88.6911C18.0844 87.6575 20.9645 86.7185 24.2795 86.9517L24.6828 88.0231Z" fill="white"/>
<path d="M24.7709 87.9789C22.8235 90.67 20.2521 92.2771 17.6241 93.7896L9.80302 98.428C4.60366 101.579 -0.671318 104.548 -5.92109 107.579C-16.4521 113.591 -27.0525 119.49 -37.6403 125.402C-48.2281 131.313 -58.8285 137.212 -69.4666 143.048L-85.4302 151.783C-90.7745 154.657 -96.0999 157.562 -101.463 160.398L-101.602 160.165C-96.4592 156.938 -91.285 153.781 -86.1235 150.585L-70.5821 141.132C-60.2213 134.83 -49.7847 128.641 -39.3986 122.389C-29.0125 116.137 -18.6012 109.949 -8.10167 103.829C-2.8519 100.798 2.37897 97.7348 7.65395 94.7917L15.5822 90.336C18.2102 88.8171 20.8887 87.3928 24.191 87.0525L24.7709 87.9789Z" fill="white"/>
<path d="M24.853 87.9286C23.3971 90.9095 21.1409 92.9389 18.8217 94.861L11.9207 100.791C7.3453 104.768 2.67533 108.631 -1.94421 112.533C-11.2715 120.284 -20.6871 127.929 -30.09 135.592C-39.493 143.256 -48.9023 150.901 -58.3682 158.482L-72.5798 169.826C-77.3443 173.608 -82.0836 177.389 -86.8733 181.095L-87.0435 180.887C-82.5437 176.815 -77.9934 172.807 -73.4684 168.768L-59.8304 156.825C-50.7173 148.815 -41.5223 140.912 -32.3778 132.946C-23.2332 124.979 -14.0319 117.076 -4.78023 109.236C-0.135468 105.342 4.48407 101.409 9.19815 97.5962L16.2315 91.8297C18.557 89.8823 20.9455 88.0105 24.1345 87.0967L24.853 87.9286Z" fill="white"/>
<path d="M24.9222 87.8592C24.0083 91.0482 22.1366 93.4367 20.1892 95.7622L14.41 102.796C10.5972 107.51 6.66456 112.129 2.76978 116.774C-5.07022 126.026 -12.9858 135.189 -20.9393 144.371C-28.8927 153.554 -36.7957 162.711 -44.8311 171.824L-56.8054 185.487C-60.8451 190.012 -64.8533 194.563 -68.9246 199.062L-69.1326 198.892C-65.4079 194.103 -61.6203 189.363 -57.8642 184.599L-46.5201 170.387C-38.9574 160.934 -31.2498 151.537 -23.624 142.109C-15.9983 132.681 -8.31588 123.29 -0.56411 113.963C3.33698 109.318 7.20025 104.648 11.177 100.098L17.1074 93.172C19.0548 90.8528 21.0841 88.5966 24.0399 87.1407L24.9222 87.8592Z" fill="white"/>
<path d="M24.9727 87.7773C24.6324 91.0797 23.2081 93.7582 21.6893 96.3862L17.2336 104.314C14.2904 109.615 11.2275 114.845 8.19616 120.07C2.07667 130.544 -4.14995 140.956 -10.364 151.367C-16.578 161.778 -22.7731 172.215 -29.0753 182.576L-38.5287 198.117C-41.7239 203.279 -44.8814 208.453 -48.1081 213.595L-48.3413 213.457C-45.5053 208.094 -42.6 202.743 -39.7261 197.424L-30.9975 181.46C-25.1742 170.822 -19.2375 160.247 -13.3512 149.634C-7.46493 139.021 -1.59754 128.465 4.41481 117.915C7.44619 112.665 10.4398 107.39 13.5657 102.191L18.1915 94.3695C19.7041 91.7414 21.3111 89.1701 24.0022 87.2227L24.9727 87.7773Z" fill="white"/>
<path d="M25.0168 87.6891C25.25 91.004 24.311 93.8842 23.2774 96.7328L20.2649 105.316C18.286 111.051 16.1747 116.736 14.1013 122.433C9.89771 133.809 5.57437 145.121 1.26363 156.465C-3.0471 167.81 -7.37675 179.154 -11.7883 190.435L-18.4057 207.381C-20.6556 213.016 -22.8677 218.662 -25.1491 224.284L-25.4075 224.196C-23.5168 218.417 -21.6261 212.669 -19.7039 206.909L-13.887 189.672C-9.99848 178.183 -5.99025 166.738 -2.04505 155.268C1.90016 143.798 5.90839 132.347 9.99855 120.933C12.072 115.261 14.1076 109.526 16.3008 103.861L19.5086 95.3526C20.5485 92.504 21.6829 89.6806 23.9895 87.3046L25.0168 87.6891Z" fill="white"/>
<path d="M25.042 87.5945C25.8487 90.8149 25.4264 93.8211 24.8971 96.8084L23.4223 105.776C22.4707 111.764 21.3804 117.751 20.3279 123.7C18.16 135.63 15.8722 147.541 13.5908 159.453C11.3094 171.364 9.02169 183.275 6.65835 195.174L3.06607 213.016C1.80562 218.959 0.633405 224.902 -0.645951 230.832L-0.910645 230.788C-0.0787479 224.776 0.835078 218.782 1.69849 212.776L4.43996 194.789C6.27391 182.815 8.2213 170.841 10.112 158.867C12.0027 146.892 13.969 134.918 16.0109 122.944C17.0697 116.969 18.078 110.97 19.2376 105.039L20.9203 96.1025C21.4434 93.1152 22.0736 90.1469 23.9328 87.3991L25.042 87.5945Z" fill="white"/>
<path d="M25.0482 87.5C26.4032 90.5314 26.5103 93.5628 26.504 96.5941L26.6112 105.688C26.7183 111.751 26.6742 117.82 26.6742 123.883C26.6175 136.008 26.4284 148.134 26.2519 160.259C26.0755 172.385 25.8864 184.517 25.6217 196.642L25.1869 214.805C24.9978 220.868 24.8529 226.931 24.626 233H24.3613C24.1344 226.931 23.9894 220.868 23.8004 214.805L23.3781 196.617C23.1008 184.492 22.9496 172.36 22.7479 160.234C22.5462 148.109 22.3824 135.983 22.3256 123.858C22.3256 117.795 22.2815 111.726 22.3887 105.663L22.4958 96.5689C22.4958 93.5376 22.5966 90.5062 23.9516 87.4748L25.0482 87.5Z" fill="white"/>
<path d="M25.0419 87.4055C26.9011 90.1533 27.5313 93.1217 28.0544 96.1089L29.7371 105.046C30.8967 111.001 31.9051 116.976 32.9639 122.95C35.0058 134.924 36.928 146.899 38.8628 158.873C40.7976 170.847 42.7134 182.822 44.5348 194.796L47.2763 212.782C48.1397 218.788 49.0535 224.757 49.8854 230.794L49.6207 230.838C48.3603 224.908 47.1502 218.965 45.9087 213.022L42.3353 195.187C39.9531 183.288 37.7032 171.37 35.4028 159.465C33.1025 147.56 30.8337 135.643 28.6657 123.713C27.6133 117.745 26.523 111.776 25.5713 105.789L24.0966 96.8148C23.5672 93.8275 23.145 90.8213 23.9516 87.6009L25.0419 87.4055Z" fill="white"/>
<path d="M25.0167 87.3109C27.3234 89.6995 28.4578 92.5103 29.4976 95.3589L32.6866 103.886C34.8608 109.558 36.8965 115.23 38.9888 120.959C43.079 132.372 47.0494 143.836 51.0324 155.293C55.0154 166.751 58.9858 178.208 62.8743 189.697L68.6913 206.934C70.582 212.694 72.5294 218.442 74.3633 224.221L74.1113 224.309C71.8298 218.688 69.6177 213.041 67.3678 207.407L60.7505 190.46C56.3389 179.16 52.0534 167.816 47.6985 156.491C43.3437 145.166 39.0645 133.803 34.8609 122.459C32.7874 116.787 30.6762 111.077 28.6973 105.342L25.6848 96.758C24.6512 93.9094 23.7122 91.0292 23.9454 87.7143L25.0167 87.3109Z" fill="white"/>
<path d="M24.9726 87.2227C27.6636 89.1701 29.2707 91.7414 30.7833 94.3695L35.4217 102.191C38.5728 107.39 41.5412 112.665 44.5726 117.915C50.5849 128.446 56.4838 139.046 62.3953 149.634C68.3068 160.222 74.2057 170.822 80.0416 181.46L88.7765 197.424C91.6503 202.768 94.5557 208.094 97.3917 213.457L97.1585 213.595C93.9317 208.453 90.7743 203.279 87.5791 198.117L78.1257 182.576C71.8235 172.215 65.6347 161.778 59.3828 151.392C53.131 141.006 46.9422 130.595 40.8227 120.095C37.7913 114.845 34.7285 109.615 31.7853 104.34L27.3296 96.4114C25.8108 93.7834 24.3865 91.1049 24.0461 87.8025L24.9726 87.2227Z" fill="white"/>
<path d="M24.9222 87.1407C27.9032 88.5966 29.9325 90.8528 31.8547 93.172L37.8103 100.104C41.787 104.68 45.6503 109.35 49.5514 113.969C57.3032 123.297 64.9478 132.712 72.6113 142.115C80.2749 151.518 87.9195 160.927 95.5011 170.393L106.845 184.605C110.626 189.369 114.408 194.109 118.114 198.899L117.906 199.069C113.834 194.569 109.826 190.019 105.786 185.494L93.8184 171.824C85.8082 162.711 77.9052 153.516 69.9392 144.371C61.9731 135.227 54.0701 126.026 46.2301 116.774C42.3353 112.129 38.4027 107.51 34.5899 102.796L28.8233 95.7622C26.8759 93.4367 25.0042 91.0481 24.0903 87.8592L24.9222 87.1407Z" fill="white"/>
<path d="M24.853 87.0714C28.0419 87.9852 30.4305 89.857 32.756 91.8044L39.7893 97.5836C44.5034 101.365 49.1229 105.329 53.7677 109.224C63.0194 117.064 72.1828 124.979 81.3652 132.933C90.5476 140.886 99.7048 148.802 108.818 156.812L122.481 168.799C127.006 172.839 131.556 176.847 136.056 180.918L135.886 181.126C131.096 177.402 126.357 173.614 121.592 169.858L107.381 158.514C97.9275 150.951 88.5309 143.25 79.1027 135.624C69.6746 127.998 60.2842 120.309 50.9632 112.558C46.3184 108.657 41.6485 104.793 37.0982 100.817L30.1658 94.8862C27.8465 92.9388 25.5903 90.9095 24.1345 87.9537L24.853 87.0714Z" fill="white"/>
<path d="M24.7709 87.0211C28.0733 87.3614 30.7517 88.7857 33.3798 90.3045L41.308 94.7602C46.6082 97.7034 51.8391 100.766 57.0636 103.798C67.538 109.917 77.943 116.144 88.3606 122.358C98.7782 128.572 109.158 134.798 119.544 141.101L135.085 150.554C140.247 153.749 145.421 156.907 150.564 160.133L150.425 160.367C145.062 157.531 139.711 154.625 134.392 151.751L118.429 143.023C107.79 137.2 97.2152 131.263 86.6022 125.377C75.9893 119.49 65.4582 113.591 54.9083 107.579C49.6585 104.548 44.3835 101.554 39.1841 98.4281L31.3631 93.8023C28.735 92.2897 26.1637 90.6511 24.2163 87.9916L24.7709 87.0211Z" fill="white"/>
<path d="M24.6828 86.9769C27.9978 86.7437 30.8779 87.6828 33.7265 88.7163L42.3102 91.7288C48.0452 93.7077 53.7299 95.819 59.4271 97.8924C70.8027 102.096 82.1152 106.419 93.4593 110.73C104.803 115.041 116.147 119.37 127.428 123.782L144.375 130.399C150.009 132.649 155.656 134.861 161.278 137.143L161.189 137.395C155.41 135.536 149.663 133.614 143.902 131.723L126.666 125.906C115.177 122.017 103.732 118.009 92.2555 114.064C80.7791 110.119 69.3469 106.085 57.9335 101.995C52.2615 99.9217 46.5264 97.8861 40.8607 95.6929L32.3527 92.4851C29.504 91.4452 26.6806 90.3108 24.3047 88.0042L24.6828 86.9769Z" fill="white"/>
<path d="M24.5881 86.9516C27.8086 86.145 30.8148 86.5672 33.802 87.0966L42.7701 88.5713C48.7573 89.523 54.7444 90.6132 60.6937 91.6657C72.6239 93.8337 84.5351 96.1214 96.4464 98.4028C108.358 100.684 120.269 102.972 132.168 105.335L150.003 108.909C155.946 110.169 161.889 111.341 167.819 112.621L167.775 112.885C161.763 112.053 155.769 111.14 149.763 110.276L131.777 107.535C119.803 105.701 107.828 103.753 95.854 101.863C83.8797 99.9721 71.9054 98.0058 59.9312 95.9639C53.9566 94.9051 47.9569 93.8967 42.0265 92.7371L33.0899 91.0544C30.1026 90.5313 27.1343 89.9011 24.3865 88.0419L24.5881 86.9516Z" fill="white"/>
<path d="M24.4937 86.9454C27.525 85.5904 30.5564 85.4833 33.5878 85.4896L42.6819 85.3824C48.7447 85.2753 54.8138 85.3194 60.8765 85.3194C73.0021 85.3761 85.1276 85.5652 97.2531 85.7417C109.379 85.9181 121.51 86.1072 133.636 86.3719L151.824 86.7942C157.887 86.9832 163.95 87.1282 170.013 87.3551V87.6197C163.95 87.8466 157.887 87.9916 151.824 88.1806L133.636 88.6029C121.51 88.8802 109.379 89.0314 97.2531 89.2331C85.1276 89.4348 73.0021 89.5987 60.8765 89.6554C54.8138 89.6554 48.7447 89.6995 42.6819 89.5924L33.5878 89.4852C30.5564 89.4852 27.525 89.3844 24.4937 88.0294V86.9454Z" fill="white"/>
<path d="M24.3992 86.9517C27.147 85.0925 30.1153 84.4623 33.1026 83.9392L42.0392 82.2565C47.9948 81.0969 53.9693 80.0885 59.9438 79.0297C71.9181 76.9878 83.8924 75.0656 95.8667 73.1308C107.841 71.1961 119.815 69.2802 131.789 67.4588L149.776 64.7173C155.782 63.8539 161.75 62.9401 167.788 62.1082L167.832 62.3729C161.902 63.6334 155.959 64.8434 150.016 66.0849L132.18 69.6583C120.282 72.0406 108.364 74.2905 96.4591 76.5908C84.5541 78.8911 72.6366 81.1599 60.7064 83.3279C54.7382 84.3804 48.77 85.4706 42.7828 86.4223L33.8084 87.897C30.8212 88.4264 27.815 88.8486 24.5945 88.042L24.3992 86.9517Z" fill="white"/>
<path d="M24.3047 86.977C26.6932 84.6703 29.504 83.5359 32.3527 82.4961L40.8796 79.3071C46.5516 77.1329 52.2236 75.0972 57.9524 73.0049C69.3657 68.9147 80.8295 64.9443 92.2807 60.9613C103.732 56.9783 115.202 53.0079 126.691 49.1194L143.928 43.3024C149.688 41.4117 155.436 39.4643 161.215 37.6304L161.303 37.8825C155.681 40.1639 150.035 42.376 144.4 44.6259L127.454 51.2432C116.154 55.6548 104.81 59.9403 93.4845 64.2952C82.1593 68.65 70.7964 72.9293 59.4523 77.1329C53.7803 79.2063 48.0705 81.3176 42.3354 83.2965L33.7518 86.3089C30.9031 87.3425 28.023 88.2815 24.708 88.0484L24.3047 86.977Z" fill="white"/>
<path d="M24.2163 87.0211C26.1637 84.33 28.735 82.7229 31.3631 81.2104L39.1841 76.5719C44.3835 73.4208 49.6585 70.4524 54.9083 67.4211C65.4393 61.4087 76.0397 55.5098 86.6275 49.5983C97.2152 43.6868 107.816 37.7879 118.454 31.952L134.417 23.2171C139.762 20.3433 145.087 17.4379 150.45 14.6019L150.589 14.8351C145.446 18.0619 140.272 21.2193 135.111 24.4145L119.569 33.8679C109.208 40.1701 98.7719 46.359 88.3858 52.6108C77.9997 58.8626 67.5884 65.0514 57.0888 71.1709C51.8391 74.2023 46.6082 77.2652 41.3332 80.2083L33.405 84.664C30.777 86.1829 28.0985 87.6072 24.7961 87.9475L24.2163 87.0211Z" fill="white"/>
<path d="M24.1345 87.0715C25.5903 84.0905 27.8465 82.0612 30.1658 80.139L37.0982 74.1834C41.6737 70.2067 46.3436 66.3434 50.9632 62.4423C60.2905 54.6905 69.7061 47.0459 79.109 39.3824C88.512 31.7188 97.9212 24.0742 107.387 16.4926L121.599 5.14855C126.363 1.3672 131.103 -2.41415 135.892 -6.11987L136.062 -5.9119C131.563 -1.84065 127.012 2.16759 122.487 6.20733L108.818 18.1753C99.7048 26.1855 90.5098 34.0885 81.3652 42.0545C72.2207 50.0206 63.0194 57.9236 53.7677 65.7636C49.1229 69.6584 44.5034 73.591 39.7893 77.4038L32.756 83.1704C30.4305 85.1178 28.0419 86.9895 24.853 87.9034L24.1345 87.0715Z" fill="white"/>
<path d="M24.0652 87.1407C24.979 83.9518 26.8508 81.5632 28.7982 79.2377L34.5773 72.2044C38.3587 67.4903 42.3228 62.8708 46.2176 58.226C54.0576 48.9743 61.9732 39.8108 69.9266 30.6285C77.8801 21.4461 85.7957 12.2889 93.8059 3.17587L105.793 -10.4874C109.832 -15.0124 113.841 -19.5626 117.912 -24.0624L118.12 -23.8923C114.395 -19.1026 110.608 -14.3633 106.852 -9.59878L95.5075 4.61279C87.9448 14.0662 80.2434 23.4628 72.6177 32.891C64.992 42.3191 57.3032 51.7032 49.5515 61.0305C45.6504 65.6753 41.7871 70.3452 37.8104 74.8955L31.88 81.8279C29.9326 84.1472 27.9033 86.4034 24.9475 87.8592L24.0652 87.1407Z" fill="white"/>
<path d="M24.0146 87.2227C24.355 83.9203 25.7793 81.2419 27.2981 78.6138L31.7538 70.6856C34.6969 65.3854 37.7598 60.1545 40.7912 54.93C46.9107 44.4556 53.1373 34.0443 59.3513 23.633C65.5654 13.2217 71.792 2.83558 78.0942 -7.55052L87.5476 -23.0919C90.7428 -28.2534 93.9003 -33.4276 97.127 -38.5702L97.3602 -38.4315C94.5242 -33.0683 91.6189 -27.7177 88.745 -22.3986L80.0164 -6.43503C74.1931 4.20317 68.2564 14.7783 62.3701 25.3913C56.4838 36.0043 50.5849 46.5354 44.5726 57.0853C41.5412 62.3351 38.5476 67.6101 35.4217 72.8094L30.7959 80.6305C29.2833 83.2586 27.6447 85.8299 24.9852 87.7773L24.0146 87.2227Z" fill="white"/>
<path d="M23.9705 87.311C23.7373 83.996 24.6763 81.1159 25.7099 78.2673L28.7224 69.6836C30.7013 63.9486 32.8125 58.264 34.886 52.5667C39.0896 41.2227 43.4129 29.8786 47.7237 18.5346C52.0344 7.19052 56.3641 -4.15353 60.7756 -15.4346L67.393 -32.3813C69.6429 -38.0155 71.855 -43.6623 74.1364 -49.2839L74.3885 -49.1957C72.5293 -43.4165 70.6071 -37.6689 68.7165 -31.9086L62.8743 -14.6783C58.9858 -3.18929 54.9775 8.2556 51.0323 19.732C47.0871 31.2084 43.0789 42.647 38.9888 54.0603C36.9153 59.7324 34.8797 65.4674 32.6865 71.1331L29.4787 79.6412C28.4388 82.4898 27.3044 85.3132 24.9978 87.6891L23.9705 87.311Z" fill="white"/>
<path d="M23.9453 87.4055C23.1386 84.185 23.5609 81.1788 24.0903 78.1916L25.565 69.2235C26.5166 63.2363 27.6069 57.2492 28.6594 51.2999C30.8273 39.3697 33.1151 27.4585 35.3965 15.5472C37.6779 3.63599 39.9656 -8.27526 42.3289 -20.1739L45.9212 -38.0156C47.1817 -43.9586 48.3539 -49.9016 49.6333 -55.832L49.8979 -55.7879C49.0661 -49.7756 48.1522 -43.8136 47.2888 -37.7761L44.5473 -19.7895C42.7134 -7.8152 40.766 4.15907 38.8753 16.1333C36.9847 28.1076 35.0183 40.0819 32.9764 52.0562C31.9176 58.0307 30.9093 64.0304 29.7497 69.9608L28.067 78.8974C27.5439 81.8847 26.9137 84.8531 25.0545 87.6008L23.9453 87.4055Z" fill="white"/>
</g>
<path d="M91.6125 -12.0755C79.1467 20.0282 93.4465 54.5582 140.537 48.1614C113.551 65.3602 96.0556 98.8441 142.1 124.683C103.366 117.587 77.2623 152.835 95.23 186.981C71.4895 163.94 38.8627 174.143 30.1656 203.94C22.3067 174.118 -14.3723 163.348 -38.3398 185.185C-32.4535 147.813 -64.721 120.171 -85.9848 118.381C-64.6265 103.886 -60.7317 69.6647 -88.5813 52.7179C-50.5472 56.7261 -30.8086 29.6013 -52.3182 -9.24578C-19.7167 16.7132 10.7988 1.87769 17.1893 -34.4044C29.3337 0.346237 67.8342 11.8289 91.6125 -12.0755Z" fill="#FFA500"/>
<path opacity="0.7" d="M91.6125 -12.0755C79.1467 20.0282 93.4465 54.5582 140.537 48.1614C113.551 65.3602 96.0556 98.8441 142.1 124.683C103.366 117.587 77.2623 152.835 95.23 186.981C71.4895 163.94 38.8627 174.143 30.1656 203.94C22.3067 174.118 -14.3723 163.348 -38.3398 185.185C-32.4535 147.813 -64.721 120.171 -85.9848 118.381C-64.6265 103.886 -60.7317 69.6647 -88.5813 52.7179C-50.5472 56.7261 -30.8086 29.6013 -52.3182 -9.24578C-19.7167 16.7132 10.7988 1.87769 17.1893 -34.4044C29.3337 0.346237 67.8342 11.8289 91.6125 -12.0755Z" fill="white"/>
<path d="M82.6824 0.655054C74.7289 16.4611 87.3839 54.8544 123.017 54.4258C102.011 70.484 100.48 99.4302 120.212 116.541C97.1965 119.553 74.729 151.588 83.2496 171.459C64.929 160.606 37.3062 169.788 30.5565 187.548C19.7859 168.906 -12.387 155.924 -31.5143 173.337C-26.5167 151.714 -49.6207 123.284 -71.4202 115.803C-55.1541 99.9596 -58.6077 68.7004 -71.2059 59.3668C-50.6795 58.8248 -30.1026 39.5399 -39.1401 7.17788C-15.8406 18.9946 12.8346 6.07499 18.2671 -17.3C27.3549 3.97004 67.9792 17.1165 82.6824 0.655054Z" fill="#FFA500"/>
<path opacity="0.95" d="M82.6824 0.655054C74.7289 16.4611 87.3839 54.8544 123.017 54.4258C102.011 70.484 100.48 99.4302 120.212 116.541C97.1965 119.553 74.729 151.588 83.2496 171.459C64.929 160.606 37.3062 169.788 30.5565 187.548C19.7859 168.906 -12.387 155.924 -31.5143 173.337C-26.5167 151.714 -49.6207 123.284 -71.4202 115.803C-55.1541 99.9596 -58.6077 68.7004 -71.2059 59.3668C-50.6795 58.8248 -30.1026 39.5399 -39.1401 7.17788C-15.8406 18.9946 12.8346 6.07499 18.2671 -17.3C27.3549 3.97004 67.9792 17.1165 82.6824 0.655054Z" fill="white"/>
<path opacity="0.1" d="M39.8018 -22.7452C46.9896 -25.2562 54.6278 -26.216 62.2134 -25.5615C69.799 -24.9069 77.1599 -22.6527 83.8112 -18.9475C90.4626 -15.2422 96.2536 -10.1699 100.803 -4.0646C105.352 2.0407 108.556 9.04047 110.204 16.4737C112.721 27.8181 118.836 38.046 127.636 45.6342C133.403 50.6035 138.052 56.738 141.277 63.6339C144.501 70.5298 146.229 78.0305 146.345 85.6422C146.461 93.2539 144.963 100.804 141.95 107.795C138.938 114.786 134.478 121.059 128.865 126.202C120.298 134.056 114.497 144.468 112.328 155.886C110.907 163.364 107.917 170.456 103.557 176.696C99.1966 182.935 93.5642 188.18 87.0305 192.086C80.4968 195.992 73.21 198.469 65.6497 199.356C58.0894 200.242 50.4271 199.517 43.1672 197.228C32.084 193.738 20.17 193.919 9.19812 197.745C2.00959 200.258 -5.62987 201.22 -13.2169 200.566C-20.804 199.913 -28.1665 197.659 -34.8194 193.954C-41.4723 190.248 -47.2645 185.175 -51.8145 179.069C-56.3645 172.962 -59.569 165.961 -61.2169 158.526C-63.7341 147.182 -69.8483 136.954 -78.6489 129.366C-84.4179 124.399 -89.0692 118.266 -92.2966 111.372C-95.524 104.477 -97.2542 96.9767 -97.3733 89.365C-97.4924 81.7533 -95.9976 74.2027 -92.9875 67.2105C-89.9774 60.2182 -85.5202 53.943 -79.9094 48.798C-71.342 40.9442 -65.5416 30.5325 -63.3723 19.1144C-61.9507 11.6362 -58.9614 4.54395 -54.6011 -1.69556C-50.2408 -7.93507 -44.6084 -13.1803 -38.0747 -17.086C-31.541 -20.9917 -24.2542 -23.4693 -16.6939 -24.3556C-9.13358 -25.2419 -1.47128 -24.517 5.78861 -22.2284C16.8854 -18.728 28.8165 -18.9093 39.8018 -22.7452Z" fill="#FFA500"/>
<path opacity="0.1" d="M8.25266 -1.61999L19.3068 -9.55452C23.341 -12.4564 27.9441 -14.4709 32.813 -15.4652C37.682 -16.4596 42.7063 -16.4112 47.5553 -15.3234C52.4042 -14.2356 56.9677 -12.1331 60.9453 -9.1541C64.9229 -6.17515 68.2244 -2.38742 70.6323 1.95968L77.2371 13.8709C80.9138 20.5057 86.6373 25.7739 93.5536 28.8892L105.969 34.4856C110.5 36.5274 114.546 39.506 117.842 43.2251C121.138 46.9442 123.609 51.3195 125.092 56.0627C126.574 60.8058 127.035 65.8093 126.444 70.7435C125.853 75.6777 124.223 80.4307 121.662 84.6893L114.647 96.3674C110.74 102.868 109.038 110.457 109.794 118.003L111.156 131.559C111.649 136.501 111.091 141.492 109.518 146.202C107.945 150.913 105.392 155.238 102.028 158.892C98.6644 162.546 94.5651 165.446 90.0001 167.402C85.435 169.359 80.5076 170.326 75.5418 170.242L61.9226 170.003C54.3375 169.87 46.9122 172.191 40.7533 176.62L29.6803 184.555C25.6462 187.457 21.0431 189.471 16.1741 190.465C11.3051 191.46 6.28077 191.411 1.43184 190.324C-3.4171 189.236 -7.98061 187.133 -11.9582 184.154C-15.9358 181.175 -19.2373 177.388 -21.6452 173.041L-28.25 161.129C-31.9267 154.494 -37.6502 149.226 -44.5665 146.111L-56.9819 140.515C-61.5125 138.473 -65.5592 135.494 -68.8553 131.775C-72.1513 128.056 -74.6221 123.681 -76.1047 118.938C-77.5873 114.194 -78.0482 109.191 -77.4569 104.257C-76.8657 99.3225 -75.2357 94.5695 -72.6745 90.3109L-65.6286 78.6769C-61.7215 72.1766 -60.0194 64.5877 -60.7758 57.0413L-62.1371 43.4852C-62.6369 38.5424 -62.0845 33.5498 -60.5162 28.8359C-58.9479 24.1219 -56.3994 19.7934 -53.0381 16.1351C-49.6769 12.4768 -45.5792 9.57167 -41.0146 7.61073C-36.45 5.64979 -31.522 4.67752 -26.5546 4.75788L-12.9355 4.99737C-5.3439 5.13465 2.08855 2.81338 8.25266 -1.61999Z" fill="#FFA500"/>
<path opacity="0.1" d="M55.4756 -3.49813C61.9796 -4.45102 68.6116 -4.01596 74.9354 -2.22157C81.2591 -0.427183 87.1312 2.68587 92.1654 6.91276C97.1996 11.1397 101.282 16.3846 104.143 22.3025C107.005 28.2204 108.581 34.6771 108.767 41.2478C109.048 51.2786 112.562 60.9502 118.788 68.8202C122.869 73.9768 125.811 79.9396 127.421 86.3157C129.03 92.6918 129.271 99.3366 128.127 105.812C126.982 112.288 124.479 118.448 120.781 123.886C117.084 129.325 112.276 133.918 106.675 137.363C98.1283 142.623 91.5098 150.504 87.8062 159.831C85.3797 165.941 81.6866 171.468 76.97 176.048C72.2534 180.628 66.6203 184.157 60.4414 186.402C54.2626 188.648 47.6782 189.56 41.1216 189.077C34.565 188.595 28.185 186.729 22.4015 183.603C13.5743 178.83 3.44032 177.039 -6.48806 178.498C-12.992 179.451 -19.624 179.016 -25.9478 177.222C-32.2715 175.427 -38.1436 172.314 -43.1778 168.087C-48.212 163.86 -52.2941 158.615 -55.1556 152.698C-58.0171 146.78 -59.593 140.323 -59.7799 133.752C-60.0608 123.722 -63.5756 114.05 -69.8004 106.18C-73.8814 101.023 -76.8236 95.0605 -78.4332 88.6843C-80.0429 82.3082 -80.2834 75.6635 -79.139 69.1877C-77.9946 62.7119 -75.4912 56.552 -71.7938 51.1137C-68.0963 45.6755 -63.2887 41.0823 -57.6875 37.6367C-49.1407 32.377 -42.5222 24.4963 -38.8186 15.1691C-36.3921 9.05899 -32.699 3.53208 -27.9824 -1.04781C-23.2658 -5.62769 -17.6327 -9.15667 -11.4538 -11.4024C-5.275 -13.6482 1.30943 -14.5598 7.86601 -14.0773C14.4226 -13.5948 20.8026 -11.7291 26.5862 -8.60294C35.4133 -3.82974 45.5473 -2.03905 55.4756 -3.49813Z" fill="#FFA500"/>
<path d="M43.6337 13.4108C28.9801 9.62523 13.5331 10.2699 -0.754021 15.2634C-15.0412 20.2569 -27.5267 29.3748 -36.6318 41.4643C-45.7369 53.5537 -51.0525 68.0716 -51.9066 83.1821C-52.7607 98.2927 -49.1147 113.317 -41.4299 126.356C-33.745 139.394 -22.3664 149.861 -8.73296 156.432C4.90052 163.004 20.1765 165.385 35.1633 163.275C50.1501 161.164 64.1745 154.657 75.4631 144.576C86.7517 134.496 94.7975 121.294 98.583 106.64C103.659 86.9903 100.722 66.129 90.4166 48.6451C80.1116 31.1613 63.2833 18.4871 43.6337 13.4108Z" fill="#FFA500"/>
<path opacity="0.9" d="M43.6337 13.4108C28.9801 9.62523 13.5331 10.2699 -0.754021 15.2634C-15.0412 20.2569 -27.5267 29.3748 -36.6318 41.4643C-45.7369 53.5537 -51.0525 68.0716 -51.9066 83.1821C-52.7607 98.2927 -49.1147 113.317 -41.4299 126.356C-33.745 139.394 -22.3664 149.861 -8.73296 156.432C4.90052 163.004 20.1765 165.385 35.1633 163.275C50.1501 161.164 64.1745 154.657 75.4631 144.576C86.7517 134.496 94.7975 121.294 98.583 106.64C103.659 86.9903 100.722 66.129 90.4166 48.6451C80.1116 31.1613 63.2833 18.4871 43.6337 13.4108Z" fill="white"/>
<path d="M24.6261 164.387C18.0985 164.382 11.5977 163.552 5.27817 161.917C-13.5112 157.019 -29.7309 145.151 -40.0845 128.724C-50.4382 112.298 -54.149 92.5454 -50.4628 73.4812C-46.7767 54.4171 -35.9701 37.4716 -20.2394 26.0886C-4.50859 14.7056 14.9661 9.73911 34.227 12.1985C53.4879 14.6579 71.0897 24.3585 83.4555 39.3291C95.8213 54.2997 102.023 73.4169 100.801 92.7956C99.578 112.174 91.0229 130.361 76.8738 143.659C62.7247 156.956 44.0433 164.368 24.6261 164.387ZM24.3614 11.2428C4.91578 11.2334 -13.8033 18.631 -27.989 31.9314C-42.1746 45.2317 -50.7616 63.4359 -52.0036 82.8418C-53.2456 102.248 -47.0494 121.398 -34.675 136.398C-22.3006 151.398 -4.67735 161.122 14.6108 163.592C33.8989 166.061 53.4035 161.091 69.1579 149.693C84.9123 138.294 95.7335 121.322 99.4208 102.23C103.108 83.1369 99.3844 63.3564 89.0073 46.9112C78.6301 30.4659 62.3787 18.5907 43.558 13.7007C37.2888 12.0731 30.8384 11.2472 24.3614 11.2428Z" fill="#FFA500"/>
<path opacity="0.3" d="M24.6261 164.387C18.0985 164.382 11.5977 163.552 5.27817 161.917C-13.5112 157.019 -29.7309 145.151 -40.0845 128.724C-50.4382 112.298 -54.149 92.5454 -50.4628 73.4812C-46.7767 54.4171 -35.9701 37.4716 -20.2394 26.0886C-4.50859 14.7056 14.9661 9.73911 34.227 12.1985C53.4879 14.6579 71.0897 24.3585 83.4555 39.3291C95.8213 54.2997 102.023 73.4169 100.801 92.7956C99.578 112.174 91.0229 130.361 76.8738 143.659C62.7247 156.956 44.0433 164.368 24.6261 164.387ZM24.3614 11.2428C4.91578 11.2334 -13.8033 18.631 -27.989 31.9314C-42.1746 45.2317 -50.7616 63.4359 -52.0036 82.8418C-53.2456 102.248 -47.0494 121.398 -34.675 136.398C-22.3006 151.398 -4.67735 161.122 14.6108 163.592C33.8989 166.061 53.4035 161.091 69.1579 149.693C84.9123 138.294 95.7335 121.322 99.4208 102.23C103.108 83.1369 99.3844 63.3564 89.0073 46.9112C78.6301 30.4659 62.3787 18.5907 43.558 13.7007C37.2888 12.0731 30.8384 11.2472 24.3614 11.2428Z" fill="white"/>
<path opacity="0.6" d="M-16.7357 29.2861C11.4732 9.43405 24.689 28.7693 12.7273 47.9534C0.765671 67.1374 -26.1512 81.3931 -33.0522 73.843C-39.9531 66.2929 -37.7032 44.046 -16.7357 29.2861Z" fill="white"/>
<path opacity="0.15" d="M5.35374 161.589C-7.40255 158.293 -19.0918 151.759 -28.5826 142.62C-38.0734 133.482 -45.0444 122.048 -48.8207 109.425C-52.597 96.8027 -53.0508 83.419 -50.1381 70.5697C-47.2255 57.7203 -41.0451 45.8404 -32.195 36.08C-43.7597 52.3272 -54.984 100.924 -14.0005 131.95C21.1535 158.564 82.26 146.004 97.0262 111.89C90.8595 130.228 77.975 145.55 60.966 154.772C43.9571 163.993 24.0864 166.429 5.35374 161.589Z" fill="#FFA500"/>
<path opacity="0.6" d="M19.5387 105.462C25.619 103.301 29.2239 97.8238 27.5906 93.2292C25.9572 88.6345 19.704 86.662 13.6237 88.8235C7.54334 90.985 3.93838 96.462 5.57176 101.057C7.20514 105.651 13.4583 107.624 19.5387 105.462Z" fill="#FFA500"/>
<path opacity="0.6" d="M97.3602 81.6327C91.4802 83.7754 84.5666 81.9478 81.9134 77.5614C79.2601 73.175 81.8756 67.8811 87.7555 65.7384C91.0128 64.5707 94.5718 64.5551 97.8391 65.6943C99.2172 70.3199 100.154 75.0657 100.637 79.868C99.6383 80.6152 98.5339 81.2099 97.3602 81.6327Z" fill="#FFA500"/>
<path d="M34.1739 85.4392C35.031 89.1197 31.1929 86.1324 27.5124 86.9832C23.8319 87.834 21.7018 92.2078 20.8446 88.5273C20.4953 86.7823 20.8393 84.9699 21.8037 83.4743C22.7682 81.9787 24.2773 80.9176 26.0109 80.5159C27.7446 80.1143 29.5666 80.4037 31.0905 81.3227C32.6144 82.2418 33.7203 83.7183 34.1739 85.4392Z" fill="#263238"/>
<path d="M84.3082 68.2782C86.4195 71.4293 81.7873 69.9924 78.6362 72.1036C75.4851 74.2149 75.0754 79.0361 72.9642 75.9291C72.0102 74.4244 71.6806 72.607 72.0454 70.8631C72.4102 69.1192 73.4406 67.5863 74.9177 66.5901C76.3947 65.5939 78.2021 65.213 79.9556 65.5282C81.7091 65.8434 83.2706 66.8299 84.3082 68.2782Z" fill="#263238"/>
<path d="M40.8796 93.7267C42.9215 88.5273 48.1713 91.5902 56.6982 89.3781C65.0487 87.2101 68.0422 81.0402 71.7606 85.351C74.8613 88.9496 73.8025 100.004 60.0195 104.529C48.228 108.405 39.0582 98.3525 40.8796 93.7267Z" fill="#37474F"/>
<path d="M56.6918 89.3907C51.1521 90.8277 46.999 90.021 44.2134 90.7457L45.5873 94.4136C45.5873 94.4136 49.085 95.756 55.841 94.1804C63.9394 92.2898 68.1178 87.9097 68.1178 87.9097L67.6703 84.1284C65.1305 85.0233 61.992 87.9979 56.6918 89.3907Z" fill="#FAFAFA"/>
<path d="M44.1883 98.8441C43.6365 99.0979 43.098 99.3797 42.575 99.6886C44.638 102.182 47.4164 103.981 50.535 104.845C53.6535 105.708 56.9619 105.593 60.0133 104.516C61.8833 103.916 63.6786 103.104 65.3639 102.096C62.5188 99.5786 59.0092 97.9333 55.2542 97.3567C51.4993 96.78 47.6577 97.2964 44.1883 98.8441Z" fill="#FFA8A7"/>
<path d="M21.771 87.7206C21.5492 88.2749 21.2637 88.8015 20.9202 89.2898C20.4274 89.8458 19.7611 90.2189 19.0296 90.3486C18.2725 90.4937 17.4937 90.4808 16.7418 90.3108C16.6662 90.3108 16.5591 90.3108 16.5591 90.3738C16.561 90.3903 16.5665 90.4062 16.5752 90.4204C16.5839 90.4346 16.5956 90.4466 16.6095 90.4558C16.9653 90.791 17.3982 91.0335 17.87 91.1616C18.3241 91.2802 18.7941 91.327 19.2627 91.3003C19.7624 91.2844 20.2544 91.1732 20.7123 90.9725C21.3065 90.7141 21.8218 90.3032 22.2059 89.7814C22.5685 89.3065 22.8438 88.7709 23.0189 88.1996C23.2332 87.5 22.0988 87.0904 21.771 87.7206Z" fill="#263238"/>
<path d="M21.8847 86.372C21.468 86.7971 21.0027 87.1715 20.4982 87.4875C19.8372 87.8175 19.0824 87.9088 18.3617 87.7459C17.6057 87.5923 16.8906 87.2809 16.2631 86.832C16.2001 86.7879 16.0992 86.7501 16.074 86.832C16.0663 86.8466 16.0623 86.8628 16.0623 86.8793C16.0623 86.8958 16.0663 86.912 16.074 86.9266C16.2815 87.3754 16.5951 87.7669 16.9878 88.0673C17.3683 88.3579 17.7942 88.5837 18.2483 88.7353C18.7142 88.9151 19.2112 89.0008 19.7104 88.9874C20.3586 88.9799 20.9934 88.8017 21.5507 88.4706C22.0696 88.173 22.5289 87.782 22.9057 87.3173C23.3279 86.7312 22.433 85.9182 21.8847 86.372Z" fill="#263238"/>
<path d="M23.2333 85.1682C22.691 85.4138 22.1221 85.5957 21.538 85.7102C20.8034 85.778 20.0677 85.5935 19.452 85.1871C18.8059 84.7655 18.2526 84.2165 17.826 83.5738C17.7819 83.5107 17.6999 83.4414 17.6495 83.4981C17.6418 83.5115 17.6377 83.5267 17.6377 83.5422C17.6377 83.5577 17.6418 83.5729 17.6495 83.5863C17.6761 84.0796 17.8255 84.5584 18.0844 84.9791C18.3294 85.3812 18.638 85.7409 18.9982 86.0442C19.367 86.3765 19.7944 86.6372 20.2586 86.8131C20.8637 87.0316 21.515 87.0902 22.1493 86.9833C22.7407 86.8933 23.3108 86.6969 23.832 86.4035C24.4938 86.019 23.9266 84.9413 23.2333 85.1682Z" fill="#263238"/>
<path d="M83.6403 68.4483C84.2066 68.6321 84.7925 68.7485 85.3861 68.7949C86.1227 68.7731 86.8307 68.5045 87.3965 68.0323C87.9927 67.5418 88.48 66.9322 88.8271 66.2425C88.8649 66.1732 88.9342 66.0975 88.9972 66.1417C89.0095 66.172 89.0095 66.2059 88.9972 66.2362C89.0251 66.7287 88.9298 67.2204 88.7199 67.6668C88.522 68.0939 88.2584 68.4874 87.9385 68.8327C87.6083 69.2073 87.2079 69.5135 86.7599 69.7339C86.177 70.0343 85.5238 70.1715 84.8693 70.131C84.2736 70.1045 83.6871 69.9744 83.1361 69.7465C82.5248 69.4377 82.9471 68.3033 83.6403 68.4483Z" fill="#263238"/>
<path d="M82.5312 67.6731C83.125 67.6247 83.7109 67.5062 84.2769 67.3202C84.9486 67.0172 85.4975 66.495 85.8336 65.8392C86.1934 65.1575 86.408 64.4085 86.4638 63.6397C86.4638 63.5641 86.5016 63.4632 86.5773 63.4884C86.6529 63.5137 86.6277 63.5263 86.6403 63.5578C86.8549 64.0009 86.9566 64.4902 86.9365 64.9821C86.9188 65.4535 86.8274 65.9192 86.6655 66.3623C86.5001 66.8246 86.2501 67.252 85.9281 67.6227C85.5074 68.1164 84.964 68.4903 84.3526 68.7067C83.7926 68.9174 83.1989 69.0241 82.6005 69.0218C81.8821 69.0155 81.8443 67.8055 82.5312 67.6731Z" fill="#263238"/>
<path d="M80.7288 67.9631C81.2652 67.7024 81.7688 67.3787 82.2287 66.9988C82.7454 66.4758 83.0716 65.7945 83.1551 65.064C83.2437 64.2978 83.1751 63.5215 82.9535 62.7826C82.9535 62.707 82.9534 62.5999 83.0039 62.5936C83.0198 62.5951 83.0352 62.5998 83.0493 62.6073C83.0634 62.6149 83.0758 62.6252 83.0858 62.6377C83.4476 62.9732 83.7205 63.3933 83.8799 63.8603C84.0317 64.3071 84.1125 64.775 84.1194 65.2468C84.1391 65.7463 84.0621 66.245 83.8925 66.7152C83.6783 67.3262 83.3066 67.8697 82.8148 68.2908C82.3677 68.6892 81.8506 69.0012 81.2897 69.2109C80.5838 69.4441 80.1237 68.3349 80.7288 67.9631Z" fill="#263238"/>
</svg>
