<svg width="17" height="17" viewBox="0 0 17 17" fill="none" xmlns="http://www.w3.org/2000/svg">
<path d="M5.1709 5.08265C5.10098 5.01297 5.0455 4.93018 5.00765 4.83902C4.96979 4.74785 4.95031 4.65011 4.95031 4.5514C4.95031 4.45269 4.96979 4.35495 5.00765 4.26379C5.0455 4.17262 5.10098 4.08983 5.1709 4.02015L7.7959 1.39515C7.86558 1.32523 7.94837 1.26975 8.03953 1.2319C8.1307 1.19405 8.22844 1.17456 8.32715 1.17456C8.42586 1.17456 8.5236 1.19405 8.61476 1.2319C8.70593 1.26975 8.78872 1.32523 8.8584 1.39515L11.4834 4.02015C11.5533 4.08983 11.6088 4.17262 11.6467 4.26379C11.6845 4.35495 11.704 4.45269 11.704 4.5514C11.704 4.65011 11.6845 4.74785 11.6467 4.83902C11.6088 4.93018 11.5533 5.01297 11.4834 5.08265C11.3419 5.22235 11.151 5.30068 10.9521 5.30068C10.7533 5.30068 10.5624 5.22235 10.4209 5.08265L9.07715 3.7389V8.9264C9.07715 9.12531 8.99813 9.31608 8.85748 9.45673C8.71683 9.59738 8.52606 9.6764 8.32715 9.6764C8.12824 9.6764 7.93747 9.59738 7.79682 9.45673C7.65617 9.31608 7.57715 9.12531 7.57715 8.9264V3.7389L6.2334 5.08265C6.16372 5.15257 6.08093 5.20805 5.98976 5.2459C5.8986 5.28376 5.80086 5.30324 5.70215 5.30324C5.60344 5.30324 5.5057 5.28376 5.41453 5.2459C5.32337 5.20805 5.24058 5.15257 5.1709 5.08265ZM12.8271 6.4264H11.3271C11.1282 6.4264 10.9375 6.50542 10.7968 6.64607C10.6562 6.78672 10.5771 6.97749 10.5771 7.1764C10.5771 7.37531 10.6562 7.56608 10.7968 7.70673C10.9375 7.84738 11.1282 7.9264 11.3271 7.9264H12.5771V13.6764H4.07715V7.9264H5.32715C5.52606 7.9264 5.71683 7.84738 5.85748 7.70673C5.99813 7.56608 6.07715 7.37531 6.07715 7.1764C6.07715 6.97749 5.99813 6.78672 5.85748 6.64607C5.71683 6.50542 5.52606 6.4264 5.32715 6.4264H3.82715C3.49613 6.42804 3.17915 6.56027 2.94508 6.79433C2.71101 7.0284 2.57879 7.34539 2.57715 7.6764V13.9264C2.57879 14.2574 2.71101 14.5744 2.94508 14.8085C3.17915 15.0425 3.49613 15.1748 3.82715 15.1764H12.8271C13.1582 15.1748 13.4752 15.0425 13.7092 14.8085C13.9433 14.5744 14.0755 14.2574 14.0771 13.9264V7.6764C14.0755 7.34539 13.9433 7.0284 13.7092 6.79433C13.4752 6.56027 13.1582 6.42804 12.8271 6.4264Z" fill="#64748B"/>
</svg>
