<svg width="15" height="15" viewBox="0 0 15 15" fill="none" xmlns="http://www.w3.org/2000/svg">
<path fill-rule="evenodd" clip-rule="evenodd" d="M6.50423 0.5C3.28257 0.5 0.670898 3.11167 0.670898 6.33333C0.670898 9.55499 3.28257 12.1667 6.50423 12.1667C7.81451 12.1667 9.02389 11.7347 9.99771 11.0053L13.415 14.4227C13.7405 14.7481 14.2681 14.7481 14.5935 14.4227C14.919 14.0972 14.919 13.5696 14.5935 13.2441L11.1762 9.82681C11.9056 8.85299 12.3376 7.64361 12.3376 6.33333C12.3376 3.11167 9.72589 0.5 6.50423 0.5ZM2.33757 6.33333C2.33757 4.03215 4.20304 2.16667 6.50423 2.16667C8.80542 2.16667 10.6709 4.03215 10.6709 6.33333C10.6709 8.63452 8.80542 10.5 6.50423 10.5C4.20304 10.5 2.33757 8.63452 2.33757 6.33333Z" fill="#64748B"/>
</svg>
